<?xml version="1.0" encoding="UTF-8"?><svg xmlns="http://www.w3.org/2000/svg" viewBox="0 0 139.11 88.43"><defs><style>.d{fill:#eb2227;}.e{fill:#fff;}.f{fill:#214497;}</style></defs><g id="a"/><g id="b"><g id="c"><g><path class="f" d="M1.34,80.39H0v7.85H1.34v-7.85Z"/><path class="f" d="M2.96,80.39h1.43l3.63,5.84v-5.84h1.24v7.85h-1.43l-3.54-5.74v5.74h-1.34v-7.85Z"/><path class="f" d="M10.23,80.39h6.31v1.24h-2.49v6.6h-1.43v-6.6h-2.39v-1.24Z"/><path class="f" d="M17.4,80.39h5.64v1.24h-4.21v2.01h3.92v1.15h-3.92v2.3h4.3v1.15h-5.74v-7.85Z"/><path class="f" d="M24.28,80.39h3.73c.86,0,1.53,.19,1.91,.57,.38,.38,.67,.86,.67,1.53,0,.38-.1,.67-.19,.96-.1,.29-.19,.48-.38,.57-.19,.19-.29,.29-.48,.29-.09,.1-.29,.1-.29,.1,.09,0,.29,.1,.38,.1,.1,.1,.29,.19,.38,.29,.1,.1,.19,.29,.29,.48,.1,.19,.1,.48,.1,.77,0,.48,0,.86,.1,1.24,.1,.38,.19,.67,.29,.77h-1.43c-.09-.19-.19-.38-.19-.57v-.57c0-.38,0-.67-.1-.96,0-.29-.1-.48-.29-.67-.1-.19-.29-.29-.48-.38-.19-.1-.48-.1-.76-.1h-1.82v3.25h-1.34v-7.66h-.1Zm1.43,3.64h2.2c.48,0,.77-.1,.96-.29,.19-.19,.38-.48,.38-.96,0-.29,0-.48-.1-.57-.1-.19-.19-.29-.29-.38-.1-.1-.29-.19-.48-.19h-2.68v2.39Z"/><path class="f" d="M31.93,80.39h1.53l3.54,5.84v-5.84h1.34v7.85h-1.43l-3.63-5.74v5.74h-1.34v-7.85Z"/><path class="f" d="M41.97,80.39h1.43l2.96,7.85h-1.43l-.76-2.11h-3.16l-.77,2.11h-1.43l3.15-7.85Zm-.48,4.79h2.39l-1.15-3.35-1.24,3.35Z"/><path class="f" d="M45.51,80.39h6.31v1.24h-2.48v6.6h-1.34v-6.6h-2.49v-1.24Z"/><path class="f" d="M54.02,80.39h-1.34v7.85h1.34v-7.85Z"/><path class="f" d="M59.08,80.2c.57,0,1.15,.1,1.53,.29,.48,.19,.86,.48,1.15,.86,.29,.38,.57,.77,.76,1.34,.19,.48,.29,1.05,.29,1.53,0,.57-.1,1.05-.29,1.63-.19,.48-.38,.96-.76,1.34-.29,.38-.67,.67-1.15,.86-.48,.19-.96,.29-1.53,.29s-1.15-.1-1.53-.29c-.48-.19-.86-.48-1.15-.86-.29-.38-.57-.77-.76-1.34-.19-.48-.29-1.05-.29-1.63s.09-1.05,.29-1.53c.19-.48,.38-.96,.76-1.34,.29-.38,.67-.67,1.15-.86,.38-.1,.96-.29,1.53-.29Zm0,1.15c-.38,0-.76,.1-1.05,.29-.29,.19-.57,.38-.77,.67-.19,.29-.29,.57-.38,.96-.09,.38-.09,.77-.09,1.05,0,.38,0,.77,.09,1.05,.1,.38,.19,.67,.38,.96,.19,.29,.48,.48,.77,.67s.67,.29,1.05,.29,.76-.1,1.05-.29c.29-.19,.57-.38,.76-.67,.19-.29,.29-.57,.38-.96,.1-.38,.1-.77,.1-1.05,0-.38,0-.77-.1-1.05-.1-.38-.19-.67-.38-.96-.19-.29-.48-.48-.76-.67-.29-.19-.67-.29-1.05-.29Z"/><path class="f" d="M64.06,80.39h1.43l3.54,5.84v-5.84h1.34v7.85h-1.43l-3.63-5.74v5.74h-1.24v-7.85Z"/><path class="f" d="M74.09,80.39h1.43l2.96,7.85h-1.43l-.77-2.11h-3.16l-.76,2.11h-1.43l3.15-7.85Zm-.48,4.79h2.39l-1.15-3.35-1.24,3.35Z"/><path class="f" d="M79.26,80.39h1.34v6.7h4.02v1.15h-5.35v-7.85Z"/><path class="f" d="M94.65,82.88c-.1-.19-.1-.48-.29-.67-.1-.19-.19-.38-.38-.48-.19-.1-.38-.29-.57-.29-.19-.1-.48-.1-.77-.1-.38,0-.77,.1-1.05,.29-.29,.19-.57,.38-.77,.67-.19,.29-.29,.57-.38,.96-.1,.38-.1,.77-.1,1.05s0,.77,.1,1.05c.1,.38,.19,.67,.38,.96,.19,.29,.48,.48,.77,.67s.67,.29,1.05,.29c.29,0,.57-.1,.77-.19,.19-.1,.48-.29,.57-.48,.19-.19,.29-.38,.38-.67,.09-.29,.19-.48,.19-.77h1.34c0,.48-.1,.86-.29,1.24-.19,.38-.38,.77-.67,.96-.29,.29-.67,.48-1.05,.67-.38,.19-.86,.19-1.34,.19-.57,0-1.15-.1-1.53-.29-.48-.19-.86-.48-1.15-.86-.29-.38-.57-.77-.77-1.34-.19-.48-.29-1.05-.29-1.63s.1-1.05,.29-1.53c.19-.48,.38-.96,.77-1.34,.29-.38,.67-.67,1.15-.86,.48-.19,.96-.29,1.53-.29,.48,0,.86,.1,1.24,.19,.38,.1,.77,.29,1.05,.48,.29,.19,.57,.48,.67,.86,.19,.29,.29,.67,.38,1.15h-1.24v.1Z"/><path class="f" d="M100.58,80.2c.57,0,1.15,.1,1.53,.29,.48,.19,.86,.48,1.15,.86,.29,.38,.57,.77,.77,1.34,.19,.48,.29,1.05,.29,1.53,0,.57-.1,1.05-.29,1.63-.19,.48-.38,.96-.77,1.34-.29,.38-.67,.67-1.15,.86-.48,.19-.96,.29-1.53,.29s-1.15-.1-1.53-.29c-.48-.19-.86-.48-1.15-.86s-.57-.77-.77-1.34c-.19-.48-.29-1.05-.29-1.63s.1-1.05,.29-1.53,.38-.96,.77-1.34c.29-.38,.67-.67,1.15-.86,.48-.1,.96-.29,1.53-.29Zm0,1.15c-.38,0-.77,.1-1.05,.29-.29,.19-.57,.38-.76,.67-.19,.29-.29,.57-.38,.96-.1,.38-.09,.77-.09,1.05,0,.38,0,.77,.09,1.05,.1,.38,.19,.67,.38,.96,.19,.29,.48,.48,.76,.67,.29,.19,.67,.29,1.05,.29s.77-.1,1.05-.29,.57-.38,.77-.67c.19-.29,.29-.57,.38-.96,.1-.38,.1-.77,.1-1.05,0-.38,0-.77-.1-1.05-.1-.38-.19-.67-.38-.96-.19-.29-.48-.48-.77-.67-.29-.19-.57-.29-1.05-.29Z"/><path class="f" d="M105.64,80.39h1.34v6.7h3.92v1.15h-5.26v-7.85Z"/><path class="f" d="M111.86,80.39h1.43v6.7h3.92v1.15h-5.35v-7.85Z"/><path class="f" d="M118.17,80.39h5.64v1.24h-4.3v2.01h3.92v1.15h-3.92v2.3h4.4v1.15h-5.74v-7.85Z"/><path class="f" d="M131.84,88.24h-.86l-.19-.96c-.38,.38-.77,.67-1.05,.86-.38,.19-.76,.29-1.24,.29-.57,0-1.15-.1-1.53-.29-.48-.19-.86-.48-1.15-.86-.29-.38-.57-.77-.77-1.34-.19-.48-.29-1.05-.29-1.63s.1-1.05,.29-1.53c.19-.48,.38-.96,.77-1.34,.29-.38,.67-.67,1.15-.86,.48-.19,.96-.29,1.53-.29,.38,0,.86,.1,1.24,.19,.38,.1,.76,.29,1.05,.48s.57,.48,.77,.86c.19,.38,.29,.77,.38,1.15h-1.34c0-.29-.1-.48-.19-.67-.1-.19-.29-.38-.48-.48-.19-.1-.38-.19-.57-.29-.19-.1-.48-.1-.67-.1-.38,0-.76,.1-1.05,.29-.29,.19-.57,.38-.76,.67-.19,.29-.29,.57-.38,.96s-.1,.77-.1,1.05c0,.38,0,.77,.1,1.05,.1,.38,.19,.67,.38,.96,.19,.29,.48,.48,.76,.67,.29,.19,.67,.29,1.05,.29s.67,0,.96-.1c.29-.1,.48-.29,.67-.38,.19-.19,.29-.38,.38-.67,.1-.29,.19-.57,.19-.86h-2.1v-1.05h3.35v3.92h-.29Z"/><path class="f" d="M133.37,80.39h5.64v1.24h-4.3v2.01h3.92v1.15h-3.92v2.3h4.4v1.15h-5.74v-7.85Z"/><path class="d" d="M20.08,64.79h5.45c1.05,0,1.82,.19,2.39,.67,.57,.48,.96,1.15,.96,2.11,0,.57-.1,1.05-.38,1.44s-.67,.77-1.15,.96c.67,.19,1.24,.48,1.53,.96,.38,.48,.57,1.15,.57,1.91,0,.48-.1,.86-.19,1.24-.19,.38-.38,.67-.77,.96-.38,.29-.77,.48-1.34,.67-.48,.19-1.15,.29-1.91,.29h-5.16v-11.2Zm2.01,4.69h3.25c.48,0,.86-.1,1.15-.38,.29-.29,.48-.67,.48-1.15,0-.57-.1-.96-.38-1.24-.29-.19-.67-.38-1.24-.38h-3.25v3.16Zm0,4.98h3.44c.57,0,1.05-.19,1.43-.48,.29-.29,.48-.77,.48-1.34s-.19-.96-.48-1.24c-.29-.29-.76-.48-1.43-.48h-3.44v3.54Z"/><path class="d" d="M33.17,64.79h-2.01v11.29h2.01v-11.29Z"/><path class="d" d="M35.57,64.79h5.35c1.24,0,2.2,.29,2.77,.77,.57,.57,.96,1.24,.96,2.2,0,.57-.1,.96-.19,1.34-.19,.38-.38,.67-.57,.86-.19,.19-.38,.38-.67,.48-.19,.1-.38,.19-.48,.19,.19,0,.38,.1,.57,.19,.19,.1,.38,.19,.57,.38,.19,.19,.29,.38,.38,.67,.1,.29,.19,.67,.19,1.15,0,.67,.09,1.24,.19,1.82,.1,.57,.29,.96,.48,1.15h-2.1c-.19-.29-.19-.48-.29-.77v-.86c0-.48,0-.96-.1-1.34-.09-.38-.19-.67-.38-.96-.19-.29-.38-.38-.67-.57-.29-.1-.67-.19-1.15-.19h-2.87v4.59h-2.01v-11.1Zm2.01,5.07h3.25c.67,0,1.15-.19,1.43-.48,.29-.29,.48-.77,.48-1.34,0-.38-.1-.67-.19-.86-.1-.19-.29-.38-.48-.57-.19-.1-.38-.19-.67-.29-.19,0-.48-.1-.76-.1h-3.15v3.64h.09Z"/><path class="d" d="M49.72,64.79h2.1l4.3,11.29h-2.1l-1.05-2.97h-4.49l-1.05,2.97h-2.01l4.3-11.29Zm-.77,6.79h3.44l-1.72-4.88-1.72,4.88Z"/><path class="d" d="M54.69,64.79h9.08v1.72h-3.54v9.47h-2.01v-9.47h-3.54v-1.72Z"/><path class="d" d="M65.01,64.79h2.1l5.07,8.23h.1v-8.23h1.82v11.2h-2.01l-5.16-8.23h-.1v8.23h-1.82v-11.2Z"/><path class="d" d="M79.45,64.79h2.1l4.3,11.29h-2.1l-1.05-2.97h-4.49l-1.05,2.97h-2.01l4.3-11.29Zm-.67,6.79h3.44l-1.72-4.88-1.72,4.88Z"/><path class="d" d="M96.75,75.99h-1.24l-.29-1.34c-.48,.57-1.05,1.05-1.53,1.24-.48,.19-1.15,.38-1.82,.38-.86,0-1.62-.19-2.29-.48-.67-.29-1.24-.77-1.72-1.24-.48-.57-.86-1.15-1.05-1.91-.29-.67-.38-1.44-.38-2.3,0-.77,.09-1.53,.38-2.3,.29-.67,.57-1.34,1.05-1.91,.48-.57,1.05-.96,1.72-1.24,.67-.29,1.43-.48,2.29-.48,.57,0,1.15,.1,1.72,.29s1.05,.38,1.43,.77c.48,.29,.76,.77,1.05,1.24,.29,.48,.48,1.05,.57,1.63h-1.91c-.09-.38-.19-.67-.38-.96-.19-.29-.38-.48-.67-.67-.29-.19-.57-.29-.86-.38-.29-.1-.67-.1-1.05-.1-.57,0-1.15,.1-1.53,.38-.48,.29-.77,.57-1.05,.96s-.48,.86-.57,1.34c-.1,.48-.19,1.05-.19,1.53,0,.57,.1,1.05,.19,1.53,.1,.48,.29,.96,.57,1.34,.29,.38,.67,.77,1.05,.96,.48,.29,.96,.38,1.53,.38,.48,0,.96-.1,1.34-.19,.38-.1,.77-.38,.96-.57,.29-.29,.48-.57,.57-.96,.09-.38,.19-.86,.19-1.34h-2.96v-1.53h4.78v5.93h.1Z"/><path class="d" d="M101.92,64.79h2.1l4.3,11.29h-2.1l-1.05-2.97h-4.49l-1.05,2.97h-2.01l4.3-11.29Zm-.67,6.79h3.44l-1.72-4.88-1.72,4.88Z"/><path class="d" d="M109.47,64.79h5.35c1.24,0,2.2,.29,2.77,.77,.57,.57,.96,1.24,.96,2.2,0,.57-.1,.96-.19,1.34-.19,.38-.38,.67-.57,.86s-.38,.38-.67,.48c-.19,.1-.38,.19-.48,.19,.19,0,.38,.1,.57,.19,.19,.1,.38,.19,.57,.38s.29,.38,.38,.67c.1,.29,.19,.67,.19,1.15,0,.67,.09,1.24,.19,1.82,.09,.57,.29,.96,.48,1.15h-2.1c-.19-.29-.19-.48-.29-.77v-.86c0-.48,0-.96-.1-1.34-.1-.38-.19-.67-.38-.96-.19-.29-.38-.38-.67-.57-.29-.1-.67-.19-1.15-.19h-2.87v4.59h-2.01v-11.1Zm1.91,5.07h3.25c.67,0,1.15-.19,1.43-.48,.29-.29,.48-.77,.48-1.34,0-.38-.1-.67-.19-.86-.1-.19-.29-.38-.48-.57-.19-.1-.38-.19-.67-.29-.19,0-.48-.1-.77-.1h-3.15v3.64h.09Z"/><path class="e" d="M90.54,2.49c-2.39,2.2-7.08,2.87-11.85,1.34-2.68-.86-4.97-1.72-6.5-2.97V23.35h18.36V2.49Z"/><path class="e" d="M48.47,2.58V23.35h18.36V.67c-1.62,1.34-3.92,2.2-6.69,3.06-4.59,1.53-9.18,.96-11.66-1.15Z"/><path class="e" d="M90.54,29h-18.36v26.41c5.16-1.72,18.36-6.89,18.36-13.88v-12.54Z"/><path class="e" d="M48.57,41.54c0,6.89,13,11.96,18.26,13.78V29h-18.36c0,4.59,.1,12.54,.1,12.54Z"/><path class="d" d="M91.02,1.82c-2.58,2.3-7.46,2.97-12.43,1.34-2.87-.86-5.26-1.82-6.88-3.16V23.83h19.31V1.82Zm-5.16,14.26l-1.15,.86-.29-.67,1.43-.19Zm-1.72-.1l-.57-.57,1.24-.77-.67,1.34Zm-5.93-8.71c.19,1.15,1.05,2.11,2.2,2.58v-.48l-.67-.38,.76-.29-.48-.67h.77l-.19-.77,.67,.38,.19-.77,.48,.67,.48-.57,.19,.77,.77-.29-.19,.77h.77l-.48,.48,.67,.38-.76,.29v.48c1.24-.38,2.1-1.34,2.29-2.49v.19c0,2.39-1.72,4.02-3.82,4.02s-3.73-1.72-3.73-4.12q.1-.1,.1-.19Zm5.16,6.41l-.19,1.44-.67-.29,.86-1.15Zm-1.24,1.05h-.76l.38-1.44,.38,1.44Zm-1.24,.1l-.67,.29-.19-1.44,.86,1.15Zm-1.05,.57l-.57,.57-.77-1.24,1.34,.67Zm-.76,.86l-.29,.67-1.15-.86,1.43,.19Zm-.38,1.15v.77l-1.43-.38,1.43-.38Zm.09,1.24l.29,.67-1.43,.19,1.15-.86Zm-.29,2.3l.77-1.24,.57,.57-1.34,.67Zm1.53,1.05l.19-1.44,.67,.29-.86,1.15Zm1.62,.29l-.38-1.44h.77l-.38,1.44Zm.86-1.53l.67-.29,.19,1.44-.86-1.15Zm-.76-.48c-1.34,0-2.49-1.15-2.49-2.49s1.15-2.49,2.49-2.49,2.49,1.15,2.49,2.49c0,1.44-1.15,2.49-2.49,2.49Zm1.82,0l.57-.57,.77,1.24-1.34-.67Zm.77-.96l.29-.67,1.15,.86-1.43-.19Zm.38-1.15v-.77l1.43,.38-1.43,.38Z"/><path class="f" d="M54.78,18.66c-.1-.1-.19-.19-.38-.19s-.38-.1-.57,0c0,0-.09,0-.09-.1v-.19s0-.1-.1-.1h-.1q-.09,0-.09-.1c0-.19-.1-.38-.19-.57-.09-.1-.19-.19-.29-.29-.19-.1-.38-.1-.57-.1-.1,0-.19,.1-.29,.19-.19,.1-.19,.29-.29,.48,0,.19,0,.29,.1,.48,.1,.1,.1,.29,.19,.38l.1,.1,.1,.1c.1,.1,.19,.1,.29,.19h.19c.1,0,.19,.1,.19,.19s.1,.19,.19,.29c.1,.1,.19,.1,.19,.19l.1,.1c.29,.1,.57,.1,.86,0,.19-.1,.29-.19,.38-.29,.1-.19,.1-.29,.1-.48,.19,0,.1-.1,0-.29Z"/><path class="f" d="M55.55,15.03c0-.1,.1-.1,.1-.19-.1,.19-.19,.29-.1,.19Z"/><path class="f" d="M55.74,14.83l.1-.1q-.1,0-.1,.1Z"/><path class="f" d="M60.33,3.35c-4.88,1.53-9.75,.96-12.33-1.24V23.93h19.31V.1c-1.62,1.34-4.11,2.3-6.98,3.25Zm3.63,6.22c-.1,.1-.19,.29-.29,.29h-.1c-.19-.19-.48-.38-.67-.57-.1,0-.1-.1-.19-.1h-.1c0,.1-.1,.1-.1,.1,0,0-.09,.1-.09,.19l.09,.1c.1,.1,.29,.19,.38,.29v.1l-.1,.1c-.1,.1-.1,.19-.19,.19v.1l.1,.1c.1,.1,.19,.1,.19,.19v.1c-.1,.19-.29,.29-.38,.48h-.09c-.1-.1-.19-.1-.19-.19h-.09l-.1,.1-.1,.1-.1,.1h-.1c-.1-.1-.29-.19-.38-.29h-.1c-.1,.1-.1,.19-.19,.19q.1,.1,.19,.19c.19,.19,.38,.29,.57,.48v.1c-.1,.1-.19,.19-.19,.29h-.1c-.38-.29-.77-.57-1.15-.86-.19-.1-.38-.29-.57-.38h-.09l-.1,.1c-.19,.19-.38,.48-.57,.67-.38,.57-.86,1.05-1.24,1.63-.48,.57-.96,1.15-1.34,1.72-.38,.48,.48-.57,.1-.1-.19,.19-.29,.38-.48,.57v.1l.09,.1c.1,0,.1,.1,0,.19,0,.1-.09,.1-.19,.1h-.1s-.09,0-.09-.1l.09,.1,.1,.1v.1c0,.1-.1,.19-.19,.1l-.1-.1v.1q0,.1,.1,.19v.19c0,.1-.1,.1-.1,.19-.1,0-.1,.1-.19,.1s-.19,.1-.29,.1c0,0-.09,0-.09,.1-.1,.1-.1,.19-.19,.19,0,.1,.1,.1,.1,.19,.19,.19,.29,.48,.38,.67,.1,.29,.19,.67,.1,1.05,0,.19-.1,.38-.19,.57-.1,.1-.19,.19-.29,.29-.1,.1-.29,.19-.48,.29-.19,.1-.48,.19-.77,.19h-.48c-.1,0-.29,0-.38-.1-.1,0-.19-.1-.29-.1-.19-.1-.29-.1-.48-.19-.19-.1-.38-.29-.57-.48-.09-.1-.09-.19-.19-.29-.19-.19-.29-.48-.38-.77-.1-.19-.1-.38-.1-.57,0-.29,0-.57,.19-.77,.1-.1,.1-.19,.19-.29l.1-.1c.1-.1,.19-.19,.29-.19,.19-.1,.38-.19,.67-.29,.29-.1,.48-.1,.77,0,.19,0,.38,.1,.57,.1,.1,0,.19,.1,.29,.1,.1-.1,.1-.19,.19-.29v-.29c0-.1,0-.19,.09-.38,0,0,0-.1,.1-.1q.09-.1,.19-.1h.19s-.1-.1,0-.19c0-.1,.1-.1,.19-.1h.1l.1,.1s-.1,0-.1-.1c-.1-.1-.1-.19,0-.29h.1s.09,0,.09,.1v-.1c.1-.1,.19-.19,.19-.29l.1-.1v-.1c.19-.29,.38-.57,.67-.86,.1-.19,.29-.29,.38-.48,.29-.29,.48-.67,.76-.96,.1-.19,.29-.29,.38-.48,.29-.29,.48-.67,.77-.96,.09-.19,.29-.29,.38-.48,.29-.29,.48-.67,.77-.96,.19-.29,.38-.57,.67-.86,.19-.29,.38-.48,.57-.77,.19-.19,.29-.38,.48-.57,0,0,.1-.1,.1,0,.09,0,.19,.1,.29,.19,.1,.1,.29,.29,.38,.38v.1l-.1,.1c-.1,.19-.29,.38-.38,.48v.1l.1,.1c.29,.19,.57,.48,.86,.67,.77-.19,1.05,0,1.34,.29q0-.1,0,0c0-.1,0,0,0,0Z"/><path class="f" d="M91.02,28.33h-19.31v27.75c5.45-1.82,19.31-7.27,19.31-14.55v-13.21Zm-6.88,15.03l-5.26-1.53c0,.19-.19,.19-.19,.19-.38,0-.38-.38-.38-.38l-4.21-1.24-.19-.86c2.96,.29,4.59,1.91,4.59,1.91,.1,.1,.19,0,.19,0,2.1-1.24,4.88,.77,4.88,.77l.57,1.15Zm.38-.1l-.67-1.24,3.16-5.93,.86,.96-3.35,6.22Zm-.96-1.44c-2.2-1.44-3.82-1.05-3.82-1.05,1.63-.57,3.35,.19,3.35,.19l2.87-5.36,.76,.19-3.15,6.03Zm2.39-6.99l-3.06,5.65s-2.01-.86-3.73,.1l2.87-5.26c0,.1,1.91-.57,3.92-.48Zm-3.35,0s-.48,.1-.67,.29c0,0-.77-.57-2.01-.96-.1,0,2.68,.67,2.68,.67Zm-4.59-1.15l.86,.19c-.1,0-.86-.1-.86-.19Zm-.76,.38c2.77,.1,4.4,1.34,4.4,1.34l-3.16,5.65c-2.1-1.82-4.68-1.82-4.68-1.82l3.44-5.17Zm-3.92,7.37v-.19l4.68,1.44v.1l-4.68-1.34Zm11.95,3.64l-6.21-1.91s-.38,.57-.67,0c0,0,.29,.1,.57-.19l6.12,1.91,3.35-6.41-3.15,6.6Zm-.29-.57l-6.12-1.91s-.19,.29-.38,.29c-.09,0-.19-.38-.19-.48l-5.07-1.63,.48-.77,.1,.48,4.21,1.24s.38,.77,.96,.29l5.55,1.63,3.63-6.89-.67-.77,1.63,.48-4.11,8.04Z"/><path class="d" d="M47.99,28.33c0,4.79,.1,13.3,.1,13.3,0,7.27,13.67,12.63,19.22,14.45V28.33h-19.31Zm10.52,16.94c-3.54,0-6.5-2.87-6.5-6.51s2.87-6.51,6.5-6.51,6.5,2.87,6.5,6.51-2.96,6.51-6.5,6.51Z"/><path class="d" d="M58.13,35.41l-.09-.1h-.1v.1h.1v.19h.29v-.1h-.19v-.1Z"/><path class="d" d="M57.84,35.51h.09v-.1l-.09,.1Z"/><path class="d" d="M58.42,34.84h-.1v.1h-.1v.1h.1l-.1,.1h.1v.1h-.1v.1h-.1v.1h.29v-.1h.1v-.19h.09v-.1l.1-.1v-.1h-.29Z"/><path class="d" d="M57.84,35.6h-.1v0h-.1v.19h.1l.1-.1-.1-.1h.1Z"/><path class="d" d="M58.7,33.5l-.1-.1v.19h.1l.1-.1h-.1Z"/><path class="d" d="M58.22,36.75v-.1h-.1v-.1l-.09-.1-.1,.1v.19h.1v-.1h.09v.1h.1Z"/><path class="d" d="M58.42,35.79v-.1h-.1v.1h.1Z"/><path class="d" d="M57.55,35.7v-.1h.1l-.1-.1h-.1v0h-.19l.1-.1h-.19v.1h-.09v.1l.09,.1h-.19v.1h.1v.1h.29v.1h.1v-.1l.1,.1v-.1h-.1v-.19h.1Z"/><path class="d" d="M58.51,33.4v.1h.09v-.1h-.09Z"/><path class="d" d="M58.32,36.85h-.1v.1l.1-.1Z"/><path class="d" d="M57.94,35.22l.1,.1h.09v-.1h-.19Z"/><path class="d" d="M59.47,38.28v-.1h-.19l.1,.1h.1Z"/><path class="d" d="M59.47,38.57h-.1l.1,.1v-.1Z"/><path class="d" d="M57.27,35.22h-.1l-.09,.1h-.1v.19h.1l.09-.1h.1v-.19Z"/><path class="d" d="M58.99,41.73l.1-.1h.1v0h-.1v-.1h-.38v.1h.1l-.1,.1h.29Z"/><path class="d" d="M58.42,41.54h.1v-.1h-.19v-.1h-.19v-.1h-.29v-.1h-.19l-.1,.1h.29v.1h.29v.1h.1l.1,.1h.1Z"/><path class="d" d="M59.37,41.63v.1h.1v-.1h-.1Z"/><path class="d" d="M57.65,35.31v0h-.1v-.19l-.1,.1h-.1v.1h.1v.1h.19v-.1Z"/><path class="d" d="M57.46,35.22v-.1l-.1,.1h.1Z"/><path class="d" d="M57.75,35.03h0v0Z"/><path class="d" d="M57.36,35.12v0h.19v-.1h-.1l-.1,.1Z"/><path class="d" d="M57.27,33.59h.1v-.1h0l-.1,.1Z"/><path class="d" d="M58.7,34.84v.19l-.1,.1h.1l-.1,.1-.09,.1h.09v.1h.1v.1l.1-.1h.09l.1,.1,.1,.1v.1h.1v.19l.1-.1v.1h0v.1l.1,.1v-.1h.1v.1h-.1v.19h.1v.1h.09v.1l.1,.1,.1,.1,.09,.1,.1,.1,.1-.1,.1,.1,.1-.1-.1-.1v-.29l-.1-.1v-.1l.1-.1v-.29h.1v-.29h-.1l-.1-.1h.19l-.1-.1h-.1v-.1h0l-.1-.1v0l-.1-.1h-.19v-.1h0v-.1h-.1l-.09-.1v-.1h-.1v-.1l-.1,.1v0h-.1v0h-.29v.19h-.19Z"/><path class="d" d="M57.75,35.31v.1l.09,.1v-.1h.1v-.1h-.19Z"/><path class="d" d="M56.5,34.17v-.1l-.09,.1h.09Z"/><path class="d" d="M57.46,33.5h.19v-.1h-.19v.1Z"/><path class="d" d="M58.13,35.12v.1h.1v-.1h0v-.19l-.1,.1v.1Z"/><path class="d" d="M57.84,35.12h.09v.1h.1v-.1l-.1,.1v-.19h-.09l.09,.1h-.09Z"/><path class="d" d="M55.36,33.4h-.1v.1l.1-.1Z"/><path class="d" d="M55.64,34.55v0h0Z"/><path class="d" d="M58.51,36.37v-.1h-.1v.1h.1Z"/><path class="d" d="M60.14,38.38v-.1h-.1l.1-.1h-.1v-.1h-.1v.1l-.1-.1v-.19h-.09v.29l-.1,.1h0v.1h.48Z"/><path class="d" d="M59.28,33.78h-.1v.1l.1-.1v0Z"/><path class="d" d="M60.04,42.4v-.1h-.1v.1h.1Z"/><path class="d" d="M58.89,36.46l.1,.1v-.1h.1v-.1l-.1-.1h-.1l-.09-.1v-.19h-.1l-.1-.1h-.09v-.1h-.19v-.1h-.1l-.1,.1v-.1h-.09v.1l-.1,.1h.1v.1l.09,.1h.29l.1,.1h0v.1h.09v.1l-.09,.1,.09,.1h-.29v.1h.29l.1,.1v.1h.19v.1h.1v-.1h-.1v-.1h.19l-.1-.1v-.1h-.1v-.1Z"/><path class="d" d="M60.04,33.5l-.1,.1h-.19v-.1h-.29l.09,.1h.57v-.1h-.1Z"/><path class="d" d="M60.04,34.36l-.1-.1h0v-.1h-.19v.1h-.1v-.1h-.1v.1h.1v.1h.38Z"/><path class="d" d="M63.58,35.6h0v0Z"/><path class="d" d="M63.67,35.51v.1h0v-.1Z"/><path class="d" d="M63.48,36.27v-.1h-.09v.1h.09Z"/><path class="d" d="M55.36,36.56h-.1v.1l-.09,.1h.09v-.19h.1Z"/><path class="d" d="M55.36,37.13h-.1v-.1h-.09l.09,.1v.29h.1v-.1l-.1-.1,.1-.1Z"/><path class="d" d="M55.07,35.51h.1v-.1h-.1v.1Z"/><path class="d" d="M61.95,34.74v.1h0v-.1Z"/><path class="d" d="M57.65,41.34h.1l-.1-.1v.1Z"/><path class="d" d="M63.67,35.98h-.1v.19l.1-.1v-.1Z"/><path class="d" d="M63.58,35.03h-.1v0h.1v0Z"/><path class="d" d="M63.29,36.08h-.1v0h.1v0Z"/><path class="d" d="M58.7,39.24h-.1v.1l.1-.1h0Z"/><path class="d" d="M60.61,35.7h-.09v.1l.09,.1v0h.29v-.29h-.1l-.09-.1v.19h0v.1l-.1-.1Z"/><path class="d" d="M58.32,40.87l-.1-.1v.1h.1Z"/><path class="d" d="M58.22,40.96h-.1l.1,.1h0v-.1Z"/><path class="d" d="M58.42,40.96h-.1l.1,.1v-.1Z"/><path class="d" d="M62.43,36.18v-.1l-.1-.19v-.1h-.38l-.1-.1h-.1v0l-.1-.1v.19h.1v0l.1,.1v0l.1,.1v0h.1v-.1h.1v.19h.09v.1h.1v.19l.1-.1v-.1Z"/><path class="d" d="M52.58,37.61h-.09v.1l.09-.1Z"/><path class="d" d="M54.59,34.93v.1h.1v-.1h-.1Z"/><path class="d" d="M52.49,37.8l.09,.1v-.1h-.09Z"/><path class="d" d="M63.39,38.66v.1h0v-.1Z"/><path class="d" d="M62.14,36.18l-.1-.1-.1-.1-.1,.1,.1,.1v.1h.1l.1,.1h0v-.19Z"/><path class="d" d="M62.62,42.88v0l-.1-.1h-.76v0h-.29v.1h-.1v-.29h-.1v-.19h-1.34v-.1h-.86v.19h-.29v.1h-.38v-.29h-.48v-.57h-.48v.1h-.57v-1.05h.29v-.1h.67v-.77h.29v-.48h.1v-.1h.29v.1h.09v.1h-.19v-.29h-.1l.86-.86h-.19v.1h-.1v-.19h.1v-.1h.67v-.19h-.48v-.38h-.1v-.19h-.19v.38h-.29v.38h-.09v-.48h-.29l-.1-.1h-.09v-.1h-.38v-.48h.19v-.19h.1v-.1l.1-.1h.38v-.1h-.1v-.19h-.19v.29h-.09v-.29l-.1,.1v-.1h.1v-.19h-.19v.57h-.09v-.1h.09v-.19h-.09v.19h-.19v-.19h-.38v-.19h-.19v-.19h-.29v-.19h-.48v0h-.48v.19h-.19v.96l.1-.1v-.29h-.1v2.97l.1,.1v.38h.1v-.57l.1,.1v.77h.09v.19l.1,.1h.1l.09,.1h.67v.1h1.05v.1h.1v.29h-.38v.19h.77c.48,0,.96-.1,1.43-.19h1.63v-.19h.09v-.1l1.05,1.91Zm-4.49-3.83l-.09,.1h-.1l.19-.1Zm.1-.1h.19v.1h-.19v-.1Zm-.38-.29h.29v.19h-.09v.1h-.1v-.38l-.1,.1-.09,.1v.1h-.1v-.1h0l.19-.1Zm-.57-.19l.19-.1h.29v.1h.09v.1h-.29v-.1h-.29Zm-.57-1.63h0Zm.19,1.05l-.09-.1v-.19h.09v.29Zm.1-.29v0Zm-.1-.38l.1-.1v.1h-.1Zm-.29-1.34l-.1-.1,.1,.1h0l.1,.1h.1l-.19-.1v.1h0v-.1l-.1,.1h-.1l.19-.1Zm-.1,.57h0Z"/><path class="d" d="M63.96,35.41q-.1-.1,0,0l-.1-.1v-.19c-.29-.48-.67-.96-1.15-1.34h-.1c-.1-.1-.29-.19-.38-.29h-.09c-.96-.48-2.01-.86-3.16-.86h-.1c-.77,0-1.53,.19-2.29,.48h-.1v-.1h2.3l.09,.1h.19v-.1h.67l.09,.1v.38h.19v.29h.1v-.1l-.19-.38v-.29l4.02,2.39v.29l.1,.1v3.73l.1-.19v-.29c.76-1.53,.38-2.68-.19-3.64Zm-2.58-1.34h0Zm.19,.1h0Zm1.15,.29l-.1-.1v-.1h.1v.19Zm.48,.48h0Zm1.62,2.97v0Z"/></g></g></g></svg>