<svg width="75" height="55" viewBox="0 0 75 55" fill="none" xmlns="http://www.w3.org/2000/svg">
<path d="M16.5613 0.437012H67.3277C71.1519 0.437012 74.2113 3.59523 74.2113 7.42339V35.1775C74.2113 39.0057 71.1519 42.1639 67.3277 42.1639H16.5613C12.7371 42.1639 9.67773 39.0057 9.67773 35.1775V7.42339C9.67773 3.49953 12.7371 0.437012 16.5613 0.437012Z" fill="#78C043"/>
<path d="M11.5897 16.898H17.7085V19.3863C19.7162 17.3765 21.7239 16.5151 24.4008 16.5151C28.6075 16.5151 31.0932 19.0992 31.0932 24.0758V36.5173H24.8789V24.9371C24.8789 22.2574 24.114 20.9175 22.1063 20.9175C20.1942 20.9175 18.7601 22.1617 17.7085 23.98V36.5173H11.5897V16.898Z" fill="white"/>
<path d="M3.94134 8.76318C6.04465 8.76318 7.57433 10.3902 7.57433 12.3999C7.57433 14.5054 5.94905 16.0367 3.94134 16.0367C1.83802 16.0367 0.30835 14.4097 0.30835 12.3999C0.30835 10.3902 1.83802 8.76318 3.94134 8.76318Z" fill="#78C043"/>
<path d="M7.47874 16.8022H0.30835V36.613H7.47874V16.8022Z" fill="#78C043"/>
<path d="M51.1704 15.4624C51.1704 15.0796 50.8836 14.8882 50.5012 14.8882C50.3099 14.8882 50.2143 14.8882 50.1187 14.8882V15.9409H50.5012C50.9792 16.0366 51.1704 15.7495 51.1704 15.4624ZM51.4572 16.8023C51.5528 17.1851 51.6484 17.4722 51.6484 17.5679H51.266C51.266 17.4722 51.1704 17.2808 51.0748 16.898C50.9792 16.5152 50.788 16.3238 50.5012 16.3238H50.1187V17.5679H49.8319V14.6968C50.0231 14.6968 50.3099 14.6011 50.5967 14.6011C50.9792 14.6011 51.266 14.6968 51.4572 14.8882C51.5528 14.9839 51.6484 15.1753 51.6484 15.4624C51.6484 15.8452 51.3616 16.1324 51.0748 16.2281C51.266 16.2281 51.3616 16.4195 51.4572 16.8023ZM52.5088 14.9839C52.3176 14.6011 52.0308 14.4097 51.6484 14.2183C51.266 14.0269 50.9792 13.9312 50.5967 13.9312C50.2143 13.9312 49.8319 14.0269 49.5451 14.2183C49.1627 14.4097 48.9714 14.6968 48.6846 14.9839C48.4934 15.3667 48.3978 15.6538 48.3978 16.0366C48.3978 16.4195 48.4934 16.8023 48.6846 17.0894C48.8758 17.4722 49.1626 17.6636 49.4495 17.855C49.8319 18.0464 50.1187 18.1421 50.5012 18.1421C50.8836 18.1421 51.266 18.0464 51.5528 17.855C51.9352 17.6636 52.1264 17.3765 52.3176 17.0894C52.5088 16.7066 52.6045 16.4195 52.6045 16.0366C52.7957 15.6538 52.7001 15.3667 52.5088 14.9839ZM50.5967 13.4526C51.0748 13.4526 51.4572 13.5483 51.8396 13.8355C52.222 14.0269 52.6044 14.4097 52.7956 14.7925C52.9869 15.1753 53.1781 15.6538 53.1781 16.1324C53.1781 16.6109 53.0825 16.9937 52.7956 17.4722C52.6044 17.855 52.222 18.2378 51.8396 18.4292C51.4572 18.6206 50.9792 18.8121 50.5012 18.8121C50.0231 18.8121 49.6407 18.7164 49.1627 18.4292C48.7802 18.2378 48.3978 17.855 48.2066 17.4722C48.0154 17.0894 47.8242 16.6109 47.8242 16.1324C47.8242 15.6538 47.9198 15.271 48.2066 14.7925C48.3978 14.4097 48.7802 14.0269 49.1627 13.8355C49.7363 13.5483 50.2143 13.4526 50.5967 13.4526Z" fill="white"/>
<path d="M44.5736 33.8376C40.845 33.3591 39.2197 33.5505 39.2197 32.2106C39.2197 30.6794 40.9406 31.0622 43.6175 30.6794C47.7285 29.9137 49.9274 27.904 49.9274 24.3629C49.9274 23.0231 49.6406 21.9703 48.9714 21.0133C48.9714 21.0133 47.4417 18.9078 44.1911 17.9507L40.1758 20.7262C40.1758 20.7262 43.0439 20.6304 44 22.7359C44.956 24.8414 43.7131 27.4254 40.5581 27.3297C37.4032 27.234 37.0208 23.8844 37.5944 22.2574C38.2636 20.5347 40.3669 18.4292 44.6692 16.9937L45.5296 17.9507L46.2945 14.0269L41.9922 12.687L42.6615 13.8355C42.6615 13.8355 33.7702 16.3238 31.9537 21.109C31.5713 22.2574 31.5713 23.5016 31.5713 23.9801C31.8581 27.234 33.2922 28.861 36.8296 29.9137C34.6307 30.3922 33.4834 31.445 33.4834 32.8806C33.4834 34.029 34.2482 34.7946 35.7779 35.2732C32.3361 36.1345 30.6152 37.8572 30.6152 40.1541C30.6152 40.824 30.7108 41.3982 30.9976 41.8767H38.2637C37.0208 41.4939 36.3515 40.824 36.3515 39.7712C36.3515 38.3357 37.9768 37.57 41.0362 37.57C43.9999 37.57 45.5296 38.4314 45.5296 39.8669C45.5296 40.824 44.8604 41.5896 43.5219 41.9724H50.6923C51.0748 41.2068 51.1704 40.4412 51.1704 39.4841C50.9792 36.4216 48.7802 34.4118 44.5736 33.8376Z" fill="white"/>
<path d="M23.5404 50.49C23.5404 48.863 22.2019 47.6188 20.6722 47.6188C19.0469 47.6188 17.8041 48.863 17.7085 50.49C17.7085 52.1169 19.0469 53.4568 20.5766 53.4568C22.2975 53.3611 23.5404 52.0212 23.5404 50.49ZM20.6722 54.4138C19.0469 54.4138 17.2304 53.3611 16.7524 51.5427C16.0832 49.2458 17.5173 46.9489 19.9074 46.5661C21.1503 46.3747 22.2019 46.5661 23.1579 47.3317C24.4008 48.2888 24.9744 49.6286 24.592 51.2556C24.3052 52.8826 23.158 53.8396 21.6283 54.2224C21.3415 54.3181 20.959 54.3181 20.6722 54.4138Z" fill="white"/>
<path d="M25.5481 46.6618C26.1217 46.5661 26.5998 46.6618 26.9822 47.1403C28.3206 48.7673 29.6592 50.3942 31.0932 52.0212C31.1889 52.1169 31.2844 52.3083 31.4756 52.404C31.5712 51.7341 31.5713 51.1599 31.5713 50.4899C31.5713 49.82 31.5713 49.2458 31.5713 48.5758V46.6618H32.6229V54.2224C32.3361 54.2224 32.0493 54.2224 31.7624 54.2224C31.6668 54.2224 31.4756 54.031 31.4756 53.9353C30.3284 52.5954 29.2767 51.2556 28.1294 50.0114C27.747 49.6286 27.4602 49.1501 27.0778 48.7673C26.9822 48.6716 26.8866 48.5759 26.6954 48.4802V51.3513V54.2224H25.6437V46.6618H25.5481Z" fill="white"/>
<path d="M65.4156 52.4043V46.6621H66.4673V54.2227C66.1805 54.2227 65.8936 54.2227 65.6068 54.2227C65.5112 54.2227 65.32 54.0313 65.2244 53.9356C63.8859 52.4044 62.643 50.8731 61.3046 49.3418C61.0177 49.0547 60.8265 48.7676 60.4441 48.4805V54.2227H59.3925V46.6621C59.6793 46.6621 59.9661 46.6621 60.1573 46.6621C60.2529 46.6621 60.4441 46.8535 60.5397 46.9492C61.5914 48.1934 62.643 49.4375 63.6947 50.6817C64.0771 51.1602 64.5551 51.6387 64.9375 52.1172C65.0332 52.213 65.1288 52.3086 65.1288 52.4043C65.32 52.4043 65.4156 52.4043 65.4156 52.4043Z" fill="white"/>
<path d="M73.064 51.5429H71.7255V50.4902H74.2112C74.3069 51.5429 74.2112 52.5956 74.2112 53.6484C73.6376 53.9355 72.9684 54.1269 72.2991 54.2226C71.1519 54.414 70.0046 54.2226 69.0485 53.5527C67.8057 52.6914 67.0409 51.1601 67.4233 49.5331C67.7101 47.9062 69.0486 46.7577 70.6738 46.4706C71.8211 46.2792 72.8728 46.4706 73.8288 46.8534C74.02 46.9491 74.2113 47.0448 74.1157 47.3319C74.1157 47.6191 74.1157 47.8105 74.1157 48.1933C73.8289 48.0976 73.6376 48.0019 73.4464 47.9062C72.586 47.5233 71.6299 47.3319 70.6738 47.5233C69.2398 47.8105 68.3793 49.0546 68.4749 50.5859C68.5705 51.9257 69.6222 52.9785 70.9606 53.1699C71.7255 53.2656 72.3947 53.1699 73.064 52.8828V51.5429Z" fill="white"/>
<path d="M38.3593 46.6621H39.4109C39.4109 46.8535 39.4109 46.9492 39.4109 47.1406C39.4109 48.3848 39.4109 49.7246 39.4109 50.9688C39.4109 51.1602 39.4109 51.2559 39.4109 51.4473C39.4109 52.4043 39.8889 52.9786 40.845 53.17C41.4186 53.3614 41.8966 53.2657 42.4703 53.17C43.3307 52.8829 43.8088 52.3087 43.8088 51.3516C43.8088 49.9161 43.8088 48.4805 43.8088 47.1406V46.6621H44.8604C44.8604 46.8535 44.8604 46.9492 44.8604 47.1406C44.8604 48.5762 44.8604 49.9161 44.8604 51.3516C44.956 53.3614 43.4263 54.3184 41.9922 54.4141C41.4186 54.4141 40.845 54.4141 40.2714 54.2227C39.6977 54.0313 39.2197 53.7442 38.8373 53.2657C38.5505 52.8829 38.3593 52.5001 38.3593 52.1172C38.3593 51.7344 38.2637 51.3516 38.2637 50.9688C38.2637 49.7246 38.2637 48.4805 38.2637 47.2363V46.6621H38.3593Z" fill="white"/>
<path d="M16.0832 47.1404V48.2889C15.7964 48.1932 15.6052 48.0975 15.414 48.0018C14.5536 47.619 13.5975 47.4275 12.6414 47.7147C11.2073 48.0018 10.3469 49.2459 10.4425 50.7772C10.5381 52.117 11.5898 53.1698 12.9283 53.3612C13.8843 53.5526 14.8404 53.2655 15.7008 52.787C15.7964 52.6913 15.9876 52.5956 16.0832 52.5956C16.0832 52.5956 16.0832 52.5956 16.1788 52.5956V53.744C15.6052 54.1268 14.936 54.3182 14.3624 54.4139C13.2151 54.6053 12.1634 54.5096 11.2073 53.8397C9.86887 52.9784 9.19964 51.8299 9.29524 50.203C9.39085 48.7674 10.1557 47.7147 11.4942 47.0447C12.8327 46.2791 14.7448 46.3748 16.0832 47.1404Z" fill="white"/>
<path d="M37.3077 48.1933C37.1165 48.0976 37.0209 48.0019 36.8296 47.9062C36.4472 47.7147 36.0648 47.5233 35.6824 47.4276C35.2999 47.4276 35.0131 47.4276 34.7263 47.619C34.3439 47.9062 34.2483 48.3847 34.5351 48.7675C34.8219 49.0546 35.1087 49.246 35.3956 49.5331C35.6824 49.7245 36.0648 49.9159 36.4472 50.2031C36.734 50.3945 36.9252 50.5859 37.1164 50.7773C37.6901 51.4472 37.7856 52.2128 37.4988 53.0742C37.212 53.8398 36.5428 54.2226 35.6824 54.3183C34.9175 54.414 34.2483 54.2226 33.579 53.8398C33.3878 53.7441 33.2922 53.5527 33.2922 53.3613C33.2922 52.9785 33.2922 52.6914 33.2922 52.2128C33.4834 52.4042 33.5791 52.5 33.7703 52.5957C34.2483 53.0742 34.8219 53.2656 35.4911 53.2656C35.9692 53.2656 36.3516 52.9785 36.5428 52.5957C36.6384 52.2128 36.5428 51.7343 36.1604 51.4472C35.8736 51.2558 35.5867 51.0644 35.2999 50.873C34.9175 50.5859 34.4395 50.2988 34.0571 50.0116C33.3878 49.5331 33.1966 48.7675 33.3878 48.0019C33.579 47.2362 34.1527 46.7577 34.9175 46.5663C35.6824 46.3749 36.3516 46.5663 37.0208 46.8534C37.212 46.9491 37.3077 47.0448 37.3077 47.3319C37.3077 47.6191 37.3077 47.9062 37.3077 48.1933Z" fill="white"/>
<path d="M56.6198 46.6621V47.6191H53.8473V54.2227H52.7956V47.6191H50.0231V46.6621H56.6198Z" fill="white"/>
<path d="M46.1989 54.2227V46.6621C46.2945 46.6621 46.3901 46.6621 46.3901 46.6621C46.6769 46.6621 46.8681 46.6621 47.2505 46.6621C47.2505 48.8633 47.2505 51.0645 47.2505 53.2657C48.4934 53.2657 49.6406 53.2657 50.8835 53.2657V54.127C50.5011 54.3184 46.6769 54.3184 46.1989 54.2227Z" fill="white"/>
<path d="M58.2451 46.6621H57.1935V54.2227H58.2451V46.6621Z" fill="white"/>
</svg>
