<?xml version="1.0" encoding="UTF-8"?><svg id="Layer_2" xmlns="http://www.w3.org/2000/svg" viewBox="0 0 2809.29 2833.3"><defs><style>.cls-1{fill:#fff;}.cls-2,.cls-3{fill:#bdcd31;}.cls-3{fill-rule:evenodd;}</style></defs><g id="Layer_1-2"><g><path class="cls-2" d="M348.36,2309.61c18.74,107.61,102.34,188.41,185.81,179.58l880.14-93.47c83.46-8.88,113.44,51.14,66.61,133.39l-128.7,226.13c-46.79,82.23-30.9,102.85,35.35,45.81l566.27-487.43c66.28-57.01,185.27-125.92,264.5-153.15l363.45-124.88c79.23-27.2,118.24-135.1,86.75-239.79l-430.12-1460.68c-31.51-104.66-127.08-200.8-212.38-213.62L1241.82,3.52c-85.31-12.82-215.76,10.48-289.87,51.79L167.15,492.75c-74.09,41.3-119.41,163.16-100.67,270.77l281.89,1546.08Z"/><path class="cls-3" d="M2767.6,1731.45c-1.86,47.32-3.25,94.66-5.75,141.98-1.52,29.03-6.11,57.94-12.77,86.65-13.54,58.34-55.9,98.65-105.92,129.63-55.79,34.57-111.7,70.26-174.24,93.8-13.54,5.1-25.45,13.11-39.15,24.18,20.39,7,37.64,1.12,53.84-2.31,76.43-16.22,148.23-42.41,213.47-87.32,66.02-45.45,103.23-102.71,110.47-177.3,5.69-58.72-3.37-115.4-14.84-171.83-2.92-14.43-10.48-27.1-25.1-37.48Z"/><path class="cls-3" d="M6.52,1020.7c-10.61,30.31-5.34,53.95-4.28,77.16,5.48,123.41,31.07,243.68,57.9,363.72,10.27,45.95,20.18,91.99,31.76,137.62,10.37,40.84,29.85,78.15,58.13,112.96-1.26-11.74-.63-24.02-4.05-35.16-34.63-112.61-48.39-229.18-68.4-344.58-14.93-86.02-28.13-172.39-49.94-257.09-4.15-16.23-4.97-33.9-21.13-54.62Z"/></g><g><g><path class="cls-1" d="M940.9,648.4c-2.43-.35-4.24-.54-5.45-.54s-1.48,.19-.78,.54c1.73,.73,2.6,1.44,2.6,2.16s.69,.73,2.08,0c1.38,0,2.08,.54,2.08,1.62,0,1.44,.34,1.44,1.04,0,.69-.72,2.25-.99,4.67-.81,2.42,.19,7.27,1,14.53,2.43,2.08,.36,3.63,.81,4.67,1.35,1.04,.54,.86,1-.52,1.35-1.39,0-2.6,.19-3.63,.54-1.74,0-2.6-.35-2.6-1.08,0-.35-1.13-.54-3.37-.54h-7.79c-2.94,0-5.71,.19-8.31,.54-2.6,.36-4.07,.73-4.41,1.08-.7,.36-.44,.81,.78,1.35,1.21,.54,2.77,1,4.67,1.35,1.9,.36,3.8,.63,5.71,.81,1.9,.19,3.37,.09,4.41-.27,2.08-.35,3.11-.18,3.11,.54,0,1.08,.34,1.27,1.04,.54,.69-1.08,2.77-1.71,6.23-1.89,3.46-.18,5.19,.09,5.19,.81,0,2.16-3.11,3.24-9.34,3.24-1.39,0-2.85,.09-4.41,.27-1.56,.19-2.68,.63-3.37,1.35-2.08,1.08-3.29,1.08-3.63,0-.7-1.44-1.3-2.07-1.82-1.89-.52,.19-.78,1.17-.78,2.97,0,2.16,1.04,3.24,3.11,3.24h2.6l-2.6,1.08-8.82,3.79c-.35,0-2.6,1.27-6.75,3.79-2.77,1.81-4.4,3.07-4.92,3.79-.52,.73-.43,2.53,.25,5.41,.34,2.16,.6,4.24,.77,6.22,.17,1.99,.34,4.33,.52,7.03,.17,2.7,.17,6.13,0,10.27-.18,4.15-.26,9.29-.26,15.41-.35,6.13-.61,12.71-.78,19.74-.18,7.03-.26,12.53-.26,16.49s-.08,9.73-.24,17.3c-.16,7.57-.55,14.96-1.17,22.17-.62,7.21-1.01,16.04-1.17,26.5-.16,10.46-.08,19.65,.24,27.58,0,6.13,.07,11.27,.24,15.41,.15,4.15,.24,7.66,.24,10.54s-.08,5.32-.24,7.3c-.16,1.99-.4,3.88-.71,5.68,0,1.08-.47,1.62-1.4,1.62-.32,0-.47-.72-.47-2.16,1.04-1.8,.86-2.34-.52-1.62-1.04,.73-1.56,3.43-1.56,8.11,0,5.05,.69,6.31,2.08,3.79,1.38-1.8,2.25-1.98,2.6-.54v3.79c-.35,.36-.52,4.24-.52,11.63s.17,16.14,.52,26.23v27.58c0,8.3-.18,13.34-.52,15.14-.35,3.25-.61,6.76-.78,10.54-.18,3.79-.35,7.48-.52,11.09-.18,3.6-.26,6.84-.26,9.73v5.95c.69,7.21-.35,10.82-3.11,10.82-2.43,0-2.43,.72,0,2.16,1.38,1.08,2.16,2.52,2.34,4.33,.17,1.8,.26,5.76,.26,11.9v13.52l18.17,.54c6.92,.36,12.02,.72,15.31,1.08,3.28,.35,5.97,1.08,8.05,2.16,3.46,1.8,5.19,2.88,5.19,3.24-.35,0-1.56,.08-3.63,.27-2.08,.18-4.5,.45-7.27,.81-3.11,0-5.71,.18-7.79,.54-2.08,.36-3.11,.9-3.11,1.62-.35,1.08-1.22,1.62-2.6,1.62s-2.08-.54-2.08-1.62c0-.73-1.22-1.08-3.63-1.08-2.08,0-2.94,.72-2.6,2.16,1.04,1.8,1.73,1.98,2.08,.54,1.04-1.44,1.56-1.08,1.56,1.08s-.7,3.25-2.08,3.25c-1.04,0-2.25,.72-3.63,2.16-.7,1.44-.35,2.34,1.04,2.7h3.63c.69,0,1.04,.18,1.04,.54,0,.72,1.47,1.08,4.41,1.08s5.27-.36,7.01-1.08c1.73-.73,2.51-1.45,2.34-2.16-.18-.73-1.13-1.08-2.85-1.08-2.08,0-3.29-.73-3.63-2.16-.35-1.45,1.38-2.16,5.19-2.16,2.08,.35,3.71,.27,4.93-.27,1.21-.54,2.34-1.17,3.37-1.89,2.08-2.16,3.8-2.7,5.19-1.62,2.08,1.08,.69,2.34-4.15,3.79-2.08,0-2.94,1.62-2.6,4.87,.34,3.24-.87,5.04-3.63,5.41-1.04,.35-2.08,.72-3.11,1.08-1.04,.36-1.56,.72-1.56,1.08-.7,1.08-1.91,1.62-3.63,1.62-1.39,0-2.77,.72-4.15,2.16-1.04,1.8-.87,3.24,.52,4.33,1.73,1.44,2.08,2.34,1.04,2.7l-4.15,1.62c-.7,0-.78,.08-.26,.27,.52,.18,1.3,.27,2.34,.27h4.15l-3.63,3.24c-1.74,1.8-3.63,2.88-5.71,3.24-2.08,.36-6.58,.9-13.5,1.62-14.53,1.08-25.61,3.06-33.22,5.95-1.74,.72-3.98,1.35-6.75,1.89-2.77,.54-5.37,.99-7.79,1.35-3.46,.35-5.71,.45-6.75,.27-1.04-.19-1.91-1-2.6-2.43-1.04-2.16-2.43-4.15-4.15-5.95-1.74-1.81-3.46-3.07-5.19-3.79-1.39-.73-1.91-1.62-1.56-2.7,.69-1.81,.52-2.7-.52-2.7-1.39,0-1.74-.36-1.04-1.08,.69-1.45,.69-1.81,0-1.08-1.04,0-2.77-.46-5.19-1.35-2.43-.9-4.33-1.89-5.71-2.97-1.74-1.44-2.68-2.89-2.85-4.33-.18-1.45,.6-2.16,2.34-2.16,1.38,0,2.08-1.45,2.08-4.33,0-2.53-.87-3.61-2.6-3.24-1.39,.35-1.91-.36-1.56-2.16,.34-1.44,2.42-3.24,6.23-5.41,3.8-2.16,7.09-3.43,9.86-3.79,2.42,0,5.53-.54,9.34-1.62,3.8-1.08,5.53-2.35,5.19-3.79-.35-1.45,0-1.62,1.04-.54,1.73,1.44,2.85,1.71,3.37,.81,.52-.9,.78-3.7,.78-8.38,0-6.49-.35-9.73-1.04-9.73-1.04,0-.87-.36,.52-1.08,1.04-1.08,1.38-2.16,1.04-3.24-1.04-1.08-1.91-1.27-2.6-.54-.7,0-1.04-.36-1.04-1.08-.35-.73,.17-1.08,1.56-1.08,.69,.72,1.21,.35,1.56-1.08,.34-1.45,.69-4.33,1.04-8.65,0-7.21-.52-10.64-1.56-10.27-.7,.35-1.48-.19-2.34-1.62-.87-1.45-.96-2.53-.26-3.24,0-.36,.08-.46,.26-.27,.17,.18,.26,.63,.26,1.35,0,1.08,.69,1.62,2.08,1.62,1.04,0,1.82-3.24,2.34-9.73s.43-13.52-.26-21.09c0-5.77,.34-8.65,1.04-8.65s1.04-2.34,1.04-7.03c-.35-1.8-.44-4.6-.26-8.38,.17-3.79,.43-7.3,.78-10.54,1.04-8.65,.86-13.16-.52-13.52-1.04-1.08-1.04-2.7,0-4.87,1.04-1.8,1.47-4.33,1.3-7.57-.18-3.24-.78-5.76-1.82-7.57-1.39-2.16-1.39-2.52,0-1.08,.34,.36,.69,.27,1.04-.27,.34-.54,.6-1.98,.78-4.33,.17-2.34,.26-6.13,.26-11.36v-32.45c0-4.87,.08-9.91,.26-15.14,.17-5.22,.34-10.09,.52-14.6,.17-4.5,.26-7.66,.26-9.46,.34-3.6-.87-5.22-3.63-4.87-.35,0-.52-.72-.52-2.16,.69-1.44,1.56-2.16,2.6-2.16s1.56-5.04,1.56-15.14-.52-15.68-1.56-15.68c-.35,0-.87-1.44-1.56-4.33,0-2.88,.52-4.14,1.56-3.79,1.04,1.08,1.21,2.16,.52,3.24-.35,1.08-.18,1.99,.52,2.7,.69,.36,1.12-1.44,1.3-5.41,.17-3.96,.08-9.37-.26-16.22,0-6.13,.08-11.36,.26-15.68,.17-4.33,.26-6.84,.26-7.57,.69-.72,.52-1.08-.52-1.08-.7,0-1.39,1.62-2.08,4.87,0,1.44-.09,1.08-.26-1.08-.18-2.16-.09-5.41,.26-9.73v-31.36c0-10.45,.51-16.58,1.54-18.39,1.02-1.08,1.54-2.16,1.54-3.24s-1.12-1.53-3.36-1.35c-2.24,.19-6.82,1.17-13.74,2.97-10.04,2.89-16.7,3.79-19.99,2.7-3.29-1.08-5.8-5.22-7.53-12.44-1.04-3.96-1.91-6.49-2.6-7.57-.7-1.08-1.74-1.8-3.11-2.16-2.43-.72-3.81-1.8-4.15-3.24l-4.15-5.41c-5.19-5.04-3.97-7.21,3.63-6.49,2.77,.36,4.32,.36,4.67,0,.34-.35,.17-1.08-.52-2.16-1.74-2.16-1.39-3.6,1.04-4.33,2.42-.72,8.13-.72,17.13,0,9,.36,14.45,.27,16.35-.27,1.9-.54,2.85-1.71,2.85-3.52s1.21-2.7,3.63-2.7,5.01-.72,7.78-2.16c3.07-1.08,7.35-1.8,12.83-2.16,5.47-.35,14.71-.54,27.72-.54,14.15,.36,26.24,1.44,36.28,3.24,10.03,1.81,15.05,3.97,15.05,6.49,0,1.08-3.2,1.62-9.6,1.62s-14.1-.35-23.1-1.08Zm-70.08,392.59c-.7-1.81-.52-2.7,.52-2.7,.69,0,1.04,.9,1.04,2.7,0,2.16-.18,3.24-.52,3.24l-1.04-3.24Zm2.08-68.14c0-1.08,.08-1.89,.26-2.43,.17-.54,.26-.45,.26,.27,.34,.73,.52,1.99,.52,3.79-.7,1.45-1.04,.9-1.04-1.62Zm1.04-14.6c0-1.08,.17-1.62,.52-1.62s.86,.54,1.56,1.62c.69,.73,.52,1.08-.52,1.08s-1.56-.36-1.56-1.08Zm1.56-82.74c-.7-2.16-.7-3.24,0-3.24,1.04,0,2.16,.81,3.37,2.43,1.21,1.62,1.47,2.8,.78,3.51-1.04,1.45-2.43,.54-4.15-2.7Zm0,60.56c0-3.24,.52-4.33,1.56-3.24,.69,1.08,.95,2.62,.78,4.6-.18,1.99-.61,2.97-1.3,2.97s-1.04-1.44-1.04-4.33Zm1.04-68.68c0-.72,.69-1.08,2.08-1.08,.69,0,1.04,.36,1.04,1.08,0,1.08-.35,1.62-1.04,1.62-1.39,0-2.08-.54-2.08-1.62Zm11.94,224.42c.69-.73,.69-1.45,0-2.16-.7-.73-2.85-.63-6.49,.27-3.63,.89-5.45,1.71-5.45,2.43s1.82,.99,5.45,.81c3.63-.19,5.79-.63,6.49-1.35Zm-9.86-201.71c.69-.35,.86,.19,.52,1.62-.35,1.08-.7,1.71-1.04,1.89-.35,.19-.52-.27-.52-1.35,0-.72,.34-1.44,1.04-2.16Zm0,28.12c.69,1.81,.69,2.7,0,2.7s-1.04-.9-1.04-2.7c0-.35,.08-.62,.26-.81,.17-.18,.26-.45,.26-.81s.17-.72,.52-1.08v2.7Zm-.52-109.23c0-1.44,.69-1.44,2.08,0,.69,1.45,1.04,2.35,1.04,2.7-1.04,0-1.74-.18-2.08-.54l-1.04-2.16Zm1.04,123.29c0,.73-.09,.9-.26,.54-.18-.36-.26-.9-.26-1.62-.35-1.44-.18-2.16,.52-2.16,.69,.73,.69,1.81,0,3.24Zm1.04-168.18c1.04,0,1.21,.73,.52,2.16-.7,1.44-1.22,2.16-1.56,2.16s-.52-.18-.52-.54v-1.62c0-1.44,.52-2.16,1.56-2.16Zm-.52,87.06c0,.73-.09,.9-.26,.54-.18-.36-.26-1.44-.26-3.25,0-2.52,.17-3.25,.52-2.16,.69,1.45,.69,3.07,0,4.87Zm0-71.92c-.35-1.8-.44-3.06-.26-3.79,.17-.72,.43-.54,.78,.54v7.57c-.35,1.08-.52-.35-.52-4.33Zm1.04,25.42c-.35,.73-.52-.18-.52-2.7-.35-1.44-.44-2.43-.26-2.97,.17-.54,.43-.45,.78,.27v5.41Zm2.08-59.48c.69-1.44,1.04-4.14,1.04-8.11-.35-3.96-.61-5.58-.78-4.87-.18,.73-.61,3.24-1.3,7.57,0,4.33,.34,6.13,1.04,5.41Zm9.34,347.17c.69,0,1.04-.73,1.04-2.16s-.52-2.16-1.56-2.16c-.7,0-1.04,.72-1.04,2.16s.52,2.16,1.56,2.16Zm1.04-65.43c-1.04,0-1.22,.18-.52,.54,1.38,.72,1.73,1.8,1.04,3.25-.35,1.44,.17,1.62,1.56,.54,1.38-1.44,2.08-1.44,2.08,0,0,4.68,.52,7.03,1.56,7.03s1.56-1.44,1.56-4.33,.52-4.69,1.56-5.41c1.04-1.45,1.04-2.16,0-2.16-.7,0-1.39-1.08-2.08-3.25,0-2.53,.52-3.79,1.56-3.79s1.47-.9,1.3-2.7c-.18-1.81-.61-3.07-1.3-3.79-.7-.73-.7-1.81,0-3.25,.69-1.44,.86-2.16,.52-2.16-.7,0-.52-.54,.52-1.62,.69-1.08,1.12-2.08,1.3-2.97,.17-.9-.26-1-1.3-.27-2.08,1.44-2.77-.9-2.08-7.03,.69-2.89,1.56-3.97,2.6-3.24,1.38,.72,2.08-1.08,2.08-5.41,.34-2.88,.26-5.22-.26-7.03-.52-1.8-1.13-1.44-1.82,1.08-.7,2.16-1.04,1.62-1.04-1.62,0-2.52,.69-3.6,2.08-3.25,1.38,.73,2.08,.54,2.08-.54s-.52-1.62-1.56-1.62-1.22-.9-.52-2.7c.69-1.8,.34-3.06-1.04-3.79-.7-.72-.87-1.8-.52-3.25,.34-1.44,.17-1.8-.52-1.08-1.04,.73-1.56,2.35-1.56,4.87s-.44,4.24-1.3,5.14c-.87,.9-1.65,.63-2.34-.81-.7-1.44-.7-.72,0,2.16,.34,2.53,0,3.79-1.04,3.79-1.39,0-1.39,.36,0,1.08,1.04,.73,1.56,1.99,1.56,3.79s-.7,2.7-2.08,2.7-1.74,.54-1.04,1.62c.69,1.08,1.38,1.26,2.08,.54,.69-.73,1.3,.62,1.82,4.05,.52,3.42,.6,6.57,.26,9.46,0,2.16-.7,2.88-2.08,2.16-1.39-.36-2.08,0-2.08,1.08s.34,1.62,1.04,1.62,1.38,1.53,2.08,4.6c.69,3.06,.69,5.31,0,6.76,0,1.44-.52,1.62-1.56,.54-1.04,0-1.56,.35-1.56,1.08,0,1.44-.18,2.7-.52,3.79-.7,1.8-.52,2.34,.52,1.62,.69,0,1.04,.35,1.04,1.08s-.7,1.08-2.08,1.08Zm.52-96.79c-1.39,0-1.56,.54-.52,1.62,.34,1.08,.86,1.62,1.56,1.62v-.54l.52-1.08c0-1.08-.52-1.62-1.56-1.62Zm-1.04,111.94c.34,3.24,.95,5.68,1.82,7.3,.86,1.62,1.64,1.71,2.34,.27,.69-1.45,1.04-1.27,1.04,.54,0,1.44-.35,2.52-1.04,3.24-1.04,.72-1.22,1.8-.52,3.24,.69,1.44,1.56,2.16,2.6,2.16s1.38-1.81,1.04-5.41c-.7-3.97-1.22-5.95-1.56-5.95,0-1.45,.34-2.53,1.04-3.25,.34-2.16,.17-3.43-.52-3.79-1.39-.73-1.74-.73-1.04,0,.69,.72,.6,1.71-.26,2.97-.87,1.26-1.82,1.89-2.85,1.89s-1.22-.73-.52-2.16c.34-1.44,.17-3.07-.52-4.87-.7-.73-1.04,.54-1.04,3.79Zm2.6-51.91c-1.04,0-1.56,.54-1.56,1.62,0,.72,.52,1.08,1.56,1.08s1.56-.36,1.56-1.08c0-1.08-.52-1.62-1.56-1.62Zm2.08-156.28c-2.43,0-3.29,.9-2.6,2.7,0,.73,.08,1.17,.26,1.35,.17,.19,.26,.09,.26-.27,.69-1.44,1.56-1.8,2.6-1.08,1.38,.73,2.08,.36,2.08-1.08,0-1.08-.87-1.62-2.6-1.62Zm25.96,254.16c.69-1.08-.09-1.81-2.34-2.16-2.25-.36-4.24,0-5.97,1.08-1.74,.72-3.72,1.17-5.97,1.35-2.25,.18-3.37-.09-3.37-.81,0-.36-.52-.36-1.56,0-1.74,1.08-3.11,1.26-4.15,.54-1.39-.36-2.6,0-3.63,1.08-1.04,1.08-1.56,2.34-1.56,3.79,0,1.08,.34,.9,1.04-.54,0-1.08,.69-1.62,2.08-1.62,1.04,0,1.21,.36,.52,1.08-.35,.72,.86,1.08,3.63,1.08s4.49-.19,5.19-.54c.34-.36,.95-.63,1.82-.81,.86-.19,3.2-.63,7.01-1.35,4.15-.73,6.57-1.45,7.27-2.16Zm-27.51-197.92c0,.73,.52,1.08,1.56,1.08,.69,0,1.04-.54,1.04-1.62,0-.72-.52-.9-1.56-.54-.35,0-.52,.19-.52,.54s-.18,.54-.52,.54Zm.52,33.53v1.08c0,.73,.52,1.08,1.56,1.08s1.21-.36,.52-1.08c-.7-1.08-1.22-1.62-1.56-1.62l-.52,.54Zm5.71-83.82c.69-1.44,.78-2.25,.26-2.43-.52-.18-1.3,.46-2.34,1.89-1.39,1.44-1.39,2.16,0,2.16s2.08-.54,2.08-1.62Zm-1.56,7.57c0,3.61,.34,4.33,1.04,2.16v-2.43c0-.89-.18-1.71-.52-2.43,0-.72-.09-.89-.26-.54-.18,.36-.26,1.44-.26,3.25Zm1.04,103.29c-1.04,0-1.22,1.62-.52,4.87,.34,6.49,.86,7.03,1.56,1.62,.34-1.8,.52-2.79,.52-2.97s.34,.09,1.04,.81c1.04,1.81,1.38,.9,1.04-2.71,0-3.6-.7-5.04-2.08-4.33-.7,.73-.87,1.27-.52,1.62,0,.73-.35,1.08-1.04,1.08Zm1.04-136.27c-1.04,.73-1.56,1.44-1.56,2.16,0,2.53,.69,2.35,2.08-.54,.69-2.16,.52-2.7-.52-1.62Zm2.6,130.86c0,.73,.34,1.08,1.04,1.08,0-.36,.08-1.35,.26-2.97,.17-1.62,.26-3.52,.26-5.68,0-8.29-1.04-10.82-3.11-7.57-.35,.73-.61,1.98-.78,3.79-.18,1.81-.26,3.51-.26,5.14s.08,2.97,.26,4.06c.17,1.08,.6,1.44,1.3,1.08,.69-.72,1.04-.35,1.04,1.08Zm-1.56-60.02c-.7,2.89-.52,4.33,.52,4.33s1.56,1.99,1.56,5.95c0,3.61,.34,5.41,1.04,5.41s.69-2.52,0-7.57c-.35-5.41-.18-8.29,.52-8.65,.69-.36,.69-1.26,0-2.71-1.74-1.8-2.94-.72-3.63,3.25Zm1.04-8.11c-.7,1.44-.52,2.16,.52,2.16s1.56-.72,1.56-2.16c0-.35-.09-.63-.26-.81-.18-.18-.26-.45-.26-.81v-.54c-.35,0-.87,.73-1.56,2.16Zm2.08,220.09c1.38-.73,1.9-1.27,1.56-1.62-.7-.36-1.56,0-2.6,1.08-1.39,.72-1.04,.9,1.04,.54Zm0-280.66c-1.39,.73-1.74,1.99-1.04,3.79,1.38,3.61,2.42,1.81,3.11-5.41,.34-4.68-.18-5.76-1.56-3.25-1.04,1.81-1.22,2.89-.52,3.25,1.04,.73,1.04,1.27,0,1.62Zm2.08,20.55c.69,0,1.04-.54,1.04-1.62s-.7-1.62-2.08-1.62c-2.08,0-2.6,.54-1.56,1.62,.34,1.08,1.21,1.62,2.6,1.62Zm0,12.98c0-1.08-.52-1.62-1.56-1.62-1.39,0-1.56,.54-.52,1.62,.34,1.08,.86,1.62,1.56,1.62v-.54l.52-1.08Zm-.52-77.87c-1.04,1.08-1.56,3.43-1.56,7.03s.69,5.41,2.08,5.41c.69,0,1.04-2.34,1.04-7.03s-.52-6.49-1.56-5.41Zm0-30.82c-.35,0-.61,1.08-.78,3.24-.18,2.16-.26,4.6-.26,7.3s.08,5.32,.26,7.84c.17,2.53,.43,3.97,.78,4.33,.34,.73,.6,.27,.78-1.35,.17-1.62,.34-3.6,.52-5.95,.17-2.34,.26-4.77,.26-7.3s-.18-4.33-.52-5.41c-.7-2.88-1.04-3.79-1.04-2.7Zm.52,53.53c1.04,0,1.56-1.26,1.56-3.79,0-1.08-.18-1.98-.52-2.7-.35-.72-.7-.9-1.04-.54-1.04,.73-1.56,1.99-1.56,3.79,0,2.16,.52,3.24,1.56,3.24Zm.52,31.37c-.35-.72-.61-.81-.78-.27-.18,.54-.09,1.54,.26,2.97,0,2.16,.17,2.7,.52,1.62,.34-.72,.43-1.44,.26-2.16-.18-.72-.26-1.44-.26-2.16Zm2.08,60.02c-.35,0-.52,.19-.52,.54v2.16c0,1.45,.52,2.16,1.56,2.16s1.21-.72,.52-2.16c-.7-1.8-1.22-2.7-1.56-2.7Zm7.27,117.35c0-.36-.09-.63-.26-.81-.18-.19-.26-.63-.26-1.35-.35-1.44-.87-2.16-1.56-2.16-.35,.72-.26,1.8,.26,3.24,.52,1.44,1.12,2.16,1.82,2.16v-1.08Zm0-20.01c.69-.36,1.04-1.08,1.04-2.16-1.39-1.8-2.08-1.62-2.08,.54,0,1.81,.34,2.35,1.04,1.62Zm4.15-19.47c0-1.08-.52-1.62-1.56-1.62-1.39,0-1.74-2.16-1.04-6.49v-4.87c0-1.44-.18-2.52-.52-3.24-1.04-1.08-1.56,1.08-1.56,6.49-.35,5.41-.35,10.81,0,16.22,.34,5.41,.86,7.57,1.56,6.49,1.04-1.08,1.21-3.6,.52-7.57,0-3.96,.34-5.58,1.04-4.87,1.04,1.08,1.56,.9,1.56-.54Zm-3.11-55.7c-.7,0-1.04,.54-1.04,1.62,0,.73,.52,1.08,1.56,1.08,.69,0,1.04-.35,1.04-1.08,0-1.08-.52-1.62-1.56-1.62Zm-.52,16.22c0,5.05,.17,7.49,.52,7.3,.34-.18,.69-2.97,1.04-8.38v-5.68c0-1.62-.35-2.43-1.04-2.43-.35,0-.61,.9-.78,2.7-.18,1.81-.09,3.97,.26,6.49Zm1.04,17.85c.69-1.44,.69-2.52,0-3.25-.7-.72-1.04,0-1.04,2.16,.34,1.45,.69,1.81,1.04,1.08Zm1.56-55.16c0-.36,.08-.62,.26-.81,.17-.18,.26-.63,.26-1.35,0-2.16-.52-3.25-1.56-3.25s-1.22,1.08-.52,3.25c.69,1.81,1.21,2.7,1.56,2.7v-.54Zm.52,11.36c1.04-.35,1.56,0,1.56,1.08,0,.73-.35,1.08-1.04,1.08-1.04,0-1.56-.18-1.56-.54,.34,0,.52-.18,.52-.54s.17-.72,.52-1.08Zm6.75-229.28c1.38,0,2.08-.54,2.08-1.62s-.7-1.62-2.08-1.62-2.08,.54-2.08,1.62,.69,1.62,2.08,1.62Zm8.31-8.65c-1.39,.36-2.68,.63-3.89,.81-1.22,.19-2.17,.63-2.85,1.35-1.74,.73-2.6,1.17-2.6,1.35,0,.19,.86,.27,2.6,.27,2.42,0,4.67-.54,6.75-1.62l4.15-2.16h-4.15Zm-6.23,419.63c-1.39,0-2.08,.54-2.08,1.62s.69,1.26,2.08,.54c1.38-.73,2.08-1.27,2.08-1.62h-.52c-.35,0-.61-.09-.78-.27-.18-.19-.44-.27-.78-.27Zm4.15-412.6l3.11-2.16h-3.11c-1.74,.73-2.6,1.44-2.6,2.16s.86,.73,2.6,0Zm28.03,417.47c1.38,.72,1.21,1.08-.52,1.08-2.08,0-2.77-.36-2.08-1.08,.69-.73,1.56-.73,2.6,0Z"/><path class="cls-1" d="M1265.85,1079.92c.34,1.8-1.82,3.25-6.49,4.33s-9.26,1.08-13.76,0l-4.15-1.62c-1.74,0-2.94-.36-3.63-1.08-.7,0-1.22-.19-1.56-.54-.35,0-.7-.09-1.04-.27-.35-.19-.7-.27-1.04-.27-1.74-.73-4.59-2.26-8.57-4.6-3.98-2.35-7.88-5.14-11.68-8.38-3.11-2.53-5.71-5.05-7.79-7.57-2.08-2.53-3.81-5.59-5.19-9.19-1.39-3.61-2.6-8.2-3.63-13.79-1.04-5.59-2.08-12.89-3.11-21.9l-4.15-28.66-3.11,8.11c-.7,2.16-1.82,4.77-3.37,7.84-1.56,3.06-3.03,5.49-4.41,7.3-1.39,1.8-2.51,3.69-3.37,5.68-.87,1.98-1.3,3.51-1.3,4.6,.34,1.44-.18,3.96-1.56,7.57-1.39,3.6-2.43,5.76-3.11,6.49-.7,0-1.04,.89-1.04,2.7,.69,1.44,.52,2.16-.52,2.16s-2.43,.9-4.15,2.7c-2.08,2.16-3.98,3.24-5.71,3.24-2.08,0-3.11,.72-3.11,2.16,.34,.72-.61,1.44-2.85,2.16-2.25,.72-4.76,.72-7.53,0-.35,0-1.39-.09-3.11-.27-1.74-.19-3.63-.27-5.71-.27-4.85-.36-7.79-1.27-8.82-2.7-.7-1.45-3.11-3.07-7.27-4.87-3.81-1.81-7.53-3.97-11.16-6.49-3.63-2.53-5.45-4.33-5.45-5.41-.35-3.25-1.56-4.87-3.63-4.87-1.04,.72-2.6,0-4.67-2.16-2.42-3.97-2.42-5.41,0-4.33,.69,0,1.56,.9,2.6,2.7,0,1.44,.52,2.16,1.56,2.16,.69-.36,.69-1.45,0-3.25-.7-1.81-1.56-3.07-2.6-3.79-.35,0-.61-.54-.78-1.62-.18-1.08-.26-2.16-.26-3.25,0-2.16-.18-3.43-.52-3.79-.35-.36-1.39-.19-3.11,.54-1.73,.36-2.77,.36-3.11,0-.34-.36-.69-1.45-1.04-3.24-.34-1.81-.17-2.97,.52-3.52,.7-.54,1.56,.08,2.6,1.89,1.04,1.08,1.74,.54,2.08-1.62,.69-1.44,.35-2.89-1.04-4.33-.69-.73-1.21-2.26-1.56-4.6-.34-2.35-.69-4.96-1.04-7.84-.69-7.21-1.56-11.17-2.6-11.9-.69-.72-1.04-.54-1.04,.54s.35,4.15,1.04,9.19c1.39,4.69,1.74,8.11,1.04,10.28-.34,2.88-1.04,3.15-2.08,.81-1.04-2.35-1.73-5.68-2.08-10l-1.56-17.85c-.34-2.88-.52-6.12-.52-9.73s.18-6.49,.52-8.65c.35-2.16,.52-4.41,.52-6.76s.18-3.87,.52-4.6c0-2.16,.35-3.25,1.04-3.25s.7-.9,0-2.7c-.34-.72-.43-1.89-.26-3.52,.18-1.62,.44-3.24,.78-4.87,.35-1.62,.78-3.06,1.3-4.33,.52-1.26,1.13-1.71,1.82-1.35,.7,.73,.7,.36,0-1.08-.69-.72-.95-2.16-.78-4.33,.18-2.16,.61-4.68,1.3-7.57,.7-2.88,1.22-5.22,1.56-7.03,.35-1.8,.52-2.88,.52-3.24-.34-.36-.17-1.35,.52-2.97,.7-1.62,1.56-3.51,2.6-5.68,.69-2.16,1.56-4.77,2.6-7.84,1.04-3.06,1.9-5.68,2.6-7.84,.69-2.52,1.56-5.49,2.6-8.92,1.04-3.42,2.16-6.49,3.37-9.19,1.21-2.7,2.34-4.95,3.37-6.76,1.04-1.8,1.73-2.52,2.08-2.16,.69,0,1.04-.54,1.04-1.62,0-.72,.52-1.71,1.56-2.97,1.04-1.26,2.25-2.52,3.63-3.79,1.38-1.26,2.85-2.34,4.41-3.25,1.56-.9,2.85-1.17,3.89-.81,2.08,0,3.63-.54,4.67-1.62,1.73-1.08,5.36-1.98,10.9-2.71,5.53-1.08,8.31-2.34,8.31-3.79-.35-1.44,1.04-1.98,4.15-1.62,3.11,.36,6.83,1.35,11.16,2.97,4.32,1.62,8.82,3.79,13.5,6.49,4.67,2.7,8.57,5.32,11.68,7.84,4.15,3.97,6.66,5.59,7.53,4.87,.86-.72,1.47-4.87,1.82-12.44,.69-7.21,1.56-10.81,2.6-10.81s1.56-.45,1.56-1.35-.7-1.35-2.08-1.35c-1.74,0-.87-.72,2.6-2.16,2.42-1.08,3.97-2.52,4.67-4.33,.69-1.44,2.34-2.43,4.93-2.97,2.6-.54,3.71-.08,3.37,1.35-.7,1.44-.18,1.81,1.56,1.08,1.04-.35,1.56-1.08,1.56-2.16-.35-1.44,.26-1.89,1.82-1.35,1.56,.54,3.03,1.72,4.41,3.51,2.77,2.16,4.49,3.25,5.19,3.25s1.56,.54,2.6,1.62c0,1.08,.34,1.27,1.04,.54,1.04,0,2.6,.54,4.67,1.62,1.38,1.08,2.51,2.7,3.37,4.87,.86,2.16,1.3,4.6,1.3,7.3s-.26,5.32-.78,7.84c-.52,2.53-1.48,4.69-2.86,6.49-2.08,2.89-3.11,6.31-3.11,10.28l-1.56,9.73c-1.39,3.61-2.17,6.04-2.34,7.3-.18,1.27-.09,2.97,.26,5.14,.69,2.89,.69,5.59,0,8.11-.35,2.16-.52,6.04-.52,11.63s.17,11.81,.52,18.66c0,3.61-.52,5.41-1.56,5.41-.7,0-.7,.73,0,2.16,.34,.73,.17,3.07-.52,7.03-.7,2.53-1.13,4.33-1.3,5.41-.18,1.08-.09,2.53,.26,4.33,0,1.08-.7,1.62-2.08,1.62s-2.08,.54-2.08,1.62c0,1.45,.52,1.62,1.56,.54,1.04-1.08,1.56-.54,1.56,1.62,.69,1.08,1.21,1.44,1.56,1.08,1.04-.72,1.56-.54,1.56,.54s-.35,2.16-1.04,3.25c-.35,.36-.61,1.17-.78,2.43-.18,1.27-.26,2.43-.26,3.51,0,3.25-.35,5.23-1.04,5.95-.35,.36-.52,1.71-.52,4.05s.17,5.14,.52,8.38c1.38,14.06,2.25,22.98,2.6,26.77,.34,3.79,.86,5.68,1.56,5.68,.34,0,.78,.81,1.3,2.43,.52,1.62,.78,3.33,.78,5.14s-.09,3.6-.26,5.41c-.18,1.8-.44,2.88-.78,3.24-1.04,1.08-.87,3.24,.52,6.49,1.73,3.25,2.08,5.76,1.04,7.57-.35,.72-.44,2.07-.26,4.05,.17,1.98,.6,4.14,1.3,6.49,.69,2.34,1.38,4.6,2.08,6.76,.69,2.16,1.38,3.6,2.08,4.33,.69,1.08,1.73,3.42,3.11,7.03,1.38,3.6,2.42,5.41,3.11,5.41,1.38,0,2.42,.18,3.11,.54,.34,0,.78,.08,1.3,.27,.52,.18,1.12,.27,1.82,.27,1.38,0,3.8,1.44,7.27,4.33,3.46,2.88,5.19,5.04,5.19,6.49Zm-178.57-120.59c.35-1.44,.52-3.06,.52-4.87v-4.87c0-1.44-.17-2.7-.52-3.79-.34-1.08-.69-1.44-1.04-1.08-.34,0-.6,1-.78,2.97-.17,1.99-.26,4.42-.26,7.3v12.44c-.69,1.81-.34,2.7,1.04,2.7,.7,0,1.04-1.26,1.04-3.79-.69-2.16-.69-4.5,0-7.03Zm12.46,22.17c0,1.08,.52,2.08,1.56,2.97,1.04,.9,1.9,1,2.6,.27l1.04-10.27v-22.71c.69-1.8,.52-2.52-.52-2.16-1.04,1.08-1.56,.19-1.56-2.7-.35-.72-.52-1.44-.52-2.16s.17-.9,.52-.54c1.38,0,1.56-1.8,.52-5.41,0-2.16-.35-2.88-1.04-2.16-1.04,3.61-1.74,6.4-2.08,8.38-.35,1.99-.61,3.79-.78,5.41-.18,1.62-.26,2.62-.26,2.97h.52c.69,0,1.21-.18,1.56-.54,1.38-1.08,1.9-.18,1.56,2.7,0,.73-.09,1.81-.26,3.25-.18,1.44-.09,2.53,.26,3.24,0,2.53-.52,4.87-1.56,7.03-1.04,1.81-1.56,3.16-1.56,4.06s.34,1,1.04,.27c.69,0,1.04,1.62,1.04,4.87,.69,3.61,.34,4.69-1.04,3.24-1.04-1.08-1.39-1.08-1.04,0Zm1.56-63.27c-1.04,0-1.22,.73-.52,2.16,0,1.08,.34,1.27,1.04,.54,1.38-.72,1.73-1.44,1.04-2.16,0-.72-.52-.9-1.56-.54Zm1.56,74.62c-1.04,1.08-.87,1.62,.52,1.62,1.73,0,2.42-.54,2.08-1.62,0-1.44-.87-2.7-2.6-3.79-1.74-1.44-2.43-1.27-2.08,.54,0,1.44,.69,2.16,2.08,2.16s1.38,.35,0,1.08Zm0-81.66c0,1.81,.08,2.8,.26,2.97,.17,.19,.6-.45,1.3-1.89,.69-2.16,1.04-3.6,1.04-4.33-.35-1.44-.87-1.71-1.56-.81-.7,.9-1.04,2.26-1.04,4.05Zm2.08,88.69c1.04,0,1.56-.36,1.56-1.08,0-1.08-.52-1.62-1.56-1.62s-1.56,.54-1.56,1.62c-.7,.72-.18,1.08,1.56,1.08Zm-.52-97.34c-.35,.73-.44,1.18-.26,1.35,.17,.19,.26,.46,.26,.81v1.08c.34,0,.86-1.08,1.56-3.25,.69-1.8,.69-2.7,0-2.7-1.04,0-1.56,.9-1.56,2.7Zm7.27,105.45c.69-1.08,.52-2.16-.52-3.24-.35,0-.52,.72-.52,2.16,.69,2.16,1.04,2.52,1.04,1.08Zm26.47,6.49c.34,0,1.04-.81,2.08-2.43,1.04-1.62,2.16-3.7,3.37-6.22,1.21-2.53,2.34-5.05,3.37-7.57,1.04-2.53,1.9-4.87,2.6-7.03l2.6-5.41c1.38-2.16,3.46-6.84,6.23-14.06,2.77-7.21,5.71-15.41,8.82-24.61,3.11-9.19,5.97-18.2,8.57-27.04,2.6-8.83,4.41-15.95,5.45-21.36,.69-2.52,1.3-4.68,1.82-6.49,.52-1.8,.95-2.7,1.3-2.7s.52-.72,.52-2.16c0-1.08,.34-3.42,1.04-7.03,.69-2.52,.78-4.77,.26-6.76-.52-1.98-1.65-2.97-3.37-2.97-1.04,0-1.91-.9-2.6-2.7,0-2.16,.34-3.25,1.04-3.25,1.04,0,1.21-1.62,.52-4.87-.35-3.6-1.39-5.41-3.11-5.41s-3.46-.9-5.19-2.7c-2.08-1.8-6.06-3.42-11.94-4.87-4.5-1.08-7.27-1.62-8.31-1.62s-2.08,.73-3.11,2.16c-1.74,1.08-2.25,2.89-1.56,5.41,0,2.53-.52,4.33-1.56,5.41-1.39,1.45-3.37,5.68-5.97,12.71-2.6,7.03-4.59,13.61-5.97,19.74-.7,3.25-1.48,6.13-2.34,8.65-.87,2.53-1.48,4.15-1.82,4.87-1.04,1.08-1.56,2.53-1.56,4.33,0,.73-.09,2.43-.26,5.14-.18,2.7-.52,5.59-1.04,8.65-.52,3.07-1.04,5.77-1.56,8.11-.52,2.35-.96,3.52-1.3,3.52-1.04,1.08-1.22,2.89-.52,5.41,.34,1.44,.43,3.43,.26,5.95-.18,2.53-.44,5.05-.78,7.57-.35,2.16-.7,5.41-1.04,9.73-.35,4.33-.52,8.47-.52,12.44v10.27c0,2.88-.35,4.5-1.04,4.87-.35,.36,0,1.98,1.04,4.87,.69,1.08,1.38,3.06,2.08,5.95,.69,2.88,1.38,5.95,2.08,9.19,.69,3.24,1.3,5.95,1.82,8.11,.52,2.16,.95,3.25,1.3,3.25,.69,0,2.08-1.08,4.15-3.25,1.73-2.53,3.11-3.79,4.15-3.79Zm30.11-56.78c1.38-3.96,2.77-7.66,4.15-11.09,1.38-3.42,2.34-6.22,2.85-8.38,.52-2.16,.78-3.42,.78-3.79s-.52,.36-1.56,2.16c-1.74,3.61-3.29,7.03-4.67,10.28-1.39,3.24-2.94,7.39-4.67,12.44-1.04,2.89-2.34,6.22-3.89,10-1.56,3.79-3.03,7.12-4.41,10-1.04,2.89-2,5.32-2.85,7.3-.87,1.98-1.3,3.15-1.3,3.51,0,1.08-.52,2.7-1.56,4.87-1.39,1.8-2.08,3.6-2.08,5.41,.34,1.08,1.21,.18,2.6-2.7,1.38-2.89,3.28-7.03,5.71-12.44l10.9-27.58Zm-5.71,43.8c2.08-3.25,2.42-5.23,1.04-5.95-.7-.36-1.48,.35-2.34,2.16-.87,1.8-1.65,3.96-2.34,6.49-.35,2.16-.09,2.97,.78,2.43,.86-.54,1.82-2.26,2.85-5.14Zm-2.08-162.77c-2.08,0-2.08,.54,0,1.62,1.38,.73,2.42,1.08,3.11,1.08s.69-.35,0-1.08c-.7-1.08-1.74-1.62-3.11-1.62Zm4.15,153.04c.34-.73,.52-1.99,.52-3.79,0-1.08-.52-1.62-1.56-1.62-.7,0-1.04,1.26-1.04,3.79,.34,2.88,1.04,3.42,2.08,1.62Zm8.82-14.06c.69,0,1.04-.72,1.04-2.16-.7-.72-1.22-.9-1.56-.54-.7,.36-1.04,1.08-1.04,2.16s.52,1.27,1.56,.54Zm7.27-15.14c7.27-19.1,10.38-30.28,9.34-33.53-.35-1.8-.61-2.61-.78-2.43-.18,.19-.61,1.35-1.3,3.52-.7,3.61-1.74,5.77-3.11,6.49-.7,.73-1.04,1.99-1.04,3.79,.69,2.16,.34,3.25-1.04,3.25-.7,0-1.39,1.08-2.08,3.25-.7,2.16-1.04,4.33-1.04,6.49,0,1.45-.52,2.7-1.56,3.79-.7,1.45-.87,2.89-.52,4.33,.69,1.81,0,2.35-2.08,1.62-1.39-.36-1.74,.36-1.04,2.16,.69,2.16,.69,2.89,0,2.16-1.74-.36-1.74,.73,0,3.24,1.04,1.45,1.9,1.08,2.6-1.08l3.63-7.03Zm-2.6-31.91c.69-2.16,.69-3.25,0-3.25,0,.36-.18,.73-.52,1.08-.7,.73-1.04,1.45-1.04,2.16-.7,1.81-.7,2.7,0,2.7l.52-.54,1.04-2.16Zm7.79-18.39c-.7-2.88-.52-4.33,.52-4.33,1.04-.36,1.56-.9,1.56-1.62l-.52-2.16c-.35-1.8-.96-2.16-1.82-1.08-.87,1.08-1.82,3.25-2.86,6.49l-3.11,11.36c-.7,1.81-.96,2.8-.78,2.97,.17,.19,.6-.27,1.3-1.35,.69-1.44,1.56-1.98,2.6-1.62-.7-.72-.7-2.52,0-5.41,.34-2.16,.69-3.33,1.04-3.51,.34-.18,.86,.27,1.56,1.35,.69,2.16,.86,1.81,.52-1.08Zm0-11.9c0,1.45,.78,1,2.34-1.35,1.56-2.34,2.68-4.6,3.37-6.76,.69-1.44,1.12-3.15,1.3-5.14,.17-1.98,.26-3.69,.26-5.14,0-2.52-.09-3.87-.26-4.05-.18-.18-.61,.46-1.3,1.89-.35,.73-.87,2.16-1.56,4.33-.7,2.16-1.39,4.42-2.08,6.76-.7,2.35-1.22,4.42-1.56,6.22-.35,1.81-.52,2.89-.52,3.24Zm6.75,91.39c1.38,2.16,2.08,4.14,2.08,5.95,.69,1.44,1.38,2.16,2.08,2.16s.69-2.89,0-8.65c-1.04-5.76-2.08-8.65-3.11-8.65s-1.22,1.27-.52,3.79c.69,1.08,.95,1.89,.78,2.43-.18,.54-.44,.62-.78,.27-1.04-.36-1.22,.54-.52,2.7Zm3.11,15.14c1.38,2.16,2.25,3.06,2.6,2.7,.69-.73,.52-1.99-.52-3.79-.7-2.16-1.39-3.07-2.08-2.7-.7,.36-.7,1.62,0,3.79Zm10.9,48.67c1.04,1.44,1.47,1.71,1.3,.81-.18-.9-.78-2.8-1.82-5.68-.7-1.81-1.39-4.42-2.08-7.84-.7-3.43-1.39-6.76-2.08-10-.7-4.33-1.22-7.22-1.56-8.65-.35-1.45-.87-2.16-1.56-2.16-1.04,.35-1.39,1.98-1.04,4.87,.34,2.88,.95,6.13,1.82,9.73,.86,3.6,1.9,7.21,3.11,10.82,1.21,3.6,2.51,6.3,3.89,8.11Zm-2.6-94.09c-1.74,1.45-2.86,3.7-3.37,6.76-.52,3.07-.26,5.5,.78,7.3,.34,.73,.6,.9,.78,.54,.17-.35,.08-.9-.26-1.62-.35-1.8-.09-3.24,.78-4.33,.86-1.08,1.47-.72,1.82,1.08,.34,2.16,.43,4.6,.26,7.3-.18,2.7-.61,4.06-1.3,4.06s-1.04-.72-1.04-2.16c.69-1.44,.34-2.16-1.04-2.16-.7,0-.96,1.54-.78,4.6,.17,3.07,.6,9.28,1.3,18.66,.34,5.76,.86,7.21,1.56,4.33v-4.33c0-2.16-.18-4.15-.52-5.95-.7-3.24-.78-5.23-.26-5.95,.52-.73,1.64-1.27,3.37-1.62,3.11,0,4.67-.9,4.67-2.7,0-1.08-.52-1.26-1.56-.54-1.39,1.44-2.94,1.81-4.67,1.08-2.08-.35-1.91-1.08,.52-2.16,1.04-.72,1.73-1.53,2.08-2.43,.34-.9,.17-2.97-.52-6.22-.7-2.16-.96-4.41-.78-6.76,.17-2.34,.43-3.87,.78-4.6,1.04-2.16,1.21-5.04,.52-8.65-.35-2.52,.34-4.68,2.08-6.49l3.11-2.7-3.63,1.62c-2.08,.73-2.94,2.53-2.6,5.41,0,2.89-.87,4.69-2.6,5.41-1.39,.36-2.08,1.27-2.08,2.7,.34,1.08,.69,1.08,1.04,0,0-1.08,.86-1.62,2.6-1.62,1.04,0,.69,.73-1.04,2.16Zm-1.56-48.13c0,1.44,.34,1.81,1.04,1.08,1.04-1.08,1.21-1.98,.52-2.7-.35-.35-.87,.19-1.56,1.62Zm19.21,133.57c1.38-.36,1.56-3.61,.52-9.73-.7-2.16-1.22-4.06-1.56-5.68-.35-1.62-.7-2.43-1.04-2.43-.7,0-1.39-1.45-2.08-4.33-.7-2.53-1.74-2.89-3.11-1.08-.7,1.8-.7,2.52,0,2.16,1.04-1.08,2.08,2.34,3.11,10.27,.69,3.24,1.12,6.03,1.3,8.38,.17,2.34,.08,3.69-.26,4.06-1.04,.72-1.65,.72-1.82,0-.18-.73-.44-3.07-.78-7.03,0-4.69-1.39-10.28-4.15-16.76-2.43-5.77-3.29-8.65-2.6-8.65s.69-2.16,0-6.49l-1.56-9.73c-.35-1.81-.44-2.8-.26-2.97,.17-.19,.78,.62,1.82,2.43,1.04,2.16,1.9,3.24,2.6,3.24s.52-.9-.52-2.7c-.7-1.81-.7-2.7,0-2.7s1.21-.81,1.56-2.43c.34-1.62,.17-2.97-.52-4.06-.35-.73-.7-.81-1.04-.27-.35,.54-.52,1.17-.52,1.89-.7,1.8-1.48,2.88-2.34,3.24-.87,.35-1.48-.36-1.82-2.16-.7-2.89-1.13-3.34-1.3-1.35-.18,1.98-.09,4.77,.26,8.38,.69,5.04,.86,7.57,.52,7.57,.34,.35,.52,.9,.52,1.62,0,1.8,.17,3.25,.52,4.33,.34,2.88,.34,4.77,0,5.68-.35,.9-1.39,1.17-3.11,.81-.7,0-1.04,.54-1.04,1.62s1.21,1.26,3.63,.54c2.77-1.08,3.63-.36,2.6,2.16-1.04,2.52-.7,3.96,1.04,4.33,1.38,1.08,2.42,2.16,3.11,3.24,0,1.44-.52,1.26-1.56-.54-1.39-1.08-2.25-1.44-2.6-1.08,0,1.08,.69,2.16,2.08,3.25,.69,.72,1.21,1.35,1.56,1.89,.34,.54,.34,.81,0,.81-1.04,1.08-.18,5.04,2.6,11.9,.69,1.8,1.73,2.88,3.11,3.24,1.38,.36,1.9-.36,1.56-2.16,0-1.08,.52-1.99,1.56-2.7Zm-16.61-127.62c-1.39-.35-1.91-.18-1.56,.54,.69,.73,1.56,1.17,2.6,1.35,1.04,.19,1.38-.08,1.04-.81l-2.08-1.08Zm2.08,114.64c-.7-1.45-1.3-2.08-1.82-1.89-.52,.18-.61,1.17-.26,2.97,.69,1.8,1.38,2.52,2.08,2.16,.34-.36,.34-1.45,0-3.24Zm2.08,12.44c.34-1.45-.18-3.25-1.56-5.41-1.39-1.45-1.74-1.27-1.04,.54,.69,.72,1.12,1.53,1.3,2.43,.17,.89,.43,1.71,.78,2.43,.34,1.44,.52,1.44,.52,0Zm-2.08-136.81c-.7,2.89-.52,4.33,.52,4.33s1.56-1.26,1.56-3.79c.34-2.88,.26-4.41-.26-4.6-.52-.18-1.13,1.17-1.82,4.06Zm4.67,67.05c.34-1.08,.43-1.62,.26-1.62s-.44,.54-.78,1.62c-.7,1.44-1.56,.9-2.6-1.62-.7-1.8-1.04-2.61-1.04-2.43s.17,1.17,.52,2.97c.34,2.16,1.04,3.34,2.08,3.51,1.04,.19,1.56-.63,1.56-2.43Zm-2.08-82.2c-.7,.73-1.13,2.62-1.3,5.68-.18,3.07,.08,4.24,.78,3.51,.69-.72,1.04-2.7,1.04-5.95,.69-3.25,.52-4.33-.52-3.25Zm5.71,118.43c.69-1.45,1.04-2.7,1.04-3.79-.7-1.08-1.22-1.45-1.56-1.08-1.04,0-2.08-.73-3.11-2.16-1.39-2.16-1.91-1.81-1.56,1.08,.69,2.16,1.38,3.25,2.08,3.25,1.04,0,1.56,.72,1.56,2.16,.69,2.52,1.21,2.7,1.56,.54Zm-3.11-84.36c-1.39,0-2.08,.9-2.08,2.7,.69,1.08,1.21,1.44,1.56,1.08,0-.72,.52-1.62,1.56-2.7,.69-.72,.34-1.08-1.04-1.08Zm4.15,24.33c-.35-1.44-.96-2.16-1.82-2.16s-1.48,.73-1.82,2.16c0,1.45,.34,1.81,1.04,1.08,1.04-.36,1.56-.18,1.56,.54,.34,1.08,.69,1.62,1.04,1.62,.69,0,.69-1.08,0-3.25Zm2.08-48.13c-.35,1.08-.52,2.35-.52,3.79,0,1.08,.34,.9,1.04-.54,.69-1.44,1.04-2.7,1.04-3.79-.7-.72-1.22-.54-1.56,.54Zm6.23,149.25c0-1.81-.18-3.07-.52-3.79-.35-.73-.61-.81-.78-.27-.18,.54-.09,1.35,.26,2.43,.34,1.44,.69,1.98,1.04,1.62Zm.52-74.62c.69-2.16,1.04-3.42,1.04-3.79,0-1.08-.52-1.08-1.56,0-.7,.73-1.04,1.81-1.04,3.24,.34,2.16,.86,2.35,1.56,.54Zm.52-6.49c.69-.72,.69-2.88,0-6.49-.7-2.52-1.04-3.87-1.04-4.06s-.18,.63-.52,2.43c-.35,2.89-.35,5.14,0,6.76,.34,1.62,.86,2.08,1.56,1.35Zm-1.04-19.47c-.35-.35-.52,.19-.52,1.62,.34,1.08,.6,1.71,.78,1.89,.17,.19,.26-.08,.26-.81,0-1.44-.18-2.34-.52-2.7Zm7.27,75.71c0-1.81-.35-2.7-1.04-2.7-.7-.36-.7,.18,0,1.62,0,2.16,.34,2.52,1.04,1.08Z"/><path class="cls-1" d="M1549.79,1056.13c3.8,4.68,5.97,9.91,6.49,15.68,.52,5.76-.61,9.37-3.37,10.82-3.81,1.44-6.58,1.98-8.31,1.62-1.74-.36-3.81-1.81-6.23-4.33-3.11-2.53-4.67-3.07-4.67-1.62,0,.72-1.3,.62-3.89-.27-2.6-.9-5.8-2.43-9.6-4.6-4.85-2.53-8.48-5.14-10.9-7.84-2.43-2.7-4.33-5.68-5.71-8.92-1.39-3.24-2.34-6.95-2.85-11.09-.52-4.15-1.13-8.92-1.82-14.33-.35-1.81-.78-4.6-1.3-8.38-.52-3.79-.96-7.76-1.3-11.9-.35-4.15-.52-8.03-.52-11.63s.52-6.31,1.56-8.11c.34-.73,.95-1.62,1.82-2.7,.86-1.08,1.56-2.07,2.08-2.97,.52-.9,.69-1.35,.52-1.35s-1.13,.54-2.85,1.62c-2.08,1.08-3.2,1.53-3.37,1.35-.18-.19,0-.72,.52-1.62,.52-.9,1.3-2.07,2.34-3.52,1.04-1.44,1.73-2.88,2.08-4.33,1.04-3.24,1.47-7.21,1.3-11.9-.18-4.68-.44-9.64-.78-14.87-.35-5.22-.7-10.36-1.04-15.41-.35-5.04-.35-9.55,0-13.52,.34-2.52,.78-3.25,1.3-2.16,.52,1.08,1.04,1.89,1.56,2.43,.52,.54,1.04,0,1.56-1.62s.78-6.22,.78-13.79c0-.35,.08-2.34,.26-5.95,.17-3.6,.08-7.3-.26-11.09-.35-3.79-.87-7.12-1.56-10-.7-2.88-1.74-3.79-3.11-2.7-.7,.36-.96,1.08-.78,2.16,.17,1.08,.34,2.16,.52,3.24,.17,1.08,.26,1.99,.26,2.7s-.52,.9-1.56,.54c-1.39-.35-2.43,0-3.11,1.08-.7,1.08-1.39,2.43-2.08,4.06-.7,1.62-1.56,3.16-2.6,4.6-1.04,1.45-2.25,2.16-3.63,2.16-1.39,.36-1.74,1.99-1.04,4.87,.69,2.53-1.48,10.19-6.49,22.98-5.02,12.8-12.38,29.12-22.06,48.94-3.46,6.49-5.97,11.9-7.53,16.22-1.56,4.33-1.82,6.13-.78,5.41,2.77-1.81,3.8-.81,3.11,2.97-.7,3.79-3.11,9.1-7.27,15.95-2.77,5.04-4.33,8.92-4.67,11.63-.35,2.7,.17,5.86,1.56,9.46,1.04,2.88,1.3,5.49,.78,7.84-.52,2.34-1.56,4.05-3.11,5.14s-3.46,1.35-5.71,.81c-2.25-.54-4.41-1.89-6.49-4.05-2.43-1.81-4.07-2.35-4.93-1.62-.87,.72-1.3,1.98-1.3,3.79,0,1.44-1.82,2.16-5.45,2.16s-7.36-1.45-11.16-4.33c-3.11-2.16-6.06-4.06-8.82-5.68-2.77-1.62-4.5-2.43-5.19-2.43s-1.56-.9-2.6-2.7c-1.04-1.81-1.91-3.79-2.6-5.95-.7-2.16-1.13-4.15-1.3-5.95-.18-1.81,.43-2.89,1.82-3.24,1.38-.36,2.08-2.7,2.08-7.03s-.18-8.65-.52-12.98c-.35-4.33-.52-7.84-.52-10.54s.69-2.97,2.08-.81c.69,1.8,1.38,3.15,2.08,4.06,.69,.9,1.21-.46,1.56-4.06,0-1.44-.09-4.14-.26-8.11-.18-3.96-1.13-6.3-2.85-7.03-1.39-.72-2.17-3.42-2.34-8.11-.18-4.68-.26-7.93-.26-9.73,0-2.16,.08-5.76,.26-10.82,.17-5.04,.26-10.27,.26-15.68s-.09-10.45-.26-15.14c-.18-4.68-.44-7.92-.78-9.73-.35-.72-.96-3.15-1.82-7.3-.87-4.14-1.3-6.94-1.3-8.38l-2.08-11.9v-1.08c-.7-1.08-1.3-1.26-1.82-.54-.52,.73-1.13,1.45-1.82,2.16-1.04,1.44-2.43,3.7-4.15,6.76-1.74,3.07-3.46,6.22-5.19,9.46-1.74,3.25-3.37,6.49-4.93,9.73-1.56,3.25-2.85,5.95-3.89,8.11-4.15,7.22-8.05,14.87-11.68,22.98-3.63,8.11-7.19,16.14-10.64,24.06,0,.36-.35,1.27-1.04,2.7-.7,1.45-1.22,2.8-1.56,4.06-.35,1.27-.52,2.35-.52,3.24s.69,.81,2.08-.27l.52-.54c1.73-1.08,2.85-.45,3.37,1.89,.52,2.35,.52,5.59,0,9.73-.52,4.15-1.65,8.92-3.37,14.33-1.74,5.41-3.81,10.63-6.23,15.68-1.74,2.88-3.11,6.57-4.15,11.08-1.04,4.5-2,8.92-2.85,13.25-.87,4.33-1.39,8.2-1.56,11.63-.18,3.42-.26,5.49-.26,6.22,1.04,3.96,.34,7.11-2.08,9.46-2.43,2.34-5.02,2.07-7.79-.81-2.77-2.16-5.71-2.7-8.82-1.62-1.39,.35-3.11,.27-5.19-.27-2.08-.54-3.98-1.54-5.71-2.97-1.74-1.81-3.72-3.25-5.97-4.33-2.25-1.08-4.07-1.99-5.45-2.7-2.08-.73-3.72-4.05-4.93-10-1.22-5.95-2.17-13.61-2.85-22.98-.7-9.38-1.04-19.92-1.04-31.63s.17-23.88,.52-36.5c.34-10.82,.42-20.46,.25-28.93-.17-8.47-.6-13.06-1.29-13.79-1.04-1.44-1.65-4.6-1.82-9.46-.18-4.87-.26-10.09-.26-15.68v-16.22c0-5.22-.17-8.92-.52-11.08-.34-1.8-.69-2.43-1.04-1.89-.34,.54-.69,1.54-1.04,2.97-.34,1.45-.78,2.89-1.3,4.33-.52,1.45-.95,2.16-1.3,2.16-.34-.36-.52-1.53-.52-3.52v-6.49c0-2.34,.09-4.68,.26-7.03,.18-2.34,.26-3.87,.26-4.6,.7-3.6,2.85-6.03,6.46-7.3,3.62-1.26,6.98-2.25,10.06-2.97,3.42-.72,5.99-1.17,7.71-1.35,1.71-.18,3.08-.18,4.11,0,1.02,.19,1.19,.81,.51,1.89l-1.02,.54c-2.4,1.81-.18,2.7,6.68,2.7,6.16,0,10.87,.27,14.12,.81,3.25,.54,5.65,2.35,7.19,5.41,1.54,3.07,2.32,8.03,2.32,14.87s-.18,16.59-.52,29.2c0,7.22-.09,14.25-.26,21.09-.18,6.85-.44,13.71-.78,20.55,0,1.81,.11,2.53,.34,2.16,.23-.36,.81-1.44,1.74-3.24,2.08-3.6,4.84-8.29,8.31-14.06,3.46-5.76,5.53-10.63,6.23-14.6,.34-2.16,1.38-4.5,3.11-7.03,1.73-2.52,3.63-5.22,5.71-8.11,2.08-2.88,3.97-5.76,5.71-8.65,1.73-2.88,2.77-5.76,3.11-8.65,.34-3.6,.78-5.41,1.3-5.41s1.64-1.08,3.37-3.25c1.73-2.52,3.54-5.58,5.45-9.19,1.9-3.6,3.71-7.3,5.45-11.09,1.73-3.79,3.54-7.3,5.45-10.54,1.9-3.24,3.89-5.58,5.97-7.03,4.84-1.8,9.86-3.06,15.05-3.79,1.73,0,3.97-.35,6.75-1.08l13.5,4.87c.34,.73,.86,1.44,1.56,2.16,.69,.73,1.38,1.62,2.08,2.7,3.11,2.89,5.71,6.67,7.79,11.36,2.08,4.69,3.8,11,5.19,18.93,1.38,7.93,2.51,17.67,3.37,29.2,.86,11.54,1.64,25.6,2.34,42.18,0,10.81,.26,16.68,.78,17.57,.52,.9,1.82-1.17,3.89-6.22,.69-1.44,1.3-2.97,1.82-4.6,.52-1.62,.95-3.15,1.3-4.6l5.71-9.73c1.38-2.52,2.94-6.84,4.67-12.98,3.8-11.9,9.17-24.88,16.09-38.94,6.92-14.06,13.32-26.85,19.21-38.39,.69-1.08,1.73-2.97,3.11-5.68,1.38-2.7,2.94-5.49,4.67-8.38,1.73-2.88,3.46-5.41,5.19-7.57,1.73-2.16,3.28-3.6,4.67-4.33,2.42-.72,4.15-.99,5.19-.81,1.04,.19,1.99,.46,2.86,.81,.86,.36,1.73,.73,2.6,1.08,.86,.36,2.34,.36,4.41,0,.69,0,1.3,.19,1.82,.54,.52,.36,1.47,.54,2.85,.54,.69,.36,1.73,.46,3.11,.27,1.38-.18,2.08,.09,2.08,.81-.35,1.81-.26,2.8,.26,2.97,.52,.19,1.64,.09,3.37-.27,4.49-1.08,7.44,.73,8.82,5.41,1.73,5.05,2.51,12.17,2.34,21.36-.18,9.19-.44,16.68-.78,22.44-.7,10.82-1.22,23.25-1.56,37.31-.35,14.06-.61,28.48-.78,43.26-.18,14.79-.26,29.39-.26,43.8s.08,27.39,.26,38.93c.17,11.53,.43,21,.78,28.39,.34,7.38,.86,11.44,1.56,12.17Zm-267.34-65.43c.69,1.44,1.56,1.71,2.6,.81,1.04-.9,1.99-2.35,2.85-4.33,.86-1.98,1.64-4.14,2.34-6.49,.69-2.34,1.04-4.23,1.04-5.68,0-3.24-1.22-5.59-3.63-7.03-1.04-.72-2-.08-2.85,1.89-.87,1.99-1.56,4.33-2.08,7.03-.52,2.7-.87,5.41-1.04,8.11-.18,2.7,.08,4.6,.78,5.68Zm5.71-57.86c-.7-10.81-1.48-16.13-2.34-15.95-.87,.19-1.3,5.68-1.3,16.49,0,5.77,.17,10.19,.52,13.25,.34,3.07,.86,4.24,1.56,3.52,.69-.72,1.12-2.7,1.3-5.95,.17-3.24,.26-7.03,.26-11.36Zm-1.04,77.33c2.77-1.08,3.28-3.43,1.56-7.03-2.77-7.93-4.15-7.39-4.15,1.62,0,4.68,.86,6.49,2.6,5.41Zm52.95-50.83c.34-1.08,.86-2.25,1.56-3.52,.69-1.26,1.47-2.16,2.34-2.7,.86-.54,1.47-.54,1.82,0,.34,.54,.34,1.71,0,3.51-1.04,3.25-2.25,5.05-3.63,5.41-1.39,.36-2.08-.54-2.08-2.7Zm9.86-32.99c1.04-1.44,1.04-2.34,0-2.7-1.04-.35-1.91-.54-2.6-.54-1.39,.36-2.25,1-2.6,1.89-.35,.9-.44,1.72-.26,2.43,.17,.73,.78,1.18,1.82,1.35,1.04,.19,2.25-.62,3.63-2.43Zm5.71-37.31c1.04-1.44,2.42-3.15,4.15-5.14,1.73-1.98,3.37-4.05,4.93-6.22,1.56-2.16,2.94-4.33,4.15-6.49,1.21-2.16,1.64-4.14,1.3-5.95-.35-1.8-1.22-2.34-2.6-1.62-1.39,.73-2.43,1.44-3.11,2.16-1.04,1.08-2.43,2.89-4.15,5.41-1.74,2.53-3.37,5.14-4.93,7.84-1.56,2.7-2.94,5.32-4.15,7.84-1.22,2.53-1.65,4.51-1.3,5.95,0,.73,.34,1.08,1.04,1.08,2.08-.35,3.2-.9,3.37-1.62,.17-.72,.6-1.8,1.3-3.25Zm14.53-41.1c-1.74,5.41-2.17,8.38-1.3,8.92,.86,.54,2.08,0,3.63-1.62,1.56-1.62,3.11-3.87,4.67-6.76,1.56-2.88,2.16-5.04,1.82-6.49-.7-2.52-1.91-3.06-3.63-1.62-1.74,1.44-2.94,2.89-3.63,4.33l-1.56,3.25Zm30.11,110.86c0,4.33,.08,7.57,.26,9.73,.17,2.16,.43,4.06,.78,5.68,.34,1.62,.86,1.89,1.56,.81,1.04-2.16,1.47-5.86,1.3-11.09-.18-5.22-.52-9.64-1.04-13.25-.52-3.6-1.13-5.31-1.82-5.14-.7,.19-1.04,4.6-1.04,13.25Zm1.04,40.56c.69,4.33,1.47,6.67,2.34,7.03,.86,.36,1.56-.36,2.08-2.16,.52-1.81,.69-4.24,.52-7.3-.18-3.07-.78-5.68-1.82-7.84-.7-1.44-1.22-2.08-1.56-1.89-.35,.18-.7,.72-1.04,1.62-.35,.9-.52,1.98-.52,3.24v7.3Zm87.73-117.89c.69-1.44,1.3-3.06,1.82-4.87,.52-1.8-.26-3.06-2.34-3.79-2.08-.35-3.63,1-4.67,4.06-1.04,3.07-.7,5.86,1.04,8.38,.69,1.08,1.47,.9,2.34-.54,.86-1.44,1.47-2.52,1.82-3.25Zm8.82-28.66c1.73-4.33,1.9-7.38,.52-9.19-1.39-1.8-3.46,.54-6.23,7.03-1.39,2.89-1.91,4.87-1.56,5.95,.34,1.08,.95,1.62,1.82,1.62s1.82-.54,2.85-1.62c1.04-1.08,1.9-2.34,2.6-3.79Zm17.65,46.51c.69-5.41,.34-8.74-1.04-10-1.39-1.26-1.74,1.89-1.04,9.46,.69,3.97,1.38,4.15,2.08,.54Zm3.11-19.47c.69-.72,1.04-2.07,1.04-4.06s-1.39-2.97-4.15-2.97c-1.04,.36-1.56,1-1.56,1.89s.26,1.81,.78,2.7c.52,.9,1.21,1.62,2.08,2.16,.86,.54,1.47,.63,1.82,.27Zm-3.11,107.61v-9.19c0-4.33-.35-7.03-1.04-8.11-.35,0-.52,1.45-.52,4.33v8.38c0,2.7,.08,4.77,.26,6.22,.17,1.44,.6,.9,1.3-1.62Zm0,46.51v-8.65c0-1.81-.09-3.52-.26-5.14-.18-1.62-.44-2.62-.78-2.97-.35,0-.52,1.44-.52,4.33v8.38c0,2.7,.08,4.77,.26,6.22,.17,1.44,.6,.72,1.3-2.16Zm11.94-54.08c0,2.16,.26,3.07,.78,2.7,.52-.36,.86-1.08,1.04-2.16,.17-1.08,.26-2.34,.26-3.79s-.35-2.34-1.04-2.7c-.7-.72-1.04,0-1.04,2.16v3.79Z"/><path class="cls-1" d="M1860.72,1079.92c.34,1.8-1.82,3.25-6.49,4.33s-9.26,1.08-13.76,0l-4.15-1.62c-1.74,0-2.94-.36-3.63-1.08-.7,0-1.22-.19-1.56-.54-.35,0-.7-.09-1.04-.27-.35-.19-.7-.27-1.04-.27-1.74-.73-4.59-2.26-8.57-4.6-3.98-2.35-7.88-5.14-11.68-8.38-3.11-2.53-5.71-5.05-7.79-7.57-2.08-2.53-3.81-5.59-5.19-9.19-1.39-3.61-2.6-8.2-3.63-13.79-1.04-5.59-2.08-12.89-3.11-21.9l-4.15-28.66-3.11,8.11c-.7,2.16-1.82,4.77-3.37,7.84-1.56,3.06-3.03,5.49-4.41,7.3-1.39,1.8-2.51,3.69-3.37,5.68-.87,1.98-1.3,3.51-1.3,4.6,.34,1.44-.18,3.96-1.56,7.57-1.39,3.6-2.43,5.76-3.11,6.49-.7,0-1.04,.89-1.04,2.7,.69,1.44,.52,2.16-.52,2.16s-2.43,.9-4.15,2.7c-2.08,2.16-3.98,3.24-5.71,3.24-2.08,0-3.11,.72-3.11,2.16,.34,.72-.61,1.44-2.85,2.16-2.25,.72-4.76,.72-7.53,0-.35,0-1.39-.09-3.11-.27-1.74-.19-3.63-.27-5.71-.27-4.85-.36-7.79-1.27-8.82-2.7-.7-1.45-3.11-3.07-7.27-4.87-3.81-1.81-7.53-3.97-11.16-6.49-3.63-2.53-5.45-4.33-5.45-5.41-.35-3.25-1.56-4.87-3.63-4.87-1.04,.72-2.6,0-4.67-2.16-2.42-3.97-2.42-5.41,0-4.33,.69,0,1.56,.9,2.6,2.7,0,1.44,.52,2.16,1.56,2.16,.69-.36,.69-1.45,0-3.25-.7-1.81-1.56-3.07-2.6-3.79-.35,0-.61-.54-.78-1.62-.18-1.08-.26-2.16-.26-3.25,0-2.16-.18-3.43-.52-3.79-.35-.36-1.39-.19-3.11,.54-1.73,.36-2.77,.36-3.11,0-.34-.36-.69-1.45-1.04-3.24-.34-1.81-.17-2.97,.52-3.52,.7-.54,1.56,.08,2.6,1.89,1.04,1.08,1.74,.54,2.08-1.62,.69-1.44,.35-2.89-1.04-4.33-.69-.73-1.21-2.26-1.56-4.6-.34-2.35-.69-4.96-1.04-7.84-.69-7.21-1.56-11.17-2.6-11.9-.69-.72-1.04-.54-1.04,.54s.35,4.15,1.04,9.19c1.39,4.69,1.74,8.11,1.04,10.28-.34,2.88-1.04,3.15-2.08,.81-1.04-2.35-1.73-5.68-2.08-10l-1.56-17.85c-.34-2.88-.52-6.12-.52-9.73s.18-6.49,.52-8.65c.35-2.16,.52-4.41,.52-6.76s.18-3.87,.52-4.6c0-2.16,.35-3.25,1.04-3.25s.7-.9,0-2.7c-.34-.72-.43-1.89-.26-3.52,.18-1.62,.44-3.24,.78-4.87,.35-1.62,.78-3.06,1.3-4.33,.52-1.26,1.13-1.71,1.82-1.35,.7,.73,.7,.36,0-1.08-.69-.72-.95-2.16-.78-4.33,.18-2.16,.61-4.68,1.3-7.57,.7-2.88,1.22-5.22,1.56-7.03,.35-1.8,.52-2.88,.52-3.24-.34-.36-.17-1.35,.52-2.97,.7-1.62,1.56-3.51,2.6-5.68,.69-2.16,1.56-4.77,2.6-7.84,1.04-3.06,1.9-5.68,2.6-7.84,.69-2.52,1.56-5.49,2.6-8.92,1.04-3.42,2.16-6.49,3.37-9.19,1.21-2.7,2.34-4.95,3.37-6.76,1.04-1.8,1.73-2.52,2.08-2.16,.69,0,1.04-.54,1.04-1.62,0-.72,.52-1.71,1.56-2.97,1.04-1.26,2.25-2.52,3.63-3.79,1.38-1.26,2.85-2.34,4.41-3.25,1.56-.9,2.85-1.17,3.89-.81,2.08,0,3.63-.54,4.67-1.62,1.73-1.08,5.36-1.98,10.9-2.71,5.53-1.08,8.31-2.34,8.31-3.79-.35-1.44,1.04-1.98,4.15-1.62,3.11,.36,6.83,1.35,11.16,2.97,4.32,1.62,8.82,3.79,13.5,6.49,4.67,2.7,8.57,5.32,11.68,7.84,4.15,3.97,6.66,5.59,7.53,4.87,.86-.72,1.47-4.87,1.82-12.44,.69-7.21,1.56-10.81,2.6-10.81s1.56-.45,1.56-1.35-.7-1.35-2.08-1.35c-1.74,0-.87-.72,2.6-2.16,2.42-1.08,3.97-2.52,4.67-4.33,.69-1.44,2.34-2.43,4.93-2.97,2.6-.54,3.71-.08,3.37,1.35-.7,1.44-.18,1.81,1.56,1.08,1.04-.35,1.56-1.08,1.56-2.16-.35-1.44,.26-1.89,1.82-1.35,1.56,.54,3.03,1.72,4.41,3.51,2.77,2.16,4.49,3.25,5.19,3.25s1.56,.54,2.6,1.62c0,1.08,.34,1.27,1.04,.54,1.04,0,2.6,.54,4.67,1.62,1.38,1.08,2.51,2.7,3.37,4.87,.86,2.16,1.3,4.6,1.3,7.3s-.26,5.32-.78,7.84c-.52,2.53-1.48,4.69-2.86,6.49-2.08,2.89-3.11,6.31-3.11,10.28l-1.56,9.73c-1.39,3.61-2.17,6.04-2.34,7.3-.18,1.27-.09,2.97,.26,5.14,.69,2.89,.69,5.59,0,8.11-.35,2.16-.52,6.04-.52,11.63s.17,11.81,.52,18.66c0,3.61-.52,5.41-1.56,5.41-.7,0-.7,.73,0,2.16,.34,.73,.17,3.07-.52,7.03-.7,2.53-1.13,4.33-1.3,5.41-.18,1.08-.09,2.53,.26,4.33,0,1.08-.7,1.62-2.08,1.62s-2.08,.54-2.08,1.62c0,1.45,.52,1.62,1.56,.54,1.04-1.08,1.56-.54,1.56,1.62,.69,1.08,1.21,1.44,1.56,1.08,1.04-.72,1.56-.54,1.56,.54s-.35,2.16-1.04,3.25c-.35,.36-.61,1.17-.78,2.43-.18,1.27-.26,2.43-.26,3.51,0,3.25-.35,5.23-1.04,5.95-.35,.36-.52,1.71-.52,4.05s.17,5.14,.52,8.38c1.38,14.06,2.25,22.98,2.6,26.77,.34,3.79,.86,5.68,1.56,5.68,.34,0,.78,.81,1.3,2.43,.52,1.62,.78,3.33,.78,5.14s-.09,3.6-.26,5.41c-.18,1.8-.44,2.88-.78,3.24-1.04,1.08-.87,3.24,.52,6.49,1.73,3.25,2.08,5.76,1.04,7.57-.35,.72-.44,2.07-.26,4.05,.17,1.98,.6,4.14,1.3,6.49,.69,2.34,1.38,4.6,2.08,6.76,.69,2.16,1.38,3.6,2.08,4.33,.69,1.08,1.73,3.42,3.11,7.03,1.38,3.6,2.42,5.41,3.11,5.41,1.38,0,2.42,.18,3.11,.54,.34,0,.78,.08,1.3,.27,.52,.18,1.12,.27,1.82,.27,1.38,0,3.8,1.44,7.27,4.33,3.46,2.88,5.19,5.04,5.19,6.49Zm-178.57-120.59c.35-1.44,.52-3.06,.52-4.87v-4.87c0-1.44-.17-2.7-.52-3.79-.34-1.08-.69-1.44-1.04-1.08-.34,0-.6,1-.78,2.97-.17,1.99-.26,4.42-.26,7.3v12.44c-.69,1.81-.34,2.7,1.04,2.7,.7,0,1.04-1.26,1.04-3.79-.69-2.16-.69-4.5,0-7.03Zm12.46,22.17c0,1.08,.52,2.08,1.56,2.97,1.04,.9,1.9,1,2.6,.27l1.04-10.27v-22.71c.69-1.8,.52-2.52-.52-2.16-1.04,1.08-1.56,.19-1.56-2.7-.35-.72-.52-1.44-.52-2.16s.17-.9,.52-.54c1.38,0,1.56-1.8,.52-5.41,0-2.16-.35-2.88-1.04-2.16-1.04,3.61-1.74,6.4-2.08,8.38-.35,1.99-.61,3.79-.78,5.41-.18,1.62-.26,2.62-.26,2.97h.52c.69,0,1.21-.18,1.56-.54,1.38-1.08,1.9-.18,1.56,2.7,0,.73-.09,1.81-.26,3.25-.18,1.44-.09,2.53,.26,3.24,0,2.53-.52,4.87-1.56,7.03-1.04,1.81-1.56,3.16-1.56,4.06s.34,1,1.04,.27c.69,0,1.04,1.62,1.04,4.87,.69,3.61,.34,4.69-1.04,3.24-1.04-1.08-1.39-1.08-1.04,0Zm1.56-63.27c-1.04,0-1.22,.73-.52,2.16,0,1.08,.34,1.27,1.04,.54,1.38-.72,1.73-1.44,1.04-2.16,0-.72-.52-.9-1.56-.54Zm1.56,74.62c-1.04,1.08-.87,1.62,.52,1.62,1.73,0,2.42-.54,2.08-1.62,0-1.44-.87-2.7-2.6-3.79-1.74-1.44-2.43-1.27-2.08,.54,0,1.44,.69,2.16,2.08,2.16s1.38,.35,0,1.08Zm0-81.66c0,1.81,.08,2.8,.26,2.97,.17,.19,.6-.45,1.3-1.89,.69-2.16,1.04-3.6,1.04-4.33-.35-1.44-.87-1.71-1.56-.81-.7,.9-1.04,2.26-1.04,4.05Zm2.08,88.69c1.04,0,1.56-.36,1.56-1.08,0-1.08-.52-1.62-1.56-1.62s-1.56,.54-1.56,1.62c-.7,.72-.18,1.08,1.56,1.08Zm-.52-97.34c-.35,.73-.44,1.18-.26,1.35,.17,.19,.26,.46,.26,.81v1.08c.34,0,.86-1.08,1.56-3.25,.69-1.8,.69-2.7,0-2.7-1.04,0-1.56,.9-1.56,2.7Zm7.27,105.45c.69-1.08,.52-2.16-.52-3.24-.35,0-.52,.72-.52,2.16,.69,2.16,1.04,2.52,1.04,1.08Zm26.47,6.49c.34,0,1.04-.81,2.08-2.43,1.04-1.62,2.16-3.7,3.37-6.22,1.21-2.53,2.34-5.05,3.37-7.57,1.04-2.53,1.9-4.87,2.6-7.03l2.6-5.41c1.38-2.16,3.46-6.84,6.23-14.06,2.77-7.21,5.71-15.41,8.82-24.61,3.11-9.19,5.97-18.2,8.57-27.04,2.6-8.83,4.41-15.95,5.45-21.36,.69-2.52,1.3-4.68,1.82-6.49,.52-1.8,.95-2.7,1.3-2.7s.52-.72,.52-2.16c0-1.08,.34-3.42,1.04-7.03,.69-2.52,.78-4.77,.26-6.76-.52-1.98-1.65-2.97-3.37-2.97-1.04,0-1.91-.9-2.6-2.7,0-2.16,.34-3.25,1.04-3.25,1.04,0,1.21-1.62,.52-4.87-.35-3.6-1.39-5.41-3.11-5.41s-3.46-.9-5.19-2.7c-2.08-1.8-6.06-3.42-11.94-4.87-4.5-1.08-7.27-1.62-8.31-1.62s-2.08,.73-3.11,2.16c-1.74,1.08-2.25,2.89-1.56,5.41,0,2.53-.52,4.33-1.56,5.41-1.39,1.45-3.37,5.68-5.97,12.71-2.6,7.03-4.59,13.61-5.97,19.74-.7,3.25-1.48,6.13-2.34,8.65-.87,2.53-1.48,4.15-1.82,4.87-1.04,1.08-1.56,2.53-1.56,4.33,0,.73-.09,2.43-.26,5.14-.18,2.7-.52,5.59-1.04,8.65-.52,3.07-1.04,5.77-1.56,8.11-.52,2.35-.96,3.52-1.3,3.52-1.04,1.08-1.22,2.89-.52,5.41,.34,1.44,.43,3.43,.26,5.95-.18,2.53-.44,5.05-.78,7.57-.35,2.16-.7,5.41-1.04,9.73-.35,4.33-.52,8.47-.52,12.44v10.27c0,2.88-.35,4.5-1.04,4.87-.35,.36,0,1.98,1.04,4.87,.69,1.08,1.38,3.06,2.08,5.95,.69,2.88,1.38,5.95,2.08,9.19,.69,3.24,1.3,5.95,1.82,8.11,.52,2.16,.95,3.25,1.3,3.25,.69,0,2.08-1.08,4.15-3.25,1.73-2.53,3.11-3.79,4.15-3.79Zm30.11-56.78c1.38-3.96,2.77-7.66,4.15-11.09,1.38-3.42,2.34-6.22,2.85-8.38,.52-2.16,.78-3.42,.78-3.79s-.52,.36-1.56,2.16c-1.74,3.61-3.29,7.03-4.67,10.28-1.39,3.24-2.94,7.39-4.67,12.44-1.04,2.89-2.34,6.22-3.89,10-1.56,3.79-3.03,7.12-4.41,10-1.04,2.89-2,5.32-2.85,7.3-.87,1.98-1.3,3.15-1.3,3.51,0,1.08-.52,2.7-1.56,4.87-1.39,1.8-2.08,3.6-2.08,5.41,.34,1.08,1.21,.18,2.6-2.7,1.38-2.89,3.28-7.03,5.71-12.44l10.9-27.58Zm-5.71,43.8c2.08-3.25,2.42-5.23,1.04-5.95-.7-.36-1.48,.35-2.34,2.16-.87,1.8-1.65,3.96-2.34,6.49-.35,2.16-.09,2.97,.78,2.43,.86-.54,1.82-2.26,2.85-5.14Zm-2.08-162.77c-2.08,0-2.08,.54,0,1.62,1.38,.73,2.42,1.08,3.11,1.08s.69-.35,0-1.08c-.7-1.08-1.74-1.62-3.11-1.62Zm4.15,153.04c.34-.73,.52-1.99,.52-3.79,0-1.08-.52-1.62-1.56-1.62-.7,0-1.04,1.26-1.04,3.79,.34,2.88,1.04,3.42,2.08,1.62Zm8.82-14.06c.69,0,1.04-.72,1.04-2.16-.7-.72-1.22-.9-1.56-.54-.7,.36-1.04,1.08-1.04,2.16s.52,1.27,1.56,.54Zm7.27-15.14c7.27-19.1,10.38-30.28,9.34-33.53-.35-1.8-.61-2.61-.78-2.43-.18,.19-.61,1.35-1.3,3.52-.7,3.61-1.74,5.77-3.11,6.49-.7,.73-1.04,1.99-1.04,3.79,.69,2.16,.34,3.25-1.04,3.25-.7,0-1.39,1.08-2.08,3.25-.7,2.16-1.04,4.33-1.04,6.49,0,1.45-.52,2.7-1.56,3.79-.7,1.45-.87,2.89-.52,4.33,.69,1.81,0,2.35-2.08,1.62-1.39-.36-1.74,.36-1.04,2.16,.69,2.16,.69,2.89,0,2.16-1.74-.36-1.74,.73,0,3.24,1.04,1.45,1.9,1.08,2.6-1.08l3.63-7.03Zm-2.6-31.91c.69-2.16,.69-3.25,0-3.25,0,.36-.18,.73-.52,1.08-.7,.73-1.04,1.45-1.04,2.16-.7,1.81-.7,2.7,0,2.7l.52-.54,1.04-2.16Zm7.79-18.39c-.7-2.88-.52-4.33,.52-4.33,1.04-.36,1.56-.9,1.56-1.62l-.52-2.16c-.35-1.8-.96-2.16-1.82-1.08-.87,1.08-1.82,3.25-2.86,6.49l-3.11,11.36c-.7,1.81-.96,2.8-.78,2.97,.17,.19,.6-.27,1.3-1.35,.69-1.44,1.56-1.98,2.6-1.62-.7-.72-.7-2.52,0-5.41,.34-2.16,.69-3.33,1.04-3.51,.34-.18,.86,.27,1.56,1.35,.69,2.16,.86,1.81,.52-1.08Zm0-11.9c0,1.45,.78,1,2.34-1.35,1.56-2.34,2.68-4.6,3.37-6.76,.69-1.44,1.12-3.15,1.3-5.14,.17-1.98,.26-3.69,.26-5.14,0-2.52-.09-3.87-.26-4.05-.18-.18-.61,.46-1.3,1.89-.35,.73-.87,2.16-1.56,4.33-.7,2.16-1.39,4.42-2.08,6.76-.7,2.35-1.22,4.42-1.56,6.22-.35,1.81-.52,2.89-.52,3.24Zm6.75,91.39c1.38,2.16,2.08,4.14,2.08,5.95,.69,1.44,1.38,2.16,2.08,2.16s.69-2.89,0-8.65c-1.04-5.76-2.08-8.65-3.11-8.65s-1.22,1.27-.52,3.79c.69,1.08,.95,1.89,.78,2.43-.18,.54-.44,.62-.78,.27-1.04-.36-1.22,.54-.52,2.7Zm3.11,15.14c1.38,2.16,2.25,3.06,2.6,2.7,.69-.73,.52-1.99-.52-3.79-.7-2.16-1.39-3.07-2.08-2.7-.7,.36-.7,1.62,0,3.79Zm10.9,48.67c1.04,1.44,1.47,1.71,1.3,.81-.18-.9-.78-2.8-1.82-5.68-.7-1.81-1.39-4.42-2.08-7.84-.7-3.43-1.39-6.76-2.08-10-.7-4.33-1.22-7.22-1.56-8.65-.35-1.45-.87-2.16-1.56-2.16-1.04,.35-1.39,1.98-1.04,4.87,.34,2.88,.95,6.13,1.82,9.73,.86,3.6,1.9,7.21,3.11,10.82,1.21,3.6,2.51,6.3,3.89,8.11Zm-2.6-94.09c-1.74,1.45-2.86,3.7-3.37,6.76-.52,3.07-.26,5.5,.78,7.3,.34,.73,.6,.9,.78,.54,.17-.35,.08-.9-.26-1.62-.35-1.8-.09-3.24,.78-4.33,.86-1.08,1.47-.72,1.82,1.08,.34,2.16,.43,4.6,.26,7.3-.18,2.7-.61,4.06-1.3,4.06s-1.04-.72-1.04-2.16c.69-1.44,.34-2.16-1.04-2.16-.7,0-.96,1.54-.78,4.6,.17,3.07,.6,9.28,1.3,18.66,.34,5.76,.86,7.21,1.56,4.33v-4.33c0-2.16-.18-4.15-.52-5.95-.7-3.24-.78-5.23-.26-5.95,.52-.73,1.64-1.27,3.37-1.62,3.11,0,4.67-.9,4.67-2.7,0-1.08-.52-1.26-1.56-.54-1.39,1.44-2.94,1.81-4.67,1.08-2.08-.35-1.91-1.08,.52-2.16,1.04-.72,1.73-1.53,2.08-2.43,.34-.9,.17-2.97-.52-6.22-.7-2.16-.96-4.41-.78-6.76,.17-2.34,.43-3.87,.78-4.6,1.04-2.16,1.21-5.04,.52-8.65-.35-2.52,.34-4.68,2.08-6.49l3.11-2.7-3.63,1.62c-2.08,.73-2.94,2.53-2.6,5.41,0,2.89-.87,4.69-2.6,5.41-1.39,.36-2.08,1.27-2.08,2.7,.34,1.08,.69,1.08,1.04,0,0-1.08,.86-1.62,2.6-1.62,1.04,0,.69,.73-1.04,2.16Zm-1.56-48.13c0,1.44,.34,1.81,1.04,1.08,1.04-1.08,1.21-1.98,.52-2.7-.35-.35-.87,.19-1.56,1.62Zm19.21,133.57c1.38-.36,1.56-3.61,.52-9.73-.7-2.16-1.22-4.06-1.56-5.68-.35-1.62-.7-2.43-1.04-2.43-.7,0-1.39-1.45-2.08-4.33-.7-2.53-1.74-2.89-3.11-1.08-.7,1.8-.7,2.52,0,2.16,1.04-1.08,2.08,2.34,3.11,10.27,.69,3.24,1.12,6.03,1.3,8.38,.17,2.34,.08,3.69-.26,4.06-1.04,.72-1.65,.72-1.82,0-.18-.73-.44-3.07-.78-7.03,0-4.69-1.39-10.28-4.15-16.76-2.43-5.77-3.29-8.65-2.6-8.65s.69-2.16,0-6.49l-1.56-9.73c-.35-1.81-.44-2.8-.26-2.97,.17-.19,.78,.62,1.82,2.43,1.04,2.16,1.9,3.24,2.6,3.24s.52-.9-.52-2.7c-.7-1.81-.7-2.7,0-2.7s1.21-.81,1.56-2.43c.34-1.62,.17-2.97-.52-4.06-.35-.73-.7-.81-1.04-.27-.35,.54-.52,1.17-.52,1.89-.7,1.8-1.48,2.88-2.34,3.24-.87,.35-1.48-.36-1.82-2.16-.7-2.89-1.13-3.34-1.3-1.35-.18,1.98-.09,4.77,.26,8.38,.69,5.04,.86,7.57,.52,7.57,.34,.35,.52,.9,.52,1.62,0,1.8,.17,3.25,.52,4.33,.34,2.88,.34,4.77,0,5.68-.35,.9-1.39,1.17-3.11,.81-.7,0-1.04,.54-1.04,1.62s1.21,1.26,3.63,.54c2.77-1.08,3.63-.36,2.6,2.16-1.04,2.52-.7,3.96,1.04,4.33,1.38,1.08,2.42,2.16,3.11,3.24,0,1.44-.52,1.26-1.56-.54-1.39-1.08-2.25-1.44-2.6-1.08,0,1.08,.69,2.16,2.08,3.25,.69,.72,1.21,1.35,1.56,1.89,.34,.54,.34,.81,0,.81-1.04,1.08-.18,5.04,2.6,11.9,.69,1.8,1.73,2.88,3.11,3.24,1.38,.36,1.9-.36,1.56-2.16,0-1.08,.52-1.99,1.56-2.7Zm-16.61-127.62c-1.39-.35-1.91-.18-1.56,.54,.69,.73,1.56,1.17,2.6,1.35,1.04,.19,1.38-.08,1.04-.81l-2.08-1.08Zm2.08,114.64c-.7-1.45-1.3-2.08-1.82-1.89-.52,.18-.61,1.17-.26,2.97,.69,1.8,1.38,2.52,2.08,2.16,.34-.36,.34-1.45,0-3.24Zm2.08,12.44c.34-1.45-.18-3.25-1.56-5.41-1.39-1.45-1.74-1.27-1.04,.54,.69,.72,1.12,1.53,1.3,2.43,.17,.89,.43,1.71,.78,2.43,.34,1.44,.52,1.44,.52,0Zm-2.08-136.81c-.7,2.89-.52,4.33,.52,4.33s1.56-1.26,1.56-3.79c.34-2.88,.26-4.41-.26-4.6-.52-.18-1.13,1.17-1.82,4.06Zm4.67,67.05c.34-1.08,.43-1.62,.26-1.62s-.44,.54-.78,1.62c-.7,1.44-1.56,.9-2.6-1.62-.7-1.8-1.04-2.61-1.04-2.43s.17,1.17,.52,2.97c.34,2.16,1.04,3.34,2.08,3.51,1.04,.19,1.56-.63,1.56-2.43Zm-2.08-82.2c-.7,.73-1.13,2.62-1.3,5.68-.18,3.07,.08,4.24,.78,3.51,.69-.72,1.04-2.7,1.04-5.95,.69-3.25,.52-4.33-.52-3.25Zm5.71,118.43c.69-1.45,1.04-2.7,1.04-3.79-.7-1.08-1.22-1.45-1.56-1.08-1.04,0-2.08-.73-3.11-2.16-1.39-2.16-1.91-1.81-1.56,1.08,.69,2.16,1.38,3.25,2.08,3.25,1.04,0,1.56,.72,1.56,2.16,.69,2.52,1.21,2.7,1.56,.54Zm-3.11-84.36c-1.39,0-2.08,.9-2.08,2.7,.69,1.08,1.21,1.44,1.56,1.08,0-.72,.52-1.62,1.56-2.7,.69-.72,.34-1.08-1.04-1.08Zm4.15,24.33c-.35-1.44-.96-2.16-1.82-2.16s-1.48,.73-1.82,2.16c0,1.45,.34,1.81,1.04,1.08,1.04-.36,1.56-.18,1.56,.54,.34,1.08,.69,1.62,1.04,1.62,.69,0,.69-1.08,0-3.25Zm2.08-48.13c-.35,1.08-.52,2.35-.52,3.79,0,1.08,.34,.9,1.04-.54,.69-1.44,1.04-2.7,1.04-3.79-.7-.72-1.22-.54-1.56,.54Zm6.23,149.25c0-1.81-.18-3.07-.52-3.79-.35-.73-.61-.81-.78-.27-.18,.54-.09,1.35,.26,2.43,.34,1.44,.69,1.98,1.04,1.62Zm.52-74.62c.69-2.16,1.04-3.42,1.04-3.79,0-1.08-.52-1.08-1.56,0-.7,.73-1.04,1.81-1.04,3.24,.34,2.16,.86,2.35,1.56,.54Zm.52-6.49c.69-.72,.69-2.88,0-6.49-.7-2.52-1.04-3.87-1.04-4.06s-.18,.63-.52,2.43c-.35,2.89-.35,5.14,0,6.76,.34,1.62,.86,2.08,1.56,1.35Zm-1.04-19.47c-.35-.35-.52,.19-.52,1.62,.34,1.08,.6,1.71,.78,1.89,.17,.19,.26-.08,.26-.81,0-1.44-.18-2.34-.52-2.7Zm7.27,75.71c0-1.81-.35-2.7-1.04-2.7-.7-.36-.7,.18,0,1.62,0,2.16,.34,2.52,1.04,1.08Z"/></g><g><path class="cls-1" d="M1100.17,1313.42c-.9-4.38-2.35-8.38-4.35-12.03-2-3.64-4.55-6.66-7.65-9.06-3.1-2.39-6.85-3.59-11.25-3.59-10.4,0-17.9,6.04-22.5,18.13-4.6,12.09-6.9,32.09-6.9,60,0,13.33,.4,25.42,1.2,36.25,.8,10.83,2.25,20.06,4.35,27.66,2.1,7.61,5.1,13.44,9,17.5,3.9,4.06,8.95,6.09,15.15,6.09,2.6,0,5.45-.73,8.55-2.19,3.1-1.46,6-3.64,8.7-6.56,2.7-2.92,4.95-6.61,6.75-11.09,1.8-4.48,2.7-9.74,2.7-15.78v-22.81h-28.5v-33.13h69.9v120.32h-31.8v-20.63h-.6c-5.2,8.75-11.45,14.95-18.75,18.6-7.3,3.64-16.05,5.47-26.25,5.47-13.2,0-23.95-2.4-32.25-7.19-8.3-4.79-14.8-12.19-19.5-22.19-4.7-10-7.85-22.34-9.45-37.03-1.6-14.69-2.4-31.72-2.4-51.1s1.15-35.21,3.45-49.38c2.3-14.17,6.25-25.99,11.85-35.47,5.6-9.48,13-16.61,22.2-21.41,9.2-4.79,20.7-7.19,34.5-7.19,23.6,0,40.6,6.09,51,18.28,10.4,12.19,15.6,29.64,15.6,52.35h-41.4c0-4.17-.45-8.44-1.35-12.81Z"/><path class="cls-1" d="M1268.32,1259.98l56.7,223.14h-45l-9.9-47.19h-57l-9.9,47.19h-45l56.7-223.14h53.4Zm-5.7,139.07l-20.7-100.32h-.6l-20.7,100.32h42Z"/><path class="cls-1" d="M1405.12,1259.98l30.6,157.51h.6l30.9-157.51h63.9v223.14h-39.6v-178.14h-.6l-38.1,178.14h-33.6l-38.1-178.14h-.6v178.14h-39.6v-223.14h64.2Z"/><path class="cls-1" d="M1681.72,1296.85h-76.5v52.5h72v36.88h-72v60h79.5v36.88h-122.7v-223.14h119.7v36.88Z"/><path class="cls-1" d="M734.78,1554.98c15,0,27.1,2.55,36.3,7.66,9.2,5.11,16.35,12.4,21.45,21.88,5.1,9.48,8.55,20.89,10.35,34.22,1.8,13.34,2.7,28.23,2.7,44.69,0,19.59-1.15,36.62-3.45,51.1-2.3,14.48-6.25,26.41-11.85,35.78-5.6,9.38-13.1,16.36-22.5,20.94-9.4,4.58-21.3,6.88-35.7,6.88h-68.1v-223.14h70.8Zm-8.4,190.01c7.6,0,13.7-1.35,18.3-4.06,4.6-2.71,8.25-7.19,10.95-13.44,2.7-6.25,4.5-14.48,5.4-24.69,.9-10.21,1.35-22.92,1.35-38.13,0-12.71-.4-23.85-1.2-33.44-.8-9.58-2.45-17.55-4.95-23.91-2.5-6.35-6.2-11.14-11.1-14.38-4.9-3.23-11.45-4.84-19.65-4.84h-18.3v156.88h19.2Z"/><path class="cls-1" d="M953.78,1591.85h-76.5v52.5h72v36.88h-72v60h79.5v36.88h-122.7v-223.14h119.7v36.88Z"/><path class="cls-1" d="M1040.77,1719.99h.9l31.8-165.01h44.7l-49.2,223.14h-55.5l-49.2-223.14h46.2l30.3,165.01Z"/><path class="cls-1" d="M1253.77,1591.85h-76.5v52.5h72v36.88h-72v60h79.5v36.88h-122.7v-223.14h119.7v36.88Z"/><path class="cls-1" d="M1278.37,1554.98h43.2v186.26h76.5v36.88h-119.7v-223.14Z"/><path class="cls-1" d="M1415.02,1619.82c1.5-14.27,4.8-26.51,9.9-36.72,5.1-10.21,12.45-18.18,22.05-23.91,9.6-5.73,22.5-8.59,38.7-8.59s29.1,2.87,38.7,8.59c9.6,5.73,16.95,13.7,22.05,23.91,5.1,10.21,8.4,22.45,9.9,36.72,1.5,14.27,2.25,29.85,2.25,46.72s-.75,32.71-2.25,46.88c-1.5,14.17-4.8,26.36-9.9,36.56-5.1,10.21-12.45,18.02-22.05,23.44-9.6,5.42-22.5,8.12-38.7,8.12s-29.1-2.71-38.7-8.12c-9.6-5.42-16.95-13.23-22.05-23.44-5.1-10.21-8.4-22.39-9.9-36.56-1.5-14.17-2.25-29.79-2.25-46.88s.75-32.45,2.25-46.72Zm42,85.01c.7,10.52,2.1,19.06,4.2,25.63,2.1,6.56,5.1,11.36,9,14.38,3.9,3.02,9.05,4.53,15.45,4.53s11.55-1.51,15.45-4.53c3.9-3.02,6.9-7.81,9-14.38,2.1-6.56,3.5-15.1,4.2-25.63,.7-10.52,1.05-23.28,1.05-38.28s-.35-27.71-1.05-38.13c-.7-10.42-2.1-18.96-4.2-25.63-2.1-6.67-5.1-11.51-9-14.53-3.9-3.02-9.05-4.53-15.45-4.53s-11.55,1.51-15.45,4.53c-3.9,3.02-6.9,7.87-9,14.53-2.1,6.67-3.5,15.21-4.2,25.63-.7,10.42-1.05,23.13-1.05,38.13s.35,27.77,1.05,38.28Z"/><path class="cls-1" d="M1659.67,1554.98c11,0,20.25,1.93,27.75,5.78,7.5,3.86,13.55,8.91,18.15,15.16,4.6,6.25,7.9,13.39,9.9,21.41,2,8.02,3,16.2,3,24.53,0,11.46-1.65,21.46-4.95,30-3.3,8.54-7.9,15.52-13.8,20.94-5.9,5.42-13.05,9.48-21.45,12.19-8.4,2.71-17.7,4.06-27.9,4.06h-23.1v89.07h-43.2v-223.14h75.6Zm-13.2,100.94c8.6,0,15.55-2.71,20.85-8.12,5.3-5.42,7.95-13.85,7.95-25.31s-2.3-19.79-6.9-25.63c-4.6-5.83-12.3-8.75-23.1-8.75h-18v67.82h19.2Z"/><path class="cls-1" d="M1859.47,1591.85h-76.5v52.5h72v36.88h-72v60h79.5v36.88h-122.7v-223.14h119.7v36.88Z"/><path class="cls-1" d="M1963.86,1554.98c18,0,32,4.74,42,14.22,10,9.48,15,23.91,15,43.28,0,15-2.9,27.24-8.7,36.72-5.8,9.48-14.8,15.58-27,18.28v.62c10.8,1.67,18.7,5.31,23.7,10.94,5,5.62,8.1,14.69,9.3,27.19,.4,4.17,.7,8.7,.9,13.59,.2,4.9,.4,10.37,.6,16.41,.4,11.88,1,20.94,1.8,27.19,1.2,6.25,3.8,10.52,7.8,12.81v1.88h-46.8c-2.2-3.12-3.6-6.72-4.2-10.78-.6-4.06-1-8.28-1.2-12.66l-1.2-42.81c-.4-8.75-2.5-15.63-6.3-20.63-3.8-5-10.2-7.5-19.2-7.5h-23.1v94.38h-43.2v-223.14h79.8Zm-18.6,97.51c10.4,0,18.4-2.55,24-7.66,5.6-5.1,8.4-13.7,8.4-25.78,0-20.63-10-30.94-30-30.94h-20.4v64.38h18Z"/></g></g></g></svg>