<svg width="146" height="62" viewBox="0 0 146 62" fill="none" xmlns="http://www.w3.org/2000/svg">
<path d="M59.0162 5.08789H0.410187V61.3618H59.0162V5.08789Z" fill="white"/>
<path d="M76.0339 44.6138C75.8427 44.3267 75.6515 44.1353 75.4603 43.9439C75.2691 43.7525 74.9823 43.6568 74.6955 43.4654C74.4086 43.3696 74.1218 43.2739 73.7394 43.2739C73.1658 43.2739 72.6877 43.3696 72.2097 43.6568C71.8273 43.8482 71.4449 44.231 71.2537 44.6138C70.9669 44.9966 70.7757 45.4751 70.68 45.9537C70.5844 46.4322 70.4888 46.9107 70.4888 47.4849C70.4888 47.9634 70.5844 48.442 70.68 48.9205C70.7757 49.399 70.9669 49.7818 71.2537 50.1646C71.5405 50.5474 71.8273 50.8346 72.2097 51.026C72.5921 51.2174 73.0702 51.4088 73.7394 51.4088C74.5043 51.4088 75.1735 51.1217 75.5559 50.6431C75.9383 50.2603 76.2251 49.6861 76.3208 49.0162C76.3208 48.8248 76.512 48.7291 76.7032 48.7291H78.4241C78.6153 48.7291 78.8065 48.9205 78.8065 49.2076C78.7109 49.7818 78.5197 50.2603 78.3285 50.7389C78.0417 51.3131 77.6592 51.8873 77.2768 52.2701C76.7988 52.6529 76.3208 53.0357 75.6515 53.2272C75.0779 53.4186 74.4086 53.5143 73.6438 53.5143C72.7834 53.5143 71.9229 53.3229 71.1581 53.0357C70.3932 52.7486 69.8196 52.2701 69.3416 51.6959C68.8635 51.1217 68.4811 50.4517 68.1943 49.7818C67.9075 49.0162 67.8119 48.2505 67.8119 47.3892C67.8119 46.5279 67.9075 45.6665 68.1943 44.9009C68.4811 44.1353 68.8635 43.4654 69.3416 42.8911C69.8196 42.3169 70.4888 41.8384 71.1581 41.5513C71.9229 41.2642 72.6877 41.0728 73.6438 41.0728C74.313 41.0728 74.8867 41.1685 75.4603 41.3599C76.0339 41.5513 76.512 41.8384 76.99 42.2212C77.468 42.604 77.8504 42.9868 78.1372 43.5611C78.3285 43.9439 78.5197 44.4224 78.6153 44.9009C78.7109 45.188 78.5197 45.3794 78.2329 45.3794H76.512C76.3207 45.3794 76.2251 45.2837 76.1295 45.0923C76.2251 44.9009 76.1295 44.7095 76.0339 44.6138Z" fill="white"/>
<path d="M80.623 44.9009C80.9098 44.1353 81.2922 43.4654 81.7702 42.8911C82.2483 42.3169 82.9175 41.8384 83.5868 41.5513C84.3516 41.2642 85.1164 41.0728 86.0725 41.0728C87.0285 41.0728 87.7934 41.2642 88.5582 41.5513C89.3231 41.8384 89.8967 42.3169 90.3747 42.8911C90.8528 43.4654 91.2352 44.1353 91.522 44.9009C91.8088 45.6665 91.9044 46.4322 91.9044 47.3892C91.9044 48.2505 91.8088 49.0162 91.522 49.7818C91.2352 50.5474 90.8528 51.2174 90.3747 51.6959C89.8967 52.2701 89.2275 52.6529 88.5582 53.0357C87.7934 53.3229 87.0285 53.5143 86.0725 53.5143C85.212 53.5143 84.3516 53.3229 83.5868 53.0357C82.8219 52.7486 82.2483 52.2701 81.7702 51.6959C81.2922 51.1217 80.9098 50.4517 80.623 49.7818C80.3362 49.0162 80.2406 48.2505 80.2406 47.3892C80.2406 46.5279 80.3362 45.6665 80.623 44.9009ZM83.0131 48.8248C83.1087 49.3033 83.2999 49.6861 83.5868 50.0689C83.8736 50.4517 84.1604 50.7389 84.5428 50.9303C84.9252 51.1217 85.4032 51.3131 86.0725 51.3131C86.6461 51.3131 87.1241 51.2174 87.6022 50.9303C87.9846 50.7389 88.367 50.356 88.5582 50.0689C88.845 49.6861 89.0362 49.3033 89.1318 48.8248C89.2275 48.3463 89.3231 47.8677 89.3231 47.3892C89.3231 46.9107 89.2275 46.3365 89.1318 45.858C89.0362 45.3794 88.845 44.9009 88.5582 44.5181C88.2714 44.1353 87.9846 43.8482 87.6022 43.5611C87.2197 43.3696 86.7417 43.1782 86.0725 43.1782C85.4988 43.1782 85.0208 43.2739 84.5428 43.5611C84.1604 43.7525 83.778 44.1353 83.5868 44.5181C83.2999 44.9009 83.1087 45.3794 83.0131 45.858C82.9175 46.3365 82.8219 46.815 82.8219 47.3892C82.8219 47.8677 82.9175 48.3463 83.0131 48.8248Z" fill="white"/>
<path d="M96.111 41.8384V50.7388C96.111 50.9303 96.3023 51.1217 96.4935 51.1217H101.465C101.656 51.1217 101.847 51.3131 101.847 51.5045V52.94C101.847 53.1314 101.656 53.3229 101.465 53.3229H93.9121C93.7209 53.3229 93.5297 53.1314 93.5297 52.94V41.8384C93.5297 41.647 93.7209 41.4556 93.9121 41.4556H95.7286C96.0154 41.4556 96.111 41.5513 96.111 41.8384Z" fill="white"/>
<path d="M105.863 41.8384V50.7388C105.863 50.9303 106.054 51.1217 106.245 51.1217H111.217C111.408 51.1217 111.599 51.3131 111.599 51.5045V52.94C111.599 53.1314 111.408 53.3229 111.217 53.3229H103.664C103.473 53.3229 103.281 53.1314 103.281 52.94V41.8384C103.281 41.647 103.473 41.4556 103.664 41.4556H105.48C105.767 41.4556 105.863 41.5513 105.863 41.8384Z" fill="white"/>
<path d="M121.924 41.8384V43.2739C121.924 43.4653 121.733 43.6568 121.542 43.6568H115.997C115.806 43.6568 115.614 43.8482 115.614 44.0396V45.7622C115.614 45.9537 115.806 46.1451 115.997 46.1451H120.968C121.16 46.1451 121.351 46.3365 121.351 46.5279V47.772C121.351 47.9634 121.16 48.1548 120.968 48.1548H115.997C115.806 48.1548 115.614 48.3463 115.614 48.5377V50.6431C115.614 50.8346 115.806 51.026 115.997 51.026H121.638C121.829 51.026 122.02 51.2174 122.02 51.4088V52.8443C122.02 53.0357 121.829 53.2271 121.638 53.2271H113.416C113.224 53.2271 113.033 53.0357 113.033 52.8443V41.8384C113.033 41.647 113.224 41.4556 113.416 41.4556H121.542C121.829 41.4556 121.924 41.5513 121.924 41.8384Z" fill="white"/>
<path d="M130.72 53.1315C130.146 53.3229 129.573 53.5143 128.999 53.5143C128.139 53.5143 127.278 53.3229 126.513 53.0357C125.749 52.7486 125.175 52.2701 124.697 51.6959C124.219 51.1217 123.837 50.4517 123.55 49.7818C123.263 49.0162 123.167 48.2505 123.167 47.3892C123.167 46.5279 123.263 45.6665 123.55 44.9009C123.837 44.1353 124.219 43.4654 124.697 42.8911C125.175 42.3169 125.844 41.8384 126.513 41.5513C127.278 41.2642 128.043 41.0728 128.999 41.0728C129.573 41.0728 130.146 41.1685 130.72 41.3599C131.294 41.5513 131.772 41.8384 132.25 42.1255C132.728 42.5083 133.11 42.8911 133.397 43.4654C133.588 43.8482 133.779 44.3267 133.875 44.8052C133.875 45.0923 133.779 45.2837 133.493 45.2837H131.772C131.581 45.2837 131.485 45.188 131.389 44.9966C131.198 44.5181 130.911 44.0396 130.529 43.7525C130.051 43.4654 129.573 43.2739 128.904 43.2739C128.33 43.2739 127.852 43.3696 127.374 43.6568C126.992 43.8482 126.609 44.231 126.418 44.6138C126.131 44.9966 125.94 45.4751 125.844 45.9537C125.749 46.4322 125.653 46.9107 125.653 47.4849C125.653 47.9634 125.749 48.442 125.844 48.9205C125.94 49.399 126.131 49.7818 126.418 50.1646C126.705 50.5474 126.992 50.8346 127.374 51.026C127.756 51.2174 128.234 51.4088 128.904 51.4088C129.764 51.4088 130.433 51.2174 130.911 50.7389C131.294 50.356 131.581 49.8775 131.676 49.3033C131.772 49.0162 131.581 48.8248 131.294 48.8248H129.477C129.286 48.8248 129.095 48.6334 129.095 48.442V47.2935C129.095 47.1021 129.286 46.9107 129.477 46.9107H133.684C133.875 46.9107 134.066 47.1021 134.066 47.2935V52.94C134.066 53.1315 133.875 53.3229 133.684 53.3229H132.728C132.537 53.3229 132.441 53.2272 132.345 53.0357L132.25 52.7486C132.154 52.4615 131.867 52.3658 131.676 52.5572C131.485 52.7486 131.103 53.0357 130.72 53.1315Z" fill="white"/>
<path d="M145.157 41.8384V43.2739C145.157 43.4653 144.965 43.6568 144.774 43.6568H139.229C139.038 43.6568 138.847 43.8482 138.847 44.0396V45.7622C138.847 45.9537 139.038 46.1451 139.229 46.1451H144.2C144.392 46.1451 144.583 46.3365 144.583 46.5279V47.772C144.583 47.9634 144.392 48.1548 144.2 48.1548H139.229C139.038 48.1548 138.847 48.3463 138.847 48.5377V50.6431C138.847 50.8346 139.038 51.026 139.229 51.026H144.87C145.061 51.026 145.252 51.2174 145.252 51.4088V52.8443C145.252 53.0357 145.061 53.2271 144.87 53.2271H136.648C136.456 53.2271 136.265 53.0357 136.265 52.8443V41.8384C136.265 41.647 136.456 41.4556 136.648 41.4556H144.774C144.965 41.4556 145.157 41.5513 145.157 41.8384Z" fill="white"/>
<path d="M71.2537 24.8987V29.1096C71.2537 29.3967 71.4449 29.5882 71.7317 29.5882H76.2251C76.5119 29.5882 76.7032 29.3967 76.7032 29.1096V24.8987C76.7032 24.6115 76.8944 24.4201 77.1812 24.4201H79.1889C79.4757 24.4201 79.6669 24.6115 79.6669 24.8987V37.5316C79.6669 37.8187 79.4757 38.0101 79.1889 38.0101H77.2768C76.99 38.0101 76.7988 37.8187 76.7988 37.5316V32.6507C76.7988 32.3636 76.6076 32.1722 76.3207 32.1722H71.8273C71.5405 32.1722 71.3493 32.3636 71.3493 32.6507V37.5316C71.3493 37.8187 71.1581 38.0101 70.8712 38.0101H68.8635C68.5767 38.0101 68.3855 37.8187 68.3855 37.5316V24.8987C68.3855 24.6115 68.5767 24.4201 68.8635 24.4201H70.8712C71.0625 24.3244 71.2537 24.6115 71.2537 24.8987Z" fill="#77C043"/>
<path d="M92.6693 24.8987V26.4299C92.6693 26.717 92.478 26.9084 92.1912 26.9084H85.9769C85.6901 26.9084 85.4989 27.0999 85.4989 27.387V29.301C85.4989 29.5882 85.6901 29.7796 85.9769 29.7796H91.522C91.8088 29.7796 92 29.971 92 30.2581V31.5979C92 31.885 91.8088 32.0765 91.522 32.0765H85.9769C85.6901 32.0765 85.4989 32.2679 85.4989 32.555V34.8519C85.4989 35.139 85.6901 35.3304 85.9769 35.3304H92.2868C92.5737 35.3304 92.7649 35.5218 92.7649 35.8089V37.3402C92.7649 37.6273 92.5737 37.8187 92.2868 37.8187H83.0131C82.7263 37.8187 82.5351 37.6273 82.5351 37.3402V24.8987C82.5351 24.6115 82.7263 24.4201 83.0131 24.4201H92.1912C92.478 24.3244 92.6693 24.6115 92.6693 24.8987Z" fill="#77C043"/>
<path d="M102.325 24.3242C102.899 24.3242 103.473 24.4199 103.951 24.6113C104.429 24.8027 104.907 25.0899 105.194 25.4727C105.576 25.8555 105.767 26.2383 105.958 26.7168C106.15 27.1953 106.245 27.6739 106.245 28.1524C106.245 28.918 106.054 29.6836 105.767 30.2579C105.576 30.6407 105.194 31.0235 104.716 31.3106C104.62 31.4063 104.429 31.502 104.429 31.6934C104.429 31.7891 104.524 31.8848 104.62 31.9805C104.716 32.0762 104.811 32.0762 104.907 32.1719C105.194 32.3634 105.385 32.6505 105.48 32.9376C105.672 33.2247 105.767 33.5118 105.863 33.8946C105.958 34.2774 105.958 34.5645 106.054 34.9474C106.054 35.1388 106.054 35.4259 106.054 35.713C106.054 36.0001 106.054 36.2872 106.15 36.5743C106.15 36.7657 106.15 36.8614 106.15 36.9571C106.245 37.4357 106.723 38.2013 106.15 38.2013H104.046C103.759 38.2013 103.568 38.0099 103.568 37.8185C103.473 37.4357 103.377 37.0528 103.377 36.67C103.377 36.0958 103.281 35.5216 103.186 34.9474C103.09 34.2774 102.899 33.7032 102.517 33.4161C102.23 33.129 101.656 32.9376 100.891 32.9376H98.4056C98.1188 32.9376 97.9275 33.129 97.9275 33.4161V37.7228C97.9275 38.0099 97.7363 38.2013 97.4495 38.2013H95.4418C95.155 38.2013 94.9638 38.0099 94.9638 37.7228V24.8984C94.9638 24.6113 95.155 24.4199 95.4418 24.4199H102.325V24.3242ZM101.274 30.545C101.943 30.545 102.517 30.3536 102.803 30.0665C103.186 29.7793 103.281 29.3008 103.281 28.5352C103.281 27.8653 103.09 27.3867 102.803 27.0996C102.421 26.8125 101.943 26.6211 101.274 26.6211H98.5012C98.2144 26.6211 98.0232 26.8125 98.0232 27.0996V30.0665C98.0232 30.3536 98.2144 30.545 98.5012 30.545H101.274Z" fill="#77C043"/>
<path d="M124.984 24.8987V35.0433C124.984 35.3304 125.175 35.5218 125.462 35.5218H131.103C131.389 35.5218 131.581 35.7132 131.581 36.0003V37.5316C131.581 37.8187 131.389 38.0101 131.103 38.0101H122.498C122.211 38.0101 122.02 37.8187 122.02 37.5316V24.8987C122.02 24.6115 122.211 24.4201 122.498 24.4201H124.506C124.793 24.3244 124.984 24.6115 124.984 24.8987Z" fill="#77C043"/>
<path d="M139.325 24.3242C140.185 24.3242 141.046 24.4199 141.81 24.707C142.575 24.9941 143.244 25.377 143.818 25.9512C144.392 26.5254 144.774 27.1953 145.157 28.0567C145.443 28.918 145.635 29.875 145.635 31.0235C145.635 31.9805 145.539 32.9376 145.252 33.7989C144.965 34.6602 144.583 35.3302 144.105 36.0001C143.627 36.5743 142.958 37.0528 142.193 37.4357C141.428 37.8185 140.472 38.0099 139.42 38.0099H134.066C133.779 38.0099 133.588 37.8185 133.588 37.5314V24.8984C133.588 24.6113 133.779 24.4199 134.066 24.4199H139.325V24.3242ZM139.038 35.5216C139.516 35.5216 139.898 35.4259 140.281 35.3302C140.663 35.2345 141.046 34.9474 141.332 34.6602C141.619 34.3731 141.906 33.8946 142.097 33.4161C142.288 32.9376 142.384 32.2676 142.384 31.502C142.384 30.8321 142.288 30.1622 142.193 29.5879C142.097 29.0137 141.81 28.5352 141.524 28.1524C141.237 27.7696 140.854 27.4824 140.281 27.1953C139.803 27.0039 139.133 26.9082 138.369 26.9082H136.743C136.456 26.9082 136.265 27.0996 136.265 27.3867V34.9474C136.265 35.2345 136.456 35.4259 136.743 35.4259H139.038V35.5216Z" fill="#77C043"/>
<path d="M69.3416 56.9596V58.778C69.3416 58.8737 69.4372 58.8737 69.5328 58.8737L71.5405 56.9596H71.6361C71.6361 56.9596 71.9229 56.9596 72.1141 56.9596C72.3053 56.9596 72.2097 57.151 72.2097 57.151L70.68 58.6823C70.68 58.6823 70.68 58.778 70.68 58.8737L72.4009 61.1706C72.4009 61.1706 72.4965 61.362 72.4009 61.362C72.3053 61.362 71.9229 61.362 71.9229 61.362C71.9229 61.362 71.8273 61.362 71.8273 61.2663L70.3932 59.2565C70.3932 59.1608 70.2976 59.1608 70.202 59.2565L69.6284 59.8307V59.9264V61.2663C69.6284 61.362 69.5328 61.362 69.5328 61.362H69.246C69.1504 61.362 69.1504 61.2663 69.1504 61.2663V57.2467C69.1504 57.151 69.246 57.151 69.246 57.151H69.5328C69.246 56.7682 69.3416 56.8639 69.3416 56.9596Z" fill="white"/>
<path d="M79.5713 56.8638L81.101 60.8833C81.101 60.979 81.101 61.0747 81.0054 61.0747H80.623C80.5274 61.0747 80.5274 61.0747 80.5274 60.979L80.145 59.8306L80.0494 59.7349H78.4241C78.3285 59.7349 78.3285 59.7349 78.3285 59.8306L77.946 60.979C77.946 61.0747 77.8504 61.0747 77.8504 61.0747C77.8504 61.0747 77.6592 61.0747 77.468 61.0747C77.2768 61.0747 77.3724 60.8833 77.3724 60.8833L78.9021 56.8638C78.9021 56.7681 78.9977 56.7681 78.9977 56.7681H79.4757C79.4757 56.7681 79.4757 56.8638 79.5713 56.8638ZM79.7625 59.2564C79.8582 59.2564 79.8581 59.1607 79.8581 59.065L79.2845 57.438C79.2845 57.3423 79.1889 57.3423 79.1889 57.438L78.6153 59.065C78.6153 59.1607 78.6153 59.2564 78.7109 59.2564H79.7625Z" fill="white"/>
<path d="M116.284 56.8638L117.813 60.8833C117.813 60.979 117.813 61.0747 117.718 61.0747H117.431C117.335 61.0747 117.335 61.0747 117.335 60.979L116.953 59.8306L116.857 59.7349H115.232C115.136 59.7349 115.136 59.7349 115.136 59.8306L114.754 60.979C114.754 61.0747 114.658 61.0747 114.658 61.0747C114.658 61.0747 114.467 61.0747 114.276 61.0747C114.085 61.0747 114.18 60.8833 114.18 60.8833L115.71 56.8638C115.71 56.7681 115.806 56.7681 115.806 56.7681H116.284V56.8638ZM116.475 59.2564C116.571 59.2564 116.571 59.1607 116.571 59.065L115.997 57.438C115.997 57.3423 115.901 57.3423 115.901 57.438L115.328 59.065C115.328 59.1607 115.328 59.2564 115.423 59.2564H116.475Z" fill="white"/>
<path d="M86.1681 57.1509C86.1681 56.9595 86.1681 57.0552 86.1681 56.9595C86.1681 56.8638 86.3593 56.8638 86.3593 56.8638H89.4187C89.4187 56.8638 89.5143 56.8638 89.5143 57.0552C89.5143 57.2466 89.5143 57.0552 89.5143 57.2466C89.5143 57.438 89.3231 57.438 89.3231 57.438H88.1758C88.0802 57.438 88.0802 57.5337 88.0802 57.5337V61.0747C88.0802 61.1704 87.9846 61.1704 87.9846 61.1704H87.6978C87.6022 61.1704 87.6022 61.0747 87.6022 61.0747V57.5337C87.6022 57.438 87.5066 57.438 87.5066 57.438H86.3593C86.3593 57.2466 86.1681 57.2466 86.1681 57.1509Z" fill="white"/>
<path d="M95.633 56.9596V58.5865C95.633 58.6822 95.7286 58.6822 95.7286 58.6822H97.7363C97.8319 58.6822 97.8319 58.5865 97.8319 58.5865V56.9596C97.8319 56.8639 97.9275 56.8639 97.9275 56.8639H98.2143C98.31 56.8639 98.31 56.9596 98.31 56.9596V60.9791C98.31 61.0748 98.2143 61.0748 98.2143 61.0748H97.9275C97.8319 61.0748 97.8319 60.9791 97.8319 60.9791V59.2565C97.8319 59.1608 97.7363 59.1608 97.7363 59.1608H95.7286C95.633 59.1608 95.633 59.2565 95.633 59.2565V60.9791C95.633 61.0748 95.5374 61.0748 95.5374 61.0748H95.2506C95.155 61.0748 95.155 60.9791 95.155 60.9791V56.9596C95.155 56.8639 95.2506 56.8639 95.2506 56.8639H95.5374C95.5374 56.7682 95.633 56.8639 95.633 56.9596Z" fill="white"/>
<path d="M105.098 56.8638L106.341 60.2134C106.341 60.3091 106.436 60.3091 106.532 60.2134L107.775 56.8638L107.87 56.7681H108.444C108.54 56.7681 108.54 56.8638 108.54 56.8638V60.8833C108.54 60.979 108.444 60.979 108.444 60.979H108.157C108.062 60.979 108.062 60.8833 108.062 60.8833V57.8208C108.062 57.7251 107.966 57.7251 107.966 57.8208L106.723 60.979C106.723 61.0747 106.628 61.0747 106.628 61.0747H106.341C106.245 61.0747 106.245 61.0747 106.245 60.979L105.002 57.8208C105.002 57.7251 104.907 57.8208 104.907 57.8208V60.8833C104.907 60.979 104.811 60.979 104.811 60.979H104.524C104.429 60.979 104.429 60.8833 104.429 60.8833V56.8638C104.429 56.7681 104.524 56.7681 104.524 56.7681H105.098V56.8638Z" fill="white"/>
<path d="M124.028 56.8638L126.131 60.022C126.131 60.1177 126.227 60.022 126.227 60.022V56.9595C126.227 56.8638 126.322 56.8638 126.322 56.8638H126.609C126.705 56.8638 126.705 56.9595 126.705 56.9595V60.979C126.705 61.0747 126.609 61.0747 126.609 61.0747H126.131C126.131 61.0747 126.035 61.0747 126.035 60.979L123.932 57.8208C123.932 57.7251 123.837 57.8208 123.837 57.8208V60.8833C123.837 60.979 123.741 60.979 123.741 60.979H123.454C123.358 60.979 123.359 60.8833 123.359 60.8833V56.8638C123.359 56.7681 123.454 56.7681 123.454 56.7681C123.454 56.7681 123.741 56.7681 123.837 56.7681C123.932 56.7681 124.028 56.8638 124.028 56.8638Z" fill="white"/>
<path d="M134.162 56.7681C134.831 56.7681 135.309 56.9595 135.692 57.2466C136.074 57.5337 136.265 58.1079 136.265 58.7778C136.265 59.1607 136.265 59.4478 136.17 59.7349C136.074 60.022 135.978 60.2134 135.787 60.4048C135.596 60.5962 135.405 60.6919 135.118 60.8833C134.831 60.979 134.544 61.0747 134.162 61.0747H132.823C132.728 61.0747 132.728 60.979 132.728 60.979V56.8638C132.728 56.7681 132.823 56.7681 132.823 56.7681H134.162ZM134.162 60.5962C134.258 60.5962 134.258 60.5962 134.353 60.5962C134.449 60.5962 134.544 60.5962 134.64 60.5005C134.736 60.5005 134.831 60.4048 134.927 60.3091C135.022 60.2134 135.118 60.1177 135.214 60.022C135.309 59.9263 135.405 59.7349 135.405 59.5435C135.5 59.3521 135.5 59.1607 135.5 58.8736C135.5 58.5864 135.5 58.395 135.405 58.2036C135.309 58.0122 135.309 57.8208 135.118 57.7251C135.022 57.6294 134.831 57.438 134.64 57.438C134.449 57.3423 134.258 57.3423 133.971 57.3423H133.11C133.015 57.3423 133.015 57.438 133.015 57.438V60.5005C133.015 60.5962 133.11 60.5962 133.11 60.5962H134.162Z" fill="white"/>
<path d="M144.87 60.6919C144.583 60.979 144.2 61.0747 143.627 61.0747C143.053 61.0747 142.671 60.979 142.384 60.6919C142.097 60.4048 141.906 60.022 141.906 59.4478V56.8638C141.906 56.7681 142.002 56.7681 142.002 56.7681H142.288C142.384 56.7681 142.384 56.8638 142.384 56.8638V59.4478C142.384 59.8306 142.48 60.1177 142.671 60.3091C142.862 60.5005 143.149 60.5962 143.531 60.5962C143.914 60.5962 144.2 60.5005 144.392 60.3091C144.583 60.1177 144.678 59.8306 144.678 59.4478V56.8638C144.678 56.7681 144.774 56.7681 144.774 56.7681H145.061C145.157 56.7681 145.157 56.8638 145.157 56.8638V59.4478C145.252 60.022 145.157 60.5005 144.87 60.6919Z" fill="white"/>
<path d="M0.410187 0.876953V61.3618H4.61681L11.596 22.6017L20.6785 24.2287L13.9861 61.3618H22.495L24.9807 47.4848L34.2544 49.2074L32.0555 61.3618H40.66L46.5875 28.344L55.67 29.971L50.0293 61.3618H59.8766V0.876953H0.410187ZM26.606 39.2542L31.5775 11.8829L40.66 13.5099L35.6885 40.8812L26.606 39.2542Z" fill="#77C043"/>
<path d="M115.806 24.7071L120.49 37.34C120.586 37.7228 120.395 38.0099 120.012 38.0099H118.005C117.813 38.0099 117.622 37.9142 117.527 37.6271L116.762 35.3302C116.666 35.1388 116.475 34.9474 116.284 34.9474H111.886C111.695 34.9474 111.504 35.0431 111.408 35.3302L110.547 37.7228C110.452 37.9142 110.261 38.1057 110.069 38.1057H108.157C107.775 38.1057 107.584 37.7228 107.679 37.4357L112.46 24.8028C112.555 24.6114 112.746 24.42 112.938 24.42H115.328C115.519 24.3243 115.71 24.5157 115.806 24.7071ZM115.328 32.7462C115.519 32.7462 115.71 32.5548 115.615 32.3634L114.18 28.3439C114.085 28.1524 113.798 28.1524 113.798 28.3439L112.364 32.3634C112.268 32.5548 112.46 32.7462 112.651 32.7462H115.328Z" fill="#77C043"/>
</svg>
