<svg width="190" height="56" viewBox="0 0 190 56" fill="none" xmlns="http://www.w3.org/2000/svg">
<path d="M3.42638 10.7012C5.16883 10.7012 6.58135 9.28724 6.58135 7.543C6.58135 5.79875 5.16883 4.38477 3.42638 4.38477C1.68394 4.38477 0.271423 5.79875 0.271423 7.543C0.271423 9.28724 1.68394 10.7012 3.42638 10.7012Z" fill="#6E6F71"/>
<path d="M3.42638 19.6973C5.16883 19.6973 6.58135 18.2833 6.58135 16.5391C6.58135 14.7948 5.16883 13.3809 3.42638 13.3809C1.68394 13.3809 0.271423 14.7948 0.271423 16.5391C0.271423 18.2833 1.68394 19.6973 3.42638 19.6973Z" fill="#6E6F71"/>
<path d="M3.42638 28.5977C5.16883 28.5977 6.58135 27.1837 6.58135 25.4395C6.58135 23.6952 5.16883 22.2812 3.42638 22.2812C1.68394 22.2812 0.271423 23.6952 0.271423 25.4395C0.271423 27.1837 1.68394 28.5977 3.42638 28.5977Z" fill="#6E6F71"/>
<path d="M3.42638 37.5938C5.16883 37.5938 6.58135 36.1798 6.58135 34.4356C6.58135 32.6913 5.16883 31.2773 3.42638 31.2773C1.68394 31.2773 0.271423 32.6913 0.271423 34.4356C0.271423 36.1798 1.68394 37.5938 3.42638 37.5938Z" fill="#6E6F71"/>
<path d="M3.42638 46.5904C5.16883 46.5904 6.58135 45.1764 6.58135 43.4322C6.58135 41.6879 5.16883 40.2739 3.42638 40.2739C1.68394 40.2739 0.271423 41.6879 0.271423 43.4322C0.271423 45.1764 1.68394 46.5904 3.42638 46.5904Z" fill="#6E6F71"/>
<path d="M3.42638 55.5865C5.16883 55.5865 6.58135 54.1725 6.58135 52.4283C6.58135 50.684 5.16883 49.27 3.42638 49.27C1.68394 49.27 0.271423 50.684 0.271423 52.4283C0.271423 54.1725 1.68394 55.5865 3.42638 55.5865Z" fill="#6E6F71"/>
<path d="M13.6562 10.7012C15.3986 10.7012 16.8111 9.28724 16.8111 7.543C16.8111 5.79875 15.3986 4.38477 13.6562 4.38477C11.9137 4.38477 10.5012 5.79875 10.5012 7.543C10.5012 9.28724 11.9137 10.7012 13.6562 10.7012Z" fill="#6E6F71"/>
<path d="M13.6562 19.6973C15.3986 19.6973 16.8111 18.2833 16.8111 16.5391C16.8111 14.7948 15.3986 13.3809 13.6562 13.3809C11.9137 13.3809 10.5012 14.7948 10.5012 16.5391C10.5012 18.2833 11.9137 19.6973 13.6562 19.6973Z" fill="#6E6F71"/>
<path d="M13.6562 28.5977C15.3986 28.5977 16.8111 27.1837 16.8111 25.4395C16.8111 23.6952 15.3986 22.2812 13.6562 22.2812C11.9137 22.2812 10.5012 23.6952 10.5012 25.4395C10.5012 27.1837 11.9137 28.5977 13.6562 28.5977Z" fill="#6E6F71"/>
<path d="M13.6562 37.5938C15.3986 37.5938 16.8111 36.1798 16.8111 34.4356C16.8111 32.6913 15.3986 31.2773 13.6562 31.2773C11.9137 31.2773 10.5012 32.6913 10.5012 34.4356C10.5012 36.1798 11.9137 37.5938 13.6562 37.5938Z" fill="#6E6F71"/>
<path d="M13.6562 46.5904C15.3986 46.5904 16.8111 45.1764 16.8111 43.4322C16.8111 41.6879 15.3986 40.2739 13.6562 40.2739C11.9137 40.2739 10.5012 41.6879 10.5012 43.4322C10.5012 45.1764 11.9137 46.5904 13.6562 46.5904Z" fill="#6E6F71"/>
<path d="M13.6562 55.5865C15.3986 55.5865 16.8111 54.1725 16.8111 52.4283C16.8111 50.684 15.3986 49.27 13.6562 49.27C11.9137 49.27 10.5012 50.684 10.5012 52.4283C10.5012 54.1725 11.9137 55.5865 13.6562 55.5865Z" fill="#6E6F71"/>
<path d="M41.3817 10.7012C43.1241 10.7012 44.5366 9.28724 44.5366 7.543C44.5366 5.79875 43.1241 4.38477 41.3817 4.38477C39.6392 4.38477 38.2267 5.79875 38.2267 7.543C38.2267 9.28724 39.6392 10.7012 41.3817 10.7012Z" fill="#6E6F71"/>
<path d="M41.3817 19.6973C43.1241 19.6973 44.5366 18.2833 44.5366 16.5391C44.5366 14.7948 43.1241 13.3809 41.3817 13.3809C39.6392 13.3809 38.2267 14.7948 38.2267 16.5391C38.2267 18.2833 39.6392 19.6973 41.3817 19.6973Z" fill="#6E6F71"/>
<path d="M41.3817 28.5977C43.1241 28.5977 44.5366 27.1837 44.5366 25.4395C44.5366 23.6952 43.1241 22.2812 41.3817 22.2812C39.6392 22.2812 38.2267 23.6952 38.2267 25.4395C38.2267 27.1837 39.6392 28.5977 41.3817 28.5977Z" fill="#6E6F71"/>
<path d="M41.3817 37.5938C43.1241 37.5938 44.5366 36.1798 44.5366 34.4356C44.5366 32.6913 43.1241 31.2773 41.3817 31.2773C39.6392 31.2773 38.2267 32.6913 38.2267 34.4356C38.2267 36.1798 39.6392 37.5938 41.3817 37.5938Z" fill="#6E6F71"/>
<path d="M41.3817 46.5904C43.1241 46.5904 44.5366 45.1764 44.5366 43.4322C44.5366 41.6879 43.1241 40.2739 41.3817 40.2739C39.6392 40.2739 38.2267 41.6879 38.2267 43.4322C38.2267 45.1764 39.6392 46.5904 41.3817 46.5904Z" fill="#6E6F71"/>
<path d="M41.3817 55.5865C43.1241 55.5865 44.5366 54.1725 44.5366 52.4283C44.5366 50.684 43.1241 49.27 41.3817 49.27C39.6392 49.27 38.2267 50.684 38.2267 52.4283C38.2267 54.1725 39.6392 55.5865 41.3817 55.5865Z" fill="#6E6F71"/>
<path d="M51.5158 10.7012C53.2582 10.7012 54.6708 9.28724 54.6708 7.543C54.6708 5.79875 53.2582 4.38477 51.5158 4.38477C49.7734 4.38477 48.3608 5.79875 48.3608 7.543C48.3608 9.28724 49.7734 10.7012 51.5158 10.7012Z" fill="#6E6F71"/>
<path d="M51.5158 19.6973C53.2582 19.6973 54.6708 18.2833 54.6708 16.5391C54.6708 14.7948 53.2582 13.3809 51.5158 13.3809C49.7734 13.3809 48.3608 14.7948 48.3608 16.5391C48.3608 18.2833 49.7734 19.6973 51.5158 19.6973Z" fill="#6E6F71"/>
<path d="M51.5158 28.5977C53.2582 28.5977 54.6708 27.1837 54.6708 25.4395C54.6708 23.6952 53.2582 22.2812 51.5158 22.2812C49.7734 22.2812 48.3608 23.6952 48.3608 25.4395C48.3608 27.1837 49.7734 28.5977 51.5158 28.5977Z" fill="#6E6F71"/>
<path d="M51.5158 37.5938C53.2582 37.5938 54.6708 36.1798 54.6708 34.4356C54.6708 32.6913 53.2582 31.2773 51.5158 31.2773C49.7734 31.2773 48.3608 32.6913 48.3608 34.4356C48.3608 36.1798 49.7734 37.5938 51.5158 37.5938Z" fill="#6E6F71"/>
<path d="M51.5158 46.5904C53.2582 46.5904 54.6708 45.1764 54.6708 43.4322C54.6708 41.6879 53.2582 40.2739 51.5158 40.2739C49.7734 40.2739 48.3608 41.6879 48.3608 43.4322C48.3608 45.1764 49.7734 46.5904 51.5158 46.5904Z" fill="#6E6F71"/>
<path d="M51.5158 55.5865C53.2582 55.5865 54.6708 54.1725 54.6708 52.4283C54.6708 50.684 53.2582 49.27 51.5158 49.27C49.7734 49.27 48.3608 50.684 48.3608 52.4283C48.3608 54.1725 49.7734 55.5865 51.5158 55.5865Z" fill="#6E6F71"/>
<path d="M28.953 0.939391C32.6816 1.70502 34.9761 5.24607 34.2113 8.97852C33.4465 12.711 29.909 15.0079 26.1804 14.2422C22.4518 13.4766 20.1573 9.83986 20.9221 6.20311C21.687 2.47065 25.2244 0.0780558 28.953 0.939391Z" fill="#BE202E"/>
<path d="M34.3069 16.3477H20.6353V55.3949H34.3069V16.3477Z" fill="#BE202E"/>
<path d="M69.2027 44.293V46.0157C68.7247 46.2071 68.3423 46.3028 67.9599 46.3985C67.5775 46.4942 67.0995 46.4942 66.717 46.4942C65.283 46.4942 64.1357 46.1114 63.2752 45.2501C62.4148 44.3887 61.9368 43.336 61.9368 41.9961C61.9368 40.752 62.4148 39.6035 63.2752 38.7422C64.1357 37.8809 65.283 37.4023 66.717 37.4023C67.0995 37.4023 67.5775 37.4023 67.9599 37.498C68.3423 37.5938 68.7247 37.6895 69.2027 37.8809V39.6992C68.8203 39.4121 68.4379 39.3164 68.0555 39.125C67.6731 39.0293 67.2906 38.9336 66.9082 38.9336C66.0478 38.9336 65.2829 39.2207 64.7093 39.6992C64.1357 40.2735 63.8489 40.9434 63.8489 41.709C63.8489 42.5704 64.1357 43.2403 64.7093 43.8145C65.2829 44.3887 66.0478 44.5801 66.9082 44.5801C67.2906 44.5801 67.7687 44.4844 68.1511 44.3887C68.4379 44.5801 68.8203 44.4844 69.2027 44.293Z" fill="#6E6F71"/>
<path d="M70.35 41.9961C70.35 40.752 70.8281 39.6992 71.6885 38.8379C72.549 37.9766 73.6962 37.498 74.9391 37.498C75.5127 37.498 76.0864 37.5937 76.66 37.8809C77.2336 38.0723 77.7117 38.4551 78.1897 38.8379C78.6677 39.3164 78.9545 39.7949 79.2413 40.2735C79.4325 40.8477 79.6238 41.4219 79.6238 41.9961C79.6238 42.5704 79.5281 43.1446 79.2413 43.7188C79.0501 44.293 78.6677 44.7715 78.2853 45.1544C77.8072 45.6329 77.3292 45.92 76.8512 46.1114C76.2776 46.3028 75.7039 46.3985 75.1303 46.3985C73.8874 46.3985 72.7402 45.92 71.8797 45.0587C70.7325 44.293 70.35 43.2403 70.35 41.9961ZM72.1665 41.9961C72.1665 42.7618 72.4533 43.5274 73.027 44.1016C73.6006 44.6758 74.2698 44.963 75.0347 44.963C75.7995 44.963 76.4688 44.6758 77.0424 44.1016C77.616 43.5274 77.9028 42.8575 77.9028 42.0918C77.9028 41.3262 77.616 40.6563 77.0424 40.0821C76.4688 39.5078 75.7995 39.2207 75.0347 39.2207C74.2698 39.2207 73.6006 39.5078 73.027 40.0821C72.4533 40.4649 72.1665 41.1348 72.1665 41.9961Z" fill="#6E6F71"/>
<path d="M81.249 46.3028V33.1914H82.9699V46.3028H81.249Z" fill="#6E6F71"/>
<path d="M85.2645 46.3028V33.1914H86.9853V46.3028H85.2645Z" fill="#6E6F71"/>
<path d="M96.8327 45.3458C96.259 45.7286 95.6854 46.0157 95.0161 46.2071C94.4425 46.3985 93.7733 46.4942 93.104 46.4942C91.7656 46.4942 90.6183 46.1114 89.8535 45.2501C88.993 44.3887 88.6106 43.2403 88.6106 41.9004C88.6106 40.5606 88.993 39.6035 89.7578 38.7422C90.5227 37.9766 91.5744 37.498 92.8172 37.498C94.0601 37.498 95.0161 37.8809 95.781 38.7422C96.5458 39.6035 96.8327 40.6563 96.8327 42.0918V42.3789H90.3315C90.4271 43.2403 90.6183 43.8145 91.0963 44.293C91.5744 44.7715 92.2436 44.963 93.0084 44.963C93.5821 44.963 94.1557 44.8673 94.7293 44.6758C95.303 44.4844 95.9722 44.1973 96.5458 43.7188V45.3458H96.8327ZM90.5227 41.0391H95.1117C95.0161 40.3692 94.8249 39.8906 94.4425 39.5078C94.0601 39.125 93.5821 38.9336 92.9128 38.9336C92.2436 38.9336 91.7656 39.125 91.2875 39.5078C90.9051 39.8906 90.6183 40.3692 90.5227 41.0391Z" fill="#6E6F71"/>
<path d="M100.083 43.5274C99.414 43.336 98.936 42.9532 98.5536 42.5704C98.1712 42.0918 98.0756 41.5176 98.0756 40.8477C98.0756 39.7949 98.458 39.0293 99.1272 38.4551C99.8921 37.8809 100.944 37.6895 102.378 37.6895H105.82V39.125H104.386C104.577 39.4121 104.768 39.6035 104.864 39.8906C104.959 40.1778 105.055 40.4649 105.055 40.8477C105.055 41.6133 104.864 42.1875 104.386 42.6661C103.907 43.1446 103.334 43.5274 102.569 43.6231C102.378 43.6231 102.187 43.7188 101.9 43.7188C100.944 43.9102 100.466 44.1016 100.466 44.3887C100.466 44.6758 101.135 45.0587 102.473 45.2501C102.76 45.3458 103.047 45.3458 103.238 45.4415C104.099 45.6329 104.672 45.92 105.15 46.3028C105.628 46.6856 105.82 47.2598 105.82 47.8341C105.82 48.6954 105.437 49.3653 104.672 49.8439C103.907 50.3224 102.856 50.5138 101.517 50.5138C100.179 50.5138 99.1272 50.3224 98.3624 49.8439C97.5975 49.3653 97.3107 48.7911 97.3107 47.9298C97.3107 47.3556 97.5019 46.7813 97.9799 46.3985C98.3624 46.0157 99.0316 45.7286 99.7964 45.5372C99.5096 45.3458 99.2228 45.2501 99.0316 45.0587C98.8404 44.8673 98.8404 44.6758 98.8404 44.4844C98.8404 44.293 98.936 44.1016 99.1272 43.9102C99.414 43.9102 99.7009 43.7188 100.083 43.5274ZM99.1272 47.9298C99.1272 48.3126 99.3184 48.6954 99.7964 48.8868C100.179 49.0782 100.848 49.1739 101.709 49.1739C102.473 49.1739 103.143 49.0782 103.621 48.8868C104.099 48.6954 104.29 48.4083 104.29 48.0255C104.29 47.6427 104.003 47.3556 103.525 47.0684C103.047 46.877 102.282 46.7813 101.231 46.7813C100.657 46.7813 100.179 46.877 99.7964 47.0684C99.3184 47.3556 99.1272 47.547 99.1272 47.9298ZM101.613 39.125C101.039 39.125 100.657 39.3164 100.274 39.6035C99.9877 39.8906 99.7964 40.2735 99.7964 40.752C99.7964 41.2305 99.9877 41.6133 100.274 41.9004C100.561 42.1875 101.039 42.2832 101.613 42.2832C102.187 42.2832 102.665 42.0918 102.951 41.8047C103.238 41.5176 103.429 41.1348 103.429 40.6563C103.429 40.1778 103.238 39.7949 102.951 39.5078C102.569 39.2207 102.187 39.125 101.613 39.125Z" fill="#6E6F71"/>
<path d="M114.711 45.3458C114.137 45.7286 113.564 46.0157 112.894 46.2071C112.321 46.3985 111.651 46.4942 110.982 46.4942C109.644 46.4942 108.496 46.1114 107.732 45.2501C106.871 44.3887 106.489 43.2403 106.489 41.9004C106.489 40.5606 106.871 39.6035 107.636 38.7422C108.401 37.9766 109.453 37.498 110.695 37.498C111.938 37.498 112.894 37.8809 113.659 38.7422C114.424 39.6035 114.711 40.6563 114.711 42.0918V42.3789H108.21C108.305 43.2403 108.496 43.8145 108.975 44.293C109.453 44.7715 110.122 44.963 110.887 44.963C111.46 44.963 112.034 44.8673 112.608 44.6758C113.181 44.4844 113.85 44.1973 114.424 43.7188V45.3458H114.711ZM108.401 41.0391H112.99C112.894 40.3692 112.703 39.8906 112.321 39.5078C111.938 39.125 111.46 38.9336 110.791 38.9336C110.122 38.9336 109.644 39.125 109.166 39.5078C108.783 39.8906 108.592 40.3692 108.401 41.0391Z" fill="#6E6F71"/>
<path d="M126.183 50.7052V37.6895H127.904V38.168C128.191 37.9766 128.574 37.7852 128.956 37.6895C129.338 37.5937 129.721 37.498 130.199 37.498C131.442 37.498 132.493 37.8809 133.258 38.7422C134.023 39.6035 134.405 40.6563 134.405 41.9961C134.405 43.336 134.023 44.3887 133.258 45.2501C132.493 46.1114 131.442 46.4942 130.199 46.4942C129.721 46.4942 129.338 46.3985 128.956 46.3028C128.574 46.2071 128.287 46.0157 127.904 45.8243V50.7052H126.183ZM127.904 39.5078V44.3887C128.191 44.5801 128.478 44.7715 128.765 44.8672C129.052 44.963 129.338 45.0587 129.721 45.0587C130.581 45.0587 131.251 44.7715 131.824 44.293C132.302 43.7188 132.589 43.0489 132.589 42.0918C132.589 41.1348 132.302 40.4649 131.824 39.8906C131.346 39.3164 130.581 39.125 129.721 39.125C129.434 39.125 129.052 39.125 128.765 39.2207C128.478 39.2207 128.191 39.3164 127.904 39.5078Z" fill="#6E6F71"/>
<path d="M135.553 41.9961C135.553 40.752 136.031 39.6992 136.891 38.8379C137.752 37.9766 138.899 37.498 140.142 37.498C140.715 37.498 141.289 37.5937 141.863 37.8809C142.436 38.0723 142.914 38.4551 143.392 38.8379C143.87 39.3164 144.157 39.7949 144.444 40.2735C144.635 40.8477 144.827 41.4219 144.827 41.9961C144.827 42.5704 144.731 43.1446 144.444 43.7188C144.253 44.293 143.87 44.7715 143.488 45.1544C143.01 45.6329 142.532 45.92 142.054 46.1114C141.48 46.3028 140.907 46.3985 140.333 46.3985C139.09 46.3985 137.943 45.92 137.082 45.0587C135.935 44.293 135.553 43.2403 135.553 41.9961ZM137.369 41.9961C137.369 42.7618 137.656 43.5274 138.23 44.1016C138.803 44.6758 139.473 44.963 140.237 44.963C141.002 44.963 141.672 44.6758 142.245 44.1016C142.819 43.5274 143.106 42.8575 143.106 42.0918C143.106 41.3262 142.819 40.6563 142.245 40.0821C141.672 39.5078 141.002 39.2207 140.237 39.2207C139.473 39.2207 138.803 39.5078 138.23 40.0821C137.56 40.4649 137.369 41.1348 137.369 41.9961Z" fill="#6E6F71"/>
<path d="M146.356 46.3028V33.1914H148.077V46.3028H146.356ZM154.005 37.6895L150.372 41.6134L154.769 46.3028H152.379L148.173 41.7091L151.901 37.6895H154.005Z" fill="#6E6F71"/>
<path d="M155.63 46.3028V33.1914H157.351V38.7422C157.829 38.3594 158.211 38.0723 158.594 37.8809C158.976 37.6895 159.454 37.5938 159.932 37.5938C160.888 37.5938 161.653 37.8809 162.131 38.4551C162.705 39.0293 162.991 39.6993 162.991 40.6563V46.3985H161.271V41.1348C161.271 40.4649 161.079 39.8907 160.793 39.6036C160.506 39.3165 160.028 39.125 159.454 39.125C158.976 39.125 158.594 39.2208 158.211 39.4122C157.829 39.6036 157.542 39.8907 157.255 40.2735V46.4943H155.63V46.3028Z" fill="#6E6F71"/>
<path d="M169.493 45.6329C169.015 45.92 168.632 46.1114 168.25 46.3028C167.867 46.3985 167.485 46.4942 167.007 46.4942C166.242 46.4942 165.668 46.3028 165.19 45.92C164.712 45.5372 164.521 45.0587 164.521 44.3887C164.521 43.8145 164.712 43.2403 165.19 42.7618C165.668 42.2832 166.338 41.9004 167.294 41.6133L169.301 40.9434C169.301 40.8477 169.301 40.8477 169.301 40.752C169.301 40.6563 169.301 40.6563 169.301 40.5606C169.301 40.0821 169.206 39.6992 168.919 39.4121C168.632 39.2207 168.25 39.0293 167.676 39.0293C167.198 39.0293 166.72 39.125 166.146 39.3164C165.668 39.5078 165.095 39.7949 164.617 40.1778V38.5508C165.095 38.168 165.573 37.8809 166.146 37.6895C166.72 37.498 167.294 37.4023 167.867 37.4023C169.015 37.4023 169.779 37.6895 170.257 38.168C170.736 38.6465 171.022 39.4121 171.022 40.5606V44.293C171.022 44.5801 171.022 44.7715 171.118 44.963C171.214 45.0587 171.214 45.1544 171.405 45.1544C171.5 45.1544 171.596 45.1544 171.692 45.0587C171.787 44.963 171.978 44.8673 172.265 44.6758V45.7286C171.978 46.0157 171.596 46.2071 171.309 46.3028C171.022 46.3985 170.64 46.4942 170.353 46.4942C170.066 46.4942 169.779 46.3985 169.588 46.3028C169.588 46.1114 169.493 45.92 169.493 45.6329ZM169.493 44.5801V41.9961C168.345 42.3789 167.485 42.6661 167.103 42.9532C166.625 43.2403 166.433 43.6231 166.433 44.0059C166.433 44.3887 166.529 44.6758 166.816 44.8673C167.007 45.0587 167.389 45.1544 167.772 45.1544C168.059 45.1544 168.345 45.0587 168.632 44.963C168.919 44.963 169.206 44.7715 169.493 44.5801Z" fill="#6E6F71"/>
<path d="M173.508 46.3028V37.6895H175.229V39.6035C175.707 38.8379 176.185 38.3594 176.567 37.9766C176.95 37.6895 177.332 37.498 177.81 37.498C178.097 37.498 178.48 37.5937 178.766 37.6895C179.053 37.7852 179.436 38.0723 179.818 38.3594L178.862 39.8906C178.575 39.6035 178.288 39.5078 178.097 39.3164C177.81 39.2207 177.619 39.125 177.332 39.125C176.854 39.125 176.472 39.3164 176.089 39.6992C175.707 40.0821 175.516 40.6563 175.325 41.3262V46.2071H173.508V46.3028Z" fill="#6E6F71"/>
<path d="M184.981 45.6329C184.503 45.92 184.12 46.1114 183.738 46.3028C183.355 46.3985 182.973 46.4942 182.495 46.4942C181.73 46.4942 181.157 46.3028 180.679 45.92C180.2 45.5372 180.009 45.0587 180.009 44.3887C180.009 43.8145 180.2 43.2403 180.679 42.7618C181.157 42.2832 181.826 41.9004 182.782 41.6133L184.79 40.9434C184.79 40.8477 184.79 40.8477 184.79 40.752C184.79 40.6563 184.79 40.6563 184.79 40.5606C184.79 40.0821 184.694 39.6992 184.407 39.4121C184.12 39.2207 183.738 39.0293 183.164 39.0293C182.686 39.0293 182.208 39.125 181.635 39.3164C181.157 39.5078 180.583 39.7949 180.105 40.1778V38.5508C180.583 38.168 181.061 37.8809 181.635 37.6895C182.208 37.498 182.782 37.4023 183.355 37.4023C184.503 37.4023 185.268 37.6895 185.746 38.168C186.224 38.6465 186.51 39.4121 186.51 40.5606V44.293C186.51 44.5801 186.51 44.7715 186.606 44.963C186.702 45.0587 186.702 45.1544 186.893 45.1544C186.988 45.1544 187.084 45.1544 187.18 45.0587C187.275 44.963 187.466 44.8673 187.753 44.6758V45.7286C187.466 46.0157 187.084 46.2071 186.797 46.3028C186.51 46.3985 186.128 46.4942 185.841 46.4942C185.554 46.4942 185.268 46.3985 185.076 46.3028C185.172 46.1114 185.076 45.92 184.981 45.6329ZM184.981 44.5801V41.9961C183.833 42.3789 182.973 42.6661 182.591 42.9532C182.113 43.2403 181.921 43.6231 181.921 44.0059C181.921 44.3887 182.017 44.6758 182.304 44.8673C182.495 45.0587 182.877 45.1544 183.26 45.1544C183.547 45.1544 183.833 45.0587 184.12 44.963C184.407 44.963 184.694 44.7715 184.981 44.5801Z" fill="#6E6F71"/>
<path d="M62.4148 12.2324C62.4148 11.7539 62.606 11.3711 62.8928 11.084C63.1796 10.7969 63.562 10.6055 64.0401 10.6055C64.5181 10.6055 64.9005 10.7969 65.1873 11.084C65.4742 11.3711 65.6654 11.7539 65.6654 12.2324C65.6654 12.711 65.4742 13.0938 65.1873 13.3809C64.9005 13.668 64.5181 13.8594 64.0401 13.8594C63.562 13.8594 63.2752 13.668 62.8928 13.3809C62.606 12.9981 62.4148 12.6153 62.4148 12.2324ZM62.606 30.2248V16.252H65.3785V30.1291H62.606V30.2248Z" fill="white"/>
<path d="M68.2467 30.2247V16.252H71.0193V17.9746C71.6885 17.3047 72.3577 16.8262 73.1226 16.5391C73.8874 16.252 74.5567 16.0605 75.3215 16.0605C76.8512 16.0605 77.9984 16.5391 78.8589 17.4004C79.7193 18.2617 80.1974 19.5059 80.1974 21.0372V30.2247H77.4248V21.7071C77.4248 20.5586 77.2336 19.793 76.7556 19.2188C76.2776 18.6446 75.5127 18.4531 74.5567 18.4531C73.8874 18.4531 73.2182 18.5489 72.6446 18.836C72.0709 19.1231 71.5929 19.6016 71.1149 20.1758V30.2247H68.2467Z" fill="white"/>
<path d="M86.4117 30.2248H83.5435V18.7403H81.7271V16.3477H83.5435V15.1036C83.5435 13.8594 83.6392 12.9981 83.7348 12.5196C83.8304 11.9453 84.0216 11.4668 84.3084 11.084C84.6908 10.4141 85.2644 9.93556 85.9337 9.55274C86.6029 9.16992 87.4634 8.97852 88.3238 8.97852C88.6106 8.97852 88.8974 8.97852 89.2799 9.07422C89.6623 9.16992 90.0447 9.16992 90.6184 9.36133V11.7539C90.2359 11.6582 89.8535 11.6582 89.5667 11.5625C89.2799 11.5625 88.993 11.4668 88.8018 11.4668C87.9414 11.4668 87.3678 11.6582 86.9853 12.1367C86.6029 12.6153 86.4117 13.3809 86.4117 14.625V16.3477H88.2282V18.7403H86.4117V30.2248Z" fill="white"/>
<path d="M89.3754 23.2383C89.3754 21.2286 90.0447 19.5059 91.5744 18.0703C93.0084 16.6348 94.7293 15.9648 96.8327 15.9648C97.7887 15.9648 98.7448 16.1563 99.6052 16.5391C100.466 16.9219 101.326 17.4004 101.995 18.0703C102.665 18.836 103.238 19.6016 103.621 20.4629C104.003 21.3243 104.194 22.2813 104.194 23.2383C104.194 24.1954 104.003 25.1524 103.621 26.0138C103.238 26.8751 102.665 27.7364 101.995 28.4064C101.326 29.0763 100.466 29.6505 99.6052 29.9376C98.7448 30.3204 97.7887 30.5118 96.8327 30.5118C94.7293 30.5118 93.0084 29.8419 91.5744 28.4064C90.0447 26.9708 89.3754 25.2481 89.3754 23.2383ZM92.2436 23.2383C92.2436 24.5782 92.7216 25.6309 93.5821 26.588C94.4425 27.545 95.4942 27.9278 96.737 27.9278C97.9799 27.9278 99.0316 27.4493 99.892 26.588C100.752 25.6309 101.23 24.5782 101.23 23.2383C101.23 21.9942 100.752 20.8457 99.892 19.9844C99.0316 19.0274 97.9799 18.6446 96.737 18.6446C95.4942 18.6446 94.4425 19.1231 93.5821 19.9844C92.7216 20.8457 92.2436 21.9942 92.2436 23.2383Z" fill="white"/>
<path d="M106.011 30.2247V16.252H108.783V19.3145C109.548 18.0703 110.217 17.209 110.887 16.7305C111.46 16.252 112.129 15.9648 112.894 15.9648C113.372 15.9648 113.946 16.0605 114.424 16.252C114.902 16.4434 115.476 16.8262 116.049 17.3047L114.52 19.793C114.042 19.4102 113.659 19.1231 113.181 18.9317C112.799 18.7403 112.321 18.6446 111.843 18.6446C111.078 18.6446 110.409 18.9317 109.835 19.6016C109.261 20.2715 108.879 21.1329 108.592 22.2813V30.129H106.011V30.2247Z" fill="white"/>
<path d="M116.719 30.2247V16.252H119.491V17.9746C120.16 17.3047 120.83 16.8262 121.594 16.5391C122.264 16.252 123.029 16.0605 123.793 16.0605C124.845 16.0605 125.705 16.252 126.375 16.6348C127.044 17.0176 127.618 17.5918 128.096 18.4531C128.956 17.5918 129.721 17.0176 130.486 16.6348C131.251 16.252 132.015 16.0605 132.876 16.0605C134.406 16.0605 135.553 16.5391 136.509 17.4004C137.369 18.2617 137.847 19.5059 137.847 21.0372V30.2247H135.075V21.7071C135.075 20.5586 134.884 19.6973 134.406 19.2188C133.928 18.6446 133.163 18.4531 132.207 18.4531C131.442 18.4531 130.868 18.5489 130.295 18.836C129.721 19.1231 129.243 19.6016 128.669 20.1758V30.2247H125.992V21.7071C125.992 20.5586 125.801 19.793 125.323 19.2188C124.845 18.6446 124.08 18.4531 123.124 18.4531C122.455 18.4531 121.786 18.5489 121.212 18.836C120.638 19.1231 120.16 19.6016 119.682 20.1758V30.2247H116.719Z" fill="white"/>
<path d="M160.697 29.7462C160.219 30.0333 159.837 30.1291 159.263 30.3205C158.785 30.4162 158.211 30.5119 157.638 30.5119C156.108 30.5119 154.961 30.1291 154.291 29.3634C153.622 28.5978 153.335 27.2579 153.335 25.2481V18.6446H151.136V18.4532V16.3477H153.527V15.0078L156.012 13.0938H156.299V16.3477H160.601V18.7403H156.299V25.1524C156.299 26.3009 156.395 27.0665 156.682 27.3536C156.968 27.7365 157.542 27.8322 158.307 27.8322C158.689 27.8322 159.167 27.7365 159.55 27.6407C159.932 27.545 160.315 27.3536 160.697 27.1622V29.7462Z" fill="white"/>
<path d="M162.131 12.2324C162.131 11.7539 162.322 11.3711 162.609 11.084C162.896 10.7969 163.278 10.6055 163.756 10.6055C164.234 10.6055 164.617 10.7969 164.904 11.084C165.19 11.3711 165.382 11.7539 165.382 12.2324C165.382 12.711 165.19 13.0938 164.904 13.3809C164.617 13.668 164.234 13.8594 163.756 13.8594C163.278 13.8594 162.991 13.668 162.609 13.3809C162.227 12.9981 162.131 12.6153 162.131 12.2324ZM162.322 30.2248V16.252H165.095V30.1291H162.322V30.2248Z" fill="white"/>
<path d="M178.766 26.8751V29.7462C178.097 30.0333 177.428 30.2247 176.759 30.3204C176.089 30.4161 175.42 30.5118 174.751 30.5118C172.456 30.5118 170.64 29.8419 169.206 28.5021C167.772 27.1622 167.007 25.4395 167.007 23.334C167.007 21.2286 167.772 19.5059 169.206 18.166C170.64 16.8262 172.456 16.0605 174.655 16.0605C175.325 16.0605 175.994 16.1563 176.663 16.252C177.332 16.3477 178.002 16.6348 178.575 16.9219V19.8887C177.906 19.5059 177.332 19.2188 176.663 19.0274C175.994 18.836 175.42 18.7403 174.751 18.7403C173.317 18.7403 172.17 19.1231 171.309 19.9844C170.449 20.8457 169.971 21.8985 169.971 23.2383C169.971 24.5782 170.449 25.7266 171.309 26.588C172.265 27.4493 173.412 27.8321 174.942 27.8321C175.611 27.8321 176.281 27.7364 176.95 27.6407C177.523 27.4493 178.193 27.2579 178.766 26.8751Z" fill="white"/>
<path d="M179.818 29.2677V26.3009C180.678 26.8751 181.443 27.2579 182.208 27.545C182.973 27.8321 183.642 28.0235 184.311 28.0235C184.981 28.0235 185.554 27.9278 186.032 27.6407C186.415 27.3536 186.606 26.9708 186.606 26.588C186.606 26.0138 185.841 25.3438 184.311 24.5782C183.833 24.3868 183.547 24.1954 183.26 24.004C181.921 23.334 181.061 22.6641 180.583 22.0899C180.105 21.5157 179.818 20.75 179.818 19.793C179.818 18.6446 180.2 17.6875 181.061 17.0176C181.921 16.3477 183.069 15.9648 184.503 15.9648C185.268 15.9648 186.032 16.0605 186.797 16.252C187.562 16.4434 188.231 16.7305 188.9 17.1133V19.793C188.04 19.3145 187.275 18.9317 186.606 18.7403C185.937 18.5488 185.267 18.3574 184.598 18.3574C184.025 18.3574 183.547 18.4531 183.26 18.6446C182.973 18.836 182.782 19.1231 182.782 19.5059C182.782 20.1758 183.738 21.0372 185.65 21.9942L185.937 22.0899C187.466 22.8555 188.422 23.5255 188.9 24.0997C189.379 24.6739 189.57 25.4395 189.57 26.3009C189.57 27.545 189.092 28.5021 188.231 29.2677C187.275 30.0333 186.128 30.3204 184.598 30.3204C183.738 30.3204 182.877 30.2247 182.113 30.0333C181.348 29.9376 180.583 29.6505 179.818 29.2677Z" fill="white"/>
<path d="M120.352 40.2739C121.308 40.2739 122.072 41.0396 122.072 41.9966C122.072 42.9536 121.308 43.7193 120.352 43.7193C119.395 43.7193 118.631 42.9536 118.631 41.9966C118.535 41.0396 119.3 40.2739 120.352 40.2739Z" fill="#BE202E"/>
<path d="M150.85 27.9278C150.658 28.0235 150.467 28.0235 150.276 28.0235C150.085 28.0235 149.894 27.9278 149.894 27.7364C149.798 27.545 149.798 27.1622 149.798 26.6837V20.75C149.798 19.0274 149.416 17.6875 148.555 16.9219C147.695 16.1563 146.452 15.7734 144.635 15.7734C143.679 15.7734 142.723 15.9648 141.863 16.252C141.002 16.5391 140.142 17.0176 139.473 17.5918V20.3672C140.333 19.6973 141.098 19.2188 141.958 18.9317C142.819 18.6446 143.584 18.4531 144.348 18.4531C145.305 18.4531 145.974 18.6446 146.356 19.0274C146.739 19.4102 146.93 19.9844 146.93 20.8457C146.93 20.9415 146.93 20.9415 146.93 21.0372V23.9083V27.3536C146.452 27.7364 145.974 27.9278 145.591 28.1192C145.113 28.3107 144.635 28.4064 144.157 28.4064C143.488 28.4064 143.01 28.215 142.628 27.9278C142.245 27.6407 142.054 27.1622 142.054 26.588C142.054 25.9181 142.436 25.3438 143.106 24.8653C143.679 24.4825 144.54 24.0997 145.783 23.6212V21.8028L143.679 22.4727C142.15 22.9512 141.002 23.6212 140.237 24.3868C139.473 25.1524 139.09 26.0138 139.09 26.9708C139.09 28.0235 139.473 28.7892 140.142 29.4591C140.811 30.0333 141.863 30.3204 143.106 30.3204C143.87 30.3204 144.54 30.2247 145.113 30.0333C145.783 29.8419 146.452 29.4591 147.121 28.9806C147.121 29.4591 147.312 29.8419 147.599 30.0333C147.886 30.2247 148.268 30.3204 148.842 30.3204C149.416 30.3204 149.894 30.2247 150.467 30.0333C150.945 29.8419 151.519 29.5548 151.997 29.0763V27.3536C151.328 27.545 151.041 27.8321 150.85 27.9278Z" fill="white"/>
</svg>
