<svg id="Group_15" data-name="Group 15" xmlns="http://www.w3.org/2000/svg" xmlns:xlink="http://www.w3.org/1999/xlink" width="135.356" height="93.99" viewBox="0 0 135.356 93.99">
  <defs>
    <clipPath id="clip-path">
      <rect id="Rectangle_10" data-name="Rectangle 10" width="135.356" height="93.99" fill="none"/>
    </clipPath>
    <clipPath id="clip-path-2">
      <rect id="Rectangle_9" data-name="Rectangle 9" width="135.357" height="93.989" fill="none"/>
    </clipPath>
    <clipPath id="clip-path-3">
      <rect id="Rectangle_7" data-name="Rectangle 7" width="118.224" height="76.277" fill="none"/>
    </clipPath>
  </defs>
  <g id="Group_14" data-name="Group 14" clip-path="url(#clip-path)">
    <g id="Group_13" data-name="Group 13" transform="translate(0 0.001)">
      <g id="Group_12" data-name="Group 12" clip-path="url(#clip-path-2)">
        <g id="Group_11" data-name="Group 11" transform="translate(17.132 -0.001)" opacity="0.96">
          <g id="Group_10" data-name="Group 10" transform="translate(0 0)">
            <g id="Group_9" data-name="Group 9" clip-path="url(#clip-path-3)">
              <path id="Path_11" data-name="Path 11" d="M47.276,76.277H21.222a12.682,12.682,0,0,1-12.6-12.756V12.756A12.681,12.681,0,0,1,21.222,0h93.015a12.679,12.679,0,0,1,12.6,12.756V63.521a12.681,12.681,0,0,1-12.6,12.756H47.276Z" transform="translate(-8.617 0)" fill="#72b32f" fill-rule="evenodd"/>
            </g>
          </g>
        </g>
        <path id="Path_12" data-name="Path 12" d="M10.4,15.491H21.635v4.5a15.814,15.814,0,0,1,12.245-5.193c7.752,0,12.169,4.805,12.169,13.873v22.71H34.734V30.217c0-4.958-1.475-7.362-5.04-7.362-3.489,0-6.123,2.324-8.06,5.656V51.376H10.4Z" transform="translate(10.274 14.616)" fill="#fff"/>
        <path id="Path_13" data-name="Path 13" d="M6.7,7.731a6.6,6.6,0,0,1,6.7,6.7,6.6,6.6,0,0,1-6.7,6.7,6.7,6.7,0,1,1,0-13.4" transform="translate(0 7.638)" fill="#72b32f"/>
        <rect id="Rectangle_8" data-name="Rectangle 8" width="13.173" height="36.297" transform="translate(0 29.982)" fill="#72b32f"/>
        <path id="Path_14" data-name="Path 14" d="M48.743,12.024a4.912,4.912,0,0,1,2.354.618,4.4,4.4,0,0,1,1.789,1.771,4.813,4.813,0,0,1,.01,4.779,4.421,4.421,0,0,1-1.771,1.773,4.812,4.812,0,0,1-4.761,0,4.438,4.438,0,0,1-1.773-1.773,4.787,4.787,0,0,1,.01-4.779,4.4,4.4,0,0,1,1.791-1.771,4.91,4.91,0,0,1,2.352-.618M52.2,14.813a3.668,3.668,0,0,0-1.5-1.479,3.975,3.975,0,0,0-3.921,0,3.692,3.692,0,0,0-1.5,1.479,3.968,3.968,0,0,0-.01,3.982,3.733,3.733,0,0,0,1.481,1.479,3.99,3.99,0,0,0,3.97,0A3.728,3.728,0,0,0,52.209,18.8a4.006,4.006,0,0,0-.01-3.982m-1.9,3.239a9.7,9.7,0,0,0,.406,1.469h-.714a6.541,6.541,0,0,1-.35-1.278c-.159-.74-.453-1.018-1.08-1.042h-.652v2.32h-.692V14.247a7.234,7.234,0,0,1,1.328-.119,2.217,2.217,0,0,1,1.557.445,1.33,1.33,0,0,1,.419,1.016,1.408,1.408,0,0,1-1.008,1.358v.024a1.361,1.361,0,0,1,.785,1.082m-.475-2.392c0-.69-.5-.992-1.229-.992a2.907,2.907,0,0,0-.686.064v1.946h.71c.738,0,1.2-.406,1.2-1.018" transform="translate(43.432 11.88)" fill="#fff" fill-rule="evenodd"/>
        <path id="Path_15" data-name="Path 15" d="M15.309,54.109c-4,0-6.692-2.771-6.692-6.9,0-4.173,2.626-6.871,6.692-6.871a6.528,6.528,0,0,1,5,2.026l.193.213-1.082,1.01-.2-.2a5.251,5.251,0,0,0-3.909-1.549h0c-3.1,0-5.028,2.062-5.028,5.374,0,3.33,1.928,5.4,5.028,5.4a4.782,4.782,0,0,0,3.732-1.487v-3.2H15.017V46.471h5.666v5.173l-.062.078a6.385,6.385,0,0,1-5.312,2.388" transform="translate(8.514 39.861)" fill="#fff"/>
        <path id="Path_16" data-name="Path 16" d="M27.9,53.78H25.891l-3.459-4.789-3.479,0V53.78H17.289V40.452l5.533,0a4.031,4.031,0,0,1,4.336,4.266,3.873,3.873,0,0,1-2.952,4.074Zm-8.946-6.258H22.72a2.538,2.538,0,0,0,2.773-2.8,2.557,2.557,0,0,0-2.773-2.793H18.951Z" transform="translate(17.083 39.967)" fill="#fff"/>
        <path id="Path_17" data-name="Path 17" d="M31.123,54.109c-4,0-6.692-2.771-6.692-6.9,0-4.173,2.626-6.871,6.692-6.871,4.012,0,6.71,2.761,6.71,6.871,0,4.189-2.634,6.9-6.71,6.9m0-12.27c-3.1,0-5.028,2.06-5.028,5.374S28.021,52.6,31.123,52.6s5.044-2.068,5.044-5.392-1.932-5.374-5.044-5.374" transform="translate(24.14 39.861)" fill="#fff"/>
        <path id="Path_18" data-name="Path 18" d="M38.977,54.022c-3.67,0-5.378-2.008-5.378-6.318V40.451h1.664v7.171c0,3.427,1.076,4.825,3.714,4.825s3.714-1.4,3.714-4.825V40.451h1.664V47.7c0,2.712-.559,6.318-5.378,6.318" transform="translate(33.199 39.968)" fill="#fff"/>
        <path id="Path_19" data-name="Path 19" d="M43.27,53.778H41.606V40.45h5.545A4.235,4.235,0,0,1,51.7,44.935a4.2,4.2,0,0,1-4.553,4.5H43.27Zm0-5.823h3.777a2.736,2.736,0,0,0,2.99-3.02,2.756,2.756,0,0,0-2.99-3.01H43.27Z" transform="translate(41.11 39.967)" fill="#fff"/>
        <path id="Path_20" data-name="Path 20" d="M65.409,60.41a10.705,10.705,0,0,1-.956,4.575H51.367c2.394-.692,3.67-1.968,3.67-3.777,0-2.553-2.98-4.2-8.3-4.2-5.69,0-8.616,1.541-8.616,4.1,0,1.915,1.171,3.191,3.457,3.883H28.387a8.215,8.215,0,0,1-.638-3.245c0-4.2,3.245-7.288,9.521-8.936-2.765-.851-4.2-2.288-4.2-4.416,0-2.765,2.022-4.575,6.066-5.479-6.33-1.861-9.044-4.893-9.523-10.8a12.416,12.416,0,0,1,.692-5.266c3.191-8.777,19.523-13.352,19.523-13.352l-1.171-2.076,7.873,2.4L55.25,20.941,53.6,19.132c-7.765,2.606-11.7,6.543-12.925,9.628-1.117,2.98-.427,9.1,5.372,9.2s8.086-4.575,6.384-8.457c-1.757-3.936-7.022-3.672-7.022-3.672l7.447-5.105a20.092,20.092,0,0,1,4.507,1.994,11.615,11.615,0,0,1,5.972,9.636v.072c0,6.543-3.885,10.32-11.491,11.65-4.946.851-8.086.052-8.086,2.873,0,2.394,3.139,2.074,9.895,2.924,7.714,1.012,11.756,4.734,11.756,10.533" transform="translate(27.418 11.281)" fill="#fff"/>
      </g>
    </g>
  </g>
</svg>
