<?xml version="1.0" encoding="UTF-8"?><svg id="Layer_2" xmlns="http://www.w3.org/2000/svg" viewBox="0 0 230.2 234.24"><defs><style>.cls-1{fill:#fff;}.cls-2{fill:#93c740;}</style></defs><g id="Layer_1-2"><g><g><path class="cls-1" d="M13.07,215.83c-3.46-.41-6.44-1.11-6.44-3.62,0-2.15,1.94-3.83,5.98-3.83,3.14,0,5.86,1.56,6.84,3.21l4.33-2.23c-2.19-4.45-6.84-5.72-11.33-5.72-5.33,.03-11.18,2.47-11.18,8.4,0,6.48,5.44,8.04,11.33,8.74,3.84,.42,6.68,1.53,6.68,4.25,0,3.13-3.21,4.32-6.63,4.32s-6.84-1.4-8.12-4.57l-4.53,2.36c2.15,5.27,6.68,7.08,12.57,7.08,6.44,0,12.12-2.76,12.12-9.19,0-6.89-5.6-8.46-11.61-9.2Z"/><polygon class="cls-1" points="35.44 209.58 44.6 209.58 44.6 233.48 50.04 233.48 50.04 209.58 59.19 209.58 59.19 204.63 35.44 204.63 35.44 209.58"/><path class="cls-1" d="M91.5,221.21c0,4.94-2.55,7.95-7.04,7.95s-7.46-2.76-7.46-7.95v-16.54h-5.4v16.54c0,8.7,5.89,12.89,12.82,12.89s12.48-4.36,12.48-12.89v-16.54h-5.4v16.54Z"/><path class="cls-1" d="M121.44,204.63h-11.33v28.85h11.33c10.1,0,14.54-7.38,14.42-14.67-.13-7.13-4.53-14.18-14.42-14.18Zm0,23.62h-5.93v-18.47h5.93c6.26,0,8.91,4.5,9.02,8.99,.13,4.7-2.47,9.48-9.02,9.48Z"/><rect class="cls-1" x="148.18" y="204.63" width="5.4" height="28.85"/><path class="cls-1" d="M218.57,215.83c-3.46-.41-6.42-1.11-6.42-3.62,0-2.15,1.94-3.83,5.98-3.83,3.13,0,5.85,1.56,6.84,3.21l4.32-2.23c-2.17-4.45-6.84-5.72-11.33-5.72-5.32,.03-11.16,2.47-11.16,8.4,0,6.48,5.44,8.04,11.33,8.74,3.83,.42,6.68,1.53,6.68,4.25,0,3.13-3.21,4.32-6.63,4.32s-6.84-1.4-8.12-4.57l-4.53,2.36c2.13,5.27,6.68,7.08,12.57,7.08,6.42,0,12.12-2.76,12.12-9.19,0-6.89-5.61-8.46-11.63-9.2Z"/><g><path class="cls-2" d="M177.95,212.51c-.62-.38-1.42,.07-1.42,.79v11.3c0,.74,.81,1.18,1.43,.79l8.98-5.77c.58-.38,.56-1.22-.01-1.58l-8.98-5.53Z"/><path class="cls-1" d="M181.06,203.66c-8.42,0-15.28,6.86-15.28,15.29s6.86,15.29,15.28,15.29,15.29-6.86,15.29-15.29-6.86-15.29-15.29-15.29Zm0,26.47c-6.16,0-11.18-5-11.18-11.18s5.02-11.18,11.18-11.18,11.19,5.02,11.19,11.18-5.02,11.18-11.19,11.18Z"/></g></g><g><path class="cls-2" d="M178.21,55.64l9.76,2.97,4.01,1.22-13.99-35.72-12.54,15.93-1.28-3.21-4.28,5.43-3.24-8.13c-2.97-7.42-11.39-11.03-18.81-8.06l-8.29,3.32c2.93-5.01,3.6-11.29,1.28-17.1-4-10.01-15.39-14.9-25.4-10.9-9.06,3.63-13.93,13.31-11.81,22.53-2.61-.65-5.43-.53-8.11,.54-6.78,2.71-10.08,10.43-7.38,17.21,1.07,2.65,2.9,4.78,5.15,6.21l-11.18,4.47-12.2,4.88c-7.42,2.96-11.03,11.38-8.07,18.81l.29,.72-2.11,.85h23.27v6.68c8.01-5.82,16.82-8.49,27.6-8.49,18.04,0,29.99,9.25,34.11,25.86,.06-.15,.11-.32,.17-.47,7.18-19.77,36.59-31.56,48.48-35.6l-.54-1.01-4.9-8.95Zm-94.94-16.01c-1.58-3.94,.35-8.44,4.31-10.03,3.94-1.57,8.44,.35,10.03,4.31,1.49,3.74-.17,7.96-3.68,9.74l-.07,.04-1.1,.43c-3.81,1.21-7.97-.72-9.49-4.49ZM107.53,6.66c7.11-2.85,15.21,.63,18.06,7.74,2.83,7.11-.64,15.21-7.75,18.06-7.1,2.83-15.2-.64-18.04-7.75-2.85-7.1,.63-15.2,7.74-18.04Zm-4.26,33.24c.25-.99,.37-2,.39-3.03,1.14,.61,2.35,1.08,3.58,1.44l-3.97,1.58Z"/><path class="cls-2" d="M14.56,45.28C6.54,45.28,0,51.81,0,59.84s6.53,14.56,14.56,14.56,14.56-6.53,14.56-14.56-6.53-14.56-14.56-14.56Z"/><path class="cls-2" d="M199.62,162.41c-17.49-2.21-25.54-1.4-25.54-7.64,0-7.24,8.06-5.22,20.92-7.43,19.71-3.43,29.77-13.28,29.77-30.17,0-.06,0-.12,0-.19-.04-8.96-4.56-17.3-11.79-22.6-3.68-2.7-8.79-5.62-15.41-7.6l-19.24,13.2h.42c4.29,0,8.67,.78,12.25,3.29,8.08,5.65,9.43,18.22,1.4,24.52-6.28,4.93-16.73,5.67-22.76-.21-2.9-2.83-4.32-6.85-4.67-10.82-.27-3.04,0-6.24,1.1-9.11,.69-1.82,1.76-3.75,3.25-5.74,2.51-3.42,6.22-6.96,11.31-10.31,4.96-3.26,11.21-6.33,18.9-8.9l4.26,4.68,3.4-18.57s-13.26-4.03-13.28-4.03l-7.15-2.18,2.97,5.44s-1.74,.49-4.57,1.44c-3.07,1.04-7.43,2.65-12.28,4.81-12.82,5.69-29.03,15.2-33.79,28.32-.82,2.26-1.31,4.56-1.58,6.63-.4,3.08-.35,5.69-.24,7.11,1.24,15.25,8.26,23.14,24.75,27.96-10.46,2.42-15.68,7.04-15.68,14.28,0,5.43,3.61,9.25,10.86,11.46-16.29,4.22-24.74,12.28-24.74,23.13,0,.31,.03,2.69,.06,2.97h27.53c-.43-.88-.65-2.46-.64-4.57,.05-10.03,14.32-10.76,21.51-10.72,2.94,.02,5.9,.16,8.8,.6,4.18,.64,9.42,2.05,12.06,5.73,1.59,2.22,2.03,5.72,1.03,8.34-.08,.21-.17,.41-.27,.61h27.29c.32-1.92,.36-3.94,.36-6.39,0-15.08-10.46-24.74-30.57-27.35Z"/><rect class="cls-2" y="81.78" width="29.11" height="93.1"/><path class="cls-2" d="M39.97,81.72h29.18v11.67c9.46-9.66,19.11-13.48,31.79-13.48,20.12,0,31.59,12.48,31.59,36.02v58.96h-29.38v-54.93c0-12.88-3.82-19.12-13.08-19.12s-15.89,6.03-20.92,14.69v59.36h-29.18V81.72Z"/></g></g></g></svg>