<svg width="118" height="95" viewBox="0 0 118 95" fill="none" xmlns="http://www.w3.org/2000/svg">
<path d="M79.3763 10.2921C79.3763 15.6515 75.074 19.9582 69.7201 19.9582C67.1388 19.9582 64.7487 19.0011 62.9322 17.1828C61.9761 16.2257 61.3069 15.173 60.8289 14.0245C60.3508 12.8761 60.064 11.6319 60.064 10.2921C60.064 7.70808 61.0201 5.31547 62.8366 3.4971C64.6531 1.67872 67.0432 0.625977 69.6245 0.625977C75.074 0.625977 79.3763 4.93266 79.3763 10.2921Z" fill="#FFCA1B"/>
<path d="M42.8551 16.417C44.6716 18.2354 45.7232 20.628 45.7232 23.212C45.7232 25.796 44.7672 28.1886 42.9507 30.007C41.9946 30.964 40.943 31.634 39.7957 32.1125C38.6484 32.591 37.4056 32.8781 36.0671 32.8781C30.7132 32.8781 26.411 28.5714 26.411 23.212C26.411 17.8526 30.7132 13.5459 36.0671 13.5459C38.5528 13.6416 41.0386 14.5986 42.8551 16.417Z" fill="#ED2A4A"/>
<path d="M58.8212 19.2882C58.8212 22.5421 56.1442 25.2218 52.8936 25.2218C51.2683 25.2218 49.8343 24.6476 48.687 23.4992C47.5397 22.3507 46.9661 20.9151 46.9661 19.2882C46.9661 16.0342 49.6431 13.3545 52.8936 13.3545C56.1442 13.2588 58.8212 15.9385 58.8212 19.2882Z" fill="#ED2A4A"/>
<path d="M59.0124 29.7198C59.0124 31.7296 57.3871 33.3565 55.3794 33.4522H55.2838H55.1881C53.1804 33.4522 51.5551 31.7296 51.5551 29.7198C51.5551 27.71 53.1804 25.9873 55.2838 25.9873C57.3871 25.9873 59.0124 27.6143 59.0124 29.7198Z" fill="#ED2A4A"/>
<path d="M51.1727 31.251C51.1727 31.8252 50.9815 32.3995 50.5035 32.878C50.1211 33.2608 49.5474 33.5479 48.8782 33.5479C47.6353 33.5479 46.5837 32.4951 46.5837 31.251C46.5837 30.0068 47.6353 28.9541 48.8782 28.9541C50.2167 28.9541 51.1727 30.0068 51.1727 31.251Z" fill="#ED2A4A"/>
<path d="M79.7587 27.1358C79.7587 28.7628 79.1851 30.1983 78.0378 31.3468C76.8905 32.4952 75.4565 33.0694 73.8312 33.0694C72.2059 33.0694 70.7718 32.4952 69.6246 31.3468C69.0509 30.7725 68.6685 30.1026 68.2861 29.4327C67.9993 28.7628 67.808 27.9014 67.808 27.1358C67.808 25.5088 68.3817 24.0733 69.5289 22.9248C70.6762 21.7764 72.1103 21.2021 73.7356 21.2021C75.3609 21.2021 76.7949 21.7764 77.9422 22.9248C79.0895 24.0733 79.7587 25.6045 79.7587 27.1358Z" fill="#FFCA1B"/>
<path d="M67.0432 29.624C67.0432 30.5811 66.6608 31.5381 65.9915 32.2081C65.3223 32.878 64.4619 33.2608 63.4102 33.2608H63.3146H63.219C62.2629 33.2608 61.4025 32.878 60.7332 32.2081C60.064 31.5381 59.6816 30.5811 59.6816 29.624C59.6816 27.6143 61.3069 25.8916 63.4102 25.8916C65.4179 25.9873 67.0432 27.6143 67.0432 29.624Z" fill="#FFCA1B"/>
<path d="M64.0794 23.2119C64.0794 24.4561 63.0278 25.5088 61.7849 25.5088C61.2113 25.5088 60.6376 25.3174 60.1596 24.8389C59.6816 24.4561 59.4904 23.8819 59.4904 23.2119C59.4904 22.6377 59.6816 22.0635 60.1596 21.585C60.542 21.1064 61.1157 20.915 61.7849 20.915C62.4541 20.915 62.9322 21.2021 63.4102 21.585C63.7926 22.0635 64.0794 22.542 64.0794 23.2119Z" fill="#FFCA1B"/>
<path d="M58.5343 56.9C58.5343 59.484 57.5783 61.8766 55.7618 63.7907C53.9453 65.609 51.5552 66.6618 48.9738 66.6618C43.6199 66.7575 39.3177 62.4508 39.2221 57.0914C39.1265 51.732 43.4287 47.4253 48.7826 47.3296C51.3639 47.3296 53.7541 48.2866 55.5706 50.105C56.5266 50.9663 57.1959 52.0191 57.6739 53.1675C58.3431 54.4117 58.5343 55.6558 58.5343 56.9Z" fill="#4C8CCA"/>
<path d="M50.8859 40.1519C50.8859 41.7789 50.3123 43.2144 49.165 44.3629C48.0177 45.5113 46.5837 46.0855 44.9584 46.0855C43.3331 46.0855 41.899 45.5113 40.7517 44.3629C39.6045 43.2144 39.0309 41.7789 39.0309 40.1519C39.0309 38.5249 39.6045 37.0894 40.7517 35.9409C41.899 34.7925 43.3331 34.2183 44.9584 34.2183C46.5837 34.2183 48.0177 34.7925 49.165 35.9409C49.7386 36.5152 50.1211 37.1851 50.5035 37.855C50.7903 38.5249 50.8859 39.2906 50.8859 40.1519Z" fill="#4C8CCA"/>
<path d="M57.9607 35.0796C57.2915 34.4097 56.431 34.0269 55.475 34.0269H55.3794H55.2838C53.276 34.0269 51.6508 35.7495 51.6508 37.7593C51.6508 39.7691 53.276 41.4918 55.3794 41.4918C56.3354 41.4918 57.2915 41.1089 57.9607 40.439C58.6299 39.7691 59.0124 38.8121 59.0124 37.855C59.108 36.7066 58.7255 35.7495 57.9607 35.0796Z" fill="#4C8CCA"/>
<path d="M59.2036 44.0757C59.2036 45.3199 58.1519 46.3726 56.909 46.3726C56.2398 46.3726 55.7618 46.0855 55.2838 45.7027C54.9013 45.3199 54.6145 44.7456 54.6145 44.0757C54.6145 43.5015 54.8057 42.9273 55.2838 42.4487C55.6662 42.0659 56.2398 41.7788 56.909 41.7788C57.4827 41.7788 58.0563 41.9702 58.5343 42.4487C58.9167 42.9273 59.2036 43.5015 59.2036 44.0757Z" fill="#4C8CCA"/>
<path d="M92.3786 43.9801C92.3786 49.3395 88.0763 53.6462 82.7225 53.6462C80.1411 53.6462 77.751 52.6891 75.9345 50.8707C74.118 49.0524 73.0663 46.6598 73.0663 44.0758C73.0663 41.4918 74.0224 39.0992 75.8389 37.2808C77.6554 35.4624 80.0455 34.4097 82.6268 34.4097C85.2082 34.4097 87.5983 35.3667 89.4148 37.1851C91.3269 39.0035 92.3786 41.3961 92.3786 43.9801Z" fill="#79BC43"/>
<path d="M70.007 43.8841C71.1542 45.0325 71.7279 46.4681 71.7279 48.095C71.7279 49.722 71.1542 51.1576 70.007 52.306C68.8597 53.4544 67.4256 54.0287 65.8003 54.0287C64.1751 54.0287 62.741 53.4544 61.5937 52.306C60.4464 51.1576 59.8728 49.722 59.8728 48.095C59.8728 46.4681 60.4464 45.0325 61.5937 43.8841C62.741 42.7356 64.1751 42.1614 65.8003 42.1614C67.4256 42.0657 68.9553 42.7356 70.007 43.8841Z" fill="#79BC43"/>
<path d="M63.4102 33.9312C64.3663 33.9312 65.2267 34.314 65.8959 34.9839C66.5652 35.6538 66.9476 36.6109 66.9476 37.5679C66.9476 39.5777 65.3223 41.3004 63.219 41.3004C62.2629 41.3004 61.3069 40.9175 60.6376 40.2476C59.9684 39.5777 59.586 38.6207 59.586 37.6636C59.586 36.7066 59.9684 35.7495 60.6376 35.0796C61.3069 34.4097 62.1673 34.0269 63.219 34.0269" fill="#79BC43"/>
<path d="M72.1103 36.1323C72.1103 37.3765 71.0586 38.4292 69.8157 38.4292C69.2421 38.4292 68.6685 38.2378 68.1905 37.7593C67.808 37.3765 67.5212 36.8023 67.5212 36.1323C67.5212 34.8882 68.5729 33.8354 69.8157 33.8354C71.0586 33.8354 72.1103 34.8882 72.1103 36.1323Z" fill="#79BC43"/>
<path d="M50.0255 27.2314C50.0255 27.5186 49.9299 27.8057 49.7387 27.9971C49.5474 28.1885 49.2606 28.2842 48.9738 28.2842C48.687 28.2842 48.4002 28.1885 48.209 27.9971C48.0178 27.8057 47.9221 27.5186 47.9221 27.2314C47.9221 26.9443 48.0178 26.6572 48.209 26.4658C48.4002 26.2744 48.687 26.1787 48.9738 26.1787C49.5474 26.1787 50.0255 26.6572 50.0255 27.2314Z" fill="#ED2A4A"/>
<path d="M70.8674 40.0562C70.8674 40.3433 70.7718 40.6304 70.5806 40.8218C70.3894 41.0132 70.1026 41.1089 69.8158 41.1089C69.2421 41.1089 68.7641 40.6304 68.7641 40.0562C68.7641 39.4819 69.2421 39.0034 69.8158 39.0034C70.1026 39.0034 70.3894 39.0991 70.5806 39.2905C70.7718 39.4819 70.8674 39.7691 70.8674 40.0562Z" fill="#79BC43"/>
<path d="M66.852 23.2119C66.852 23.499 66.7564 23.7862 66.5652 23.9776C66.3739 24.169 66.0871 24.2647 65.8003 24.2647C65.2267 24.2647 64.7487 23.7862 64.7487 23.2119C64.7487 22.6377 65.2267 22.1592 65.8003 22.1592C66.0871 22.1592 66.3739 22.2549 66.5652 22.4463C66.7564 22.6377 66.852 22.9248 66.852 23.2119Z" fill="#FFCA1B"/>
<path d="M54.1365 44.0757C54.1365 44.3628 54.0409 44.6499 53.8497 44.8413C53.6585 45.0327 53.3717 45.1284 53.0848 45.1284C52.798 45.1284 52.5112 45.0327 52.32 44.8413C52.1288 44.6499 52.0332 44.3628 52.0332 44.0757C52.0332 43.5015 52.5112 43.0229 53.0848 43.0229C53.3717 43.0229 53.6585 43.1187 53.8497 43.3101C53.9453 43.5015 54.1365 43.7886 54.1365 44.0757Z" fill="#4C8CCA"/>
<path d="M0.788757 78.6245V93.8414H3.46571V78.6245H0.788757Z" fill="white"/>
<path d="M14.3647 85.8023C14.2691 85.3237 13.9823 84.8452 13.6955 84.4624C13.4086 84.0796 13.0262 83.7925 12.5482 83.6011C12.0702 83.4097 11.4965 83.2183 10.8273 83.2183C9.96685 83.2183 9.29761 83.4097 8.81959 83.7925C8.34156 84.1753 7.95914 84.6538 7.67233 85.1323V83.5054H5.18658V93.8414H7.76793V88.2906C7.76793 87.9078 7.76793 87.6206 7.86353 87.3335C7.95914 87.0464 8.05475 86.7593 8.24596 86.4722C8.43717 86.1851 8.72398 85.9937 9.01079 85.898C9.29761 85.8023 9.68004 85.7066 10.0625 85.7066C10.5405 85.7066 10.8273 85.8023 11.1141 85.9937C11.4009 86.1851 11.5921 86.4722 11.6877 86.7593C11.7833 87.0464 11.879 87.4292 11.879 87.7163C11.879 88.0992 11.879 88.3863 11.879 88.6734V93.9371H14.4603V87.3335C14.5559 86.855 14.5559 86.2808 14.3647 85.8023Z" fill="white"/>
<path d="M25.5505 93.9371C24.4033 92.5015 23.734 90.6832 23.734 88.6734C23.734 87.2378 24.1164 85.8023 24.7857 84.6538C24.7857 84.6538 24.7857 84.5581 24.6901 84.5581C24.4033 84.1753 24.0208 83.8882 23.5428 83.6968C23.0648 83.5054 22.4912 83.314 21.8219 83.314C20.9615 83.314 20.2922 83.5054 19.8142 83.8882C19.3362 84.271 18.9538 84.7495 18.667 85.228V83.5054H16.1812V93.8414H18.7626V88.2906C18.7626 87.9078 18.7626 87.6206 18.8582 87.3335C18.9538 87.0464 19.0494 86.7593 19.2406 86.4722C19.4318 86.1851 19.7186 85.9937 20.0054 85.898C20.2922 85.8023 20.6747 85.7066 21.0571 85.7066C21.5351 85.7066 21.8219 85.8023 22.1087 85.9937C22.3956 86.1851 22.5868 86.4722 22.6824 86.7593C22.778 87.0464 22.8736 87.4292 22.8736 87.7163C22.8736 88.0992 22.8736 88.3863 22.8736 88.6734V93.9371H25.5505Z" fill="white"/>
<path d="M45.8188 83.5054L43.0463 90.7789L40.2737 83.5054H38.9352C39.9869 84.9409 40.6561 86.6636 40.6561 88.6734C40.6561 89.439 40.5605 90.2046 40.3693 90.8746L41.6122 93.8414H44.3847L48.4958 83.5054H45.8188Z" fill="white"/>
<path d="M57.3871 87.0464C57.3871 86.7593 57.2915 86.3765 57.2915 86.0894C57.1959 85.7066 57.1003 85.4195 56.9091 85.0366C56.7178 84.6538 56.431 84.3667 56.1442 84.1753C55.8574 83.8882 55.3794 83.6968 54.9013 83.5054C54.4233 83.314 53.7541 83.2183 53.0848 83.2183C52.2244 83.2183 51.4596 83.314 50.6947 83.6011C49.9299 83.8882 49.2606 84.271 48.687 84.8452L50.0255 86.1851C50.4079 85.898 50.7903 85.6109 51.2683 85.4195C51.7464 85.228 52.2244 85.1323 52.798 85.1323C53.4673 85.1323 54.0409 85.3237 54.5189 85.6109C54.9969 85.898 55.1882 86.3765 55.1882 87.0464V87.3335H54.5189C54.0409 87.3335 53.6585 87.3335 53.1804 87.3335C52.7024 87.3335 52.2244 87.4292 51.7464 87.5249C51.2683 87.6206 50.7903 87.7164 50.3123 87.9078C49.8343 88.0992 49.4518 88.2906 49.165 88.5777C48.7826 88.8648 48.5914 89.1519 48.4002 89.5347C48.209 89.9175 48.1134 90.3961 48.1134 90.9703C48.1134 91.4488 48.209 91.9273 48.4002 92.3101C48.5914 92.693 48.8782 92.9801 49.2606 93.2672C49.6431 93.5543 50.0255 93.7457 50.5035 93.8414C50.9815 93.9371 51.4596 94.0328 51.9376 94.0328C52.6068 94.0328 53.2761 93.9371 53.8497 93.65C54.4233 93.3629 54.9013 92.9801 55.2838 92.4058H55.3794V93.8414H57.6739V87.9078C57.3871 87.7164 57.3871 87.4292 57.3871 87.0464ZM54.9013 89.8218C54.9013 90.5875 54.7101 91.1617 54.2321 91.5445C53.8497 91.9273 53.1804 92.2144 52.2244 92.2144C52.0332 92.2144 51.7464 92.2144 51.5552 92.1187C51.3639 92.023 51.1727 92.023 50.9815 91.8316C50.7903 91.7359 50.6947 91.5445 50.5991 91.4488C50.5035 91.2574 50.4079 91.066 50.4079 90.8746C50.4079 90.4918 50.5035 90.2047 50.7903 90.0132C51.0771 89.8218 51.3639 89.6304 51.7464 89.5347C52.1288 89.439 52.6068 89.3433 52.9892 89.3433C53.4673 89.3433 53.8497 89.3433 54.2321 89.3433H54.8057V89.8218H54.9013Z" fill="white"/>
<path d="M65.1311 85.7066V83.5054H62.2629V80.5386H59.6816V83.5054H57.5783V85.7066H59.6816V90.4918C59.6816 91.066 59.6816 91.6402 59.7772 92.1188C59.8728 92.5973 60.064 92.9801 60.2552 93.2672C60.542 93.5543 60.8289 93.8414 61.3069 93.9371C61.7849 94.1285 62.2629 94.1285 63.0278 94.1285C63.3146 94.1285 63.697 94.1285 64.0794 94.0328C64.4619 93.9371 64.8443 93.9371 65.0355 93.7457V91.5445C64.8443 91.6402 64.6531 91.7359 64.3663 91.8316C64.0794 91.9273 63.8882 91.9274 63.6014 91.9274C63.0278 91.9274 62.6454 91.7359 62.4542 91.4488C62.2629 91.1617 62.1673 90.7789 62.1673 90.2047V85.7066H65.1311Z" fill="white"/>
<path d="M75.6477 88.9605C75.6477 88.0992 75.5521 87.2378 75.2653 86.5679C75.074 85.898 74.6916 85.3237 74.3092 84.8452C73.9268 84.3667 73.3531 83.9839 72.7795 83.7925C72.2059 83.5054 71.5366 83.4097 70.7718 83.4097C70.007 83.4097 69.2421 83.5054 68.5729 83.7925C67.9036 84.0796 67.33 84.4624 66.7564 84.8452C66.2784 85.3237 65.8959 85.898 65.5135 86.5679C65.2267 87.2378 65.0355 88.0035 65.0355 88.7691C65.0355 89.5347 65.2267 90.3004 65.5135 90.9703C65.8003 91.6402 66.1828 92.2144 66.7564 92.693C67.2344 93.1715 67.808 93.5543 68.5729 93.7457C69.2421 94.0328 70.007 94.1285 70.7718 94.1285C71.6323 94.1285 72.3971 93.9371 73.1619 93.65C73.9268 93.3629 74.596 92.7887 75.1696 92.023L73.3531 90.5875C73.0663 90.9703 72.6839 91.3531 72.2059 91.5445C71.7279 91.8316 71.2498 91.9273 70.5806 91.9273C69.8158 91.9273 69.2421 91.7359 68.6685 91.2574C68.1905 90.7789 67.808 90.2047 67.808 89.439H75.6477V88.9605ZM67.808 87.7163C67.9036 86.9507 68.1905 86.3765 68.6685 85.898C69.1465 85.4195 69.7201 85.2281 70.485 85.2281C71.3454 85.2281 71.9191 85.4195 72.3971 85.898C72.8751 86.3765 73.0663 86.9507 73.0663 87.7163H67.808Z" fill="white"/>
<path d="M87.9807 85.7066V83.5054H85.1126V80.5386H82.5312V83.5054H80.4279V85.7066H82.5312V90.4918C82.5312 91.066 82.5312 91.6402 82.6268 92.1188C82.7224 92.5973 82.9137 92.9801 83.1049 93.2672C83.3917 93.5543 83.6785 93.8414 84.1565 93.9371C84.6346 94.1285 85.1126 94.1285 85.8774 94.1285C86.1642 94.1285 86.5467 94.1285 86.9291 94.0328C87.3115 93.9371 87.6939 93.9371 87.8851 93.7457V91.5445C87.6939 91.6402 87.5027 91.7359 87.2159 91.8316C86.9291 91.9273 86.7379 91.9274 86.4511 91.9274C85.8774 91.9274 85.495 91.7359 85.3038 91.4488C85.1126 91.1617 85.017 90.7789 85.017 90.2047V85.7066H87.9807Z" fill="white"/>
<path d="M98.5929 88.9605C98.5929 88.0992 98.4973 87.2378 98.2105 86.5679C98.0193 85.898 97.6369 85.3237 97.2544 84.8452C96.872 84.3667 96.2984 83.9839 95.7248 83.7925C95.1511 83.5054 94.4819 83.4097 93.7171 83.4097C92.9522 83.4097 92.1874 83.5054 91.5181 83.7925C90.8489 84.0796 90.2753 84.4624 89.7016 84.8452C89.2236 85.3237 88.8412 85.898 88.4588 86.5679C88.172 87.2378 87.9807 88.0035 87.9807 88.7691C87.9807 89.5347 88.172 90.3004 88.4588 90.9703C88.7456 91.6402 89.128 92.2144 89.7016 92.693C90.1797 93.1715 90.7533 93.5543 91.5181 93.7457C92.1874 94.0328 92.9522 94.1285 93.7171 94.1285C94.5775 94.1285 95.3423 93.9371 96.1072 93.65C96.872 93.3629 97.5413 92.7887 98.1149 92.023L96.2984 90.5875C96.0116 90.9703 95.6292 91.3531 95.1511 91.5445C94.6731 91.8316 94.1951 91.9273 93.5259 91.9273C92.761 91.9273 92.1874 91.7359 91.6137 91.2574C91.1357 90.7789 90.7533 90.2047 90.7533 89.439H98.5929V88.9605ZM90.6577 87.7163C90.7533 86.9507 91.0401 86.3765 91.5181 85.898C91.9962 85.4195 92.5698 85.2281 93.3346 85.2281C94.1951 85.2281 94.7687 85.4195 95.2467 85.898C95.7248 86.3765 95.916 86.9507 95.916 87.7163H90.6577Z" fill="white"/>
<path d="M105.763 91.5445C105.381 91.7359 104.998 91.8316 104.616 91.8316C104.138 91.8316 103.756 91.7359 103.373 91.5445C102.991 91.3531 102.704 91.1617 102.417 90.8746C102.13 90.5875 101.939 90.3004 101.843 89.9175C101.748 89.5347 101.652 89.1519 101.652 88.7691C101.652 88.3863 101.748 88.0035 101.843 87.6207C101.939 87.2378 102.226 86.9507 102.417 86.6636C102.704 86.3765 102.991 86.1851 103.373 85.9937C103.756 85.8023 104.138 85.7066 104.616 85.7066C104.998 85.7066 105.285 85.8023 105.668 85.9937C105.955 86.1851 106.337 86.4722 106.624 86.7593L108.44 84.9409C107.962 84.3667 107.389 83.9839 106.719 83.7925C106.05 83.5054 105.381 83.4097 104.712 83.4097C103.947 83.4097 103.182 83.5054 102.513 83.7925C101.843 84.0796 101.27 84.4624 100.696 84.8452C100.218 85.3237 99.8358 85.898 99.4534 86.5679C99.1666 87.2378 98.9753 88.0035 98.9753 88.7691C98.9753 89.5347 99.1666 90.3004 99.4534 90.9703C99.7402 91.6402 100.123 92.2144 100.696 92.693C101.174 93.1715 101.748 93.5543 102.513 93.7457C103.182 94.0328 103.947 94.1285 104.712 94.1285C104.903 94.1285 105.19 94.1285 105.572 94.0328C105.859 93.9371 106.241 93.9371 106.528 93.7457C106.911 93.65 107.197 93.4586 107.58 93.2672C107.962 93.0758 108.249 92.8844 108.44 92.5973L106.719 90.7789C106.433 91.1617 106.146 91.4488 105.763 91.5445Z" fill="white"/>
<path d="M117.81 85.8023C117.714 85.3238 117.427 84.8453 117.14 84.4625C116.854 84.0796 116.471 83.7925 115.993 83.6011C115.515 83.4097 114.941 83.2183 114.272 83.2183C113.507 83.2183 112.838 83.4097 112.264 83.7925C111.786 84.1753 111.404 84.5582 111.213 84.941V78.6245H108.631V93.8414H111.213V88.2906C111.213 87.9078 111.213 87.6207 111.308 87.3336C111.404 87.0465 111.5 86.7594 111.691 86.4722C111.882 86.1851 112.169 85.9937 112.456 85.898C112.742 85.8023 113.125 85.7066 113.507 85.7066C113.985 85.7066 114.272 85.8023 114.559 85.9937C114.846 86.1851 115.037 86.4722 115.133 86.7593C115.228 87.0465 115.324 87.4293 115.324 87.7164C115.324 88.0992 115.324 88.3863 115.324 88.6734V93.9371H117.905V87.3336C118.001 86.8551 117.905 86.2808 117.81 85.8023Z" fill="white"/>
<path d="M37.5968 88.6734C37.5968 91.6402 35.2066 94.0328 32.2429 94.0328C29.2791 94.0328 26.889 91.6402 26.889 88.6734C26.889 85.7066 29.2791 83.314 32.2429 83.314C35.2066 83.314 37.5968 85.7066 37.5968 88.6734Z" fill="white"/>
<path d="M37.5968 88.6734C37.5968 91.6402 35.2066 94.0328 32.2429 94.0328C29.2791 94.0328 26.889 91.6402 26.889 88.6734C26.889 85.7066 29.2791 83.314 32.2429 83.314C35.2066 83.314 37.5968 85.7066 37.5968 88.6734Z" fill="white"/>
</svg>
