<svg width="90" height="88" viewBox="0 0 90 88" fill="none" xmlns="http://www.w3.org/2000/svg">
<path d="M68.1665 30.5296V0.957031H21.32V30.2424V30.4338C21.4156 44.9809 27.8211 54.5512 40.5366 58.7622L41.6839 59.145C41.6839 59.145 42.2575 59.3364 42.6399 59.4321C43.596 59.7193 44.2652 59.9107 44.9345 59.9107C45.6037 59.9107 46.1773 59.7193 47.0378 59.4321C47.6114 59.2407 49.1411 58.7622 49.1411 58.7622C62.6214 53.977 68.9314 44.6937 68.1665 30.5296Z" fill="white"/>
<path d="M41.2059 22.2033V1.24414H48.2807V22.299H67.7841V29.7639H48.2807V58.5708L44.9345 59.815L41.2059 58.5708V29.7639L21.7024 29.6682V22.299L41.2059 22.2033Z" fill="#EB2227"/>
<path d="M41.8751 25.3614V23.1602H43.9784V22.6817H42.7356V21.6289H46.6554V22.6817H45.4125V23.1602H47.6114V25.3614H48.0895V24.0215H49.1411V28.0411H48.0895V26.7969H47.6114V28.8067H45.4125V29.2852H46.751V30.338H42.64V29.2852H43.9784V28.8067H41.8751V26.7969H41.3971V28.1368H40.3454V24.0215H41.3971V25.3614H41.8751Z" fill="white"/>
<path d="M31.2629 36.3677C29.542 36.3677 28.2036 37.7075 28.2036 39.4302C28.2036 41.1529 29.542 42.4927 31.2629 42.4927C32.9838 42.4927 34.3223 41.1529 34.3223 39.4302C34.3223 37.8032 32.8882 36.3677 31.2629 36.3677ZM31.2629 42.0142C29.8288 42.0142 28.6816 40.8658 28.6816 39.4302C28.6816 37.9946 29.8288 36.9419 31.2629 36.9419C32.697 36.9419 33.7487 38.0903 33.7487 39.4302C33.7487 40.8658 32.6014 42.0142 31.2629 42.0142Z" fill="#2D368F"/>
<path d="M37.286 40.8658V38.0904H36.0432C35.9476 37.7076 35.7564 37.3247 35.5652 37.0376L36.4256 36.1763L34.4179 34.1665L33.5574 35.0278C33.175 34.8364 32.8882 34.7407 32.5058 34.5493V33.3052H29.7332V34.5493C29.3508 34.645 28.9684 34.8364 28.6816 35.0278L27.8211 34.1665L25.8134 36.1763L26.6739 37.0376C26.4827 37.3247 26.3871 37.7076 26.1958 38.0904H24.953V40.8658H26.1958C26.2914 41.2486 26.4827 41.6314 26.6739 41.9185L25.8134 42.7799L27.8211 44.7896L28.6816 43.9283C28.9684 44.1197 29.3508 44.2154 29.7332 44.4068V45.651H32.5058V44.4068C32.8882 44.3111 33.2706 44.1197 33.5574 43.9283L34.4179 44.7896L36.4256 42.7799L35.5652 41.9185C35.7564 41.6314 35.9476 41.2486 36.0432 40.8658H37.286ZM35.6608 40.5787C35.5652 41.0572 35.3739 41.44 35.0871 41.9185L34.9915 42.1099L35.7564 42.8756L34.5135 44.024L33.7487 43.2584L33.5574 43.3541C33.175 43.6412 32.697 43.8326 32.219 43.9283L32.0278 44.024V45.0768H30.3069V44.024L30.1157 43.9283C29.6376 43.8326 29.2552 43.6412 28.7772 43.3541L28.6816 43.2584L27.9167 44.024L26.6739 42.7799L27.4387 42.0142L27.3431 41.8228C27.0563 41.44 26.9607 40.9615 26.7695 40.483V40.3873H25.7178V38.6646H26.7695L26.8651 38.4732C26.9607 37.9947 27.1519 37.6119 27.4387 37.1333L27.5343 36.9419L26.7695 36.1763L28.0123 34.9321L28.7772 35.6978L28.9684 35.6021C29.3508 35.315 29.8288 35.2193 30.3069 35.0278L30.4981 34.9321V33.8794H32.219V34.9321L32.4102 35.0278C32.8882 35.1236 33.2706 35.315 33.7487 35.6021L33.9399 35.6978L34.7047 34.9321L35.9476 36.1763L35.1827 36.9419L35.2783 37.1333C35.5652 37.5161 35.6608 37.9947 35.852 38.4732L35.9476 38.6646H36.9992V40.3873H35.9476L35.6608 40.5787Z" fill="#2D368F"/>
<path d="M68.549 30.5296V0.478516H20.9376V30.2424V30.4339C21.0332 45.268 27.5343 54.9341 40.441 59.2407L41.5883 59.6236C41.5883 59.6236 42.2575 59.815 42.5443 59.9107C43.5004 60.1978 44.1696 60.3892 44.8389 60.3892C45.5081 60.3892 46.1773 60.1978 47.0378 59.9107C47.6114 59.7193 49.1411 59.145 49.1411 59.145C62.9083 54.2641 69.3138 44.8852 68.549 30.5296ZM23.9969 9.8575C24.0925 9.7618 24.3794 9.7618 24.475 9.7618C24.7618 9.8575 24.953 10.0489 25.1442 10.2403C25.3354 9.7618 26.1002 9.7618 26.1002 10.4317C26.0046 10.5274 26.1002 10.6231 26.0046 10.7188C25.909 10.8145 25.7178 10.9102 25.7178 11.006C25.7178 11.1017 25.909 11.2931 26.0046 11.3888C26.1002 11.4845 26.1959 11.5802 26.3871 11.7716C26.4827 11.7716 26.6739 11.8673 26.7695 11.963C27.2475 11.963 27.6299 11.7716 27.8211 11.4845C27.9167 11.2931 27.9167 11.1017 27.9167 10.8145C27.9167 10.7188 28.0124 10.6231 27.9167 10.4317C27.5343 10.4317 27.4387 10.1446 27.3431 9.8575C27.4387 9.47469 27.6299 9.28328 27.9167 9.18758C28.0124 9.28328 28.2036 9.28328 28.2992 9.37898C28.4904 9.6661 28.4904 10.0489 28.2036 10.2403C28.2992 10.5274 28.6816 10.7188 29.064 10.9102C29.1596 10.9102 29.1596 10.9102 29.3508 11.006C29.4464 11.006 29.4464 11.1017 29.4464 11.1017C30.0201 11.1974 30.3069 10.9102 30.6893 10.7188C30.7849 10.4317 30.9761 10.2403 31.0717 9.95321C30.8805 9.95321 30.8805 10.0489 30.6893 10.0489C30.2113 10.1446 29.7332 9.57039 29.9245 8.99617C30.0201 8.80476 30.2113 8.61335 30.4025 8.51765C30.5937 8.51765 30.6893 8.51765 30.7849 8.51765C30.8805 8.42194 30.7849 8.32624 30.7849 8.32624C30.6893 7.3692 31.2629 6.98638 31.4541 6.31646C31.8366 6.60357 31.9322 7.08209 32.1234 7.4649C32.1234 7.65631 32.3146 7.84772 32.219 8.03913C32.219 8.23054 32.1234 8.32624 32.1234 8.51765C32.6014 8.51765 32.8882 8.70906 32.9838 9.09187C33.0794 9.8575 32.4102 10.2403 31.8366 9.95321C31.741 10.4317 32.1234 10.7188 32.4102 10.9102C32.697 11.1017 33.175 11.1974 33.6531 11.006C34.0355 10.9102 34.6091 10.5274 34.6091 10.336C34.6091 10.2403 34.4179 10.0489 34.4179 9.95321C34.3223 9.57039 34.5135 9.47469 34.7047 9.28328C34.8959 9.18758 34.9915 9.28328 35.2783 9.28328C35.7564 9.47469 35.6608 10.4317 34.9915 10.336C34.8959 11.1017 35.2783 11.7716 35.852 11.8673C36.1388 11.8673 36.33 11.7716 36.5212 11.6759C36.9036 11.4845 37.0948 11.1974 37.2861 10.9102C37.2861 10.8145 37.1905 10.8145 37.0948 10.8145C36.808 10.7188 36.808 10.1446 37.0948 9.95321C37.1905 9.95321 37.2861 9.95321 37.2861 9.8575C37.4773 9.8575 37.6685 9.95321 37.7641 10.2403C38.0509 9.95321 38.4333 9.6661 39.007 9.8575C38.8157 10.1446 38.5289 10.336 38.3377 10.5274C38.1465 10.8145 37.9553 11.1017 37.7641 11.2931C37.6685 11.3888 37.5729 11.5802 37.4773 11.6759C37.0948 12.3458 36.6168 13.1114 36.4256 13.9728C33.175 13.9728 29.8288 13.9728 26.5783 13.9728C26.3871 13.59 26.2915 13.2071 26.1002 12.7286C26.1002 12.6329 26.0046 12.5372 25.909 12.4415C25.8134 12.5372 25.8134 12.3458 25.8134 12.2501C25.6222 11.8673 25.431 11.5802 25.1442 11.1974C24.953 10.9102 24.7618 10.6231 24.475 10.336C24.3794 10.2403 24.2837 10.0489 24.1881 10.0489C24.1881 10.0489 23.9969 10.0489 23.9969 9.8575ZM36.5212 14.9298C36.33 15.3126 35.9476 15.3126 35.4696 15.3126C32.7926 15.3126 30.1157 15.3126 27.3431 15.3126C27.0563 15.3126 26.8651 15.3126 26.7695 15.2169C26.2915 15.0255 26.4827 14.4513 26.8651 14.2599C29.4464 14.2599 32.3146 14.2599 34.9915 14.2599C35.7564 14.2599 36.6168 14.0685 36.5212 14.9298ZM40.441 58.3794C28.2992 54.1684 21.9892 44.7894 21.7024 30.4339H40.441V58.3794ZM63.4819 43.0668L58.4148 42.684C58.2236 42.7797 58.0324 42.8754 57.9368 42.9711C57.7456 43.0668 57.65 43.0668 57.4588 43.0668C57.2676 43.0668 57.0763 43.0668 56.8851 42.9711C56.6939 42.8754 56.5027 42.8754 56.3115 42.684L51.34 43.0668V35.3148H52.0093L51.8181 35.6976V42.5883L56.5983 42.3011C56.7895 42.4926 57.0763 42.5883 57.4588 42.5883C57.8412 42.5883 58.128 42.4926 58.3192 42.3011L63.0995 42.5883V35.6976L62.8127 35.2191H63.5775V43.0668H63.4819ZM54.017 40.8656C54.3994 40.8656 54.7818 40.7699 55.0686 40.7699C55.7379 40.7699 56.3115 40.8656 56.5983 41.057C56.8851 41.2484 57.0763 41.6312 57.172 42.1097C56.8851 42.014 56.6939 41.9183 56.5027 41.7269L52.1049 42.1097L52.6785 40.9613C53.2521 41.057 53.6346 40.9613 54.017 40.8656ZM52.9653 40.7699V34.3577C53.3477 34.262 53.7302 34.1663 54.1126 34.1663C54.495 34.1663 54.8774 34.0706 55.2598 34.0706C55.9291 34.0706 56.5027 34.1663 56.7895 34.4534C57.172 34.7405 57.2676 35.1233 57.2676 35.6976V41.2484C56.7895 40.7699 56.1203 40.4828 55.0686 40.4828C54.7818 40.4828 54.495 40.4828 54.1126 40.5785C53.8258 40.6742 53.3477 40.6742 52.9653 40.7699ZM52.5829 40.8656L52.0093 42.014V35.7933L52.5829 34.7405V40.8656ZM62.6214 42.2054L58.2236 41.8226C58.0324 42.014 57.8412 42.1097 57.5544 42.2054C57.5544 41.2484 58.2236 40.7699 59.6577 40.7699C59.9445 40.7699 60.3269 40.7699 60.7093 40.8656C61.0918 40.8656 61.5698 40.9613 61.9522 41.057L62.6214 42.2054ZM62.239 40.8656V34.7405L62.8127 35.889V42.014L62.239 40.8656ZM61.8566 40.7699C61.4742 40.6742 61.0918 40.5785 60.8049 40.5785C60.4225 40.5785 60.0401 40.4828 59.7533 40.4828C59.1797 40.4828 58.7972 40.5785 58.5104 40.6742C58.2236 40.7699 57.9368 40.9613 57.65 41.2484V35.6976C57.65 35.1233 57.8412 34.7405 58.128 34.4534C58.5104 34.1663 59.0841 33.9749 59.8489 33.9749C60.1357 33.9749 60.5181 33.9749 60.9006 34.0706C61.283 34.1663 61.6654 34.1663 62.1434 34.262V40.7699H61.8566ZM67.7841 29.7639H48.2807V58.5708C47.8026 58.7622 45.3169 59.3364 44.8389 59.3364C44.3608 59.3364 41.5883 58.7622 41.2059 58.5708V29.7639H21.7024V22.3947H41.2059V1.24415H48.2807V22.2033H67.7841V29.7639ZM67.7841 21.5334H49.0455V1.24415H67.7841V21.5334Z" fill="#2D368F"/>
<path d="M59.5621 8.51742C59.8489 8.42172 59.6577 8.13461 60.6137 8.0389C61.0918 7.9432 60.9962 7.46468 62.1434 7.65609C62.6214 7.75179 62.8127 8.0389 63.0039 8.51742C62.5258 8.23031 61.8566 8.42172 62.1434 8.42172C62.6214 8.32602 62.8127 9.09165 62.9083 9.18735C62.3346 8.61313 61.761 8.90024 61.761 8.99594C62.239 8.90024 62.6214 9.37876 62.6214 9.47446C61.9522 9.28306 60.8049 10.2401 60.3269 9.28306C60.1357 9.09165 59.2753 8.80454 59.5621 8.51742Z" fill="#EB2227"/>
<path d="M54.6862 7.17774H55.3555L55.7379 6.31641L56.2159 7.27345H56.7895L57.65 6.69922L56.7895 7.84767C56.1203 7.75197 55.3555 7.75197 54.495 7.84767L53.8258 6.69922L54.6862 7.17774Z" fill="#EB2227"/>
<path d="M65.5852 18.1836C65.2028 18.375 63.6731 18.2793 63.6731 18.2793C63.6731 18.2793 63.4819 17.2266 64.1511 17.2266C64.8204 17.2266 65.9676 17.8965 65.5852 18.1836Z" fill="#EB2227"/>
<path d="M59.8489 17.6094C59.4665 17.8008 57.9368 17.7051 57.9368 17.7051C57.9368 17.7051 57.65 16.6523 58.3192 16.6523C59.0841 16.748 60.2313 17.418 59.8489 17.6094Z" fill="#EB2227"/>
<path d="M54.017 17.8965C53.6346 18.0879 52.1049 17.9922 52.1049 17.9922C52.1049 17.9922 51.8181 16.9395 52.4873 16.9395C53.2522 16.9395 54.3994 17.7051 54.017 17.8965Z" fill="#EB2227"/>
<path d="M50.862 10.8146C50.862 10.8146 51.9137 10.5275 51.9137 11.1974C51.9137 11.8673 51.2444 13.0158 51.0532 12.7287C50.7664 12.3458 50.862 10.8146 50.862 10.8146Z" fill="#EB2227"/>
<path d="M64.916 15.0254C65.0116 14.5469 64.4379 13.8769 64.2467 13.7812C64.1511 13.6855 64.1511 13.5898 64.2467 13.3984C63.8643 13.1113 63.5775 13.0156 63.5775 13.0156V12.9199C63.5775 12.9199 63.9599 13.0156 64.3423 13.3027V13.207C65.7764 12.8242 66.4456 11.2929 65.5852 10.4316C64.8204 9.57025 63.7687 9.57025 62.5258 10.0488C61.283 10.5273 60.4225 10.5273 60.0401 10.4316C59.1797 10.1445 59.3709 8.70892 59.3709 8.70892C58.2236 11.0058 60.2313 11.1015 61.0918 11.0058C61.9522 10.9101 62.5258 10.5273 63.7687 10.7187C64.7248 10.8144 64.8204 11.58 64.4379 11.9629C64.0555 12.4414 63.2907 12.1543 63.2907 12.1543C62.717 11.6757 60.0401 11.9629 59.3709 12.0586C58.7016 12.1543 58.2236 11.58 58.2236 11.58L57.8412 10.7187C57.9368 11.3886 57.8412 12.0586 57.5544 12.4414C57.7456 11.4843 57.2675 11.2929 57.5544 10.2402L56.9807 8.90033C56.4071 7.94329 54.3038 8.61322 54.3038 8.61322C54.3038 8.61322 53.1565 9.47455 52.5829 9.76166C52.3917 9.85737 52.8697 11.7714 53.1565 11.58C53.3477 11.4843 54.3038 11.2929 54.3038 11.2929V12.1543L53.9214 13.207L51.6268 12.8242L51.2444 13.207L51.4356 13.4941L51.5312 13.6855C52.4873 13.8769 54.5906 15.5039 54.5906 15.5039C54.2082 15.6953 53.0609 17.0352 53.0609 17.0352L54.017 17.6094L55.8335 15.5996C58.128 16.4609 59.6577 14.6426 59.9445 14.834C60.2313 15.0254 59.8489 15.3125 59.9445 15.8867C60.0401 16.1738 59.9445 16.7481 59.9445 16.7481L59.3709 16.9395L59.9445 17.418C59.9445 17.418 60.4225 17.418 60.9005 17.1309C61.1874 16.9395 61.283 15.9824 61.1874 15.791C61.0918 15.6953 61.5698 15.3125 61.6654 15.2168C61.0918 14.2597 59.9445 14.4512 59.9445 14.4512V14.3555C59.9445 14.3555 61.283 14.164 61.8566 15.3125C63.6731 16.9395 65.1072 16.0781 65.1072 16.0781C65.1072 16.0781 65.2984 16.6523 65.2028 17.5137L65.7764 18.1836L66.2544 15.3125C66.35 15.1211 64.916 15.5039 64.916 15.0254ZM54.3994 9.18744C54.3038 9.18744 54.2082 9.18744 54.2082 9.18744C54.2082 9.09174 54.3038 9.09174 54.3038 9.09174C54.3994 9.09174 54.495 9.09174 54.495 9.09174C54.495 9.09174 54.495 9.09174 54.3994 9.18744ZM54.973 14.6426C54.6862 13.9726 54.973 13.5898 54.5906 12.3457C55.1642 13.0156 55.1642 13.7812 54.973 14.6426ZM55.1642 9.66596C55.1642 8.99603 55.0686 8.80462 55.0686 8.80462H55.2598C55.2598 9.09173 55.1642 9.66596 55.1642 9.66596ZM56.1203 13.207C55.7379 11.7714 56.3115 11.3886 56.5983 9.66596C57.0763 11.1972 56.1203 11.8672 56.1203 13.207ZM56.9807 15.4082V14.7383C57.4588 15.0254 58.3192 15.0254 59.5621 14.6426C58.2236 15.6953 56.9807 15.4082 56.9807 15.4082Z" fill="#EB2227"/>
<path d="M57.65 71.2036H58.5104C58.5104 71.9693 58.3192 72.4478 57.9368 72.7349C57.5543 72.9263 56.8851 73.1177 56.0247 73.1177C54.7818 73.1177 54.017 72.9263 53.7301 72.4478C53.4433 72.065 53.3477 71.2993 53.3477 70.438C53.3477 69.5767 53.5389 69.0024 53.8257 68.6196C54.2082 68.2368 54.8774 68.0454 55.9291 68.0454C56.5983 68.0454 57.1719 68.1411 57.65 68.3325C58.128 68.5239 58.3192 68.9067 58.3192 69.5767H57.4587C57.4587 69.0982 57.3631 68.811 57.1719 68.7153C56.9807 68.6196 56.5983 68.5239 56.1203 68.5239C55.3554 68.5239 54.7818 68.6196 54.5906 68.811C54.3994 69.0025 54.3038 69.481 54.3038 70.1509V70.6294C54.3038 71.2036 54.3994 71.5865 54.495 71.8736C54.6862 72.1607 55.0686 72.2564 55.8335 72.2564C56.5027 72.2564 56.9807 72.1607 57.1719 72.065C57.5543 72.065 57.65 71.7779 57.65 71.2036Z" fill="#2E398E"/>
<path d="M59.8489 70.3423C59.8489 69.481 60.0401 68.9067 60.3269 68.5239C60.6137 68.1411 61.283 67.9497 62.4302 67.9497C63.5775 67.9497 64.3423 68.1411 64.6291 68.4282C65.0116 68.7153 65.1072 69.3853 65.1072 70.3423C65.1072 71.2036 65.0116 71.7779 64.8204 72.3521C64.6291 72.8306 63.8643 73.1177 62.717 73.1177C61.6654 73.1177 60.9005 73.022 60.5181 72.7349C60.1357 72.4478 59.9445 71.8736 59.9445 70.9165V70.3423H59.8489ZM60.8049 70.3423V70.7251C60.8049 70.8208 60.8049 70.9165 60.8049 70.9165C60.8049 71.0122 60.8049 71.1079 60.8049 71.2036C60.8049 71.3951 60.9005 71.5865 60.9005 71.7779C60.9961 71.9693 60.9961 72.065 61.1874 72.1607C61.283 72.2564 61.3786 72.2564 61.5698 72.3521C61.6654 72.3521 61.8566 72.3521 61.9522 72.4478H62.0478H62.1434H62.6214C63.0995 72.4478 63.4819 72.3521 63.7687 72.2564C64.0555 72.1607 64.1511 71.8736 64.2467 71.395C64.2467 71.2993 64.2467 71.2036 64.2467 71.1079C64.2467 71.0122 64.2467 70.9165 64.2467 70.8208C64.2467 70.7251 64.2467 70.6294 64.2467 70.5337C64.2467 70.438 64.2467 70.3423 64.2467 70.2466C64.2467 69.6724 64.1511 69.1939 64.0555 68.9067C63.9599 68.6196 63.4819 68.5239 62.8126 68.5239H62.6214C61.8566 68.5239 61.3786 68.6196 61.1874 68.811C60.9961 69.0025 60.9005 69.481 60.9005 70.1509V70.3423H60.8049Z" fill="#2E398E"/>
<path d="M67.4973 65.8442V72.9263H66.6369V65.8442H67.4973Z" fill="#2E398E"/>
<path d="M69.8874 65.8442V72.9263H69.027V65.8442H69.8874Z" fill="#2E398E"/>
<path d="M75.7194 71.4907H76.6754C76.6754 72.2564 76.4842 72.6392 76.0062 72.8306C75.5281 73.022 74.9545 73.022 74.1897 73.022C73.0424 73.022 72.3732 72.8306 71.9908 72.4478C71.7039 72.065 71.5127 71.4907 71.5127 70.5337C71.5127 69.6724 71.6083 69.0024 71.8951 68.5239C72.182 68.0454 72.8512 67.854 73.9985 67.854C75.1457 67.854 75.815 68.0454 76.1974 68.3325C76.4842 68.6196 76.6754 69.2896 76.6754 70.1509V70.5337H72.3732C72.3732 71.1079 72.4688 71.4908 72.5644 71.8736C72.66 72.2564 73.138 72.3521 73.9985 72.3521H74.1897C74.2853 72.3521 74.3809 72.3521 74.4765 72.3521C74.5721 72.3521 74.6677 72.3521 74.7633 72.3521C74.8589 72.3521 75.0501 72.3521 75.1457 72.2564C75.2413 72.2564 75.3369 72.1607 75.4325 72.1607C75.5281 72.065 75.5281 72.065 75.6237 71.9693C75.6237 71.8736 75.6237 71.7779 75.7194 71.6822V71.5865V71.4907ZM75.7194 70.0552C75.7194 69.481 75.6237 69.0025 75.4325 68.811C75.2413 68.6196 74.7633 68.5239 73.9985 68.5239C73.3292 68.5239 72.8512 68.6196 72.66 68.811C72.4688 69.0025 72.3732 69.481 72.3732 70.0552H75.7194Z" fill="#2E398E"/>
<path d="M83.081 68.0454V73.3091C83.081 74.0748 82.8897 74.5533 82.4117 74.8404C82.0293 75.1275 81.3601 75.2232 80.4996 75.2232C79.7348 75.2232 79.1611 75.1275 78.7787 74.9361C78.3963 74.7447 78.2051 74.2662 78.2051 73.5962H79.0655C79.0655 74.0748 79.1611 74.3619 79.448 74.4576C79.6392 74.5533 80.0216 74.649 80.4996 74.649C81.0732 74.649 81.5513 74.5533 81.8381 74.4576C82.1249 74.3619 82.3161 73.9791 82.3161 73.4048V72.4478C82.1249 72.7349 81.9337 72.9263 81.6469 72.9263C81.3601 73.022 81.0732 73.022 80.6908 73.022C80.5952 73.022 80.5952 73.022 80.4996 73.022C80.404 73.022 80.404 73.022 80.3084 73.022C79.3524 73.022 78.6831 72.8306 78.3963 72.3521C78.1095 71.9693 77.9183 71.3951 77.9183 70.6294C77.9183 69.8638 78.0139 69.1939 78.3007 68.6196C78.4919 68.1411 79.2567 67.854 80.3084 67.854C80.6908 67.854 81.0732 67.854 81.3601 67.9497C81.6469 68.0454 81.9337 68.2368 82.2205 68.5239V67.854H83.081V68.0454ZM78.8743 70.438V70.6294C78.8743 71.2036 78.9699 71.5865 79.0655 71.9693C79.2567 72.2564 79.6392 72.4478 80.4996 72.4478C80.9776 72.4478 81.3601 72.3521 81.6469 72.2564C81.9337 72.065 82.1249 71.7779 82.1249 71.395C82.1249 71.2993 82.1249 71.1079 82.1249 71.0122C82.1249 70.8208 82.1249 70.7251 82.1249 70.6294C82.1249 70.0552 82.0293 69.5767 81.9337 69.1939C81.7425 68.811 81.2645 68.7153 80.4996 68.7153C79.8304 68.7153 79.448 68.811 79.1611 69.0024C78.9699 69.1939 78.8743 69.5767 78.8743 70.1509V70.438Z" fill="#2E398E"/>
<path d="M88.6261 71.4907H89.5821C89.5821 72.2564 89.3909 72.6392 88.9129 72.8306C88.4349 73.022 87.8612 73.022 87.0964 73.022C85.9491 73.022 85.2799 72.8306 84.8975 72.4478C84.515 72.065 84.4194 71.4907 84.4194 70.5337C84.4194 69.6724 84.515 69.0024 84.8018 68.5239C85.0887 68.0454 85.7579 67.854 87.0008 67.854C88.148 67.854 88.8173 68.0454 89.1997 68.3325C89.4865 68.6196 89.6777 69.2896 89.6777 70.1509V70.5337H85.3755C85.3755 71.1079 85.4711 71.4908 85.5667 71.8736C85.6623 72.2564 86.1403 72.3521 87.0008 72.3521H87.2876C87.3832 72.3521 87.4788 72.3521 87.5744 72.3521C87.67 72.3521 87.7656 72.3521 87.8612 72.3521C87.9568 72.3521 88.148 72.3521 88.2436 72.2564C88.3392 72.2564 88.4348 72.1607 88.5305 72.1607C88.6261 72.065 88.6261 72.065 88.7217 71.9693C88.7217 71.8736 88.7217 71.7779 88.8173 71.6822V71.5865V71.4907H88.6261ZM88.6261 70.0552C88.6261 69.481 88.5305 69.0025 88.3392 68.811C88.148 68.6196 87.67 68.5239 86.9052 68.5239C86.2359 68.5239 85.7579 68.6196 85.5667 68.811C85.3755 69.0025 85.2799 69.481 85.2799 70.0552H88.6261Z" fill="#2E398E"/>
<path d="M11.7595 69.2896H10.899C10.899 69.0025 10.8034 68.811 10.7078 68.7153C10.6122 68.6196 10.421 68.5239 10.0386 68.5239C9.84735 68.5239 9.75175 68.5239 9.56054 68.5239C9.36933 68.5239 9.27372 68.5239 9.08251 68.5239C8.98691 68.5239 8.98691 68.5239 8.8913 68.5239C8.7957 68.5239 8.7957 68.5239 8.70009 68.5239C8.60449 68.5239 8.41327 68.5239 8.31767 68.5239C8.22206 68.5239 8.12646 68.6196 8.03085 68.6196C7.93525 68.7153 7.93525 68.7153 7.83964 68.811C7.83964 68.9067 7.83964 68.9067 7.74404 69.0024V69.0982V69.1939C7.74404 69.481 7.83964 69.6724 7.93525 69.7681C8.03085 69.8638 8.31767 69.9595 8.60449 69.9595C8.70009 69.9595 8.7957 69.9595 8.98691 69.9595C9.08251 69.9595 9.17812 69.9595 9.36933 69.9595C10.0386 69.9595 10.6122 70.0552 11.1858 70.1509C11.7595 70.2466 11.9507 70.7251 11.9507 71.395C11.9507 72.1607 11.7595 72.5435 11.2814 72.7349C10.8034 72.9263 10.2298 72.9263 9.46493 72.9263H9.36933C9.27372 72.9263 9.27372 72.9263 9.27372 72.9263C8.70009 72.9263 8.12646 72.8306 7.64843 72.7349C7.17041 72.6392 6.88359 72.2564 6.88359 71.5865C6.88359 71.5865 6.88359 71.5865 6.88359 71.4907V71.395C6.88359 71.395 6.88359 71.395 6.88359 71.2993C6.88359 71.2993 6.88359 71.2993 6.88359 71.2036H7.74404C7.74404 71.6822 7.83964 71.9693 8.03085 72.065C8.22206 72.1607 8.60449 72.2564 9.08251 72.2564H9.27372C9.36933 72.2564 9.46493 72.2564 9.56054 72.2564C9.65614 72.2564 9.75175 72.2564 9.84735 72.2564C9.94296 72.2564 10.1342 72.2564 10.3254 72.1607C10.5166 72.1607 10.6122 72.065 10.7078 72.065C10.8034 72.065 10.899 71.9693 10.899 71.8736C10.899 71.7779 10.9946 71.6822 10.9946 71.5865V71.4907V71.395C10.9946 71.0122 10.899 70.8208 10.6122 70.7251C10.3254 70.6294 10.0386 70.6294 9.75175 70.6294C9.65614 70.6294 9.65614 70.6294 9.56054 70.6294C9.46493 70.6294 9.46493 70.6294 9.36933 70.6294H9.27372H9.17812C8.60449 70.6294 8.03085 70.5337 7.64843 70.438C7.17041 70.3423 6.9792 69.9595 6.9792 69.2896C6.9792 69.1939 6.9792 69.1939 6.9792 69.0982C6.9792 69.0024 6.9792 68.9067 6.9792 68.9067C6.9792 68.811 7.0748 68.6196 7.0748 68.5239C7.17041 68.4282 7.26601 68.2368 7.36162 68.2368C7.45722 68.1411 7.64843 68.0454 7.83964 67.9497C8.03085 67.9497 8.22206 67.854 8.41327 67.854C8.50888 67.854 8.70009 67.854 8.7957 67.854C8.8913 67.854 9.08251 67.854 9.17812 67.854C9.27372 67.854 9.36933 67.854 9.56054 67.854C9.65614 67.854 9.75175 67.854 9.94296 67.854C10.421 67.854 10.8034 67.9497 11.1858 68.1411C11.5682 68.3325 11.7595 68.6196 11.7595 69.0982C11.7595 69.0982 11.7595 69.0982 11.7595 69.2896C11.7595 69.1939 11.7595 69.1939 11.7595 69.2896C11.7595 69.1939 11.7595 69.1939 11.7595 69.2896Z" fill="#EB2227"/>
<path d="M14.2452 65.8442V72.9263H13.3847V65.8442H14.2452Z" fill="#EB2227"/>
<path d="M16.6353 65.8442V66.7056H15.7749V65.8442H16.6353ZM16.6353 67.9497V72.9263H15.7749V67.9497H16.6353Z" fill="#EB2227"/>
<path d="M18.165 67.9497H19.0255V68.6196C19.2167 68.3325 19.5035 68.1411 19.8859 68.0454C20.2683 67.9497 20.6507 67.9497 21.0332 67.9497C21.798 67.9497 22.3716 68.0454 22.7541 68.3325C23.0409 68.6196 23.2321 69.0982 23.2321 69.7681V73.022H22.3716V69.7681C22.3716 69.2896 22.276 68.9067 22.0848 68.811C21.8936 68.6196 21.5112 68.6196 20.9376 68.6196C20.3639 68.6196 19.8859 68.7153 19.5991 68.9067C19.3123 69.0982 19.1211 69.481 19.1211 69.9595V73.022H18.165V67.9497Z" fill="#EB2227"/>
<path d="M29.6376 67.9497V73.2134C29.6376 73.9791 29.4464 74.4576 28.9684 74.7447C28.586 75.0318 27.9167 75.1275 27.0563 75.1275C26.2914 75.1275 25.7178 75.0318 25.3354 74.8404C24.953 74.649 24.7618 74.1705 24.7618 73.5005H25.6222C25.6222 73.9791 25.7178 74.2662 26.0046 74.3619C26.1958 74.4576 26.5783 74.5533 27.0563 74.5533C27.6299 74.5533 28.1079 74.4576 28.3948 74.3619C28.6816 74.2662 28.8728 73.8833 28.8728 73.3091V72.3521C28.6816 72.6392 28.4904 72.8306 28.2035 72.8306C27.9167 72.9263 27.6299 72.9263 27.2475 72.9263C27.1519 72.9263 27.1519 72.9263 27.0563 72.9263C26.9607 72.9263 26.9607 72.9263 26.8651 72.9263C25.909 72.9263 25.2398 72.7349 24.953 72.2564C24.6662 71.8736 24.4749 71.2993 24.4749 70.5337C24.4749 69.7681 24.5705 69.0982 24.8574 68.6196C25.0486 68.1411 25.8134 67.854 26.8651 67.854C27.2475 67.854 27.6299 67.854 27.9167 67.9497C28.2036 68.0454 28.4904 68.2368 28.7772 68.5239V67.854H29.6376V67.9497ZM25.431 70.438V70.6294C25.431 71.2036 25.5266 71.5865 25.6222 71.9693C25.7178 72.2564 26.1958 72.4478 27.0563 72.4478C27.5343 72.4478 27.9167 72.3521 28.2035 72.2564C28.4904 72.065 28.6816 71.7779 28.6816 71.395C28.6816 71.2993 28.6816 71.1079 28.6816 71.0122C28.6816 70.8208 28.6816 70.7251 28.6816 70.6294C28.6816 70.0552 28.586 69.5767 28.4904 69.1939C28.2992 68.811 27.8211 68.7153 27.0563 68.7153C26.387 68.7153 26.0046 68.811 25.7178 69.0024C25.5266 69.1939 25.431 69.5767 25.431 70.2466V70.438Z" fill="#EB2227"/>
<path d="M34.8959 67.9497V68.5239H32.6014V71.5865C32.6014 71.8736 32.697 72.065 32.7926 72.1607C32.8882 72.2564 33.0794 72.3521 33.4618 72.3521C33.8443 72.3521 34.1311 72.2564 34.2267 72.065C34.3223 71.8736 34.3223 71.6822 34.3223 71.3951V71.108H35.1827C35.1827 71.5865 35.0871 72.065 34.8959 72.4478C34.7047 72.8306 34.2267 72.9263 33.4618 72.9263C32.7926 72.9263 32.3146 72.8306 32.1234 72.6392C31.8365 72.4478 31.7409 72.065 31.7409 71.5865V68.5239H30.9761V67.9497H31.7409V66.7056H32.6014V67.9497H34.8959Z" fill="#EB2227"/>
<path d="M36.1388 70.2466C36.1388 69.3853 36.33 68.811 36.6168 68.4282C36.9036 68.0454 37.5729 67.854 38.7201 67.854C39.8674 67.854 40.6322 68.0454 40.9191 68.3325C41.3015 68.6196 41.3971 69.2896 41.3971 70.2466C41.3971 71.1079 41.3015 71.6822 41.1103 72.2564C40.9191 72.7349 40.1542 73.022 39.007 73.022C37.9553 73.022 37.1905 72.9263 36.808 72.6392C36.4256 72.3521 36.2344 71.7779 36.2344 70.8208V70.2466H36.1388ZM37.0948 70.2466V70.6294C37.0948 70.7251 37.0948 70.7251 37.0948 70.8208C37.0948 70.9165 37.0948 71.0122 37.0948 71.0122C37.0948 71.2036 37.0948 71.3951 37.1905 71.5865C37.2861 71.7779 37.2861 71.8736 37.3817 71.9693C37.4773 72.065 37.5729 72.065 37.7641 72.1607C37.8597 72.1607 38.0509 72.2564 38.1465 72.2564H38.2421H38.3377H38.7201C39.1982 72.2564 39.5806 72.1607 39.8674 72.065C40.1542 71.9693 40.2498 71.6822 40.3454 71.2036C40.3454 71.1079 40.3454 71.0122 40.3454 70.9165C40.3454 70.8208 40.3454 70.7251 40.3454 70.6294C40.3454 70.5337 40.3454 70.438 40.3454 70.3423C40.3454 70.2466 40.3454 70.1509 40.3454 70.0552C40.3454 69.481 40.2498 69.0025 40.1542 68.7153C40.0586 68.4282 39.5806 68.3325 38.9113 68.3325H38.7201C37.9553 68.3325 37.4773 68.4282 37.2861 68.6196C37.0948 68.811 36.9992 69.2896 36.9992 69.9595V70.2466H37.0948Z" fill="#EB2227"/>
<path d="M42.8311 67.9497H43.6916V68.6196C43.8828 68.3325 44.1696 68.1411 44.552 68.0454C44.9345 67.9497 45.3169 67.9497 45.6993 67.9497C46.4641 67.9497 47.0378 68.0454 47.4202 68.3325C47.707 68.6196 47.8982 69.0982 47.8982 69.7681V73.022H47.0378V69.7681C47.0378 69.2896 46.9422 68.9067 46.751 68.811C46.5598 68.6196 46.1773 68.6196 45.6037 68.6196C45.0301 68.6196 44.6476 68.7153 44.2652 68.9067C43.9784 69.0982 43.7872 69.481 43.7872 69.9595V73.022H42.9268V67.9497H42.8311Z" fill="#EB2227"/>
<path d="M4.78027 64.2173H4.68466C4.30224 64.2173 3.91982 64.4087 3.72861 64.6001C3.4418 64.7915 3.34619 65.0786 3.34619 65.4614C3.34619 65.7486 3.5374 66.0357 3.82422 66.2271C4.11103 66.4185 4.39785 66.5142 4.78027 66.5142C5.16269 66.5142 5.54511 66.3228 5.73632 66.1314C6.02314 65.94 6.11874 65.6528 6.11874 65.27C6.11874 64.9829 5.92753 64.6958 5.64072 64.5044C5.44951 64.313 5.16269 64.2173 4.78027 64.2173Z" fill="#EB2227"/>
<path d="M2.96378 73.3091C3.25059 73.4048 3.53741 73.4048 3.82422 73.4048C4.68467 73.4048 5.54512 73.1177 6.11875 72.6392C5.83193 72.3521 5.64072 72.0649 5.54512 71.6821C4.87588 72.6392 3.72862 73.2134 2.96378 73.3091Z" fill="#EB2227"/>
<path d="M6.02314 66.3228C5.64072 66.7056 5.25829 66.8013 4.78027 66.897H4.68466C4.30224 66.897 3.91982 66.8013 3.63301 66.5142C3.34619 66.3228 3.15498 66.0356 3.15498 65.7485C1.43409 66.1314 0.0956116 67.6626 0.0956116 69.481C0.0956116 71.0123 0.956059 72.2564 2.19893 72.9263C2.00772 72.8306 1.91211 72.7349 1.91211 72.5435C1.91211 72.3521 1.91211 72.1607 2.00772 71.9693L2.86816 69.0982C2.96377 68.8111 2.96377 68.6197 2.96377 68.4282C2.96377 68.3325 2.86816 68.2368 2.77256 68.2368C2.67695 68.1411 2.58135 68.1411 2.39014 68.1411C2.29453 68.1411 2.19893 68.1411 2.10332 68.1411L2.29453 67.9497L4.68466 67.4712H5.06708L3.82422 71.7779C3.72861 72.065 3.72861 72.1607 3.72861 72.2564C3.72861 72.2564 3.72861 72.3521 3.82422 72.3521L3.91982 72.4478C4.01543 72.4478 4.20664 72.3521 4.20664 72.3521C4.58906 72.065 5.06708 71.7779 5.3539 71.3951C5.25829 71.108 5.16269 70.7251 5.16269 70.438C5.16269 69.1939 5.92753 68.0454 6.97919 67.4712C6.78798 66.9927 6.40556 66.6099 6.02314 66.3228Z" fill="#EB2227"/>
<path d="M12.1419 87.3775C11.5682 86.5162 11.1858 85.942 10.9946 85.4634C10.7078 84.7935 10.6122 84.0279 10.6122 83.2622C10.6122 82.4966 10.7078 81.731 10.9946 81.0611C11.1858 80.5825 11.5682 79.9126 12.0463 79.147H12.7155C12.2375 80.0083 11.9507 80.6782 11.8551 81.0611C11.6638 81.731 11.5682 82.4009 11.5682 83.1665C11.5682 83.9322 11.6638 84.6978 11.8551 85.3677C12.0463 85.8462 12.3331 86.5162 12.8111 87.2818H12.1419V87.3775Z" fill="white"/>
<path d="M18.5474 81.1567H17.4958V82.5923H15.2968C15.01 82.5923 14.8188 82.688 14.8188 82.8794C14.8188 83.0708 15.1056 83.1665 15.5837 83.1665C15.6793 83.1665 15.7749 83.1665 15.9661 83.1665C16.1573 83.1665 16.2529 83.1665 16.3485 83.1665C16.8265 83.1665 17.3046 83.2622 17.5914 83.5493C17.9738 83.8365 18.165 84.2193 18.165 84.6978C18.165 85.1763 17.9738 85.4634 17.687 85.7505C17.4002 86.0376 17.0177 86.2291 16.5397 86.2291L17.5914 87.0904L17.0177 87.7603L13.5759 84.8892L14.1496 84.2193C14.7232 84.6978 15.01 84.9849 15.2012 85.0806C15.5837 85.3677 16.0617 85.4634 16.4441 85.4634C16.6353 85.4634 16.9221 85.3677 17.0177 85.272C17.2089 85.1763 17.3046 84.9849 17.3046 84.6978C17.3046 84.2193 16.9221 83.9322 16.2529 83.9322C16.1573 83.9322 15.9661 83.9322 15.7749 83.9322C15.5837 83.9322 15.3924 83.9322 15.2968 83.9322C14.3408 83.9322 13.8628 83.5493 13.8628 82.8794C13.8628 82.5923 13.9584 82.3052 14.2452 82.1138C14.532 81.9224 14.8188 81.8267 15.1056 81.8267H16.6353V81.1567H13.1935V80.5825H18.4518V81.1567H18.5474Z" fill="white"/>
<path d="M23.5189 80.5825C23.0409 79.9126 22.4672 79.6255 21.7024 79.6255C20.9375 79.6255 20.2683 80.0083 19.8859 80.5825H20.7463V81.1568H19.7903V86.5162H18.9298V81.1568H18.3562V80.5825H18.9298C19.2166 80.0083 19.5991 79.6255 20.0771 79.3384C20.5551 79.0513 21.1288 78.8599 21.7024 78.8599C22.276 78.8599 22.8496 79.0513 23.3277 79.3384C23.8057 79.6255 24.1881 80.104 24.4749 80.5825H23.5189Z" fill="white"/>
<path d="M26.2914 81.1567H24.2837C24.6662 81.5396 24.8574 82.0181 24.8574 82.688C24.8574 82.8794 24.8574 83.1665 24.7618 83.3579H25.909V84.0279H24.6662V83.6451C24.3793 84.315 23.9013 84.6978 23.1365 84.8892L25.0486 86.5162H23.8057L20.8419 83.9322L21.4156 83.3579C21.798 83.645 21.9892 83.8365 21.9892 83.8365C22.1804 84.0279 22.4672 84.1236 22.6584 84.1236C23.0409 84.1236 23.3277 84.0279 23.6145 83.7408C23.9013 83.4536 23.9969 83.1665 23.9969 82.7837C23.9969 82.0181 23.7101 81.4439 23.1365 81.1567H20.3639V80.5825H26.1958V81.1567H26.2914Z" fill="white"/>
<path d="M33.6531 81.1567H32.697V86.4205H31.8366V82.7837C31.4541 82.7837 31.1673 82.9751 30.8805 83.1665C30.5937 83.4536 30.4981 83.7408 30.4981 84.1236C30.4981 84.315 30.4981 84.5064 30.5937 84.6978L29.7332 84.315C29.7332 84.0279 29.7332 83.7407 29.8288 83.4536C29.542 82.9751 29.1596 82.688 28.586 82.688C28.2036 82.688 27.8211 82.7837 27.5343 83.0708C27.2475 83.3579 27.1519 83.645 27.1519 84.1236C27.1519 84.5064 27.2475 84.8892 27.5343 85.1763C27.8211 85.4634 28.1079 85.5591 28.586 85.5591C28.9684 85.5591 29.3508 85.3677 29.6376 85.0806V86.0376C29.2552 86.2291 28.8728 86.3248 28.4904 86.3248C27.9167 86.3248 27.3431 86.1334 26.9607 85.6548C26.4827 85.1763 26.2914 84.6978 26.2914 84.0279C26.2914 83.4536 26.4827 82.8794 26.9607 82.4966C27.4387 82.1138 27.9167 81.8267 28.4904 81.8267C29.064 81.8267 29.542 82.0181 30.0201 82.4009V82.7837C30.4981 82.1138 31.0717 81.8267 31.8366 81.8267V80.9653H25.909V80.3911H33.5574V81.1567H33.6531Z" fill="white"/>
<path d="M39.1025 81.1567H37.3817V82.5923H35.1827C34.9915 82.5923 34.8959 82.688 34.8959 82.8794C34.8959 83.0708 35.0871 83.1665 35.3739 83.1665H36.0432C37.1904 83.1665 37.7641 83.7407 37.7641 84.8892C37.7641 85.3677 37.5729 85.8462 37.1904 86.1334C36.808 86.4205 36.33 86.6119 35.852 86.6119C35.2783 86.6119 34.8003 86.4205 34.4179 86.0376C34.0355 85.6548 33.8443 85.1763 33.8443 84.6978C33.8443 84.6021 33.8443 84.6021 33.8443 84.4107H34.7047C34.7047 84.5064 34.7047 84.6021 34.7047 84.6021C34.7047 84.8892 34.8003 85.1763 35.0871 85.4634C35.2783 85.7505 35.5652 85.8462 35.9476 85.8462C36.2344 85.8462 36.5212 85.7505 36.7124 85.5591C36.9036 85.3677 36.9992 85.0806 36.9992 84.7935C36.9992 84.4107 36.808 84.1236 36.33 84.0279C36.1388 84.0279 35.852 83.9322 35.1827 83.9322C34.8959 83.9322 34.6091 83.8365 34.4179 83.645C34.1311 83.4536 34.0355 83.2622 34.0355 82.8794C34.0355 82.1138 34.4179 81.731 35.2783 81.731H36.5212V81.061H33.4618V80.4868H39.1025V81.1567ZM38.6245 83.0708C38.6245 83.4536 38.4333 83.645 38.0509 83.645C37.7641 83.645 37.5729 83.4536 37.5729 83.1665C37.5729 82.7837 37.7641 82.5923 38.0509 82.5923C38.2421 82.5923 38.3377 82.688 38.4333 82.7837C38.5289 82.7837 38.6245 82.8794 38.6245 83.0708Z" fill="white"/>
<path d="M39.3894 87.8562H38.5289C37.7641 87.3776 37.1904 87.0905 36.6168 87.0905V86.7077C37.6685 86.612 38.6245 86.9948 39.3894 87.8562Z" fill="white"/>
<path d="M44.2652 81.1567H42.8312V83.6451H42.7356C42.5443 83.0708 42.0663 82.688 41.3971 82.688C41.0147 82.688 40.6322 82.7837 40.3454 83.0708C40.0586 83.3579 39.963 83.6451 39.963 84.1236C39.963 84.5064 40.0586 84.8892 40.3454 85.1763C40.6322 85.4634 40.9191 85.5591 41.3971 85.5591C41.7795 85.5591 42.1619 85.4634 42.4487 85.1763C42.7356 84.8892 42.8312 84.6021 42.8312 84.1236H43.6916C43.6916 84.7935 43.5004 85.272 43.0224 85.7505C42.5443 86.2291 42.0663 86.4205 41.3971 86.4205C40.7278 86.4205 40.2498 86.2291 39.7718 85.7505C39.2938 85.272 39.1026 84.7935 39.1026 84.1236C39.1026 83.4536 39.2938 82.9751 39.7718 82.4966C40.2498 82.0181 40.7278 81.8267 41.3971 81.8267C41.5883 81.8267 41.7795 81.8267 41.9707 81.9224V81.1567H38.8157V80.5825H44.3608V81.1567H44.2652Z" fill="white"/>
<path d="M48.9499 81.1567H43.9784V80.5825H50.7664V81.1567H49.8103V86.5162H48.9499V82.9751H46.273C45.8905 82.9751 45.6037 83.0708 45.4125 83.3579C45.2213 83.5493 45.1257 83.8365 45.1257 84.2193C45.1257 84.6021 45.2213 84.8892 45.4125 85.0806C45.6037 85.272 45.8905 85.4634 46.273 85.4634C46.6554 85.4634 46.9422 85.3677 47.1334 85.0806C47.3246 84.8892 47.5158 84.6021 47.5158 84.2193C47.5158 83.7408 47.3246 83.4536 46.9422 83.1665H47.9938C48.1851 83.5493 48.2807 83.8365 48.2807 84.2193C48.2807 84.6978 48.0895 85.1763 47.707 85.5591C47.3246 85.9419 46.8466 86.1334 46.3686 86.1334C45.8905 86.1334 45.4125 85.9419 45.0301 85.5591C44.6477 85.1763 44.4565 84.6978 44.4565 84.2193C44.4565 83.645 44.6477 83.2622 45.0301 82.8794C45.4125 82.4966 45.8905 82.3052 46.3686 82.3052H49.0455V81.1567H48.9499Z" fill="white"/>
<path d="M62.8126 81.1567H58.5104V82.1138C58.8928 81.8267 59.3709 81.6353 59.8489 81.6353C60.4225 81.6353 60.9961 81.8267 61.3786 82.3052C61.8566 82.688 62.0478 83.2622 62.0478 83.8365C62.0478 84.4107 61.8566 84.9849 61.3786 85.4634C60.9961 85.9419 60.4225 86.1334 59.8489 86.1334C59.4665 86.1334 59.1796 86.0376 58.8928 85.8462V84.8892C59.1796 85.1763 59.4665 85.272 59.8489 85.272C60.2313 85.272 60.5181 85.0806 60.8049 84.7935C61.0918 84.5064 61.1874 84.2193 61.1874 83.8365C61.1874 83.4536 61.0918 83.1665 60.8049 82.8794C60.5181 82.5923 60.2313 82.4966 59.8489 82.4966C59.5621 82.4966 59.1797 82.5923 58.9884 82.8794C58.7016 83.0708 58.5104 83.3579 58.5104 83.7408V86.5162H57.65V85.6548C57.2675 85.9419 56.7895 86.1334 56.3115 86.1334C55.7379 86.1334 55.1642 85.9419 54.7818 85.4634C54.3038 85.0806 54.1126 84.5064 54.1126 83.9322C54.1126 83.3579 54.3038 82.7837 54.7818 82.3052C55.1642 81.8267 55.7379 81.6353 56.3115 81.6353C56.6939 81.6353 57.0763 81.731 57.3632 81.9224V82.9751C57.0763 82.5923 56.7895 82.4966 56.3115 82.4966C55.9291 82.4966 55.6423 82.5923 55.3554 82.8794C55.0686 83.1665 54.973 83.4536 54.973 83.8365C54.973 84.2193 55.0686 84.6021 55.3554 84.7935C55.6423 85.0806 55.9291 85.1763 56.3115 85.1763C56.6939 85.1763 56.9807 85.0806 57.2675 84.7935C57.5544 84.5064 57.65 84.2193 57.65 83.8365V81.061H53.5389V80.4868H62.717V81.1567H62.8126Z" fill="white"/>
<path d="M70.1743 81.1567H69.2182V86.4205H68.3578V82.7837C67.9753 82.7837 67.6885 82.9751 67.4017 83.1665C67.1149 83.4536 67.0193 83.7408 67.0193 84.1236C67.0193 84.315 67.0193 84.5064 67.1149 84.6978L66.2544 84.315C66.2544 84.0279 66.2544 83.7407 66.3501 83.4536C66.0632 82.9751 65.6808 82.688 65.1072 82.688C64.7248 82.688 64.3423 82.7837 64.0555 83.0708C63.7687 83.3579 63.6731 83.645 63.6731 84.1236C63.6731 84.5064 63.7687 84.8892 64.0555 85.1763C64.3423 85.4634 64.6292 85.5591 65.1072 85.5591C65.4896 85.5591 65.872 85.3677 66.1588 85.0806V86.0376C65.7764 86.2291 65.394 86.3248 65.0116 86.3248C64.4379 86.3248 63.8643 86.1334 63.4819 85.6548C63.0039 85.1763 62.8127 84.6978 62.8127 84.0279C62.8127 83.4536 63.0039 82.8794 63.4819 82.4966C63.9599 82.1138 64.4379 81.8267 65.0116 81.8267C65.5852 81.8267 66.0632 82.0181 66.5413 82.4009V82.7837C67.0193 82.1138 67.5929 81.8267 68.3578 81.8267V80.9653H62.4302V80.3911H70.0787V81.1567H70.1743Z" fill="white"/>
<path d="M68.7402 80.1997C68.549 80.1997 68.3578 80.3911 68.1666 80.6782C67.7841 80.4868 67.4973 80.1997 67.2105 79.8169C66.9237 79.4341 66.6369 79.147 66.5413 78.9556C66.1588 78.6685 65.7764 78.5728 65.1072 78.4771L65.6808 77.9028C66.1588 77.9985 66.6369 78.0942 66.9237 78.3814C67.1149 78.4771 67.3061 78.7642 67.6885 79.2427C68.1666 79.7212 68.4534 80.0083 68.7402 80.1997Z" fill="white"/>
<path d="M76.4842 81.1567H75.4326V86.5162H74.5721V82.8794H73.3292C73.616 83.2622 73.8073 83.7407 73.8073 84.2193C73.8073 84.8892 73.616 85.3677 73.138 85.8462C72.66 86.3248 72.182 86.5162 71.5127 86.5162C71.0347 86.5162 70.5567 86.4205 70.1743 86.1333V84.5064C70.2699 84.7935 70.3655 85.0806 70.6523 85.272C70.9391 85.4634 71.1303 85.5591 71.5127 85.5591C71.8952 85.5591 72.182 85.4634 72.4688 85.1763C72.7556 84.8892 72.8512 84.6021 72.8512 84.2193C72.8512 83.9322 72.7556 83.645 72.4688 83.3579C72.182 83.0708 71.9908 82.9751 71.6083 82.9751H70.7479V82.3052H74.4765V81.3481H69.7918V80.7739H76.4842V81.1567Z" fill="white"/>
<path d="M76.6754 87.3775C77.1534 86.5162 77.4403 85.8462 77.6315 85.4634C77.8227 84.7935 77.9183 84.1236 77.9183 83.2622C77.9183 82.4009 77.8227 81.731 77.6315 81.1568C77.5359 80.7739 77.1534 80.104 76.6754 79.2427H77.3447C77.8227 80.0083 78.2051 80.6782 78.3963 81.1568C78.6831 81.8267 78.7787 82.5923 78.7787 83.3579C78.7787 84.1236 78.6831 84.8892 78.3963 85.5591C78.2051 86.0377 77.8227 86.7076 77.2491 87.4732H76.6754V87.3775Z" fill="white"/>
<path d="M44.7432 27.8496C43.7872 27.8496 42.9267 26.9883 42.9267 26.0313C42.9267 24.9785 43.7872 24.2129 44.7432 24.2129C45.7949 24.2129 46.5597 25.0742 46.5597 26.0313C46.5597 26.9883 45.6993 27.8496 44.7432 27.8496ZM44.7432 24.3086C43.7872 24.3086 43.0223 25.0742 43.0223 26.0313C43.0223 26.9883 43.7872 27.7539 44.7432 27.7539C45.6993 27.7539 46.4641 26.9883 46.4641 26.0313C46.4641 25.0742 45.6993 24.3086 44.7432 24.3086Z" fill="white"/>
<path d="M44.7432 28.1368C43.596 28.1368 42.6399 27.1797 42.6399 26.0313C42.6399 24.8828 43.596 23.9258 44.7432 23.9258C45.8905 23.9258 46.8466 24.8828 46.8466 26.0313C46.8466 27.1797 45.8905 28.1368 44.7432 28.1368ZM44.7432 23.9258C43.596 23.9258 42.7355 24.7871 42.7355 25.9356C42.7355 27.084 43.596 27.9453 44.7432 27.9453C45.8905 27.9453 46.751 27.084 46.751 25.9356C46.751 24.8828 45.8905 23.9258 44.7432 23.9258ZM44.7432 27.5625C43.8828 27.5625 43.2136 26.8926 43.2136 26.0313C43.2136 25.1699 43.8828 24.5 44.7432 24.5C45.6037 24.5 46.2729 25.1699 46.2729 26.0313C46.2729 26.7969 45.6037 27.5625 44.7432 27.5625ZM44.7432 24.5957C43.9784 24.5957 43.3092 25.2656 43.3092 26.0313C43.3092 26.7969 43.9784 27.4668 44.7432 27.4668C45.5081 27.4668 46.1773 26.7969 46.1773 26.0313C46.1773 25.1699 45.5081 24.5957 44.7432 24.5957Z" fill="white"/>
<path d="M46.5598 30.1466H42.8311V29.4766H44.1696V28.6153H42.0663V26.6055H41.2059V27.9454H40.5366V24.2129H41.2059V25.5528H42.0663V23.3516H44.1696V22.4902H42.9268V21.8203H46.4641V22.4902H45.2213V23.3516H47.4202V25.5528H48.2806V24.2129H48.9499V27.8497H48.2806V26.6055H47.4202V28.6153H45.2213V29.4766H46.5598V30.1466ZM42.9268 30.0509H46.3685V29.5723H45.0301V28.5196H47.229V26.5098H48.2806V27.754H48.7587V24.3086H48.2806V25.6485H47.229V23.4473H45.0301V22.3945H46.2729V21.916H43.0224V22.3945H44.2652V23.4473H42.1619V25.6485H41.1103V24.3086H40.6322V27.8497H41.1103V26.5098H42.1619V28.5196H44.2652V29.5723H42.9268V30.0509ZM44.7432 28.1368C43.5004 28.1368 42.5443 27.1797 42.5443 25.9356C42.5443 24.6914 43.5004 23.7344 44.7432 23.7344C45.9861 23.7344 46.9422 24.6914 46.9422 25.9356C46.9422 27.1797 45.9861 28.1368 44.7432 28.1368ZM44.7432 23.9258C43.596 23.9258 42.6399 24.8828 42.6399 26.0313C42.6399 27.1797 43.596 28.1368 44.7432 28.1368C45.8905 28.1368 46.8466 27.1797 46.8466 26.0313C46.8466 24.8828 45.8905 23.9258 44.7432 23.9258Z" fill="white"/>
<path d="M44.9345 29.8594H44.4564V28.3282H44.552C44.6476 28.3282 44.8388 28.3282 44.9345 28.3282H45.0301V29.8594H44.9345ZM44.552 29.7637H44.8388V28.4239C44.7432 28.4239 44.6476 28.4239 44.552 28.4239V29.7637ZM44.2652 28.3282H42.3531V26.4141L42.4487 26.7012C42.6399 27.3711 43.2136 27.9454 43.9784 28.2325L44.2652 28.3282ZM42.4487 28.2325H43.6916C43.118 27.9454 42.7355 27.5625 42.4487 26.9883V28.2325ZM47.1334 28.3282H45.2213L45.5081 28.2325C46.1773 28.0411 46.751 27.4668 47.0378 26.7012L47.1334 26.4141V28.3282ZM45.7949 28.2325H47.0378V26.9883C46.751 27.5625 46.2729 28.0411 45.7949 28.2325ZM44.7432 24.2129C43.7872 24.2129 42.9267 24.9785 42.9267 26.0313C42.9267 26.9883 43.6916 27.8497 44.7432 27.8497C45.6993 27.8497 46.5597 27.084 46.5597 26.0313C46.5597 24.9785 45.6993 24.2129 44.7432 24.2129ZM48.6631 26.3184H47.1334V26.2227C47.1334 26.127 47.1334 26.0313 47.1334 25.9356V25.8399V25.7442H48.6631V26.3184ZM47.229 26.2227H48.5674V25.9356H47.229C47.229 26.0313 47.229 26.127 47.229 26.2227ZM42.3531 26.3184H40.8234V25.8399H42.3531V25.9356V26.0313C42.3531 26.127 42.3531 26.127 42.3531 26.3184ZM40.919 26.2227H42.2575C42.2575 26.127 42.2575 26.0313 42.2575 26.0313H40.919V26.2227ZM47.1334 25.5528L47.0378 25.2657C46.8466 24.5957 46.2729 24.0215 45.5081 23.7344L45.2213 23.6387H47.1334V25.5528ZM45.7949 23.7344C46.3685 24.0215 46.751 24.4043 47.0378 24.9785V23.7344H45.7949ZM42.3531 25.5528V23.6387H44.2652L43.9784 23.7344C43.3092 23.9258 42.7355 24.5 42.4487 25.2657L42.3531 25.5528ZM42.4487 23.7344V24.9785C42.7355 24.4043 43.118 24.0215 43.6916 23.7344H42.4487ZM44.4564 23.6387V22.1074H44.9345V23.6387H44.8388C44.7432 23.6387 44.6476 23.6387 44.4564 23.6387ZM44.552 22.2031V23.543C44.6476 23.543 44.7432 23.543 44.8388 23.543V22.2031H44.552Z" fill="white"/>
<path d="M44.7433 24.2129C43.7872 24.2129 42.9268 24.9785 42.9268 26.0313C42.9268 26.9883 43.6916 27.8496 44.7433 27.8496C45.6993 27.8496 46.5598 27.084 46.5598 26.0313C46.4642 24.9785 45.6993 24.2129 44.7433 24.2129Z" fill="#2D368F"/>
<path d="M48.2807 24.3086V25.6485H47.3246V23.4473H45.1257V22.4902H46.3685V21.916H43.0224V22.4902H44.2652V23.4473H42.1619V25.6485H41.2059V24.3086H40.6322V27.9454H41.2059V26.6055H42.1619V28.6153H44.2652V29.5723H42.9268V30.1466H46.4642V29.5723H45.1257V28.6153H47.3246V26.6055H48.2807V27.8497H48.8543V24.3086H48.2807ZM44.7433 28.1368C43.596 28.1368 42.6399 27.1797 42.6399 26.0313C42.6399 24.8828 43.596 23.9258 44.7433 23.9258C45.8905 23.9258 46.8466 24.8828 46.8466 26.0313C46.8466 27.1797 45.8905 28.1368 44.7433 28.1368Z" fill="#2D368F"/>
</svg>
