<svg width="163" height="68" viewBox="0 0 163 68" fill="none" xmlns="http://www.w3.org/2000/svg">
<path d="M61.5852 42.733V33.1626H63.3061V42.733H61.5852Z" fill="white"/>
<path d="M64.9314 42.733V33.1626H66.7479L71.1457 40.2447V33.1626H72.771V42.733H70.9546L66.5567 35.6509V42.733H64.9314Z" fill="white"/>
<path d="M73.4403 34.5982V33.1626H81.1843V34.5982H78.125V42.733H76.404V34.5982H73.4403Z" fill="white"/>
<path d="M81.9492 42.733V33.1626H88.8327V34.5982H83.5744V37.0865H88.3547V38.4263H83.5744V41.2017H88.9283V42.6373H81.9492V42.733Z" fill="white"/>
<path d="M90.0756 42.733V33.1626H94.6647C95.7163 33.1626 96.4812 33.354 97.0548 33.8325C97.6284 34.311 97.8196 34.8853 97.8196 35.7466C97.8196 36.9908 97.246 37.7564 96.1943 38.1392C97.1504 38.2349 97.6284 38.9048 97.6284 40.149C97.6284 41.4888 97.8196 42.2545 98.1064 42.6373H96.29C96.0988 42.3502 96.0031 41.8717 96.0031 41.2017C96.0031 40.2447 95.9075 39.6705 95.6207 39.2877C95.3339 38.9048 94.8558 38.7134 94.091 38.7134H91.6053V42.6373H90.0756V42.733ZM91.7009 34.5025V37.4693H94.4734C95.5251 37.4693 96.0987 36.9908 96.0987 35.938C96.0987 34.981 95.5251 34.5025 94.4734 34.5025H91.7009Z" fill="white"/>
<path d="M99.0625 42.733V33.1626H100.879L105.277 40.2447V33.1626H106.902V42.733H105.086L100.688 35.6509V42.733H99.0625Z" fill="white"/>
<path d="M107.38 42.733L111.013 33.1626H112.83L116.558 42.733H114.742L113.881 40.149H110.057L109.197 42.733H107.38ZM111.874 34.7896L110.44 38.9048H113.403L111.874 34.7896Z" fill="white"/>
<path d="M116.176 34.5982V33.1626H123.92V34.5982H120.86V42.733H119.14V34.5982H116.176Z" fill="white"/>
<path d="M124.685 42.733V33.1626H126.406V42.733H124.685Z" fill="white"/>
<path d="M132.142 32.8755C133.576 32.8755 134.628 33.354 135.488 34.311C136.349 35.2681 136.731 36.4165 136.731 37.8521C136.731 39.2877 136.349 40.4361 135.488 41.3931C134.628 42.3502 133.48 42.9244 132.142 42.9244C130.708 42.9244 129.656 42.4459 128.796 41.3931C127.935 40.4361 127.553 39.2877 127.553 37.8521C127.553 36.4165 127.935 35.2681 128.796 34.311C129.656 33.4497 130.803 32.8755 132.142 32.8755ZM132.142 34.311C131.186 34.311 130.421 34.6939 129.943 35.4595C129.465 36.1294 129.274 36.9908 129.274 37.9478C129.274 39.0005 129.465 39.7662 129.943 40.4361C130.517 41.2017 131.186 41.5845 132.142 41.5845C133.098 41.5845 133.863 41.2017 134.341 40.4361C134.819 39.7662 135.01 38.9048 135.01 37.9478C135.01 36.8951 134.819 36.1294 134.341 35.4595C133.863 34.6939 133.098 34.311 132.142 34.311Z" fill="white"/>
<path d="M137.878 42.733V33.1626H139.695L144.093 40.2447V33.1626H145.718V42.733H143.901L139.503 35.6509V42.733H137.878Z" fill="white"/>
<path d="M146.196 42.733L149.829 33.1626H151.645L155.374 42.733H153.557L152.697 40.149H148.873L148.012 42.733H146.196ZM150.689 34.7896L149.255 38.9048H152.219L150.689 34.7896Z" fill="white"/>
<path d="M155.852 42.733V33.1626H157.573V41.2974H162.449V42.733H155.852Z" fill="white"/>
<path d="M61.4896 30.196V10.5767H64.9314V30.196H61.4896Z" fill="#214497"/>
<path d="M66.5567 13.5435V10.5767H82.3316V13.5435H76.1172V30.196H72.6755V13.5435H66.5567Z" fill="#214497"/>
<path d="M81.6623 30.196L89.1195 10.6724H92.7525L100.305 30.196H96.6723L94.8559 25.028H87.0162L85.1997 30.196H81.6623ZM90.936 14.022L87.9723 22.4439H93.8998L90.936 14.022Z" fill="#214497"/>
<path d="M101.453 30.196V10.5767H104.894V18.3287H113.786V10.5767H117.227V30.196H113.786V21.3912H104.894V30.196H101.453Z" fill="#214497"/>
<path d="M118.279 30.196L125.736 10.6724H129.369L137.018 30.196H133.385L131.568 25.028H123.729L121.912 30.196H118.279ZM127.553 14.022L124.589 22.4439H130.517L127.553 14.022Z" fill="#214497"/>
<path d="M138.165 30.196V10.5767H147.534C149.638 10.5767 151.263 11.0552 152.315 11.9165C153.366 12.8736 153.94 14.1177 153.94 15.8404C153.94 18.4244 152.888 20.0514 150.689 20.817V20.9127C152.601 21.1998 153.557 22.5397 153.557 25.028C153.557 27.7077 153.94 29.4303 154.609 30.196H150.976C150.594 29.6217 150.498 28.6647 150.498 27.3249C150.498 25.4108 150.211 24.1666 149.733 23.401C149.16 22.5397 148.108 22.1568 146.578 22.1568H141.511V30.196H138.165ZM141.607 13.4478V19.5728H147.248C149.446 19.5728 150.594 18.5201 150.594 16.4146C150.594 14.4048 149.446 13.4478 147.248 13.4478H141.607Z" fill="#214497"/>
<path d="M156.712 30.196V10.5767H160.154V30.196H156.712Z" fill="#214497"/>
<path d="M71.9106 48.188H69.9029C69.5205 46.6568 68.5644 45.8911 66.9391 45.8911C65.7919 45.8911 64.8358 46.3696 64.1666 47.3267C63.5929 48.0923 63.3061 49.1451 63.3061 50.3892C63.3061 51.6334 63.5929 52.6861 64.1666 53.4517C64.8358 54.4088 65.6963 54.8873 66.9391 54.8873C67.7996 54.8873 68.5644 54.6002 69.0425 54.026C69.5205 53.4517 69.8073 52.7818 69.9029 51.8248H71.9106C71.815 53.2603 71.337 54.4088 70.3809 55.2701C69.4248 56.1314 68.2776 56.61 66.8435 56.61C65.1226 56.61 63.7841 56.0357 62.7325 54.7916C61.7764 53.6431 61.2028 52.2076 61.2028 50.4849C61.2028 48.7622 61.6808 47.3267 62.7325 46.1782C63.7841 44.9341 65.1226 44.3599 66.8435 44.3599C68.182 44.3599 69.3292 44.7427 70.1897 45.4126C71.2413 45.9868 71.815 46.9439 71.9106 48.188Z" fill="white"/>
<path d="M83.0964 44.1685C84.8173 44.1685 86.1558 44.7427 87.2074 45.9868C88.1635 47.1353 88.7371 48.5708 88.7371 50.2935C88.7371 52.0162 88.2591 53.4517 87.2074 54.6002C86.1558 55.8443 84.8173 56.4186 83.0964 56.4186C81.3755 56.4186 80.037 55.8443 78.9853 54.6002C78.0293 53.4517 77.4557 52.0162 77.4557 50.2935C77.4557 48.5708 77.9337 47.1353 78.9853 45.9868C79.9414 44.7427 81.3755 44.1685 83.0964 44.1685ZM83.0964 45.7954C81.9491 45.7954 80.9931 46.2739 80.3238 47.231C79.7502 47.9966 79.4634 49.0494 79.4634 50.2935C79.4634 51.5377 79.7502 52.5904 80.3238 53.356C80.9931 54.3131 81.8535 54.7916 83.0964 54.7916C84.2436 54.7916 85.1997 54.3131 85.8689 53.356C86.4426 52.5904 86.7294 51.5377 86.7294 50.2935C86.7294 49.0494 86.4426 47.9966 85.8689 47.231C85.1041 46.2739 84.2436 45.7954 83.0964 45.7954Z" fill="white"/>
<path d="M94.8559 56.2271V44.4556H96.8636V54.4088H102.791V56.2271H94.8559Z" fill="white"/>
<path d="M108.527 56.2271V44.4556H110.535V54.4088H116.463V56.2271H108.527Z" fill="white"/>
<path d="M122.295 56.2271V44.4556H130.708V46.2739H124.302V49.3365H130.23V51.0591H124.302V54.5045H130.803V56.3229H122.295V56.2271Z" fill="white"/>
<path d="M147.152 50.0064V56.2271H145.813L145.527 54.8873C144.953 55.4615 144.475 55.94 143.901 56.1314C143.328 56.4186 142.754 56.5143 141.989 56.5143C140.268 56.5143 138.93 55.94 137.878 54.6959C136.922 53.5474 136.349 52.1119 136.349 50.3892C136.349 48.6665 136.827 47.231 137.878 46.0825C138.93 44.8384 140.268 44.2642 141.989 44.2642C143.328 44.2642 144.475 44.647 145.335 45.3169C146.291 45.9868 146.865 47.0396 147.056 48.2837H145.049C144.953 47.5181 144.571 46.9439 143.997 46.5611C143.423 46.1782 142.754 45.9868 141.989 45.9868C140.842 45.9868 139.886 46.4654 139.217 47.4224C138.643 48.188 138.356 49.2408 138.356 50.4849C138.356 51.7291 138.643 52.7818 139.217 53.5474C139.886 54.5045 140.746 54.983 141.989 54.983C143.041 54.983 143.806 54.6959 144.379 54.1217C144.953 53.5474 145.24 52.7818 145.24 51.7291H142.085V50.1978H147.152V50.0064Z" fill="white"/>
<path d="M153.653 56.2271V44.4556H162.066V46.2739H155.661V49.3365H161.588V51.0591H155.661V54.5045H162.162V56.3229H153.653V56.2271Z" fill="white"/>
<path d="M27.1673 0.910331C27.1673 0.910331 32.1388 0.718924 38.4488 2.05878C47.34 4.06856 50.6862 6.74827 50.6862 6.74827V30.4829H27.1673V0.910331Z" fill="#EB2227"/>
<path d="M28.8882 3.11167C28.8882 3.11167 33.1904 2.92026 38.6399 4.16442C46.2884 5.88709 49.1565 8.18398 49.1565 8.18398V28.856H28.9838V3.11167H28.8882Z" fill="white"/>
<path d="M0.302246 33.354C0.302246 39.4791 0.302246 42.9244 0.302246 42.9244C0.302246 43.4986 0.302246 44.2643 0.302246 45.0299L0.397828 49.1452C0.397828 58.3327 17.4156 65.1277 23.9168 67.4246V33.354H0.302246Z" fill="#EB2227"/>
<path d="M50.6862 33.354H27.0717V67.5203C33.3817 65.2234 50.6862 58.3327 50.6862 49.0495V43.69C50.6862 43.4029 50.6862 43.2115 50.6862 42.9244C50.6862 42.9244 50.6862 39.3834 50.6862 33.354Z" fill="#214497"/>
<path d="M6.61218 52.2077C6.70779 52.3034 6.80344 52.3034 6.89904 52.3991C6.99465 52.3991 6.9946 52.3991 7.09021 52.3991H7.18585C7.28145 52.3991 7.37707 52.4948 7.37707 52.5905C7.37707 52.6862 7.47263 52.8776 7.56823 52.9733C7.66384 53.069 7.75949 53.069 7.8551 53.1647C7.8551 53.1647 7.95065 53.2604 8.04626 53.2604C8.42868 53.4518 8.71553 53.4518 9.09795 53.2604C9.28916 53.1647 9.38473 53.069 9.48034 52.9733C9.57594 52.7819 9.67158 52.5905 9.57598 52.3991C9.57598 52.2077 9.48036 52.112 9.38476 51.9206C9.28915 51.8249 9.09794 51.7292 8.90673 51.7292C8.71552 51.7292 8.42869 51.6335 8.23748 51.7292C8.14188 51.7292 8.1419 51.7292 8.1419 51.6335C8.1419 51.6335 8.1419 51.6335 8.1419 51.5378V51.4421C8.1419 51.3464 8.14186 51.3464 8.04626 51.3464H7.95068C7.85507 51.3464 7.8551 51.3464 7.8551 51.2507C7.8551 50.9635 7.75948 50.7721 7.66387 50.5807C7.56827 50.485 7.47267 50.3893 7.37707 50.2936C7.18586 50.1979 6.99464 50.1979 6.70782 50.1979C6.61222 50.1979 6.51662 50.2936 6.42102 50.3893C6.22981 50.5807 6.13415 50.7721 6.13415 50.9635C6.13415 51.1549 6.13419 51.3464 6.22979 51.5378C6.3254 51.7292 6.42099 51.8249 6.5166 51.9206C6.5166 51.9206 6.51658 52.0163 6.61218 52.0163C6.51658 52.112 6.51658 52.2077 6.61218 52.2077ZM15.6947 42.8287C15.5035 43.1158 15.3123 43.4029 15.0255 43.5943C14.5475 44.2643 14.0694 44.8385 13.4958 45.5084C12.9221 46.1783 12.4441 46.8483 11.8705 47.6139C11.3924 48.1881 12.4441 46.944 11.9661 47.5182C11.7749 47.7096 11.5837 47.9967 11.4881 48.1881C11.4881 48.1881 11.488 48.2838 11.3924 48.2838L11.4881 48.3795C11.5837 48.3795 11.5837 48.4752 11.4881 48.5709C11.4881 48.6666 11.3925 48.6666 11.2969 48.6666H11.2013L11.1056 48.5709C11.1056 48.5709 11.1056 48.5709 11.1056 48.6666L11.2013 48.7624C11.2013 48.7624 11.2013 48.7624 11.2969 48.8581C11.2969 48.8581 11.3925 48.9538 11.2969 48.9538C11.2969 49.0495 11.1057 49.1452 11.0101 49.0495L10.9144 48.9538V49.0495C10.9144 49.1452 10.9145 49.1452 11.0101 49.2409C11.0101 49.3366 11.0101 49.3366 11.0101 49.4323C11.0101 49.528 10.9144 49.528 10.8188 49.6237C10.7232 49.6237 10.7232 49.7194 10.6276 49.7194C10.532 49.8151 10.4364 49.8151 10.2452 49.9108C10.2452 49.9108 10.1496 49.9108 10.1496 50.0065C10.054 50.1022 10.054 50.1979 9.95836 50.2936C9.95836 50.2936 9.95836 50.2936 9.95836 50.3893C10.054 50.485 10.054 50.485 10.1496 50.5807C10.3408 50.8678 10.532 51.0592 10.6276 51.4421C10.7232 51.8249 10.8189 52.2077 10.7233 52.6862C10.7233 52.9733 10.6276 53.1647 10.4364 53.3561C10.3408 53.5475 10.2452 53.6433 10.1496 53.739C9.95838 53.9304 9.86277 54.0261 9.67156 54.1218C9.38474 54.2175 9.09796 54.3132 8.81115 54.3132C8.61994 54.3132 8.42873 54.3132 8.33312 54.3132C8.14191 54.3132 8.04631 54.2175 7.8551 54.2175C7.75949 54.2175 7.66384 54.1218 7.56823 54.1218C7.37702 54.0261 7.18581 53.9304 7.09021 53.8347C6.80339 53.6432 6.61223 53.4518 6.42102 53.2604C6.32541 53.1647 6.22976 53.069 6.13415 52.9733C5.94294 52.6862 5.84737 52.3991 5.75177 52.112C5.65616 51.9206 5.65613 51.6335 5.65613 51.4421C5.65613 51.1549 5.75174 50.8678 5.84735 50.485C5.94296 50.3893 5.94297 50.1979 6.03857 50.1022C6.03857 50.0065 6.13415 50.0065 6.13415 49.9108C6.22976 49.8151 6.32541 49.7194 6.42102 49.6237C6.61223 49.4323 6.89903 49.3366 7.18585 49.3366C7.47266 49.2409 7.75944 49.2409 8.04626 49.3366C8.23747 49.3366 8.42869 49.4323 8.71551 49.528C8.81111 49.528 9.00235 49.6237 9.09795 49.7194C9.09795 49.7194 9.09793 49.7194 9.19353 49.7194C9.28914 49.6237 9.38476 49.528 9.38476 49.4323C9.38476 49.4323 9.38476 49.4323 9.38476 49.3366C9.38476 49.2409 9.38476 49.1452 9.38476 49.1452C9.38476 49.0495 9.38473 48.8581 9.48034 48.7624C9.48034 48.6666 9.48037 48.6666 9.57598 48.5709C9.67158 48.4752 9.76718 48.4752 9.86278 48.4752C9.95839 48.4752 9.9584 48.4752 10.054 48.4752C10.054 48.4752 10.1496 48.4752 10.1496 48.3795C10.1496 48.3795 10.1496 48.3795 10.054 48.2838C9.9584 48.1881 9.9584 48.1881 10.054 48.0924C10.054 47.9967 10.1496 47.9967 10.2452 47.9967H10.3408L10.4364 48.0924L10.3408 47.9967C10.2452 47.901 10.2452 47.8053 10.3408 47.7096C10.4364 47.7096 10.4364 47.7096 10.532 47.7096C10.532 47.7096 10.6276 47.7096 10.6276 47.8053C10.6276 47.8053 10.6276 47.8053 10.7233 47.8053C10.7233 47.8053 10.7233 47.8053 10.7233 47.7096C10.8189 47.5182 11.01 47.3268 11.1056 47.2311C11.3925 46.8483 10.2452 48.3795 10.532 47.9967C10.7232 47.8053 10.8188 47.6139 11.0101 47.4225C11.2969 47.0397 11.5837 46.6569 11.9661 46.274C12.1573 46.0826 12.2529 45.8912 12.4441 45.6998C12.731 45.317 13.0178 44.9342 13.4002 44.5514C13.5914 44.36 13.687 44.1686 13.8782 43.9772C14.165 43.5943 14.4518 43.2115 14.8343 42.8287C15.0255 42.6373 15.1211 42.4459 15.3123 42.2545C15.5991 41.8717 15.8859 41.4889 16.2683 41.106C16.5552 40.8189 16.7464 40.4361 17.0332 40.149C17.2244 39.8619 17.5112 39.5748 17.7024 39.2877C17.8936 39.0963 18.0848 38.8091 18.276 38.6177C18.276 38.6177 18.3717 38.522 18.3717 38.6177C18.4673 38.6177 18.6585 38.7134 18.7541 38.8091C18.9453 38.9048 19.0409 39.0963 19.1365 39.2877V39.3834C19.1365 39.3834 19.1365 39.4791 19.0409 39.4791C18.8497 39.6705 18.754 39.8619 18.5628 40.0533C18.5628 40.0533 18.5629 40.0533 18.4673 40.149C18.4673 40.149 18.4672 40.2447 18.5628 40.2447C18.9453 40.5318 19.2321 40.8189 19.6145 41.106C19.9013 41.2974 20.1881 41.5846 20.4749 41.776C20.4749 41.776 20.5706 41.776 20.5706 41.8717C20.475 41.9674 20.2838 42.1588 20.2838 42.2545H20.1881C19.9013 42.0631 19.6145 41.8717 19.4233 41.5846C19.3277 41.4889 19.3277 41.4889 19.2321 41.3931C19.2321 41.3931 19.2321 41.3931 19.1365 41.3931C19.1365 41.4889 19.0409 41.4889 19.0409 41.5846C19.0409 41.6803 18.9453 41.6803 18.9453 41.776L19.0409 41.8717C19.1365 41.9674 19.3277 42.0631 19.4233 42.1588C19.4233 42.1588 19.4233 42.1588 19.4233 42.2545C19.4233 42.2545 19.4233 42.3502 19.3277 42.3502C19.2321 42.4459 19.2321 42.5416 19.1365 42.6373C19.1365 42.6373 19.1365 42.6373 19.1365 42.733C19.1365 42.733 19.1365 42.733 19.2321 42.8287C19.3277 42.9244 19.4233 43.0201 19.5189 43.0201C19.5189 43.0201 19.5189 43.0201 19.6145 43.1158C19.4233 43.3072 19.3277 43.4986 19.1365 43.69H19.0409C18.9453 43.5943 18.8497 43.4986 18.7541 43.4986C18.7541 43.4986 18.7541 43.4986 18.6585 43.4986L18.5628 43.5943C18.5628 43.69 18.4673 43.69 18.4673 43.7857L18.3717 43.8814H18.276C18.1804 43.7857 17.9893 43.69 17.8936 43.5943C17.8936 43.5943 17.8936 43.5943 17.798 43.4986C17.7024 43.5943 17.6068 43.69 17.6068 43.7857C17.6068 43.7857 17.6068 43.7857 17.7024 43.8814C17.798 43.9772 17.8936 43.9772 17.9892 44.0729C18.1804 44.2643 18.4673 44.4557 18.6585 44.6471C18.6585 44.6471 18.7541 44.6471 18.7541 44.7428C18.6585 44.8385 18.5629 45.0299 18.4673 45.1256C18.4673 45.1256 18.4673 45.1256 18.3717 45.1256C17.8936 44.7428 17.5112 44.4557 17.0332 44.0729C16.842 43.8814 16.6507 43.7857 16.3639 43.5943C15.7903 42.733 15.7903 42.733 15.6947 42.8287C15.6947 42.733 15.6947 42.733 15.6947 42.8287Z" fill="white"/>
<path d="M40.074 13.3521C40.3608 13.2564 40.1696 12.8736 41.2213 12.7779C41.7949 12.6822 41.6993 12.108 43.0378 12.3951C43.6114 12.4908 43.8026 12.8736 43.9939 13.3521C43.4202 13.065 42.6553 13.2564 42.9422 13.1607C43.5158 13.065 43.707 13.9263 43.8026 14.1177C43.229 13.5435 42.5598 13.8306 42.5598 13.9263C43.1334 13.8306 43.5158 14.3092 43.5158 14.5006C42.751 14.2134 41.4125 15.4576 40.9345 14.3092C40.7433 13.9263 39.6916 13.7349 40.074 13.3521Z" fill="#EB2227"/>
<path d="M34.4333 11.7251H35.1982L35.5806 10.7681L36.1542 11.8208H36.8235L37.7795 11.2466L36.8235 12.5864C36.0586 12.395 35.1982 12.395 34.1465 12.5864L33.4773 11.2466L34.4333 11.7251Z" fill="#EB2227"/>
<path d="M47.0532 24.3579C46.6708 24.645 44.8543 24.4536 44.8543 24.4536C44.8543 24.4536 44.5674 23.3052 45.3323 23.3052C46.0971 23.3052 47.4356 24.0708 47.0532 24.3579Z" fill="#EB2227"/>
<path d="M40.4564 23.688C40.074 23.9751 38.2575 23.7837 38.2575 23.7837C38.2575 23.7837 37.9707 22.6353 38.7355 22.6353C39.596 22.731 40.8388 23.4966 40.4564 23.688Z" fill="#EB2227"/>
<path d="M33.7641 24.0708C33.3817 24.3579 31.5652 24.1665 31.5652 24.1665C31.5652 24.1665 31.2784 23.0181 32.0432 23.0181C32.8081 23.0181 34.1465 23.7837 33.7641 24.0708Z" fill="#EB2227"/>
<path d="M30.1311 16.0317C30.1311 16.0317 31.2784 15.7446 31.2784 16.5103C31.2784 17.2759 30.5135 18.6157 30.2267 18.2329C30.0355 17.7544 30.1311 16.0317 30.1311 16.0317Z" fill="#EB2227"/>
<path d="M46.2884 20.8171C46.384 20.3386 45.7147 19.4772 45.5235 19.3815C45.4279 19.2858 45.4279 19.0944 45.5235 18.9987C45.1411 18.6159 44.7587 18.5202 44.7587 18.5202V18.4245C44.7587 18.4245 45.2367 18.6159 45.6192 18.903C45.6192 18.8073 45.7147 18.8073 45.7147 18.8073C47.34 18.3288 48.1049 16.6061 47.2444 15.6491C46.384 14.692 45.1411 14.692 43.8026 15.1706C42.3686 15.7448 41.4125 15.7448 40.9345 15.5534C39.9784 15.1706 40.074 13.6393 40.074 13.6393C38.7355 16.2233 41.1257 16.4147 42.0818 16.2233C43.1334 16.0319 43.707 15.6491 45.2367 15.8405C46.2884 15.9362 46.4796 16.7975 46.0016 17.276C45.5235 17.8503 44.7587 17.4675 44.7587 17.4675C44.0895 16.9889 41.0301 17.276 40.2652 17.3717C39.5004 17.4675 38.9268 16.7975 38.9268 16.7975L38.4488 15.7448C38.5444 16.5104 38.4487 17.276 38.1619 17.6589C38.3531 16.6061 37.7795 16.319 38.2575 15.0749L37.5883 13.5436C36.9191 12.4908 34.5289 13.1608 34.5289 13.1608C34.5289 13.1608 33.1905 14.1178 32.5212 14.4049C32.33 14.5006 32.8081 16.7018 33.1905 16.5104C33.3817 16.4147 34.5289 16.1276 34.5289 16.1276V17.1803L34.0509 18.3288L31.4695 17.8503L30.9915 18.3288L31.1827 18.6159L31.2784 18.8073C32.33 18.9987 34.8157 20.9128 34.8157 20.9128C34.4333 21.1999 33.0948 22.7312 33.0948 22.7312L34.2421 23.4011L36.3454 21.1042C38.9268 22.0612 40.7433 19.9558 41.0301 20.2429C41.3169 20.53 40.9345 20.8171 41.0301 21.3913C41.1257 21.7741 41.0301 22.4441 41.0301 22.4441L40.3609 22.7312L40.9345 23.3054C40.9345 23.3054 41.4125 23.3054 41.9861 23.0183C42.3685 22.8269 42.3686 21.6784 42.273 21.487C42.1774 21.2956 42.6554 20.9128 42.8466 20.8171C42.1774 19.7643 40.8389 19.86 40.8389 19.86V19.7643C40.8389 19.7643 42.3686 19.5729 43.0378 20.9128C45.1411 22.7312 46.7664 21.7741 46.7664 21.7741C46.7664 21.7741 46.9576 22.4441 46.862 23.4011L47.5313 24.1667L48.1049 20.8171C47.8181 20.9128 46.1927 21.2956 46.2884 20.8171ZM34.1465 14.0221C34.0509 14.0221 33.9553 14.0221 33.9553 14.0221C33.9553 13.9264 34.0509 13.9264 34.1465 13.8307C34.2421 13.8307 34.3377 13.8307 34.3377 13.9264C34.3377 13.9264 34.2421 14.0221 34.1465 14.0221ZM34.8157 20.3386C34.5289 19.6686 34.8157 19.1901 34.3377 17.6589C35.1025 18.5202 35.0069 19.2858 34.8157 20.3386ZM35.1026 14.692C35.1026 13.9264 34.9114 13.6393 34.9114 13.6393H35.1026C35.1982 13.9264 35.1026 14.692 35.1026 14.692ZM36.1542 18.7116C35.7718 17.0846 36.3454 16.6061 36.7278 14.5963C37.2059 16.4147 36.1542 17.1803 36.1542 18.7116ZM37.1103 21.1999V20.4343C37.6839 20.8171 38.6399 20.8171 40.074 20.3386C38.5443 21.5827 37.1103 21.1999 37.1103 21.1999Z" fill="#EB2227"/>
<path d="M44.7587 41.6802L45.1411 42.2544V50.4849L39.4048 50.1021C39.118 50.2935 38.7356 50.4849 38.3531 50.4849C37.9707 50.4849 37.5883 50.3892 37.3015 50.1021L31.5652 50.4849V42.2544L31.852 41.7759H31.0872V51.1549L37.2059 50.6763C37.3971 50.7721 37.6839 50.8678 37.8751 50.9635C38.0663 51.0592 38.2575 51.0592 38.5444 51.0592C38.7356 51.0592 38.9268 51.0592 39.118 50.9635C39.3092 50.8678 39.5004 50.7721 39.7872 50.6763L45.906 51.1549V41.6802H44.7587Z" fill="white"/>
<path d="M37.3971 49.7193C37.5883 49.9107 37.7795 50.1021 38.1619 50.1021C38.0663 49.5278 37.8751 49.0493 37.4927 48.7622C37.1103 48.4751 36.4411 48.3794 35.5806 48.3794C35.1982 48.3794 34.7201 48.3794 34.3377 48.4751C33.8597 48.4751 33.3817 48.5708 32.9036 48.7622L32.2344 50.1021L37.3971 49.7193Z" fill="white"/>
<path d="M35.485 48.0924C36.7278 48.0924 37.5883 48.3795 38.1619 48.9537V42.2544C38.1619 41.5845 37.9708 41.106 37.4927 40.7231C37.1103 40.3403 36.4411 40.2446 35.5806 40.2446C35.1982 40.2446 34.7201 40.2446 34.2421 40.3403C33.7641 40.436 33.2861 40.5317 32.808 40.6274V48.3795C33.3817 48.2838 33.8597 48.1881 34.2421 48.1881C34.8158 48.0924 35.1982 48.0924 35.485 48.0924Z" fill="white"/>
<path d="M32.5212 41.0103L31.852 42.2544V49.815L32.5212 48.3795V41.0103Z" fill="white"/>
<path d="M41.0301 48.4751C39.3092 48.4751 38.4488 49.0493 38.4488 50.1978C38.8312 50.1021 39.0224 50.0064 39.2136 49.7193L44.4719 50.1978L43.8027 48.8579C43.229 48.7622 42.751 48.6665 42.273 48.5708C41.8906 48.4751 41.4125 48.4751 41.0301 48.4751Z" fill="white"/>
<path d="M44.7587 42.3501L44.0895 41.0103V48.3795L44.7587 49.815V42.3501Z" fill="white"/>
<path d="M41.1257 48.0924C41.6038 48.0924 41.9861 48.0924 42.4642 48.1881C42.9422 48.1881 43.3246 48.2838 43.8027 48.3795V40.6274C43.3246 40.5317 42.751 40.436 42.3686 40.3403C41.8906 40.2446 41.5081 40.2446 41.1257 40.2446C40.2653 40.2446 39.596 40.436 39.118 40.8189C38.7356 41.106 38.5444 41.5845 38.5444 42.2544V48.9537C38.8312 48.5709 39.2136 48.3795 39.596 48.2838C39.8828 48.1881 40.4565 48.0924 41.1257 48.0924Z" fill="white"/>
<path d="M23.8211 0.910331C23.8211 0.910331 18.8497 0.718924 12.5397 2.05878C3.64842 4.06856 0.302246 6.74827 0.302246 6.74827V30.4829H23.8211V0.910331Z" fill="#214497"/>
<path d="M22.1002 3.11167C22.1002 3.11167 17.798 2.92026 12.3485 4.16442C4.70007 5.88709 1.83191 8.18398 1.83191 8.18398V28.856H22.0047V3.11167H22.1002Z" fill="white"/>
<path d="M12.2529 14.022C10.2452 14.022 8.61993 15.6489 8.61993 17.6587C8.61993 19.6685 10.2452 21.2955 12.2529 21.2955C14.2606 21.2955 15.8859 19.6685 15.8859 17.6587C15.7903 15.6489 14.165 14.022 12.2529 14.022ZM12.2529 20.6255C10.6276 20.6255 9.28918 19.2857 9.28918 17.6587C9.28918 16.0318 10.6276 14.6919 12.2529 14.6919C13.8782 14.6919 15.2167 16.0318 15.2167 17.6587C15.2167 19.2857 13.8782 20.6255 12.2529 20.6255Z" fill="#214497"/>
<path d="M19.3277 19.2857V16.0318H17.8936C17.798 15.5533 17.6068 15.1704 17.4156 14.7876L18.4673 13.7349L16.1727 11.438L15.1211 12.4907C14.7386 12.2993 14.3562 12.1079 13.8782 12.0122V10.5767H10.6276V12.0122C10.1496 12.1079 9.76718 12.2993 9.38476 12.4907L8.33312 11.438L6.03857 13.7349L7.09021 14.7876C6.899 15.1704 6.70779 15.5533 6.61218 16.0318H5.08252V19.2857H6.5166C6.6122 19.7642 6.80341 20.1471 6.99462 20.5299L5.94299 21.5826L8.23748 23.8795L9.28917 22.8268C9.67159 23.0182 10.054 23.2096 10.532 23.3053V24.7408H13.7826V23.3053C14.2606 23.2096 14.6431 23.0182 15.0255 22.8268L16.0771 23.8795L18.3717 21.5826L17.32 20.5299C17.5112 20.1471 17.7024 19.6685 17.798 19.2857H19.3277ZM17.4156 18.9029C17.32 19.4771 17.0332 19.9556 16.7464 20.4342L16.6507 20.6256L17.5112 21.5826L16.0771 23.0182L15.1211 22.0611L14.9298 22.1568C14.4518 22.4439 13.9738 22.6354 13.4002 22.8268L13.1134 22.9225V24.1666H11.1056V22.9225L10.8188 22.8268C10.2452 22.7311 9.7672 22.4439 9.28917 22.1568L9.09795 22.0611L8.23748 23.0182L6.8034 21.5826L7.75945 20.6256L7.66387 20.4342C7.37706 19.9556 7.18583 19.4771 6.99462 18.9029V18.7115H5.75177V16.7017H6.99462L7.09021 16.4146C7.18581 15.8404 7.47264 15.3619 7.75945 14.8833L7.8551 14.6919L6.89904 13.8306L8.33312 12.395L9.19353 13.2564L9.38476 13.1607C9.86278 12.8736 10.3408 12.6821 10.9144 12.4907L11.2013 12.395V11.1509H13.209V12.395L13.4958 12.4907C14.0694 12.5864 14.5475 12.8736 15.0255 13.1607L15.2167 13.2564L16.1727 12.395L17.6068 13.8306L16.7464 14.6919L16.842 14.8833C17.1288 15.3619 17.32 15.8404 17.5112 16.4146L17.6068 16.7017H18.8497V18.7115H17.6068L17.4156 18.9029Z" fill="#214497"/>
</svg>
