<svg width="223" height="79" viewBox="0 0 223 79" fill="none" xmlns="http://www.w3.org/2000/svg">
<path d="M107.698 9.39018V21.8424H106.053V16.3308H99.682V22.0465H98.0378V9.39018H99.682V14.9018H106.053V9.39018H107.698Z" fill="#4D4D4F"/>
<path d="M115.713 9.39018V21.8424H114.069V9.39018H115.713Z" fill="#4D4D4F"/>
<path d="M131.745 13.0646C131.334 12.2481 130.923 11.8398 130.306 11.4315C129.689 11.0233 128.867 10.8191 128.045 10.8191C127.223 10.8191 126.401 11.0233 125.579 11.4315C124.962 11.8398 124.346 12.4522 123.935 13.0646C123.524 13.8811 123.318 14.6977 123.318 15.7183C123.318 16.739 123.524 17.5556 123.935 18.3721C124.346 19.1886 124.962 19.5969 125.579 20.0052C126.195 20.4134 127.018 20.6176 128.045 20.6176C129.278 20.6176 130.306 20.2093 131.128 19.5969C131.95 18.7804 132.361 17.9638 132.567 16.5349H127.634V15.1059H134.417V16.3308C134.417 17.3514 134.006 18.3721 133.389 19.1886C132.772 20.0052 132.156 20.8217 131.128 21.23C130.306 21.6382 129.278 22.0465 128.045 22.0465C126.812 22.0465 125.784 21.8424 124.757 21.23C123.729 20.6176 123.112 20.0052 122.496 18.9845C121.879 17.9638 121.674 16.9432 121.674 15.7183C121.674 14.4935 121.879 13.4729 122.496 12.4522C123.112 11.4315 123.729 10.615 124.757 10.2067C125.784 9.59432 126.812 9.39018 128.045 9.39018C129.484 9.39018 130.512 9.79845 131.539 10.4109C132.567 11.0233 133.389 12.0439 133.8 13.2687H131.745V13.0646Z" fill="#4D4D4F"/>
<path d="M149.626 9.39018V21.8424H147.982V16.3308H141.61V22.0465H139.76V9.39018H141.405V14.9018H147.982V9.39018H149.626Z" fill="#4D4D4F"/>
<path d="M157.641 10.8191V14.9018H162.163V16.3308H157.641V20.6176H162.78V22.0465H155.997V9.39018H162.78V10.8191H157.641Z" fill="#4D4D4F"/>
<path d="M175.523 21.8424L172.44 16.739H170.384V21.8424H168.74V9.39018H172.851C173.878 9.39018 174.7 9.59432 175.317 9.79845C175.934 10.2067 176.55 10.615 176.756 11.2274C177.167 11.8398 177.167 12.4522 177.167 13.0646C177.167 13.8811 176.961 14.6977 176.345 15.3101C175.934 15.9225 175.112 16.3308 174.084 16.5349L177.167 21.8424H175.523ZM170.59 15.5142H173.056C173.878 15.5142 174.7 15.3101 175.112 14.9018C175.523 14.4935 175.728 13.8811 175.728 13.0646C175.728 12.2481 175.523 11.8398 175.112 11.4315C174.7 11.0233 174.084 10.8191 173.056 10.8191H170.59V15.5142Z" fill="#4D4D4F"/>
<path d="M101.532 29.1912V32.4574H106.67V35.3152H101.532V38.7855H107.287V41.8475H97.6267V26.1292H107.287V29.1912H101.532Z" fill="#39BCAA"/>
<path d="M119.618 27.1499C120.852 27.7623 121.879 28.7829 122.496 30.0077C123.112 31.2326 123.524 32.4574 123.524 34.0904C123.524 35.7235 123.112 36.9483 122.496 38.1731C121.879 39.3979 120.852 40.2145 119.618 41.031C118.385 41.6434 116.947 42.0517 115.302 42.0517H109.342V26.3333H115.302C116.947 26.1292 118.385 26.5375 119.618 27.1499ZM118.385 37.3566C119.207 36.54 119.618 35.5194 119.618 34.0904C119.618 32.6615 119.207 31.4367 118.385 30.6202C117.563 29.8036 116.535 29.3953 114.891 29.3953H113.041V38.5814H114.891C116.535 38.5814 117.563 38.1731 118.385 37.3566Z" fill="#39BCAA"/>
<path d="M128.867 26.1292V35.5194C128.867 36.54 129.073 37.1525 129.484 37.7649C129.895 38.1731 130.717 38.5814 131.539 38.5814C132.361 38.5814 133.183 38.3773 133.594 37.7649C134.006 37.3566 134.417 36.54 134.417 35.5194V26.1292H138.322V35.5194C138.322 36.9483 138.116 38.1731 137.5 38.9897C136.883 40.0103 136.061 40.6227 135.033 41.2351C134.006 41.6434 132.978 42.0517 131.745 42.0517C130.512 42.0517 129.484 41.8475 128.456 41.2351C127.429 40.8269 126.606 40.0103 126.195 38.9897C125.579 37.969 125.373 36.7442 125.373 35.5194V26.1292H128.867Z" fill="#39BCAA"/>
<path d="M140.788 29.8036C141.405 28.5788 142.432 27.5581 143.665 26.9457C144.899 26.3333 146.337 25.9251 147.776 25.9251C149.626 25.9251 151.27 26.3333 152.503 27.354C153.736 28.3747 154.764 29.5995 155.175 31.4367H150.859C150.448 30.8243 150.037 30.2119 149.42 30.0078C148.804 29.5995 148.187 29.3953 147.365 29.3953C146.132 29.3953 145.31 29.8036 144.488 30.6202C143.665 31.4367 143.46 32.4574 143.46 33.8863C143.46 35.3152 143.871 36.3359 144.488 37.1525C145.31 37.969 146.132 38.3773 147.365 38.3773C148.187 38.3773 148.804 38.1731 149.42 37.7649C150.037 37.3566 150.448 36.9483 150.859 36.3359H155.175C154.764 37.969 153.736 39.3979 152.503 40.4186C151.27 41.4393 149.626 41.8475 147.776 41.8475C146.337 41.8475 144.899 41.4393 143.665 40.8269C142.432 40.2145 141.61 39.1938 140.788 37.969C140.171 36.7442 139.76 35.3152 139.76 33.8863C139.76 32.4574 140.171 31.0284 140.788 29.8036Z" fill="#39BCAA"/>
<path d="M166.89 38.9897H160.93L159.902 41.8475H155.792L161.547 26.1292H166.068L171.823 41.8475H167.712L166.89 38.9897ZM165.863 36.1318L163.807 30.416L161.958 36.1318H165.863Z" fill="#39BCAA"/>
<path d="M184.36 26.1292V29.1912H180.25V41.8475H176.345V29.1912H172.234V26.1292H184.36Z" fill="#39BCAA"/>
<path d="M189.499 26.1292V41.8475H185.594V26.1292H189.499Z" fill="#39BCAA"/>
<path d="M195.253 40.8269C194.02 40.2145 192.993 39.1938 192.376 37.969C191.554 36.7442 191.348 35.3152 191.348 33.8863C191.348 32.2532 191.759 31.0284 192.376 29.8036C193.198 28.5788 194.02 27.5581 195.253 26.9457C196.487 26.3333 197.925 25.9251 199.364 25.9251C200.803 25.9251 202.241 26.3333 203.475 26.9457C204.708 27.5581 205.735 28.5788 206.352 29.8036C206.969 31.0284 207.38 32.4574 207.38 33.8863C207.38 35.5194 206.969 36.7442 206.352 37.969C205.53 39.1938 204.708 40.2145 203.475 40.8269C202.241 41.4393 200.803 41.8475 199.364 41.8475C197.72 41.8475 196.487 41.6434 195.253 40.8269ZM202.241 37.1525C203.064 36.3359 203.475 35.3152 203.475 33.8863C203.475 32.4574 203.064 31.4367 202.241 30.6202C201.419 29.8036 200.392 29.3953 199.159 29.3953C197.925 29.3953 196.898 29.8036 196.076 30.6202C195.253 31.4367 194.842 32.4574 194.842 33.8863C194.842 35.3152 195.253 36.3359 196.076 37.1525C196.898 37.969 197.925 38.3773 199.159 38.3773C200.597 38.3773 201.419 37.969 202.241 37.1525Z" fill="#39BCAA"/>
<path d="M223 41.8475H219.095L212.723 32.2532V41.8475H208.818V26.1292H212.723L219.095 35.9276V26.1292H223V41.8475Z" fill="#39BCAA"/>
<path d="M106.053 52.4625V55.5246H114.069V61.6486H106.053V65.323H115.097V71.6512H97.8322V45.9302H115.097V52.2584H106.053V52.4625Z" fill="#F05159"/>
<path d="M134.828 71.6512L130.1 64.9147L126.195 71.6512H116.947L125.373 58.3824L116.535 45.9302H126.195L130.717 52.2584L134.622 45.9302H143.871L135.444 58.9948L144.488 71.6512H134.828Z" fill="#FFD235"/>
<path d="M166.274 59.199C165.452 60.4238 164.424 61.6486 162.985 62.261C161.547 63.0775 159.697 63.4858 157.641 63.4858H154.353V71.6512H146.337V45.9302H157.641C160.724 45.9302 163.191 46.7468 164.835 48.3799C166.479 50.0129 167.301 52.0543 167.301 54.708C167.507 56.5452 167.096 57.9742 166.274 59.199ZM159.286 54.9121C159.286 53.2791 158.464 52.4625 156.819 52.4625H154.559V57.1576H156.819C158.464 57.1576 159.286 56.3411 159.286 54.9121Z" fill="#92C743"/>
<path d="M175.934 70.2222C173.878 68.9974 172.234 67.5685 171.001 65.5271C169.768 63.4858 169.151 61.2403 169.151 58.7907C169.151 56.3411 169.768 54.0956 171.001 52.0543C172.234 50.0129 173.878 48.3799 175.934 47.3592C177.989 46.1344 180.25 45.7261 182.716 45.7261C185.182 45.7261 187.443 46.3385 189.499 47.3592C191.554 48.584 193.198 50.0129 194.226 52.0543C195.459 54.0956 196.076 56.3411 196.076 58.7907C196.076 61.2403 195.459 63.4858 194.226 65.5271C192.993 67.5685 191.348 69.2016 189.499 70.2222C187.443 71.447 185.182 71.8553 182.922 71.8553C180.25 72.0594 177.989 71.447 175.934 70.2222ZM186.416 62.8734C187.238 61.8527 187.649 60.4238 187.649 58.7907C187.649 56.9535 187.238 55.5246 186.416 54.5039C185.594 53.4832 184.36 52.8708 182.716 52.8708C181.072 52.8708 179.839 53.4832 179.017 54.5039C178.194 55.5246 177.783 56.9535 177.783 58.7907C177.783 60.6279 178.194 61.8527 179.017 62.8734C179.839 63.8941 181.072 64.5065 182.716 64.5065C184.155 64.5065 185.388 63.8941 186.416 62.8734Z" fill="#0275BB"/>
<path d="M150.242 69.2016V48.9922H157.847C160.93 48.9922 163.396 51.4419 163.396 54.5039C163.396 57.5659 160.93 60.0155 157.847 60.0155H156.819" stroke="#CEE298" stroke-width="0.1975" stroke-miterlimit="10" stroke-linecap="round"/>
<path d="M122.907 47.9716L127.84 54.9121" stroke="#FEEAAB" stroke-width="0.1975" stroke-miterlimit="10" stroke-linecap="round"/>
<path d="M132.978 62.4651L138.322 69.4057" stroke="#FEEAAB" stroke-width="0.1975" stroke-miterlimit="10" stroke-linecap="round"/>
<path d="M137.911 47.9716L122.907 69.4057" stroke="#FEEAAB" stroke-width="0.1975" stroke-miterlimit="10" stroke-linecap="round"/>
<path d="M184.566 68.385C186.416 67.9767 187.854 67.1602 189.088 65.9354C190.526 64.0982 191.348 61.8527 191.348 58.7907C191.348 55.7287 190.526 53.2791 189.088 51.4419C187.854 50.0129 186.416 49.1964 184.566 48.9922" stroke="#7AC5E2" stroke-width="0.1975" stroke-miterlimit="10" stroke-linecap="round"/>
<path d="M180.661 48.9922C178.811 49.4005 177.167 50.2171 176.139 51.4419C174.7 53.2791 173.878 55.7287 173.878 58.7907C173.878 61.8527 174.7 64.3023 176.139 65.9354C177.372 67.3643 178.811 68.1809 180.661 68.385" stroke="#7AC5E2" stroke-width="0.1975" stroke-miterlimit="10" stroke-linecap="round"/>
<path d="M113.041 48.9922H102.354V68.7933H113.041" stroke="#F59AA4" stroke-width="0.1975" stroke-miterlimit="10" stroke-linecap="round"/>
<path d="M106.053 58.9948H111.397" stroke="#F59AA4" stroke-width="0.1975" stroke-miterlimit="10" stroke-linecap="round"/>
<path opacity="0.96" fill-rule="evenodd" clip-rule="evenodd" d="M23.8415 54.2997H12.7429C9.86544 54.2997 7.39908 51.8501 7.39908 48.9922V27.354C7.39908 24.292 9.86544 22.0465 12.7429 22.0465H52.4101C55.2876 22.0465 57.7539 24.4961 57.7539 27.354V48.9922C57.7539 52.0543 55.2876 54.2997 52.4101 54.2997H39.0507H23.8415Z" fill="#74C044"/>
<path d="M8.83778 34.7028H13.565V36.7442C15.2092 35.1111 16.6479 34.4987 18.7032 34.4987C21.9917 34.4987 23.8415 36.54 23.8415 40.4186V50.0129H19.1143V41.031C19.1143 38.9897 18.4977 37.969 17.059 37.969C15.6203 37.969 14.3871 38.9897 13.565 40.4186V50.0129H8.83778V34.7028Z" fill="white"/>
<path d="M2.87742 28.5788C4.52166 28.5788 5.75484 29.8036 5.75484 31.4367C5.75484 33.0698 4.52166 34.2946 2.87742 34.2946C1.23318 34.2946 0 33.0698 0 31.4367C0 29.8036 1.23318 28.5788 2.87742 28.5788Z" fill="#74C044"/>
<path d="M5.54931 34.7029H0V50.0129H5.54931V34.7029Z" fill="#74C044"/>
<path fill-rule="evenodd" clip-rule="evenodd" d="M39.2562 32.2532C39.6673 32.2532 39.8728 32.2532 40.2839 32.4574C40.6949 32.6615 40.9005 32.8656 41.106 33.2739C41.3115 33.6822 41.3115 33.8863 41.3115 34.2946C41.3115 34.7028 41.3115 34.907 41.106 35.3152C40.9005 35.7235 40.6949 35.9277 40.2839 36.1318C39.8728 36.3359 39.6673 36.3359 39.2562 36.3359C38.8452 36.3359 38.6396 36.3359 38.2286 36.1318C37.8175 35.9277 37.612 35.7235 37.4065 35.3152C37.2009 34.907 37.2009 34.7028 37.2009 34.2946C37.2009 33.8863 37.2009 33.6822 37.4065 33.2739C37.612 32.8656 37.8175 32.6615 38.2286 32.4574C38.6396 32.2532 38.8452 32.2532 39.2562 32.2532ZM40.6949 33.2739C40.4894 33.0698 40.2839 32.8656 40.0783 32.6615C39.8728 32.4574 39.4618 32.4574 39.2562 32.4574C39.0507 32.4574 38.6396 32.4574 38.4341 32.6615C38.2286 32.8656 38.023 33.0698 37.8175 33.2739C37.612 33.478 37.612 33.8863 37.612 34.0904C37.612 34.2946 37.612 34.7028 37.8175 34.907C38.023 35.1111 38.2286 35.3152 38.4341 35.5194C38.6396 35.7235 39.0507 35.7235 39.2562 35.7235C39.4618 35.7235 39.8728 35.7235 40.0783 35.5194C40.2839 35.3152 40.4894 35.1111 40.6949 34.907C40.9005 34.7028 40.9005 34.2946 40.9005 34.0904C40.9005 33.8863 40.9005 33.6822 40.6949 33.2739ZM39.8728 34.7028C39.8728 35.1111 40.0783 35.3152 40.0783 35.3152H39.8728C39.8728 35.3152 39.8728 35.1111 39.6673 34.7028C39.6673 34.2946 39.4618 34.2946 39.2562 34.2946H39.0507V35.3152H38.8452V33.0698C39.0507 33.0698 39.2562 33.0698 39.4618 33.0698C39.8728 33.0698 40.0783 33.0698 40.0783 33.2739C40.2839 33.2739 40.2839 33.478 40.2839 33.6822C40.2839 33.8863 40.0783 34.0904 39.8728 34.2946C39.6673 34.2946 39.8728 34.4987 39.8728 34.7028ZM39.6673 33.6822C39.6673 33.478 39.4618 33.2739 39.0507 33.2739C38.8452 33.2739 38.8452 33.2739 38.8452 33.2739V34.0904H39.0507C39.4618 34.0904 39.6673 33.8863 39.6673 33.6822Z" fill="white"/>
<path d="M10.071 61.8527C8.42672 61.8527 7.19354 60.6279 7.19354 58.9948C7.19354 57.1576 8.22119 56.1369 10.071 56.1369C10.8931 56.1369 11.7152 56.3411 12.1263 56.9535L11.7152 57.3618C11.3041 56.9535 10.6876 56.7493 10.071 56.7493C8.83778 56.7493 8.01566 57.5659 8.01566 58.9948C8.01566 60.4238 8.83778 61.2403 10.071 61.2403C10.6876 61.2403 11.3041 61.0362 11.7152 60.6279V59.199H10.071V58.5866H12.3318V60.832C11.9207 61.4444 11.0986 61.8527 10.071 61.8527Z" fill="#6D6E71"/>
<path d="M19.1143 61.6486H18.2922L16.8535 59.6072H15.4147V61.6486H14.5926V55.9328H16.8535C17.8811 55.9328 18.7032 56.5452 18.7032 57.77C18.7032 58.5866 18.2922 59.199 17.47 59.4031L19.1143 61.6486ZM15.4147 58.9948H17.059C17.8811 58.9948 18.2922 58.5866 18.2922 57.77C18.2922 56.9535 17.8811 56.5452 17.059 56.5452H15.4147V58.9948Z" fill="#6D6E71"/>
<path d="M23.4304 61.8527C21.7862 61.8527 20.553 60.6279 20.553 58.9948C20.553 57.1576 21.5806 56.1369 23.4304 56.1369C25.0747 56.1369 26.3078 57.3618 26.3078 58.9948C26.3078 60.6279 25.2802 61.8527 23.4304 61.8527ZM23.4304 56.5452C22.1972 56.5452 21.3751 57.3618 21.3751 58.7907C21.3751 60.2196 22.1972 61.0362 23.4304 61.0362C24.6636 61.0362 25.4857 60.2196 25.4857 58.7907C25.6912 57.5659 24.8691 56.5452 23.4304 56.5452Z" fill="#6D6E71"/>
<path d="M30.8295 61.8527C29.1853 61.8527 28.5687 61.0362 28.5687 59.199V56.1369H29.1853V59.199C29.1853 60.6279 29.5963 61.2403 30.8295 61.2403C31.8571 61.2403 32.4737 60.6279 32.4737 59.199V56.1369H33.0903V59.199C33.0903 60.2196 32.8848 61.8527 30.8295 61.8527Z" fill="#6D6E71"/>
<path d="M35.9677 61.6486H35.3512V55.9328H37.612C38.8452 55.9328 39.4617 56.7494 39.4617 57.77C39.4617 58.9948 38.6396 59.6072 37.612 59.6072H35.9677V61.6486ZM35.9677 59.199H37.612C38.4341 59.199 38.8452 58.7907 38.8452 57.9742C38.8452 57.1576 38.4341 56.7494 37.612 56.7494H35.9677V59.199Z" fill="#6D6E71"/>
<path d="M39.4617 52.4625C39.4617 53.2791 39.2562 53.8915 39.0507 54.2997H33.5014C34.529 54.0956 35.1456 53.4832 35.1456 52.6667C35.1456 51.646 33.9124 50.8295 31.6516 50.8295C29.1852 50.8295 27.9521 51.4419 27.9521 52.4625C27.9521 53.2791 28.3631 53.8915 29.3908 54.0956H23.8415C23.6359 53.6873 23.6359 53.2791 23.6359 52.6667C23.6359 50.8295 25.0747 49.6047 27.7465 48.7881C26.5134 48.3798 25.8968 47.7674 25.8968 46.9509C25.8968 45.7261 26.7189 45.1137 28.5687 44.7054C25.8968 43.8889 24.6636 42.6641 24.4581 40.2145C24.4581 39.8062 24.4581 38.7855 24.6636 37.969C26.1023 34.2946 32.8848 32.2532 32.8848 32.2532L32.4737 31.4367L35.7622 32.4574L35.1456 35.5194L34.529 34.7028C31.2405 35.7235 29.5963 37.5607 28.9797 38.7855C28.5687 40.2145 28.7742 42.8682 31.2405 42.8682C33.7069 42.8682 34.7346 41.031 33.9124 39.1938C33.0903 37.5607 30.8295 37.5607 30.8295 37.5607L33.9124 35.3152C34.7346 35.5194 35.3511 35.9277 35.7622 36.1318C37.2009 36.9483 38.2286 38.5814 38.2286 40.2145C38.2286 43.0724 36.5843 44.5013 33.2958 45.1137C31.2406 45.522 29.8018 45.1137 29.8018 46.3385C29.8018 47.3592 31.2405 47.155 33.9124 47.5633C37.8175 48.3798 39.4617 50.0129 39.4617 52.4625Z" fill="white"/>
<path d="M77.8958 0V79" stroke="#4D4D4F" stroke-width="0.2179" stroke-miterlimit="10"/>
<path d="M204.708 53.8915C205.324 53.2791 205.736 52.8708 206.147 52.2584C206.558 51.646 206.763 51.0336 206.763 50.6253C206.763 50.0129 206.558 49.6046 206.352 49.4005C206.147 49.1964 205.736 48.9922 205.119 48.9922C204.502 48.9922 204.091 49.1964 203.886 49.6046C203.68 50.0129 203.475 50.4212 203.475 51.0336H202.447C202.447 50.217 202.858 49.4005 203.269 48.9922C203.886 48.584 204.502 48.1757 205.324 48.1757C206.147 48.1757 206.763 48.3798 207.38 48.7881C207.791 49.1964 208.202 49.8088 208.202 50.6253C208.202 51.2377 207.996 52.0543 207.585 52.6667C207.174 53.2791 206.763 53.8915 206.147 54.2997C205.53 54.708 204.913 55.3204 204.091 55.9328H208.407V56.9535H202.447V56.1369C203.475 55.1163 204.297 54.2997 204.708 53.8915Z" fill="#0275BB"/>
<path d="M214.984 48.9922C215.395 48.1757 216.218 47.7674 217.451 47.7674C218.684 47.7674 219.3 48.1757 219.917 48.9922C220.534 49.8088 220.534 50.8295 220.534 52.2584C220.534 53.6873 220.328 54.708 219.917 55.5245C219.506 56.3411 218.684 56.7494 217.451 56.7494C216.218 56.7494 215.601 56.3411 214.984 55.5245C214.573 54.708 214.368 53.6873 214.368 52.2584C214.368 50.8295 214.573 49.8088 214.984 48.9922ZM219.3 50.4212C219.3 50.0129 219.095 49.6047 218.684 49.1964C218.478 48.9922 218.067 48.7881 217.451 48.7881C216.834 48.7881 216.423 48.9922 216.218 49.1964C216.012 49.4005 215.806 49.8088 215.601 50.4212C215.601 50.8295 215.395 51.4419 215.395 52.2584C215.395 53.0749 215.395 53.6873 215.601 54.0956C215.601 54.5039 215.806 54.9121 216.218 55.3204C216.423 55.5245 216.834 55.7287 217.451 55.7287C218.067 55.7287 218.478 55.5245 218.684 55.3204C218.889 55.1163 219.095 54.708 219.3 54.0956C219.3 53.6873 219.506 53.0749 219.506 52.2584C219.506 51.646 219.3 51.0336 219.3 50.4212Z" fill="#0275BB"/>
<path d="M204.708 66.7519C205.324 66.1395 205.736 65.7313 206.147 65.1189C206.558 64.5065 206.763 63.8941 206.763 63.4858C206.763 62.8734 206.558 62.4651 206.352 62.261C206.147 62.0569 205.736 61.8527 205.119 61.8527C204.502 61.8527 204.091 62.0569 203.886 62.4651C203.68 62.8734 203.475 63.2817 203.475 63.8941H202.447C202.447 63.0775 202.858 62.261 203.269 61.8527C203.886 61.4444 204.502 61.0362 205.324 61.0362C206.147 61.0362 206.763 61.2403 207.38 61.6486C207.791 62.0569 208.202 62.6693 208.202 63.4858C208.202 64.0982 207.996 64.9147 207.585 65.5271C207.174 66.1395 206.763 66.7519 206.147 67.1602C205.53 67.5685 204.913 68.1809 204.091 68.7933H208.407V69.814H202.447V68.9974C203.475 67.9767 204.297 67.3643 204.708 66.7519Z" fill="#0275BB"/>
<path d="M217.04 66.7519C217.656 66.1395 218.067 65.7313 218.478 65.1189C218.889 64.5065 219.095 63.8941 219.095 63.4858C219.095 62.8734 218.889 62.4651 218.684 62.261C218.478 62.0569 218.067 61.8527 217.451 61.8527C216.834 61.8527 216.423 62.0569 216.218 62.4651C216.012 62.8734 215.806 63.2817 215.806 63.8941H214.779C214.779 63.0775 215.19 62.261 215.601 61.8527C216.218 61.4444 216.834 61.0362 217.656 61.0362C218.478 61.0362 219.095 61.2403 219.712 61.6486C220.123 62.0569 220.534 62.6693 220.534 63.4858C220.534 64.0982 220.328 64.9147 219.917 65.5271C219.506 66.1395 219.095 66.7519 218.478 67.1602C217.862 67.5685 217.245 68.1809 216.423 68.7933H220.739V69.814H214.779V68.9974C215.601 67.9767 216.423 67.3643 217.04 66.7519Z" fill="#0275BB"/>
</svg>
