<svg width="12" height="22" viewBox="0 0 12 22" fill="none" xmlns="http://www.w3.org/2000/svg">
<g clip-path="url(#clip0_11_62482)">
<path d="M2.02901 21.9999C1.58296 21.9015 1.15866 21.7484 0.805077 21.4312C0.331822 21.0046 0.0489574 20.4906 0.0108794 19.8453C0.00543971 19.7469 0.00543971 19.643 0.00543971 19.5445C0.00543971 13.8463 0.00543971 8.15352 0 2.45529C0 1.62407 0.288305 0.962371 0.946509 0.470201C1.32729 0.185836 1.75703 0.0108424 2.23028 0.0108424C4.75975 -9.47161e-05 7.28921 -0.00556327 9.81868 0.0108424C10.9773 0.0217795 11.9347 1.00065 11.9946 2.15999C12 2.25295 12 2.34592 12 2.43888C11.9946 8.15899 11.9946 13.8791 11.9891 19.5992C11.9891 20.6929 11.369 21.5734 10.3844 21.8796C10.2375 21.9233 10.0852 21.9562 9.93291 21.9944C7.30009 21.9999 4.66183 21.9999 2.02901 21.9999ZM1.2185 3.27557C1.2185 8.37773 1.2185 13.4635 1.2185 18.5492C4.466 18.5492 7.69719 18.5492 10.9284 18.5492C10.9284 13.4526 10.9284 8.3668 10.9284 3.27557C7.68631 3.27557 4.46056 3.27557 1.2185 3.27557ZM5.95648 21.3109C6.51133 21.3109 6.97915 20.8515 6.98459 20.2937C6.99003 19.7305 6.51133 19.2492 5.95104 19.2547C5.39619 19.2602 4.93382 19.7305 4.93926 20.2882C4.93926 20.8515 5.39619 21.3109 5.95648 21.3109ZM6.01088 2.06702C6.3427 2.06702 6.67996 2.06702 7.01179 2.06702C7.27833 2.06702 7.43608 1.93031 7.43064 1.71703C7.4252 1.50923 7.27289 1.38345 7.01723 1.38345C6.35358 1.38345 5.69538 1.38345 5.03173 1.38345C4.75975 1.38345 4.61287 1.5147 4.61287 1.73344C4.61831 1.94124 4.76519 2.06702 5.02085 2.06702C5.35811 2.06702 5.6845 2.06702 6.01088 2.06702ZM4.24841 1.7225C4.24297 1.54204 4.07978 1.38892 3.89483 1.39439C3.71532 1.40532 3.57389 1.55298 3.57389 1.72797C3.57389 1.9139 3.73164 2.06702 3.91659 2.06155C4.0961 2.06155 4.25385 1.90296 4.24841 1.7225Z" fill="#979797"/>
</g>
<defs>
<clipPath id="clip0_11_62482">
<rect width="12" height="22" fill="white"/>
</clipPath>
</defs>
</svg>
