<?xml version="1.0" encoding="UTF-8"?><svg id="Layer_1" xmlns="http://www.w3.org/2000/svg" viewBox="0 0 63.98 56.9"><defs><style>.cls-1{fill:#202020;}.cls-1,.cls-2,.cls-3,.cls-4,.cls-5,.cls-6,.cls-7,.cls-8{fill-rule:evenodd;}.cls-9,.cls-4{fill:#fff;}.cls-2,.cls-10{fill:#d0625c;}.cls-3,.cls-11{fill:#253151;}.cls-12{fill:#f4bc19;}.cls-5,.cls-13{fill:#b6867c;}.cls-14{fill:#d7d7d7;}.cls-6{fill:#e4975d;}.cls-15,.cls-8{fill:#f4c1b8;}.cls-7,.cls-16{fill:#206bb5;}.cls-17{fill:#4a434a;}</style></defs><g><path class="cls-9" d="M48.78,20.38h-.02l-.04,.04-.06,.04c-.06,.04-.12,.07-.19,.11h0s-.09,.02-.13,0c-.09-.07-.16-.15-.2-.25-.15-.27-.26-.56-.32-.86v-.05l-.03-.05c-.44-1.56-1.64-2.46-3.24-2.84h-.03l-.04-.02s-.1-.04-.15-.05l-.08-.02-.08-.02c-.11-.02-.22-.04-.32-.05h-.02l-.03-.06c-.87-1.82-2.79-2.99-5.04-3.02h-.16c-1.12-.04-2.13,.22-2.96,.75l-.04,.03h-.01l-.06-.05c-.15-.1-.31-.19-.47-.27h-.02l.02-.05,.03-.05c.17-.27,.3-.56,.39-.86,.16-.54,.25-1.1,.25-1.67v-.11c-.02-.94-.27-1.95-.87-2.66h0l-.43-1.73v-.05l-.03-.05c-.22-.79-.74-1.47-1.44-1.9L25.86,.25l-.05-.03-.04-.02c-.37-.2-.8-.25-1.21-.15h-.05l-.05,.03h-.02l-.05,.02-.04,.02h-.02l-.04,.03-.06,.03-.07,.03-.04,.02-.04,.02-.04,.02-.05,.03-.03,.02-.06,.05-.04,.03-.03,.02-.05,.04-.04,.04-.02,.02s-.04,.04-.06,.07h0l-.03,.05-.04,.05-.04,.05-.02,.03-.02,.04-.03,.04v.02l-.03,.04c-.12,.23-.19,.5-.19,.76l-.04,3.46-.05,2.12v.1l-.02,.15c-.24,1.59-.26,2.82-.02,3.98l.02,.07,.02,.11c.06,.25,.13,.5,.21,.74v.03l-2.8-1.62-3.13-2.86h-.01v-.04l-.03-.04c-.26-.67-.81-1.18-1.5-1.4-1.27-.41-2.63,.28-3.04,1.55-.41,1.27,.28,2.63,1.55,3.04l.06,.02h.03l.03,.02h.04l.59,.55,.03,.03,.02,.02,.02,.02,.03,.02,2.67,2.44,.05,.04,.04,.03,.04,.03c.15,.11,.31,.2,.48,.27h0l6.64,3.84,.06,.03,.05,.02,.05,.02s.06,.03,.09,.04h.02v11.57c.03,.46,.41,.82,.87,.82h8.13v.04c.08,.41,.43,.71,.86,.72h1.12l.04,.03,.04,.03c.54,.41,1.2,.64,1.88,.64,.32-.42,.56-.64,.73-.64,.55,0,1.38,.21,2.5,.64h.1c.7-.02,1.37-.28,1.91-.74h0l.02-.02,.04-.02c1.12-.5,1.85-1.61,1.85-2.84v-4.63c-.02-.64-.24-1.25-.63-1.76v-.02l.06,.04c.4,.19,.83,.31,1.27,.37,1.05,.13,2.06-.14,2.96-.61l.06-.03c.06-.03,.12-.06,.17-.09,.1-.06,.2-.12,.29-.19,.06-.04,.1-.08,.13-.11,.81-.74-.21-1.99-1.1-1.34Z"/><path class="cls-1" d="M35.14,16.48c-.02-.05-.08-.08-.13-.06h-.02c-.18,.15-.31,.25-.39,.32,.03,.02,.06,.03,.1,.02l.38-.14c.05-.02,.08-.08,.06-.13Zm1.55,6.42c-.05-.02-.11-.05-.16-.08h0c-.48-.26-.91-.61-1.27-1.01-.57-.64-.96-1.45-1.09-2.33-.03-.21-.05-.43-.05-.65h0s0-.04,0-.06c0-.22,.02-.44,.05-.66,.07-.48,.21-.93,.42-1.35h.01v-.02c-.06,.04-.09,.07-.09,.07,.02-.04,.03-.09,.05-.13,0-.04,0-.07,.04-.1,.23-.53,.55-1,.97-1.38-.02-.02-.04-.04-.06-.06h-.01c-.6-.6-1.43-.96-2.34-.96h-.47c-.12,.09-.26,.18-.4,.25l-.64,.33c.07,.01,.13,.04,.18,.08l.12,.1c.15,.12,.2,.32,.12,.49l-.44,.99-.42,.94c-.07,.17-.26,.27-.44,.24-.16-.02-.31-.06-.43-.11l-.19,2.74h0c.14,0,.27,.02,.4,.05,.15,.04,.29,.1,.42,.18,.2,.13,.37,.3,.5,.5,.01,.02,.02,.04,.03,.06h0c.12,.22,.2,.48,.2,.75,0,.71-.49,1.32-1.14,1.49h0s-.05,.01-.07,.02c-.1,.02-.21,.03-.33,.03-.05,0-.09,0-.14,0h-.1l-.02-.02s-.04,0-.06-.01h0c-.23-.05-.44-.16-.62-.3l-.03-.02c-.34-.28-.56-.71-.56-1.19,0-.4,.15-.77,.41-1.04h0l-.24-3.06c-.15,.1-.36,.17-.61,.21-.15,.02-.3-.04-.39-.16-.02-.02-.03-.05-.05-.08l-.46-1.03-.32-.72h0c-.06-.04-.12-.08-.18-.12-.22-.16-.45-.35-.71-.6l-5.94-3.53h0s-.03-.03-.05-.05l-2.58-2.36h0s-.02-.02-.02-.03l-.63-.57h0c-.05-.05-.1-.1-.16-.13,.05,.25,.04,.52-.04,.78-.23,.7-.91,1.13-1.62,1.07,.04,.04,.08,.09,.12,.13l.62,.57s.05,.04,.08,.06l2.64,2.42h0l.04,.04h.01c.06,.07,.13,.12,.21,.17l7.37,4.37h0c.13,.08,.22,.22,.22,.37v11.6l4.72,.28,4.19-.28v-.2s-.07,0-.1,0c-.08,0-.16,0-.23-.02h-.01c-.09-.02-.19-.06-.27-.11,0,0-.25-.23-.34-.37l-1.86-2.59s-.06-.1-.09-.15c0-.01-.01-.03-.02-.04l-.04-.02c-.47-.21-.72-.71-.63-1.2,.01-.08,.04-.17,.08-.25h0c.09-.21,.24-.37,.41-.48,.3-.19,.68-.23,1.03-.08,.35,.15,.57,.46,.63,.81,0,.01,0,.02,0,.04,.03,.02,.06,.05,.09,.08,.04,.04,.07,.08,.11,.13l.71,.99s.16-.56,.32-1.13,.33-1.15,.36-1.17h0s.14-.29,.22-.39c.14-.24,.28-.46,.48-.63,.13-.11,.27-.21,.42-.29h.01l.15-.08h.01Zm-8.38-.39c-.17,0-.31-.14-.31-.31s.14-.31,.31-.31,.31,.14,.31,.31-.14,.31-.31,.31Zm0-2.04c-.17,0-.31-.14-.31-.31s.14-.31,.31-.31,.31,.14,.31,.31-.14,.31-.31,.31Zm1.52,4.69c0,.12-.1,.21-.22,.21-.06,0-.11-.02-.15-.06-.04-.04-.07-.09-.07-.14l-.06-.79c.06,.05,.14,.08,.23,.08h0c.14,0,.27-.08,.33-.2l-.06,.9Z"/><path class="cls-15" d="M42.39,18.96h0s0-.06,0-.08,0-.04,0-.07c0-.01,0-.02,0-.04-.05-.23-.25-.4-.49-.4h0c-.22,0-.41,.14-.48,.34-.66-.19-1.28-.45-1.87-.76-.05-.03-.11-.06-.16-.09-1.06-.59-2.01-1.37-2.85-2.35-.09-.11-.25-.12-.36-.04h-.01v.02c-.07,.04-.12,.08-.17,.12l-.04,.03c-.08,.07-.16,.13-.23,.19-.04,.03-.07,.06-.11,.09-.25,.2-.46,.36-.63,.5h.03c.05-.03,.11,0,.13,.05,.02,.05,0,.11-.06,.13l-.38,.14s-.07,0-.1-.02h-.01c-.21,.43-.35,.89-.42,1.37-.03,.22-.05,.44-.05,.66,0,.02,0,.04,0,.06h0c0,.22,.02,.44,.05,.65,.14,.89,.53,1.69,1.09,2.33,.36,.41,.79,.75,1.27,1.01h0c.05,.03,.1,.06,.16,.08h.01c.09,.05,.19,.09,.28,.13,.1,.04,.2,.08,.31,.11h0c.13,.04,.26,.08,.39,.11,.32,.07,.66,.11,1.01,.11,.15,0,.3,0,.45-.02,.44-.19,.83-.41,1.17-.65,.08-.06,.16-.12,.24-.18,.21-.16,.4-.33,.57-.51,.83-.87,1.25-1.92,1.37-3.03-.04,0-.08-.01-.12-.02Zm-4.9-2.27c-.02,.05-.08,.08-.13,.06h0l-.38-.14c-.05-.02-.08-.08-.06-.13,.02-.05,.08-.08,.13-.06l.38,.14c.05,.02,.08,.08,.06,.13Z"/><path class="cls-15" d="M35.08,16.61l-.38,.14s-.07,0-.1-.02c.08-.06,.21-.17,.39-.31h.02c.05-.03,.11,0,.13,.05,.02,.05,0,.11-.06,.13Z"/><path class="cls-15" d="M37.49,16.69c-.02,.05-.08,.08-.13,.06h0l-.38-.14c-.05-.02-.08-.08-.06-.13,.02-.05,.08-.08,.13-.06l.38,.14c.05,.02,.08,.08,.06,.13Z"/><path class="cls-10" d="M43.02,24.09h0c-.35-.75-1.08-1.29-1.94-1.38h0l-.04,.02h0c-.24,.14-.49,.26-.76,.36h-.01c-.22,.08-.45,.15-.68,.19-.14,.03-.29,.05-.43,.06-.15,.01-.3,.02-.45,.02-.35,0-.69-.04-1.01-.11-.13-.03-.27-.07-.39-.11h0c-.1-.03-.21-.07-.31-.11-.1-.04-.19-.08-.28-.13h-.03l-.15,.07h-.01c-.15,.09-.29,.19-.42,.3-.03,.03-.06,.05-.09,.08-.03,.03-.05,.05-.08,.08h-.01s-.04,.06-.07,.08h-.01s-.04,.06-.06,.09h0s-.06,.08-.08,.12c-.02,.02-.04,.05-.05,.08-.02,.03-.04,.06-.06,.09h0c-.07,.13-.13,.26-.19,.39h0s-.2,.61-.36,1.18-.32,1.13-.32,1.13l-.71-.99s-.07-.09-.11-.13c-.03-.03-.06-.06-.09-.08v.03s0,.03,0,.05c.01,.17-.01,.35-.09,.53-.22,.51-.78,.76-1.3,.61-.02,0-.03,0-.05-.02-.02,0-.03-.01-.05-.02h0s.01,.03,.02,.04c.02,.05,.05,.1,.09,.15l1.86,2.59c.1,.14,.34,.37,.34,.37,.08,.05,.18,.09,.27,.11h.01c.08,.02,.16,.03,.23,.03,.03,0,.07,0,.1,0v.96h8.01v-5.68c0-.37-.08-.72-.23-1.04Z"/><path class="cls-10" d="M36.69,22.91l-.15,.07s.02,0,.02-.01c.04-.02,.08-.04,.13-.06Z"/><path class="cls-10" d="M36.7,22.9h0Z"/><circle class="cls-14" cx="28.31" cy="22.21" r=".31"/><circle class="cls-14" cx="28.31" cy="20.17" r=".31"/><circle class="cls-14" cx="28.31" cy="22.21" r=".31"/><circle class="cls-14" cx="28.31" cy="20.17" r=".31"/><circle class="cls-17" cx="28.31" cy="22.21" r=".31"/><circle class="cls-17" cx="28.31" cy="20.17" r=".31"/><circle class="cls-12" cx="28.31" cy="20.17" r=".31"/><circle class="cls-9" cx="28.31" cy="20.17" r=".31"/><path class="cls-9" d="M31.18,20.17c0,.12-.07,.23-.18,.28-.13-.08-.27-.14-.42-.18-.01-.03-.02-.06-.02-.1,0-.17,.14-.31,.31-.31s.31,.14,.31,.31Z"/><circle class="cls-9" cx="28.31" cy="22.21" r=".31"/><path class="cls-5" d="M29.88,16.41c-.05,.13-.07,.26-.06,.37,.02,.24,.12,.42,.3,.56-.02,0-.03,.01-.05,.02h0s-.04,.01-.05,.02h0s-.04,0-.06,.01h-.06s-.04,0-.07,0-.04,0-.06,0h-.09l-.04-.02h0s-.04,0-.06-.02h-.01s-.03-.01-.05-.02c-.02,0-.04-.01-.06-.02-.02,0-.03-.01-.05-.02-.01,0-.02,0-.03-.01-.02,0-.03-.02-.05-.03-.05-.03-.1-.06-.15-.1h0s.01-.07,.02-.11c.01-.18-.05-.39-.2-.63-.06-.09-.13-.19-.22-.3,.44-.14,1.03-.4,1.75-.77h.03l.51-.28c-.21,.18-.4,.35-.55,.51-.31,.31-.51,.59-.61,.84Z"/><path class="cls-8" d="M33.13,13.4c.04,.09,.08,.17,.13,.22-.16,.2-.34,.39-.55,.54h0c-.12,.09-.26,.18-.4,.25l-.64,.33-.57,.29-.04,.02h0l-.51,.26h-.03c-.73,.39-1.31,.65-1.75,.79h0l-.07,.02s-.08,.02-.12,.03c-.24,.06-.43,.09-.57,.07-.1-.01-.2-.03-.29-.06-.26-.07-.49-.17-.73-.32h0c-.06-.04-.12-.08-.18-.12-.22-.16-.45-.35-.71-.6-.11-.1-.22-.21-.33-.32-2.28-2.26-2.24-4.56-1.71-7.54v-.02h0c.09-.49,.19-1,.29-1.53,.09-.45,.22-.84,.38-1.16,.19-.38,.43-.66,.72-.85h0c.16-.11,.35-.18,.54-.23,.49-.11,1.08-.04,1.77,.23,.41,.16,.86,.38,1.34,.68l.14,.06,.27,.12h.02l.24,.12,1.32,.6,1.32,.6,.05,.02,.93,.42,.07,1.77h0c-.22-.28-.28-.45-.55-.59-.47-.24-.84-.33-1.1-.27h0l-.33,2.52c-.03,.22,.08,.43,.27,.54h0c.17,.09,.39,.03,.48-.14l.24-.43h0s.04-.07,.07-.09c.13-.11,.32-.09,.42,.04,.18,.22,.28,.5,.28,.79v.14c0,.32-.06,.65-.15,.96l-.28,.92c-.06,.21-.02,.44,.11,.61l.21,.28Z"/><path class="cls-4" d="M29.67,17.38h-.06s.04,0,.06,0Z"/><path class="cls-4" d="M29.93,17.38h-.04s.02,0,.04,0Z"/><path class="cls-4" d="M30.06,17.36s-.04,0-.05,.01h0s.04,0,.06-.01Z"/><path class="cls-4" d="M29.9,24.26l-.06,.9c0,.12-.1,.21-.22,.21-.06,0-.11-.02-.15-.06-.04-.04-.07-.09-.07-.14l-.06-.79c.06,.05,.14,.08,.23,.08h0c.14,0,.27-.08,.33-.2Z"/><path class="cls-4" d="M32.09,15.42l-.44,.99-.42,.94c-.07,.17-.26,.27-.44,.24-.16-.02-.31-.06-.43-.11l-.19,2.74c-.08,0-.16,0-.23,.02-.28,.04-.54,.16-.75,.34-.05,.04-.1,.09-.15,.14l-.24-3.06c-.15,.1-.36,.17-.61,.21-.15,.02-.3-.04-.39-.16-.02-.02-.03-.05-.05-.08l-.46-1.03-.32-.72c.24,.15,.48,.26,.73,.32,.09,.02,.19,.04,.29,.06,.14,.02,.33,0,.57-.07,.04-.01,.08-.02,.12-.03l.07-.02h0c.09,.1,.16,.2,.22,.3,.15,.24,.21,.45,.2,.63,0,.04,0,.07-.02,.11h0s.1,.07,.15,.1c.02,0,.03,.02,.05,.03,0,0,.02,.01,.03,.01,.01,0,.03,.01,.05,.02,.02,0,.04,.02,.06,.02,.02,0,.03,.01,.05,.01h.01s.04,.01,.06,.02h.06l.04,.02h.03s.04,0,.06,0,.04,0,.07,0h.06s.04-.01,.06-.02h0s.04,0,.05-.01h0s.03-.01,.05-.02c-.18-.14-.28-.32-.3-.56,0-.11,.01-.24,.06-.37,.1-.25,.3-.53,.61-.84,.16-.16,.34-.33,.55-.51h0l.04-.02,.57-.29c.07,.01,.13,.04,.18,.08l.12,.1c.15,.12,.2,.32,.12,.49Z"/><path class="cls-1" d="M29.94,20.23c-.28,.04-.54,.16-.75,.34v-2.69c0-.21,.17-.37,.37-.37,.21,0,.37,.17,.37,.37v2.35Z"/><path id="Rectangle-5" class="cls-3" d="M27.15,9.2l1.23,.13c.07,0,.12,.04,.16,.1l.02,.03s0,.09-.03,.12c-.01,0-.03,.01-.04,.01l-1.26,.06c-.09,0-.17-.05-.2-.13l-.03-.1c-.03-.08,.01-.17,.09-.2h0s.05-.01,.08,0Z"/><path id="Rectangle-Copy" class="cls-3" d="M25.36,9.2l-1.23,.13c-.07,0-.12,.04-.16,.1l-.02,.03s0,.09,.03,.11h0s.03,.01,.04,.01l1.26,.06c.09,0,.17-.05,.2-.13l.03-.1c.03-.08,0-.17-.09-.2h0s-.05-.01-.07,0Z"/><path class="cls-4" d="M25.48,10.98c0,.4-.32,.72-.72,.72s-.72-.32-.72-.72c0-.16,.05-.3,.14-.42-.04,.08-.06,.16-.06,.25,0,.31,.25,.56,.56,.56s.56-.25,.56-.56c0-.27-.19-.49-.44-.55,.38,.02,.67,.33,.67,.71Z"/><path class="cls-3" d="M25.25,10.81c0,.31-.25,.56-.56,.56s-.56-.25-.56-.56c0-.09,.02-.18,.06-.25,.09-.18,.28-.31,.5-.31,.04,0,.08,0,.12,.01,.25,.05,.44,.28,.44,.55Z"/><path class="cls-4" d="M28.24,10.98c0,.4-.32,.72-.72,.72s-.72-.32-.72-.72c0-.16,.05-.3,.14-.42-.04,.08-.06,.16-.06,.25,0,.31,.25,.56,.56,.56s.56-.25,.56-.56c0-.27-.19-.49-.44-.55,.38,.02,.67,.33,.67,.71Z"/><path class="cls-3" d="M28.01,10.81c0,.31-.25,.56-.56,.56s-.56-.25-.56-.56c0-.09,.02-.18,.06-.25,.09-.18,.28-.31,.5-.31,.04,0,.08,0,.12,.01,.25,.05,.44,.28,.44,.55Z"/><path id="Fill-30" class="cls-5" d="M27.29,12.09c0,.56-.46,1.02-1.02,1.02s-1.02-.46-1.02-1.02h2.04Z"/><path class="cls-3" d="M34.86,11.11c0,.59-.18,2.29-1.18,2.61-.17,.06-.32,.02-.43-.1-.05-.06-.09-.13-.13-.22l-.21-.28c-.13-.18-.17-.4-.11-.61l.28-.92c.09-.31,.14-.63,.15-.96v-.14c0-.29-.1-.57-.28-.79-.1-.13-.29-.15-.42-.04-.03,.02-.05,.05-.07,.07h0l-.24,.44c-.09,.17-.31,.23-.48,.14h0c-.19-.11-.29-.32-.27-.54l.33-2.52h0c.26-.06,.62,.03,1.1,.27,.27,.14,.34,.32,.55,.61,.12,.15,.27,.34,.53,.57,.74,.65,.87,1.91,.87,2.41Z"/><path class="cls-4" d="M31.62,23.76c-.06-.01-.12-.03-.18-.06l-.76-.35c-.06-.03-.12-.06-.17-.1,.02,0,.05-.01,.07-.02h0c.66-.18,1.14-.78,1.14-1.49,0-.27-.07-.53-.2-.75,.07,.02,.13,.04,.2,.07h0l.78,.36c.06,.03,.12,.07,.17,.11-.11,.07-.23,.13-.36,.15-.08,.02-.09,.13-.02,.16,.19,.07,.41,.14,.64,.19,.12,.77-.55,1.88-1.33,1.72Z"/><path class="cls-8" d="M31.72,21.75c0,.71-.49,1.32-1.14,1.49h0s-.05,.01-.07,.02c-.1,.02-.21,.03-.33,.03-.05,0-.09,0-.14,0h-.1l-.02-.02s-.04,0-.06-.01h0c-.23-.05-.44-.16-.62-.3l-.03-.02c-.34-.28-.56-.71-.56-1.19,0-.4,.15-.77,.41-1.04h0c.05-.05,.1-.1,.15-.14,.21-.17,.46-.29,.75-.34,.08-.01,.15-.02,.23-.02h0c.14,0,.27,.02,.4,.05,.15,.04,.29,.1,.42,.18,.2,.13,.37,.3,.5,.5,.01,.02,.02,.04,.03,.06h0c.12,.22,.2,.48,.2,.75Z"/><path class="cls-16" d="M44.7,24.24v4.52c0,.98-.63,1.81-1.51,2.11,.02-.02,.04-.04,.06-.06h0v-5.68c0-.37-.08-.72-.23-1.04h0c-.35-.75-1.08-1.29-1.94-1.38h.01c.09-.07,.19-.13,.28-.19h.02c.07-.06,.14-.11,.2-.17,.03-.02,.05-.04,.08-.07l.08-.07c.08-.07,.15-.14,.23-.21h.49c1.23,0,2.23,1,2.23,2.23Z"/><path class="cls-11" d="M43.87,24.75v4.52c0,.6-.23,1.14-.62,1.54v-5.68c0-.37-.08-.72-.23-1.04h0c-.35-.75-1.08-1.29-1.94-1.38h.01c.09-.07,.19-.13,.28-.19h.26c1.23,0,2.23,1,2.23,2.23Z"/><path class="cls-3" d="M35.26,21.79c-.36,.18-.73,.28-1.08,.32-.06,0-.13,.01-.19,.02h0c-.36,.02-.71-.02-1.03-.09-.23-.05-.45-.12-.64-.19-.08-.03-.07-.14,.02-.16,.13-.03,.25-.08,.36-.15,.01,0,.03-.02,.04-.03,.07-.05,.14-.11,.2-.18,.01-.01,.02-.02,.03-.04,.14-.16,.27-.37,.39-.66,0-.01,.01-.03,.02-.04l.03-.07h0c.02-.05,.04-.1,.06-.16,0-.03,.02-.06,.03-.09,.02-.06,.04-.12,.05-.18,0-.03,.02-.07,.03-.1,0-.02,0-.04,.02-.06v-.02h0v-.02c.11-.44,.3-.8,.53-1.09,0,.22,.02,.44,.05,.65,.13,.89,.52,1.69,1.08,2.34Z"/><path class="cls-7" d="M36.52,26.17c-.09,.34-.21,.62-.35,.85-.26,.43-.59,.69-.93,.85v-1.18c.27-.36,.42-.88,.49-1.41,.07-.55,.07-1.13,.05-1.56,0-.03,0-.07,0-.1h0s.04-.06,.06-.08h.01s.04-.06,.07-.09h.01s.05-.07,.08-.09c.03-.03,.06-.05,.09-.08,.13-.11,.27-.21,.42-.29h0l.03-.02v.02c.03,.14,.04,.29,.06,.42,0,.08,.02,.16,.02,.24,.1,1.08,.04,1.9-.12,2.53Z"/><path class="cls-7" d="M43.26,26.76v.94s-3.67,1.05-2.98-4.61h.01c.26-.1,.52-.22,.76-.36h0l.04-.02h0s.07,0,.07,0c0,0-.69,5.04,2.1,4.04Z"/><path class="cls-8" d="M39.57,23.29v.22c0,.69-.42,1.24-.95,1.24s-.94-.56-.94-1.24v-.25c.32,.08,.66,.12,1.01,.12,.3,0,.59-.03,.88-.08Z"/><path class="cls-5" d="M39.57,23.29v.22c0,.69-.42,1.24-.95,1.24s-.94-.56-.94-1.24v-.25c.32,.08,.66,.12,1.01,.12,.3,0,.59-.03,.88-.08Z"/><path class="cls-16" d="M43.24,25.26c-.05,.65-.73,3.32-.92,4.02-.1,.47-.68,.84-1.17,.89,.02,0,.04,0,.05,0,.03,0-.12,0-.15,0,.03,0,.06,0,.09,0-.33-.01-.64-.23-.83-.5l-1.86-2.59c-.04-.06-.08-.12-.11-.19,.55,.24,1.19-.02,1.43-.56,.09-.2,.11-.42,.08-.62,.09,.07,.16,.15,.22,.24l.78,1.09s.01-.06,.02-.07c.09-.36,.18-.73,.27-1.09,.1-.39,.2-.78,.29-1.17,.13-.55,.41-1.02,1.13-.89,.26,.05,.47,.28,.56,.53,.11,.29,.13,.61,.11,.92Z"/><g><path class="cls-13" d="M42.83,20.82h0l-.02,.02v-.02Z"/><path class="cls-13" d="M43.27,19.42h0c-.06-.1-.13-.22-.19-.35-.19-.03-.38-.06-.57-.09h0c-.13,1.11-.54,2.16-1.37,3.03-.02,.02-.04,.04-.06,.07-.15,.15-.32,.3-.5,.44-.02,.02-.05,.04-.08,.06-.02,.01-.04,.03-.05,.04h0s-.07,.05-.11,.08h0c-.17,.12-.35,.23-.55,.34-.1,.05-.2,.11-.3,.16-.1,.05-.21,.1-.32,.15,.07,0,.13-.01,.2-.02h.03s.07-.02,.11-.02c-.03,0-.07,.01-.1,.02,.05,0,.11-.02,.16-.03h.04s.04-.02,.06-.02c.06-.01,.11-.02,.16-.04,.05-.01,.1-.02,.14-.04,.04-.01,.08-.02,.12-.04,.04-.01,.08-.02,.11-.04,.09-.03,.18-.06,.27-.1h.03c.05-.03,.11-.06,.16-.08h0l.06-.03h0c.08-.03,.15-.07,.22-.11-.07,.04-.14,.08-.22,.11,.13-.06,.26-.13,.38-.2h.02s.04-.04,.07-.05c.07-.04,.13-.08,.19-.13-.05,.04-.1,.07-.15,.1,.05-.03,.11-.07,.16-.11h0l.04-.02h0s.04-.03,.06-.04c.13-.09,.25-.19,.36-.3,.03-.03,.06-.05,.08-.08,.02-.02,.05-.05,.07-.07h.01v-.02s.08-.07,.11-.1c.01-.02,.03-.03,.04-.05,.03-.03,.05-.06,.08-.09,.03-.03,.06-.07,.09-.1h0l.04-.05h0s.08-.1,.12-.15h0s.04-.05,.05-.07h0l.02-.02,.03-.04,.03-.04s.03-.04,.04-.06v-.02h.02v-.02h0v-.02c.06-.07,.1-.15,.14-.22v-.02h.02v-.02h0l.03-.06,.02-.03c.02-.05,.05-.1,.07-.15v-.02s.03-.05,.04-.08h0v-.02l.02-.04s.02-.04,.03-.06v-.03h.02s.02-.05,.02-.08c.01-.04,.03-.08,.04-.11,0-.02,.01-.03,.02-.05,.02-.06,.04-.12,.05-.18,0-.03,.02-.06,.02-.09,0-.02,0-.04,.01-.05,0-.04,.02-.07,.03-.11,.02-.09,.04-.19,.05-.29h0v-.02Zm-1.68,2.94h0l.04-.04-.04,.03h0Z"/><path class="cls-13" d="M42.49,21.39s-.03,.04-.05,.07c.02-.02,.03-.04,.05-.07Z"/><path class="cls-13" d="M40.64,22.94c-.05,.02-.1,.05-.16,.07,.05-.02,.11-.05,.16-.07Z"/><path class="cls-13" d="M42.33,21.61l-.04,.05,.04-.05Z"/><path class="cls-13" d="M39.15,23.35c.06,0,.12-.02,.18-.02-.06,0-.12,.02-.18,.02h0Z"/></g><path class="cls-4" d="M35.57,17.46c0,.16-.06,.3-.16,.4-.1,.1-.24,.16-.4,.16-.31,0-.56-.25-.56-.56,0-.02,0-.03,0-.05,.02,.23,.22,.41,.46,.41h0c.25,0,.46-.21,.46-.46,0-.24-.18-.43-.41-.46,.02,0,.03,0,.05,0,.31,0,.56,.25,.56,.56Z"/><path class="cls-3" d="M35.37,17.36c0,.25-.2,.46-.46,.46h0c-.24,0-.43-.18-.46-.41,0-.02,0-.03,0-.05,0-.25,.21-.46,.46-.46,.02,0,.03,0,.05,0,.23,.02,.41,.22,.41,.46Z"/><path class="cls-4" d="M37.61,17.46c0,.16-.06,.3-.16,.4-.1,.1-.24,.16-.4,.16-.31,0-.56-.25-.56-.56,0-.02,0-.03,0-.05,.02,.23,.22,.41,.46,.41h0c.25,0,.46-.21,.46-.46,0-.24-.18-.43-.41-.46,.02,0,.03,0,.05,0,.31,0,.56,.25,.56,.56Z"/><path class="cls-3" d="M37.41,17.36c0,.25-.2,.46-.46,.46h0c-.24,0-.43-.18-.46-.41,0-.02,0-.03,0-.05,0-.25,.21-.46,.46-.46,.02,0,.03,0,.05,0,.23,.02,.41,.22,.41,.46Z"/><path id="Fill-24-2" class="cls-5" d="M36.8,18.53c0,.45-.37,.82-.82,.82s-.82-.37-.82-.82h1.64Z"/><path id="Stroke-9-Copy-2" class="cls-4" d="M15.05,8.66c.47-.51,1.28-.55,1.79-.07h0l.64,.58c.88,.8-.8,2.7-1.73,1.86l-.62-.57c-.52-.47-.55-1.28-.08-1.79h0Z"/><path class="cls-3" d="M33.57,19.99l.02-.08v.02c-.02,.08-.08,.32-.19,.59h0c.02-.05,.04-.1,.06-.16,0-.03,.02-.06,.03-.09,.02-.06,.04-.12,.05-.18,0-.03,.02-.07,.03-.1Z"/><g><path class="cls-6" d="M34.07,8.78h-.03c-.18-.09-.37-.16-.55-.23-.31-.12-.62-.24-.94-.35-.22-.08-.44-.15-.66-.22-.06-.02-.12-.04-.18-.06-.03,0-.06-.02-.09-.03-.38-.12-.77-.23-1.16-.33-.33-.09-.66-.17-1-.24-.16-.03-.31-.07-.47-.1-.1-.02-.2-.04-.29-.06-.17-.03-.34-.06-.51-.08-.11-.01-.22-.03-.33-.04h-.06c-.12-.02-.23-.03-.35-.04h0c-.23-.01-.47-.02-.7-.02-.08,0-.15,0-.23,0-.37,0-.74,.03-1.11,.07h0c-.43,.05-.85,.12-1.27,.22-.03,0-.05,.01-.09,.02h0l.03-2.18v-.26h0v-.62h0v-1.18l.02-.71v-.65c0-.15,.05-.3,.13-.42,.05-.07,.1-.14,.16-.19,.08-.07,.17-.12,.27-.16h.02c.23-.09,.49-.07,.72,.06l.3,.18,1.41,.87,.06,.04,.21,.13,.13,.08,.34,.21,.46,.28,.85,.52,.19,.11,.74,.45,.38,.23,.22,.14,.97,.59,.86,.53c.29,.18,.54,.42,.73,.7,.16,.23,.28,.49,.34,.77l.48,1.95Z"/><polygon class="cls-8" points="25.71 5.96 25.26 6.77 24.46 6.29 24.07 4.86 24.07 4.86 24.08 4.24 24.08 4.24 24.41 3.63 25.21 4.12 25.71 5.96"/><path class="cls-1" d="M27.86,7.03h-.06c-.12-.02-.23-.03-.35-.04h0c-.23-.01-.47-.02-.7-.02-.08,0-.15,0-.23,0l-.25-.92,.45-.82,.8,.48,.35,1.31Z"/><polygon class="cls-8" points="28.31 2.78 28.09 3.18 27.29 2.7 27.11 2.04 27.17 2.08 27.39 2.21 27.51 2.29 27.85 2.5 28.31 2.78"/><polygon class="cls-1" points="30.69 4.24 30.38 4.78 29.59 4.3 29.35 3.41 30.08 3.86 30.47 4.1 30.69 4.24"/><path class="cls-1" d="M31.8,7.56l-.18,.32c-.38-.12-.77-.23-1.16-.33l-.4-1.5,.45-.82,.8,.48,.49,1.84Z"/><path class="cls-8" d="M33.24,6.05l-.4,.72-.8-.48-.39-1.46,.86,.53c.29,.18,.54,.42,.73,.7Z"/><path class="cls-8" d="M34.07,8.78c-.18-.08-.39-.16-.58-.23-.31-.12-.62-.24-.94-.35l-.04-.15,.45-.82,.84,.48,.27,1.07Z"/><path class="cls-2" d="M30.46,7.55c-.33-.09-.66-.17-1-.24-.16-.03-.31-.07-.47-.1-.1-.02-.2-.04-.29-.06-.17-.03-.34-.06-.51-.08-.11-.01-.22-.03-.33-.04h-.06l-.29-1.31-.8-.48-.45,.82-.56-.1-.49-1.84-.8-.48-.33,.6v-1.18l.02-.71v-.65c0-.15,.05-.3,.13-.42,.05-.07,.1-.14,.16-.19,.08-.07,.17-.12,.27-.16h.02c.23-.09,.49-.07,.72,.06l.3,.18,1.41,.87,.06,.04,.12,.62,.8,.48,.12,.46,.8,.48,.49,1.84,.56,.1,.4,1.5Z"/><path class="cls-8" d="M24.74,2.36l-.45,.82-.2-.12v-.71l.02-.65c0-.15,.04-.3,.12-.42,.05-.07,.1-.14,.16-.19l.34,1.28Z"/><polygon class="cls-1" points="27.04 3.97 26.55 2.13 25.75 1.65 25.3 2.46 25.79 4.3 26.59 4.78 27.04 3.97"/><polygon class="cls-8" points="29.5 5.96 29.01 4.12 28.21 3.63 27.76 4.45 28.25 6.29 29.05 6.77 29.5 5.96"/></g><path id="Stroke-13-Copy" class="cls-8" d="M16.64,9.25c-.26,.82-1.14,1.27-1.96,1-.82-.26-1.27-1.14-1-1.96,.26-.82,1.14-1.27,1.96-1h0c.82,.27,1.26,1.14,1,1.96Z"/><path class="cls-10" d="M41.21,29.92h.01c.43,.04,.82-.24,.91-.66l.58-2.34c.06-.24,.12-.49,.18-.73,.01-.06,.03-.12,.04-.18,.13-.52,.27-1.06,.09-1.57-.1-.29-.41-.46-.71-.43-.34,.03-.57,.31-.65,.62l-.66,2.63s-.05,.08-.1,.09c-.05,0-.1-.01-.12-.05l-.94-1.31c-.23-.32-.68-.4-1-.18-.19,.14-.31,.33-.35,.56-.04,.22,.02,.45,.15,.63l1.86,2.59c.16,.22,.41,.34,.69,.33h0Z"/><path class="cls-8" d="M39.78,26.33c-.24,.55-.88,.8-1.43,.56h-.01c-.55-.25-.8-.9-.56-1.45h0c.25-.55,.89-.8,1.44-.56,.35,.16,.58,.47,.64,.82,.03,.2,.01,.42-.08,.62Z"/><path class="cls-8" d="M33.71,26c-.22,.51-.78,.76-1.3,.61-.03,0-.07-.02-.1-.03l-.04-.02c-.47-.21-.72-.71-.63-1.2,.01-.08,.04-.17,.08-.25h0c.25-.55,.89-.8,1.44-.56,.35,.15,.57,.46,.63,.81,0,.01,0,.02,0,.04,0,.02,0,.05,0,.07,.01,.17-.01,.35-.09,.53Z"/><path class="cls-9" d="M63.96,27.1c-.03-.07-.1-.12-.17-.14l-4.8-1.25h-.03c-.15-.03-.28,.08-.3,.22l-.09,.71c-.09,.61-.21,1.22-.36,1.81,0,.03-.02,.06-.03,.08-.08,.13-.26,.18-.39,.1-.49-.3-1.03-.53-1.59-.66-.47-.12-.96-.18-1.45-.18-.87,0-1.72,.22-2.48,.64-.51,.3-.96,.69-1.33,1.15-.05,.07-.14,.11-.23,.1-.09,0-.17-.05-.21-.13-.68-1.04-1.77-1.6-3.18-1.6h-.05c-.18,0-.36,.01-.53,.03-.1,.01-.2,.02-.3,.04-.62,.09-1.22,.3-1.77,.61l-.03,.02c-.01-.09-.09-.16-.19-.15l-1.67,.17-3.1,.33h-.07c-.86-.66-1.9-1.03-2.99-1.07-.08,0-.16,0-.25,0-.68,0-1.37,.11-2.02,.32-.12,.04-.25,.08-.37,.12-.12,.05-.27,.1-.4,.16-.06,.02-.11,.05-.16,.07-.8,.35-1.51,.86-2.11,1.5,0,.01-.02,.02-.03,.03-.13,.11-.32,.09-.43-.04-.71-.84-1.71-1.45-3-1.82-.15-.04-.29-.08-.44-.11-.48-.11-.98-.17-1.47-.17-1.94,0-3.55,.92-4.55,2.54-.02,.03-.04,.06-.07,.08-.12,.08-.29,.05-.38-.07-.32-.46-.69-.89-1.11-1.27-.14-.13-.28-.25-.43-.36h0c-.12-.1-.14-.27-.04-.38,1.1-1.4,2.21-2.83,3.41-4.17,.06-.07,.08-.16,.06-.25-.03-.09-.1-.15-.18-.18l-3.74-.99-2.25-.59c-.12-.03-.21-1.49-.23-1.67-.02-.33-.03-.66-.04-.98,0-.08-.04-.15-.1-.2-.06-.05-.14-.07-.21-.06l-3.66,.58c-.14,.02-.23,.14-.23,.28l.04,.65c0,.18,0,.36-.04,.54-.09-.16-.15-.33-.2-.51l-.17-.63c-.04-.14-.17-.22-.31-.2l-3.65,.58h-.03c-.14,.04-.23,.19-.19,.34l.2,.77c.11,.5,.22,1,.35,1.5,.09,.38,.32,.9,.1,1.27-.14,.23-.44,.29-.69,.31-.23,.02-1.87-.05-2.71,.13-1.68,.36-3.01,1.07-3.85,2.06-.9,1.05-1.21,2.36-.91,3.78,.33,1.55,1.33,2.74,2.73,3.29,.03,.01,.06,.04,.07,.07,.02,.06-.01,.12-.07,.14l-1.89,.6c-.09,.03-.16,.09-.2,.18-.04,.08-.05,.18-.02,.27l.2,.54c.27,.74,.45,1.18,.74,1.58,.51,.79,1.26,1.39,2.13,1.73,.7,.25,1.43,.37,2.17,.36,.67,0,1.33-.08,1.98-.22,1.46-.32,2.85-.95,3.61-1.66h0c.11-.1,.29-.09,.38,.03,.78,.96,1.88,1.62,3.1,1.86,.31,.06,.63,.09,.95,.09,.99-.02,1.96-.25,2.86-.68,.66-.3,1.27-.7,1.8-1.18,.34-.32,.86-.31,1.19,.02,.79,.76,1.75,1.31,2.81,1.59,.17,.05,.34,.09,.5,.12,.18,.04,.3,.22,.27,.4l-.2,1.16v.03c-.02,.17,.11,.32,.29,.34l.74,.06c.14,.01,.29,.03,.43,.05,.08,0,.15,.05,.2,.11,.05,.06,.06,.14,.05,.22l-.35,1.93c-.06,.33-.13,.65-.22,.97l-.23,.77c-.02,.07,0,.15,.03,.21,.04,.06,.1,.11,.18,.12l3.37,.61c.07,.01,.14,0,.19-.05,.05-.04,.09-.11,.09-.17,0-.02,0-.04,.02-.06,.04-.07,.14-.1,.21-.06,.22,.12,.45,.21,.69,.27,.24,.06,.49,.09,.74,.09,.49,0,.97-.1,1.42-.28,.11-.04,.22-.09,.32-.14,.23-.12,.5-.13,.74-.03,.35,.14,.72,.21,1.09,.23,.07,0,.13,0,.2,0,.19,0,.38-.02,.56-.05,.12-.02,.24-.02,.36-.02l2.73,.15c.08,0,.15-.05,.17-.12,.33,.12,.69,.19,1.04,.18,.31,0,.62-.05,.92-.13,.16-.05,.33-.07,.5-.07h5.61c.13,0,.27,.02,.39,.06,.3,.1,.61,.14,.92,.14,.42,0,.84-.07,1.24-.2,.11-.03,.22-.07,.32-.12,.02,0,.05-.02,.07-.02,.14-.01,.27,.09,.28,.23v.14l.02,.03c.03,.16,.19,.26,.35,.23l3.17-.68c.08-.02,.15-.07,.19-.14,.04-.07,.05-.16,.02-.24-.29-.92-.45-1.48-.5-1.7l-.14-.64s0-.1,.03-.14c.03-.04,.08-.06,.13-.06,.06,0,.13,0,.19,.01l.72,.1h.03c.18,.01,.34-.13,.34-.31l.13-2.98h0c0-.16-.12-.29-.28-.3h-.8c-.27-.01-.55,.01-.82,.07-.25,.05-.5,.13-.73,.24l-1.41,.3c-.32,.07-.64,.02-.93-.13-.44-.23-.92-.35-1.42-.35-.38,0-.76,.06-1.12,.18-.34,.11-.71,.45-1.07,.34-.17-.07-.33-.15-.49-.25-.27-.14-.56-.2-.86-.2-.12,.01-.23,0-.35,0-.12-.02-.21-.1-.25-.21-.04-.15,.11-.3,.26-.35,.16-.03,.31-.04,.47-.04,.16-.02,.33-.08,.39-.23,.03-.1,.03-.2,0-.3-.2-1.08-.38-2.16-.52-3.24-.1-.71-.21-1.44-.11-2.16,.02-.2,.08-.39,.18-.56,.13-.19,.48-.38,.7-.2,.04,.04,.08,.09,.1,.14,.06,.15,.1,.31,.1,.47,.16,1.83,.33,3.67,.34,5.51,0,.08,0,.17,.04,.24,.08,.15,.27,.17,.44,.15,1.32-.2,2.68-.29,4.01-.43,.57-.06,1.16,0,1.7,.19,.18,.07,.36,.12,.55,.17,.5,.14,1.02,.21,1.53,.2,.15,0,.3,0,.45-.02v.02l4.7,1.22s.03,0,.05,0c.22,.03,.43-.12,.46-.34l.08-.54c.12-.78,.28-1.54,.49-2.3l1.86-7.15c.29-1.08,.48-1.71,.69-2.24l.27-.67c.03-.07,.02-.15,0-.22Zm-49.85,1.07l-.07,.17c-.04,.09-.11,.17-.2,.21-.92,.41-1.73,1.03-2.35,1.82-.09,.12-.27,.15-.39,.06-.4-.27-.84-.47-1.3-.6-.05-.02-.09-.06-.09-.12,0-.05,.04-.1,.09-.12l1.9-.62s.02,0,.03-.01c.11-.05,.15-.18,.1-.28h0l-.1-.2s-.02-.08,0-.12c.02-.04,.06-.06,.1-.07l.81-.13,1.15-.18,.15-.02c.06-.01,.12,.01,.15,.06,.04,.05,.04,.11,.02,.16Zm13.01,6.12c-.1-.04-.21,0-.25,.09l-.3,.61c-.03,.1-.09,.19-.16,.26-.08,.05-.17,.08-.27,.07-.08,0-.16-.01-.24-.04-.47-.14-.47-.93-.27-1.65,.08-.28,.37-1.18,.86-1.18,.06,0,.13,.01,.19,.03,.25,.07,.37,.11,.34,.71l-.04,.62c0,.14,.1,.26,.23,.27l2.46,.21c.19,.02,.34,.16,.37,.34,.04,.25,.1,.49,.17,.74,.01,.04,.01,.08,0,.12-.04,.08-.14,.12-.22,.08l-2.86-1.3Zm13.33,5.3c0,.13-.11,.25-.24,.26-.45,.05-.89,.18-1.29,.39-.15,.07-.29,.16-.43,.25-.06,.04-.14,.04-.2,0h-.01c-.43-.3-1.13-.48-1.86-.52-.12,0-.23,0-.34,0-.76,0-1.37,.14-1.87,.44-.03,.02-.06,.03-.09,.05-.19,.12-.42,.11-.61,0-.21-.14-.45-.26-.69-.34,0-.03,0-.05,.01-.08,.04-.48-.32-.9-.8-.94h-.13c-.33-.04-.66-.08-.98-.15l-.95-.17s-.07-.04-.08-.07c0-.04,0-.08,.03-.1,.35-.31,.65-.67,.9-1.06,.05-.07,.12-.11,.2-.11,.08,0,.16,.04,.21,.1,1.03,1.45,2.55,2.25,4.36,2.25,.39,0,.79-.04,1.18-.11,.41-.08,.81-.19,1.2-.33,.82-.29,1.58-.74,2.23-1.33,.04-.04,.1-.05,.16-.03,.05,.02,.09,.07,.09,.13,0,.25,0,.51,0,.76v.73Z"/><path class="cls-2" d="M62.73,27.69s-.06-.08-.11-.09l-3.02-.78s-.1,0-.14,.02c-.04,.03-.07,.07-.08,.12-.12,.74-.28,1.48-.48,2.21l-.27,1.06s-.03,.07-.07,.1c-.08,.06-.19,.04-.25-.03-.17-.23-.38-.43-.61-.59-.53-.41-1.13-.7-1.78-.86-1.17-.3-2.32-.17-3.25,.36-1.04,.61-1.76,1.69-2.17,3.25-.04,.14-.07,.28-.09,.42l-.1-.91c-.22-2.03-1.31-3.11-3.09-3.09-.15,0-.3,0-.45,.03-.13,.01-.26,.03-.39,.06-.25,.05-.49,.11-.73,.2-.08,.03-.15,.06-.22,.09-.13,.06-.25,.12-.37,.19-.06,.03-.11,.06-.16,.1h0l-.05,.04s-.09,.06-.14,.09l-.06,.04s-.04,.03-.06,.05c-.02,.02-.04,.03-.06,.05l-.06,.04-.06,.06-.06,.06-.06,.06s-.08,.08-.13,.13h-.01c-.07,.08-.19,.08-.26,.01-.03-.03-.05-.06-.05-.1l-.04-.39c0-.09-.09-.16-.19-.15h0l-.24,.02h-.03l-2.73,.29c-.1,.01-.17,.1-.16,.2,0,0,0,.01,0,.02,0,.03,.02,.07,.02,.1,0,.03,.02,.07,.02,.11,0,.04,.02,.07,.02,.11,0,.04,.01,.07,.02,.11,.02,.11,.04,.23,.06,.36l.02,.13v.02s.01,.07,.02,.11c.03,.2,.06,.41,.08,.65,0,.03,0,.05,0,.08,0,.06,.01,.12,.02,.19,0,.05,.01,.1,.02,.15l.02,.2v0s-.03-.07-.04-.1c-.02-.06-.04-.1-.06-.17s-.05-.14-.08-.21c-.03-.07-.06-.14-.09-.2-.03-.07-.06-.13-.09-.19-.02-.04-.04-.08-.06-.12v-.02s-.03-.05-.05-.07l-.04-.07v-.03s-.06-.08-.09-.12h0s-.01-.03-.03-.06c-.02-.03-.04-.06-.06-.09-.02-.03-.04-.06-.06-.09h0s-.02-.05-.04-.07h0s-.03-.05-.04-.06h0s-.05-.08-.08-.12l-.09-.12-.02-.03-.04-.04-.04-.04-.03-.03-.02-.03h-.01v-.02l-.03-.02-.02-.03h0l-.02-.03-.07-.07s-.02-.02-.03-.03l-.07-.07h0l-.04-.04s-.04-.04-.06-.05l-.04-.04-.02-.02h-.02l-.06-.06-.04-.03-.06-.05s-.05-.04-.08-.06l-.06-.04h-.01l-.06-.05h-.02c-.06-.05-.12-.08-.18-.12l-.1-.06c-.07-.04-.13-.07-.2-.1l-.1-.05c-.07-.03-.14-.06-.21-.09l-.1-.04h-.04l-.07-.04-.09-.03h-.03l-.1-.04-.11-.03s-.06-.01-.08-.02c-.01,0-.03,0-.04,0l-.1-.02c-.08-.02-.16-.03-.23-.04h-.12c-.08-.02-.16-.03-.24-.03-.04,0-.08,0-.12,0h-.25c-.08,0-.17,0-.25,.02s-.17,.01-.25,.02h-.06s-.03,0-.04,.01h-.04l-.07,.02s-.04,0-.07,.01h-.03s-.08,.02-.13,.03h-.07l-.14,.04c-.09,.02-.17,.04-.26,.07-.09,.02-.18,.05-.27,.08-.09,.03-.18,.06-.27,.09l-.09,.03h-.02l-.08,.04h-.04l-.1,.06h-.02l-.08,.04-.15,.07c-.1,.04-.19,.09-.29,.14l-.03,.02-.09,.05-.12,.07s-.06,.04-.09,.06l-.05,.03-.08,.05-.05,.03s-.05,.04-.08,.06h0l-.02,.02s-.08,.06-.12,.09l-.04,.03-.09,.07-.09,.07h0s-.08,.07-.12,.11l-.03,.02s-.05,.05-.08,.07c-.02,.02-.03,.03-.05,.05l-.06,.06s-.03,.03-.04,.04c-.04,.04-.08,.08-.11,.12h-.02s-.06,.06-.08,.09c-.03,.04-.06,.07-.09,.11-.03,.04-.04,.06-.07,.08h0s-.04,.07-.08,.12-.07,.1-.1,.14h0l-.07,.13s-.04,.08-.07,.11c-.01,.02-.03,.05-.04,.07v.02s-.04,.06-.06,.1c-.02,.03-.02,.04-.03,.06h0v.04l-.03,.03-.03,.07s-.03,.07-.04,.11c-.01,.04-.02,.06-.03,.09,0,0,0,0,0,.01-.04,.11-.07,.21-.1,.32h0c-.05-.27-.13-.54-.25-.8-.53-1.23-1.6-2.06-3.16-2.51l-.07-.02c-2.88-.79-5.21,.51-6.02,3.38-.12,.42-.2,.85-.23,1.28h0s-.03,0-.05,0l-2.7,.47c-.09,.01-.15,.09-.15,.18,.03,.23-.02,.47-.13,.68-.16,.34-.51,.65-.95,.85-.5,.23-.95,.25-1.36,.04-.26-.12-.47-.31-.63-.55-.03-.04-.04-.1-.03-.15,.01-.05,.05-.1,.1-.12l5.51-2.54c.09-.04,.13-.15,.09-.24h0c-.03-.07-.07-.15-.15-.3-.5-.97-.94-1.58-1.6-2.17-.45-.42-.99-.73-1.59-.91-.79-.22-1.62-.23-2.41-.02-.35,.09-.68,.21-1.01,.36-1.37,.63-2.29,1.63-2.69,2.81h0c-.68-1.15-1.91-1.71-3.74-1.74-1.76,.01-2.21,0-2.46-.01-.45-.04-.73-.24-.8-.58-.11-.52,.32-.96,1.07-1.12,.48-.1,.91-.03,1.19,.17,.16,.12,.28,.28,.35,.47,.04,.08,.13,.12,.22,.1l3.15-1.04s.09-.05,.11-.1c.02-.05,.02-.1,0-.15-.1-.22-.22-.43-.35-.64-.07-.1-.14-.2-.22-.3-.1-.13-.22-.26-.34-.37-.39-.38-.86-.67-1.38-.85-.83-.29-2.07-.32-3.22-.07-3.02,.65-4.56,2.45-4.06,4.77,.27,1.26,1.05,2.2,2.17,2.63,.59,.22,1,.27,2.53,.28,1.17,.01,1.78,.04,2.02,.09,.36,.06,.63,.33,.69,.69,.14,.63-.31,1.11-1.19,1.3-.61,.13-1.15,.04-1.53-.26-.22-.18-.39-.41-.48-.68-.04-.09-.13-.13-.22-.1l-3.04,.96c-.09,.03-.15,.13-.12,.22h0c.22,.59,.36,.92,.57,1.21,.41,.64,1,1.12,1.71,1.39,.92,.36,2.26,.39,3.63,.1,1.31-.28,2.54-.84,3.18-1.44,.37-.34,.67-.76,.87-1.23h.01c.73,1.58,1.93,2.59,3.41,2.88,.95,.2,2.11,0,3.25-.52,1.33-.61,2.25-1.53,2.68-2.66,.07-.17,.12-.35,.16-.53h0c.32,1.71,1.56,3,3.57,3.57,1.58,.45,2.95,.29,4.07-.46,.46-.32,.74-.62,1.19-1.29,.05-.08,.03-.19-.05-.25,0,0-.02,0-.03-.01l-2.55-1.16c-.09-.04-.19,0-.23,.08-.08,.16-.2,.31-.34,.42-.34,.26-.81,.34-1.31,.2-.94-.27-1.29-1.35-.89-2.76,.4-1.41,1.18-2.04,2.17-1.76,.7,.2,1,.64,1,1.46,0,.09,.07,.17,.16,.18l2.77,.24h0c0,.7,.12,1.39,.36,2.04,1.04,2.85,3.54,3.97,6.43,2.91,1.95-.72,3.14-2.15,3.36-3.89l.19,1.95c.09,.71,.13,1.42,.13,2.14,0,.05,.02,.1,.06,.13,.04,.03,.09,.05,.14,.05l3.11-.33s.1-.03,.12-.07c.03-.04,.04-.09,.03-.14-.13-.69-.24-1.37-.32-2.12l-.29-2.77s0-.05,0-.08c.16-.47,.25-.68,.45-.92,.33-.41,.75-.66,1.21-.7,.72-.08,1.13,.39,1.23,1.39l.29,2.78c.08,.71,.13,1.43,.13,2.15,0,.1,.08,.18,.18,.18,0,0,.01,0,.02,0l3.14-.33c.05,0,.1-.03,.12-.07,.03-.04,.04-.09,.03-.14h0c-.1-.48-.18-.96-.24-1.45h0c.11,.21,.25,.42,.41,.61,.53,.65,1.41,1.17,2.41,1.43,.58,.16,1.19,.21,1.79,.15,.31-.03,.61-.12,.89-.25,.06-.03,.14-.02,.19,.03,.05,.04,.08,.11,.06,.18l-.04,.15h0c-.02,.1,.03,.19,.13,.22l2.93,.76s.1,0,.14-.02c.04-.03,.07-.07,.08-.12,.12-.75,.28-1.48,.48-2.21l1.85-7.12c.18-.73,.4-1.46,.66-2.17,.02-.05,.01-.1,0-.14Zm-48.16,5.66c-.09,.04-.2,0-.24-.09,0-.02-.02-.04-.02-.07,0-.14,0-.29,.04-.43,.12-.47,.45-.84,.95-1.07,.7-.32,1.31-.24,1.77,.24,.04,.04,.06,.1,.05,.16-.01,.06-.05,.1-.1,.13l-2.44,1.13Zm23.84,1.66c-.92,1.02-2.08,1.43-3.43,1.1-1.37-.33-2.2-1.24-2.59-2.6,.07,.02,.09,.07,.12,.11,.42,.57,1,1,1.66,1.26h.01c.08,.05,.19,.02,.24-.07,.13-.17,.13-.17-.06-.26-.14-.07-.28-.13-.41-.2,0,0,0-.02-.02-.03l.62-.31c-.16-.18-.32-.35-.49-.54,.23-.01,.42-.03,.61-.04,.09,0,.12-.03,.08-.12-.07-.18-.14-.38-.22-.58l.69,.23c.01-.24,.02-.47,.04-.73l.54,.47,.31-.66c.1,.2,.19,.38,.28,.56,.04,.09,.07,.07,.13,.02,.14-.14,.29-.27,.46-.43,.02,.23,.04,.43,.04,.64,0,.09,.03,.09,.1,.06,.19-.08,.38-.14,.59-.22-.07,.21-.12,.39-.19,.57-.04,.12,0,.13,.1,.13,.18,0,.37,.01,.59,.02-.14,.16-.25,.3-.38,.43-.08,.09-.1,.13,.03,.18,.21,.08,.21,.09,.37-.08,.48-.51,.82-1.14,.96-1.83,0-.02,.01-.04,.01-.06h0c.21,.7,.09,1.99-.77,2.95Zm18.28-.86l.23,.31,.35,.47-.75-.1c-.11-.01-.23-.02-.34-.04-.07-.01-.07,.02-.06,.07,.03,.25,.06,.5,.1,.75,.01,.1,.02,.21,.04,.33l-.8-.6c-.13-.1-.13-.1-.2,.06-.13,.3-.25,.6-.39,.91-.15-.36-.31-.71-.46-1.07l-.93,.69c.04-.37,.09-.72,.13-1.07,0-.07,0-.08-.07-.07-.35,.05-.7,.09-1.08,.13l.23-.3c.14-.18,.28-.37,.43-.55,.05-.06,.04-.09-.03-.11-.29-.12-.58-.24-.87-.36-.04,0-.07-.03-.1-.06l.91-.39s.04-.02,.06-.02c.07-.02,.08-.04,.03-.1-.19-.25-.38-.5-.56-.74l-.08-.11,.69,.08,.39,.05c.05,0,.08,0,.07-.06-.05-.35-.09-.71-.13-1.06,.04,0,.06,.03,.09,.05,.25,.19,.51,.37,.75,.57,.08,.06,.1,.04,.13-.04,.12-.29,.25-.58,.37-.88,0-.02,.02-.04,.04-.08h0c.13,.3,.26,.59,.37,.87,.08,.2,.08,.2,.25,.07l.76-.57c-.02,.19-.04,.35-.06,.51-.02,.19-.04,.38-.07,.57-.01,.08,.03,.07,.07,.07h.02c.31-.04,.62-.08,.93-.12,.04-.01,.08-.01,.12,0-.2,.27-.4,.54-.61,.81-.08,.11-.08,.11,.05,.16l.94,.4-1.07,.45,.12,.15Z"/><path class="cls-16" d="M54.24,40.81s-.05-.04-.08-.04h0c-.19,0-.38,.02-.56,.06-.44,.09-.73,.25-.92,.49-.07,.08-.13,.16-.18,.25-.03,.05-.1,.07-.15,.04-.03-.02-.05-.04-.05-.07l-.05-.23s-.02-.06-.05-.07c-.02-.02-.06-.02-.08-.02l-1.37,.29s-.06,.03-.07,.05c-.02,.03-.02,.06,0,.09,.05,.16,.1,.31,.14,.47-.11-.19-.24-.38-.38-.55-.54-.64-1.4-.84-2.31-.54-.69,.23-1.19,.66-1.43,1.21h0c-.11-.82-.63-1.27-1.48-1.27-.28,0-.56,.06-.82,.16-.16,.07-.31,.16-.44,.27-.05,.04-.12,.03-.15-.01-.02-.02-.03-.05-.03-.08v-.61c0-.33,0-.66,.04-.98,0-.03,0-.06-.03-.09-.02-.02-.05-.04-.08-.04h-1.42c-.06,0-.11,.05-.11,.11h0c.03,.34,.05,.67,.04,1v2.39h0l-.78,.25c-.05,.02-.09,.07-.07,.13,.06,.3-.1,.6-.39,.72-.41,.2-.88-.06-1.19-.68-.31-.62-.24-1.09,.19-1.3,.31-.15,.54-.1,.8,.18,.04,.04,.1,.05,.15,.01l1.01-.78s.04-.05,.04-.08c0-.03,0-.06-.03-.08-.17-.2-.38-.35-.62-.46-.57-.25-1.21-.21-1.89,.13-.46,.21-.84,.56-1.09,.99h-.01c-.06-.33-.26-.62-.54-.81-.28-.18-.81-.32-1.37-.35-.73-.04-1.26,.06-1.66,.3-.31,.18-.47,.36-.64,.73-.01,.03-.01,.07,0,.1,.02,.03,.04,.05,.08,.06l1.31,.27s.1-.01,.12-.06c.13-.27,.32-.37,.65-.35,.36,.02,.54,.18,.52,.44v.07c0,.06-.05,.1-.11,.1-.52-.01-.99,0-1.23,0-.36,.03-.71,.11-1.04,.26h-.01c-.24,.12-.43,.32-.54,.56h0l-.95,.12c-.05,0-.09,.05-.1,.1,0,.1-.03,.2-.08,.29-.11,.18-.28,.31-.47,.38-.2,.1-.44,.09-.64-.02-.11-.06-.2-.14-.26-.25-.02-.03-.02-.06-.01-.09,0-.03,.03-.06,.06-.07l2.61-1.03s.05-.03,.06-.06c.01-.03,.01-.06,0-.09l-.05-.12c-.16-.4-.39-.76-.69-1.07-.42-.43-1.01-.65-1.61-.58l.14-.78s0-.06-.02-.08c-.02-.02-.05-.04-.08-.04h-.02c-.32-.03-.64-.07-.96-.13l-3.09-.56c-.31-.06-.62-.12-.93-.2-.06-.02-.12,.02-.13,.08h0l-.23,1.29s0,.06,.02,.09c.02,.02,.05,.04,.08,.04,.32,.03,.64,.08,.96,.14l.61,.11c.06,.01,.1,.07,.09,.13l-.56,3.08c-.05,.33-.13,.65-.22,.97,0,.03,0,.06,.01,.09,.02,.03,.05,.04,.08,.05l1.52,.26s.06,0,.09-.02c.02-.02,.04-.05,.04-.08,.03-.33,.07-.66,.14-.98l.24-1.34c-.01,.37,.05,.74,.19,1.08,.3,.76,.84,1.27,1.53,1.45,.44,.12,1,.06,1.54-.16,.44-.16,.82-.43,1.11-.8,.08,.17,.2,.33,.35,.45,.25,.2,.64,.32,1.1,.35,.32,.02,.63-.02,.93-.13h.01c.08-.03,.15-.07,.21-.12,.03-.03,.08-.03,.12-.01,.04,.02,.06,.06,.06,.11,0,.03,0,.06,.03,.08,.02,.02,.05,.03,.08,.04l1.37,.07s.06-.01,.08-.03c.02-.02,.03-.05,.03-.08-.01-.3,0-.61,.01-.91l.02-.38h0c.03,.06,.05,.13,.08,.18,.63,1.27,1.86,1.69,3.14,1.05,.25-.12,.49-.28,.69-.47,0,.15-.02,.3-.03,.44,0,.03,0,.06,.03,.08,.02,.02,.05,.04,.08,.04h1.42s.06-.01,.08-.04c.02-.02,.03-.05,.03-.09-.04-.33-.05-.66-.05-.98v-1.27s0-.03,0-.04c.06-.17,.15-.32,.26-.46,.15-.17,.37-.26,.6-.26,.35,0,.51,.23,.51,.72v1.32c0,.33,0,.66-.04,.99,0,.03,0,.06,.03,.09,.02,.02,.05,.04,.08,.03h1.44s.06-.02,.08-.04c.02-.02,.03-.06,.02-.09h0c-.04-.32-.05-.65-.05-.98v-.15h0c.27,.69,.75,1.17,1.37,1.36,.43,.14,.99,.12,1.55-.07,.66-.21,1.14-.59,1.41-1.1,.07-.14,.13-.28,.16-.44h0l.16,.73c.07,.32,.13,.64,.17,.97,0,.03,.02,.06,.04,.08,.03,.02,.06,.02,.09,.02l1.41-.3s.06-.03,.07-.05c.02-.03,.02-.06,.01-.09-.1-.31-.18-.62-.25-.94l-.2-.96c-.12-.54,.13-.9,.71-1.02,.23-.05,.47-.06,.7-.04,.03,0,.06,0,.08-.03,.02-.02,.04-.05,.04-.08l.06-1.31s0-.06-.03-.08Zm-24.68,1.75l.22-1.22s.02-.05,.04-.07c.02-.02,.05-.02,.08-.02l.6,.11h.03c-.46,.27-.81,.69-.97,1.2Zm1.49,.48s-.07,0-.1-.01c-.03-.02-.05-.06-.05-.1,0-.05,.01-.1,.03-.15,.08-.22,.25-.4,.48-.48,.32-.13,.59-.08,.8,.13,.04,.04,.04,.11,0,.16-.01,.01-.02,.02-.04,.02l-1.11,.44Zm5.65,.8c-.02,.36-.43,.65-.9,.63-.31-.02-.49-.17-.48-.43,.01-.23,.17-.36,.53-.43,.25-.04,.5-.05,.74-.04,.03,0,.06,.01,.08,.03,.02,.02,.03,.05,.03,.08v.15Zm11.25-.99s0-.03,0-.05h0c0-.05,.02-.1,.04-.15,.09-.22,.27-.39,.5-.45,.33-.11,.6-.05,.79,.17,.03,.03,.03,.07,.02,.1-.01,.04-.04,.06-.07,.08l-1.13,.37c-.06,.02-.12-.01-.14-.07Zm1.93,.72c-.05,0-.1,.05-.1,.1,0,.1-.04,.2-.1,.29-.12,.17-.29,.29-.49,.35-.21,.08-.45,.06-.64-.06-.1-.06-.19-.15-.25-.26-.03-.05-.02-.12,.04-.15,0,0,.01,0,.02-.01l2.62-.86,.12,.53h0l-1.22,.07Z"/><path id="Shape-4" class="cls-16" d="M21.02,24.51l-1.37-.36c-.08-.02-.17,.02-.2,.09-.15,.27-.33,.53-.52,.77l-.87,1.2-.13-1.46c-.04-.31-.05-.62-.05-.93,0-.08-.05-.16-.13-.18l-1.35-.36c-.06-.02-.12,0-.17,.04-.05,.04-.07,.1-.06,.16,.03,.15,.06,.36,.12,.8l.5,3.32-.15,.17c-.17,.18-.38,.23-.66,.16-.15-.04-.3-.12-.42-.22-.04-.03-.09-.03-.13,0,0,0-.01,.02-.02,.03l-.39,.95c-.03,.09,0,.19,.09,.23,.06,.03,.11,.05,.16,.08,.24,.11,.49,.2,.74,.27,.68,.18,1.23,.1,1.68-.25,.13-.1,.24-.22,.34-.35l2.57-3.24c.29-.36,.42-.53,.51-.64,.06-.08,.05-.19-.03-.25-.02-.02-.04-.03-.07-.04h0Zm-4.64,1.85c-.08-.31-.14-.62-.18-.93l-.59-3.75c-.05-.31-.09-.63-.11-.94,0-.05-.03-.1-.07-.13-.04-.03-.09-.05-.14-.04l-1.87,.29c-.09,.01-.15,.09-.15,.18,0,.23-.03,.45-.06,.68l-.04,.31-.39,2.88-1.26-2.62c-.15-.29-.29-.59-.4-.9-.03-.09-.11-.14-.2-.12l-1.87,.29c-.1,.02-.17,.11-.15,.21v.02c.08,.31,.14,.62,.19,.93l.59,3.75c.02,.13,.04,.26,.06,.39,.02,.18,.04,.37,.05,.55,0,.1,.09,.17,.19,.17h.02l.3-.05,.94-.15c.05,0,.09-.04,.12-.08,.03-.04,.05-.1,.03-.15-.08-.31-.14-.62-.18-.94l-.23-1.44c-.02-.15-.07-.37-.25-1.21,.28,.65,.42,.99,.44,1.01l.74,1.57c.11,.24,.12,.26,.22,.46,.08,.14,.15,.29,.2,.45,.03,.08,.11,.13,.2,.11l1.17-.18c.09-.01,.15-.09,.15-.17,0-.21,.03-.41,.06-.61l.06-.38,.23-1.65c.02-.1,.03-.31,.06-.64,0-.12,.02-.29,.04-.51,.09,.77,.12,1.06,.15,1.23l.22,1.44c.06,.31,.09,.63,.11,.94,0,.05,.03,.1,.07,.13,.04,.03,.09,.05,.14,.04l1.24-.2c.1-.02,.17-.11,.15-.21v-.02h0Z"/><g><path class="cls-3" d="M48.21,21.6c-1.25,.48-3.37,.71-4.94-2.16h0v-.02h0c-.06-.1-.13-.23-.19-.35-.19-.03-.38-.06-.57-.09h0s-.08-.01-.12-.02h0s0-.06,0-.08,0-.04,0-.07c0-.01,0-.02,0-.04-.05-.23-.25-.4-.49-.4h0c-.22,0-.41,.14-.48,.34-.66-.19-1.28-.45-1.87-.76-.05-.03-.11-.06-.16-.09-1.06-.59-2.01-1.37-2.85-2.35-.09-.11-.25-.12-.36-.04h-.01v.02c-.07,.04-.12,.08-.17,.12l-.04,.03c-.08,.07-.16,.13-.23,.19-.04,.03-.07,.06-.11,.09-.25,.2-.46,.36-.63,.5h.01c-.18,.14-.31,.24-.39,.3h0c-.06,.04-.08,.06-.08,.06,.02-.04,.03-.09,.05-.13,0-.04,0-.07,.04-.1,.23-.53,.55-1,.97-1.38,.75-.7,1.8-1.11,3.12-1.03,2.18,0,3.94,1.23,4.52,3.01h.02s.05,0,.07,0h0c.24,.02,.51,.05,.79,.11h.04c1.13,.24,2.4,.85,2.78,2.35h0c.07,.27,.14,.5,.22,.69,0,.01,.01,.03,.02,.04,.12,.28,.26,.5,.39,.66,.01,.01,.02,.03,.03,.04,.16,.18,.36,.32,.6,.37,.08,.02,.09,.13,.01,.16Z"/><path class="cls-3" d="M43.27,19.42h0Z"/><path class="cls-3" d="M35.08,16.61l-.38,.14s-.07,0-.1-.02c.08-.06,.21-.17,.39-.31h.02c.05-.03,.11,0,.13,.05,.02,.05,0,.11-.06,.13Z"/><path class="cls-3" d="M37.49,16.69c-.02,.05-.08,.08-.13,.06h0l-.38-.14c-.05-.02-.08-.08-.06-.13,.02-.05,.08-.08,.13-.06l.38,.14c.05,.02,.08,.08,.06,.13Z"/></g><path class="cls-2" d="M44.11,17.29c-.68,.09-1.19,.65-1.24,1.33-.11-.25-.21-.52-.31-.81,.17-.26,.41-.48,.68-.64,.02,0,.05,0,.07,0h0c.24,.02,.51,.05,.79,.11Z"/></g><g><g><path class="cls-9" d="M23.57,51.61h-4.68c-.01-.21-.15-.48-.41-.81-.31-.4-.69-.6-1.13-.6-.27,0-.51,.06-.72,.19-.24,.14-.38,.32-.43,.55-.01,.06-.02,.12-.02,.2,0,.16,.05,.31,.15,.47h-2.8l.59,.66h.52v1.41h-1.18v-1.13c0-.14-.1-.33-.31-.55-.12-.13-.25-.23-.4-.3h-.52c-.12,0-.24,.07-.38,.2-.1,.1-.16,.21-.19,.32l.45,.44c0-.07,.07-.16,.21-.27,.14-.11,.25-.17,.33-.17,.11,.03,.17,.11,.17,.23v1.21s-.02,.02-.05,.02c-.03,0-.07,0-.12,0-.05,0-.09,0-.12,0-.06,0-.11,0-.16,.02-.2,.09-.3,.26-.31,.5,0,.2,.16,.41,.5,.61,.35,.21,.6,.32,.75,.32,.09,0,.14-.05,.14-.14v-.67h1.18v1.22l.7,.65v-3.92h.93v3.27l.71,.65v-3.92h2.99v1.05c-.26-.36-.66-.53-1.2-.51-.31,.01-.58,.13-.81,.34-.23,.22-.35,.47-.36,.75,0,.22,.06,.42,.19,.61,.28,.4,.68,.6,1.2,.59,.41,0,.74-.19,.97-.56v1l.7,.65v-3.92h.6v1.51c0,.26,.17,.5,.5,.74,.25,.17,.49,.27,.72,.28,.48,0,.99-.23,1.26-.74,.11,.15,.25,.28,.41,.4,.41,.3,.8,.44,1.17,.42,.37-.01,.69-.17,.95-.46v1.12l.7,.65v-3.92h.74v-.66h-4.16Zm-5.83,0h-.9c-.08-.12-.11-.23-.11-.33,0-.37,.23-.56,.68-.56,.12,0,.19,0,.2,0,.22,.03,.41,.11,.56,.25,.21,.19,.33,.4,.36,.63h-.79Zm1.44,2.61c-.07,.03-.15,.07-.24,.11-.14,.07-.24,.11-.29,.12-.09,.03-.17,.04-.22,.04-.11,0-.19-.04-.25-.12-.04-.06-.07-.12-.07-.18,0-.2,.2-.41,.59-.64,.19-.11,.39-.16,.6-.16,.23,0,.45,.06,.65,.19-.19,.29-.45,.5-.78,.64Zm4.65-.78c-.08,0-.19-.02-.27-.04h-.01l-1.54-1.11v.64l1.19,.87c-.32,.34-.6,.51-.85,.51-.22,0-.33-.14-.33-.41v-1.61h2.4c.11,.12,.16,.27,.16,.44s-.05,.33-.15,.46c-.13,.17-.32,.26-.58,.26Zm2.46,.03c0,.15-.1,.31-.29,.46-.32,.26-.66,.38-1.04,.38-.3,0-.58-.1-.85-.29,.25-.01,.46-.09,.64-.25,.18-.15,.29-.34,.33-.56,.02-.11,.03-.21,.03-.31,0-.22-.06-.43-.19-.63h1.37v1.19Z"/><path class="cls-9" d="M28.65,55.67l-.12-.02c-.25,0-.38,.09-.4,.27,0,.27,.12,.4,.35,.4-.02,.08-.06,.17-.11,.25-.1,.15-.25,.24-.44,.27,.05,.01,.09,.02,.11,.02,.18,0,.36-.06,.53-.18,.17-.12,.28-.26,.32-.42,.02-.09,.04-.17,.04-.23,0-.2-.09-.31-.28-.36Z"/><path class="cls-9" d="M51.34,51.61c-.06-.17-.22-.44-.5-.81-.4-.53-.8-.82-1.22-.89-.18-.03-.31-.04-.42-.04s-.23,.01-.38,.03l.77,.72c.24,.04,.5,.14,.78,.3,.29,.17,.53,.4,.7,.69h-16.86c-.06-.17-.22-.44-.5-.81-.4-.53-.8-.82-1.22-.89-.18-.03-.31-.04-.42-.04s-.23,.01-.38,.03l.77,.72c.24,.04,.5,.14,.78,.3,.3,.17,.53,.4,.7,.69h-2.73v.66h2.53v.79h-1.66c-.2,0-.37,.05-.53,.15-.17,.11-.26,.26-.26,.43,0,.33,.08,.59,.25,.77,.14,.14,.3,.21,.49,.21,.11,0,.21-.02,.31-.07,.18-.09,.27-.2,.29-.34,0-.29-.09-.46-.27-.5h1.38v1.82l.7,.66v-3.92h1.01v1.51c0,.13,.04,.24,.12,.33,.07,.08,.2,.18,.38,.31,.26,.19,.5,.28,.72,.28,.19,0,.44-.11,.74-.34,.01-.01,.03-.02,.04-.03h.02v-.02h.02v-.02h.01v1.27l.7,.63v-3.92h.88v3.27l.7,.65v-3.92h4.58v.96c-.22-.12-.49-.17-.8-.16-.29,0-.55,.13-.79,.38-.2-.42-.58-.62-1.15-.61-.29,0-.53,.13-.72,.38-.16,.21-.26,.45-.3,.74-.01,.09-.02,.16-.02,.22,0,.4,.2,.78,.6,1.15l1.03,.95,.2-.16-.69-.71c-.24-.25-.36-.55-.36-.93,0-.14,0-.22,0-.25,0-.18,.07-.34,.19-.47,.12-.14,.28-.22,.47-.24,.24,0,.42,.04,.54,.12-.27,.13-.4,.33-.4,.59,0,.3,.13,.51,.39,.63,.11,.05,.23,.08,.34,.08,.41,0,.61-.22,.61-.66,0-.11-.04-.23-.12-.35,.09-.1,.2-.18,.33-.22,.12-.03,.21-.04,.28-.04,.13,0,.24,.03,.35,.08v1.79l.7,.65v-3.92h2.9v1.02s-.07-.1-.16-.19c-.23-.24-.51-.36-.83-.36-.16,0-.33,.04-.5,.12-.3,.13-.48,.37-.56,.72-.02,.08-.03,.18-.03,.28,0,.28,.1,.52,.31,.72,.22,.22,.5,.32,.84,.32,.12-.02,.29-.07,.5-.16,.23-.1,.37-.19,.43-.27v1.2l.67,.52v-1.95c.15-.31,.41-.48,.77-.51,.12-.01,.23-.02,.31-.02,.25,0,.38,.07,.42,.2,0,.04,.01,.07,.01,.08v.04c0,.17-.06,.33-.2,.5-.09,.11-.22,.23-.39,.36-.21,.16-.36,.24-.47,.24l.45,.61c.31-.1,.55-.29,.73-.6,.16-.27,.24-.56,.24-.89,0-.2-.03-.37-.1-.51-.23-.48-.55-.72-.94-.72-.34,0-.61,.12-.8,.36v-1.1h2.2v3.25l.7,.65v-3.89h.74v-.69h-.98Zm-13.83,1.74c0,.25-.18,.47-.53,.67-.17,.1-.34,.14-.48,.14-.22,0-.33-.11-.33-.33v-1.56h1.33v1.08Zm10.47,.35c-.17,.17-.37,.3-.59,.38-.37,.13-.61,.2-.73,.2-.13,0-.24-.04-.31-.13-.02-.02-.03-.04-.03-.08,0-.1,.09-.21,.26-.35,.14-.11,.27-.19,.4-.25,.19-.08,.37-.12,.54-.12,.14,0,.3,.03,.47,.09v.26Z"/></g><g><path class="cls-9" d="M17.34,50.21c.44,0,.82,.2,1.13,.6,.26,.33,.4,.6,.41,.81h8.84v.66h-.74v3.92l-.7-.65v-1.12c-.26,.29-.58,.45-.95,.46h-.05c-.35,0-.72-.14-1.12-.42-.16-.12-.3-.25-.41-.4-.27,.51-.78,.74-1.26,.74-.24-.01-.48-.11-.72-.28-.33-.24-.5-.48-.5-.74v-1.51h-.6v3.92l-.7-.65v-1c-.24,.37-.56,.56-.97,.56h-.03c-.5,0-.89-.2-1.17-.59-.13-.19-.2-.39-.19-.61,0-.29,.13-.54,.36-.75,.23-.22,.5-.33,.81-.34,.03,0,.06,0,.09,0,.49,0,.86,.17,1.1,.51v-1.05h-2.99v3.92l-.71-.65v-3.27h-.93v3.92l-.7-.65v-1.22h-1.18v.67c0,.09-.05,.14-.14,.14-.15,0-.4-.11-.75-.32-.34-.2-.51-.41-.5-.61,0-.24,.11-.41,.31-.5,.05-.02,.1-.02,.16-.02,.03,0,.07,0,.12,0,.05,0,.09,0,.12,0,.03,0,.05,0,.05-.02v-1.21c0-.12-.06-.2-.17-.23-.08,0-.19,.06-.33,.17-.14,.11-.21,.2-.21,.27l-.45-.44c.03-.12,.09-.23,.19-.32,.14-.14,.26-.2,.38-.2h.52c.15,.07,.28,.16,.4,.3,.2,.23,.31,.41,.31,.55v1.13h1.18v-1.41h-.52l-.59-.66h2.8c-.1-.16-.15-.31-.15-.47,0-.07,0-.14,.02-.2,.05-.23,.19-.41,.43-.55,.22-.13,.46-.19,.72-.19m-.51,1.41h1.69c-.04-.23-.16-.44-.36-.63-.15-.14-.34-.23-.56-.25-.02,0-.09,0-.2,0-.45,0-.68,.19-.68,.56,0,.11,.04,.22,.11,.33m8.13,2.7c.37,0,.72-.13,1.04-.38,.19-.15,.29-.31,.29-.46v-1.19h-1.37c.13,.2,.19,.41,.19,.63,0,.09,0,.2-.03,.31-.05,.22-.16,.41-.33,.56-.18,.15-.39,.24-.64,.25,.27,.19,.55,.29,.85,.29m-2.96-2.04v1.61c0,.27,.11,.41,.33,.41,.25,0,.54-.17,.85-.51l-1.19-.87v-.64l1.54,1.11h.01c.07,.03,.19,.05,.27,.05,.26,0,.45-.09,.58-.26,.1-.13,.15-.28,.15-.46s-.05-.32-.16-.44h-2.4m-3.58,2.21c.05,0,.13-.01,.22-.04,.05-.02,.15-.06,.29-.12,.09-.04,.17-.08,.24-.11,.32-.14,.58-.35,.78-.64-.2-.12-.42-.19-.65-.19-.21,0-.41,.05-.6,.16-.4,.23-.59,.44-.59,.64,0,.06,.02,.12,.07,.18,.06,.08,.14,.12,.25,.12m-1.07-4.31c-.27,0-.52,.07-.74,.2-.24,.14-.39,.33-.44,.57-.01,.06-.02,.12-.02,.2,0,.15,.04,.3,.13,.44h-2.81l.04,.05,.59,.66h.51v1.37h-1.13v-1.11c0-.15-.1-.34-.31-.57-.12-.14-.26-.24-.41-.3h-.53c-.12,0-.26,.07-.4,.21-.1,.1-.17,.21-.19,.34v.02h0l.45,.45,.05,.05v-.07s.03-.12,.2-.25c.13-.11,.23-.16,.3-.16,.1,.03,.14,.09,.14,.2v1.2h-.02s-.07,0-.12,0c-.05,0-.09,0-.12,0-.06,0-.12,0-.17,.03-.21,.1-.32,.27-.32,.53,0,.21,.17,.43,.51,.64,.36,.22,.61,.32,.76,.32,.11,0,.17-.06,.17-.16v-.64h1.13v1.19h0v.02l.71,.65,.05,.04v-3.95h.87v3.24h0v.02l.72,.65,.05,.04v-3.95h2.93v.94c-.25-.3-.61-.46-1.08-.46-.03,0-.06,0-.09,0-.32,.01-.59,.13-.83,.35-.23,.22-.36,.48-.36,.77,0,.22,.06,.44,.2,.63,.28,.4,.69,.6,1.19,.6h.03c.39,0,.71-.17,.94-.5v.9h0v.02l.71,.65,.05,.04v-3.95h.55v1.48c0,.26,.17,.52,.51,.76,.25,.18,.5,.27,.74,.29,.42,0,.97-.19,1.27-.72,.11,.14,.24,.26,.39,.37,.39,.29,.78,.43,1.13,.43h.05c.36-.01,.67-.15,.92-.42v1.05h0v.02l.71,.65,.05,.04v-3.95h.74v-.72h-8.84c-.02-.21-.16-.48-.41-.8-.32-.4-.71-.61-1.16-.61h0Zm-.49,1.41c-.07-.11-.1-.21-.1-.3,0-.36,.21-.53,.65-.53,.16,0,.19,0,.2,0h0c.21,.03,.4,.11,.54,.25,.19,.18,.31,.37,.35,.59h-1.64Zm8.12,.72h1.29v1.16c0,.14-.09,.29-.28,.44-.31,.25-.66,.38-1.02,.38-.27,0-.53-.08-.77-.24,.22-.02,.41-.11,.58-.25,.18-.15,.3-.35,.34-.58,.02-.11,.03-.22,.03-.31,0-.21-.06-.41-.17-.6h0Zm-2.88,0h2.3c.09,.11,.14,.25,.14,.41s-.05,.32-.14,.44c-.12,.16-.31,.24-.56,.24-.07,0-.18-.01-.26-.04h-.01l-1.47-1.06h0Zm.25,1.96c-.21,0-.31-.12-.31-.38v-.92l1.12,.82c-.3,.32-.57,.48-.81,.48h0Zm-3.92,.2c-.1,0-.17-.04-.23-.11-.04-.05-.06-.11-.06-.16,0-.19,.2-.4,.58-.62,.18-.1,.38-.16,.59-.16s.42,.06,.61,.17c-.19,.27-.44,.47-.75,.6-.07,.03-.15,.07-.24,.11-.14,.06-.23,.11-.29,.12-.09,.03-.16,.04-.21,.04h0Z"/><path class="cls-9" d="M28.53,55.66l.12,.02c.19,.04,.28,.16,.28,.36,0,.06-.01,.14-.04,.23-.04,.16-.15,.3-.32,.42-.17,.12-.35,.18-.53,.18-.02,0-.06,0-.11-.02,.19-.03,.34-.12,.44-.27,.05-.08,.09-.16,.11-.25-.24,0-.35-.13-.35-.4,.02-.18,.15-.27,.4-.27m0-.03h0c-.26,0-.4,.1-.43,.3,0,.27,.12,.42,.34,.43-.02,.07-.05,.14-.1,.2-.1,.14-.24,.23-.42,.26l-.14,.02,.14,.03c.06,.01,.09,.02,.12,.02,.19,0,.37-.06,.55-.19,.18-.12,.29-.27,.33-.44,.02-.09,.04-.17,.04-.24,0-.21-.1-.34-.3-.38l-.12-.02h0Z"/><path class="cls-9" d="M49.21,49.87c.1,0,.24,.01,.42,.04,.41,.07,.82,.36,1.22,.89,.28,.37,.44,.64,.5,.81h.98v.69h-.74v3.89l-.7-.65v-3.25h-2.2v1.1c.2-.24,.46-.36,.8-.36,.4,0,.71,.24,.94,.72,.07,.14,.1,.31,.1,.51,0,.32-.08,.62-.24,.89-.18,.3-.42,.5-.73,.6l-.45-.61c.1,0,.26-.08,.47-.24,.17-.13,.3-.25,.39-.36,.14-.17,.21-.33,.21-.5v-.04s-.01-.04-.02-.08c-.03-.13-.17-.2-.42-.2-.08,0-.18,0-.31,.02-.36,.03-.62,.2-.77,.51v1.95l-.67-.52v-1.2c-.06,.08-.21,.17-.43,.27-.21,.09-.38,.14-.5,.16-.34,0-.62-.11-.84-.32-.2-.2-.31-.44-.31-.72,0-.11,0-.2,.03-.28,.08-.34,.26-.58,.56-.72,.17-.08,.34-.12,.5-.12,.32,0,.6,.12,.83,.36,.09,.09,.14,.16,.16,.19v-1.02h-2.9v3.92l-.7-.65v-1.79c-.11-.05-.23-.08-.35-.08-.07,0-.16,.01-.28,.04-.14,.04-.25,.12-.33,.22,.08,.12,.12,.24,.12,.35,0,.44-.2,.66-.61,.66-.12,0-.23-.03-.34-.08-.26-.12-.39-.33-.39-.63,0-.27,.13-.47,.4-.59-.13-.08-.31-.12-.54-.12-.19,.02-.35,.1-.47,.24-.11,.13-.18,.29-.19,.47,0,.02,0,.11,0,.25,0,.37,.12,.68,.36,.93l.69,.71-.2,.16-1.03-.95c-.4-.37-.6-.75-.6-1.15,0-.06,0-.13,.02-.22,.04-.29,.14-.53,.3-.74,.19-.25,.43-.37,.72-.38,.01,0,.03,0,.04,0,.54,0,.91,.2,1.11,.61,.24-.25,.5-.38,.79-.38h.05c.29,0,.53,.05,.74,.16v-.96h-4.58v3.92l-.7-.65v-3.27h-.88v3.92l-.7-.63v-1.27h-.02v.02h-.02v.02s-.04,.02-.05,.03c-.3,.23-.54,.34-.74,.34-.22,0-.46-.09-.72-.28-.18-.13-.31-.23-.38-.31-.08-.09-.12-.2-.12-.33v-1.51h-1.01v3.92l-.7-.66v-1.82h-1.38c.18,.05,.27,.21,.27,.5-.02,.14-.11,.25-.29,.34-.1,.05-.2,.07-.31,.07-.19,0-.35-.07-.49-.21-.17-.18-.26-.44-.25-.77,0-.17,.09-.32,.26-.43,.15-.1,.33-.15,.53-.15h1.66v-.79h-2.53v-.66h2.73c-.17-.29-.4-.52-.7-.69-.28-.16-.54-.26-.78-.3l-.77-.72c.15-.02,.28-.03,.38-.03s.24,.01,.42,.04c.41,.07,.82,.36,1.22,.89,.28,.37,.44,.64,.5,.81h16.86c-.17-.29-.4-.52-.7-.69-.28-.16-.54-.26-.78-.3l-.77-.72c.15-.02,.28-.03,.38-.03m-12.7,4.29c.15,0,.31-.05,.48-.14,.35-.19,.53-.41,.53-.67v-1.08h-1.33v1.56c0,.22,.11,.33,.33,.33m10.16,.12c.12,0,.36-.07,.73-.2,.22-.08,.42-.21,.59-.38v-.26c-.17-.06-.33-.09-.47-.09-.17,0-.35,.04-.54,.12-.13,.06-.26,.14-.4,.25-.17,.14-.26,.25-.26,.35,0,.03,0,.06,.03,.08,.08,.09,.18,.13,.31,.13m2.55-4.44c-.1,0-.23,.01-.38,.03h-.06l.04,.05,.77,.72h.01c.23,.05,.49,.15,.77,.3,.27,.16,.5,.37,.66,.64h-16.79c-.06-.17-.23-.44-.5-.8-.4-.53-.81-.83-1.23-.9-.18-.03-.32-.04-.42-.04s-.23,.01-.38,.03h-.06l.04,.05,.77,.72h.01c.23,.05,.49,.15,.77,.3,.27,.16,.5,.37,.66,.64h-2.71v.72h2.53v.74h-1.63c-.2,0-.38,.05-.54,.16-.18,.12-.27,.27-.27,.46,0,.34,.08,.6,.26,.79,.14,.15,.31,.22,.51,.22,.11,0,.22-.03,.32-.08,.18-.09,.29-.22,.3-.36,0-.23-.06-.39-.17-.48h1.22v1.8h0v.02l.71,.66,.05,.04v-3.95h.95v1.48c0,.14,.04,.26,.13,.35,.07,.08,.2,.18,.38,.31,.27,.19,.52,.29,.74,.29,.2,0,.45-.12,.76-.35,.01-.01,.03-.02,.04-.03h0v1.21h0v.02l.71,.63,.05,.04v-3.95h.83v3.24h0v.02l.71,.65,.05,.04v-3.95h4.53v.89c-.2-.1-.45-.15-.72-.15h-.05c-.29,0-.55,.13-.78,.36-.2-.39-.58-.59-1.12-.59h-.04c-.29,0-.54,.13-.74,.39-.16,.21-.27,.46-.31,.75-.01,.09-.02,.16-.02,.22,0,.4,.21,.8,.61,1.17l1.03,.95,.02,.02,.02-.02,.2-.16,.02-.02-.02-.02-.69-.71c-.23-.24-.35-.54-.35-.91,0-.18,0-.23,0-.24h0c0-.18,.07-.33,.18-.46,.12-.13,.27-.21,.45-.23,.2,0,.36,.03,.48,.09-.24,.13-.37,.33-.37,.6,0,.31,.14,.53,.4,.66,.11,.05,.23,.08,.36,.08,.42,0,.64-.23,.64-.69,0-.11-.04-.23-.11-.35,.08-.09,.18-.16,.31-.2,.11-.03,.2-.04,.27-.04,.11,0,.22,.02,.32,.07v1.77h0v.02l.71,.65,.05,.04v-3.95h2.84v.9s-.06-.07-.11-.12c-.23-.25-.52-.37-.85-.37-.16,0-.34,.04-.51,.12-.3,.14-.49,.38-.57,.73-.02,.08-.03,.18-.03,.29,0,.29,.11,.53,.31,.74,.23,.22,.52,.33,.86,.33,.13-.02,.3-.07,.52-.16,.19-.08,.31-.15,.39-.22v1.13h0v.02l.68,.52,.05,.04v-2c.15-.29,.4-.46,.74-.49,.12-.01,.22-.02,.3-.02,.23,0,.36,.06,.39,.18,0,.04,.01,.07,.01,.08v.03c0,.16-.06,.32-.2,.48-.09,.11-.22,.23-.39,.36-.2,.15-.35,.23-.45,.23h-.06l.03,.04,.45,.61v.02h.03c.31-.1,.56-.31,.74-.62,.16-.27,.24-.57,.24-.9,0-.2-.04-.38-.1-.52-.23-.49-.56-.73-.97-.73-.32,0-.58,.1-.78,.31v-1h2.15v3.22h0v.02l.71,.65,.05,.04v-3.93h.74v-.74h-.99c-.07-.18-.23-.44-.5-.8-.4-.53-.81-.83-1.23-.9-.18-.03-.32-.04-.42-.04h0Zm-13,2.46h1.28v1.05c0,.24-.17,.45-.51,.64-.17,.09-.33,.14-.47,.14-.2,0-.3-.1-.3-.3v-1.53h0Zm10.45,1.95c-.13,0-.22-.04-.29-.12h0s-.02-.03-.02-.06c0-.09,.08-.2,.25-.33,.13-.11,.27-.19,.39-.25,.18-.08,.36-.12,.53-.12,.13,0,.28,.03,.44,.09v.22c-.17,.17-.36,.29-.58,.37-.36,.13-.6,.2-.72,.2h0Z"/></g></g></svg>