<?xml version="1.0" encoding="UTF-8"?>
<svg xmlns="http://www.w3.org/2000/svg" viewBox="0 0 169.8 45.27">
    <defs>
        <style>.d{fill:#586aab;}.e{fill:#fff;}.f{fill:#00aedf;}.g{fill:#e081af;}.h{fill:#507281;}.i{fill:#f2cc45;}.j{fill:#72be78;}.k{fill:#009ed4;}.l{fill:#00a668;}.m{opacity:.96;}.n{fill:#777677;isolation:isolate;opacity:.67;}.o{fill:#edb851;}.p{fill:#a04388;}.q{fill:#df81af;}.r{fill:#9f4388;}.s{fill:#b2cf72;}.t{fill:#bc5651;}.u{fill:#c75599;}.v{fill:#517381;}.w{fill:#f2cc44;}.x{fill:#e57271;}.y{fill:#eaa553;}.a`{fill:#c75499;}</style>
    </defs>
    <g id="a" />
    <g id="b">
        <g id="c">
            <g>
                <g class="m">
                    <path class="e" d="M89.49,29.57c-2.2,0-3.92-1.44-4.11-3.73h2.39c.1,1.05,.67,1.53,1.72,1.53,.96,0,1.72-.67,1.72-1.53,0-.48-.19-.96-.57-1.24-.38-.29-.48-.38-2.2-.96-1.63-.67-2.58-1.82-2.58-3.35,0-2.01,1.63-3.54,3.63-3.54s3.54,1.34,3.73,3.54h-2.39c-.1-.86-.57-1.34-1.34-1.34s-1.24,.48-1.24,1.24c0,.48,.19,.86,.67,1.15q.19,.1,1.34,.57c2.49,.96,3.25,2.01,3.25,3.73,0,2.11-1.82,3.92-4.02,3.92Z" />
                    <path class="e" d="M101.25,29.29l-3.82-5.46v5.46h-2.29v-12.44h2.29v5.36l3.82-5.36h2.77l-4.68,6.12,4.68,6.32h-2.77Z" />
                    <path class="e" d="M105.55,29.29v-12.44h2.29v12.44h-2.29Z" />
                    <path class="e" d="M110.23,29.29v-12.44h2.29v10.24h3.82v2.2h-6.12Z" />
                    <path class="e" d="M117.59,29.29v-12.44h2.29v10.24h3.82v2.2h-6.12Z" />
                    <path class="e" d="M96.08,44.98l-1.82-4.21h-5.83l-1.82,4.21h-1.34l5.35-12.44h1.43l5.35,12.44h-1.34Zm-4.68-11.1l-2.49,5.74h4.88l-2.39-5.74Z" />
                    <path class="e" d="M104.31,45.17c-3.73,0-6.5-2.78-6.5-6.41s2.77-6.51,6.41-6.51c2.58,0,4.78,1.34,5.74,3.44h-1.43c-1.05-1.63-2.49-2.3-4.3-2.3-2.96,0-5.26,2.3-5.26,5.26s2.39,5.26,5.26,5.26c1.82,0,3.06-.67,4.3-2.3h1.34c-1.05,2.39-3.06,3.54-5.54,3.54Z" />
                    <path class="e" d="M121.32,44.98l-1.82-4.21h-5.83l-1.82,4.21h-1.34l5.35-12.44h1.43l5.35,12.44h-1.34Zm-4.68-11.1l-2.49,5.74h4.88l-2.39-5.74Z" />
                    <path class="e" d="M127.44,44.98h-3.35v-12.44h2.96c2.3,0,3.54,.29,4.78,.96,1.82,1.05,2.87,2.97,2.87,5.26-.1,3.54-2.39,6.22-7.27,6.22Zm3.63-10.53c-.96-.57-2.1-.77-4.02-.77h-1.72v10.24h1.72c2.2,0,3.44-.29,4.49-1.15,1.15-.96,1.82-2.39,1.82-4.02,0-1.91-.86-3.45-2.29-4.31Z" />
                    <path class="e" d="M136.62,44.98v-12.44h6.79v1.15h-5.54v4.5h5.35v1.15h-5.35v4.59h5.54v1.15h-6.79v-.1Z" />
                    <path class="e" d="M157.37,44.98v-11.1l-4.68,11.1h-1.05l-4.68-11.1v11.1h-1.24v-12.44h1.91l4.49,10.62,4.49-10.62h1.91v12.44h-1.15Z" />
                    <path class="e" d="M165.49,40.77v4.21h-1.24v-4.21l-4.3-8.33h1.34l3.54,6.99,3.63-6.99h1.34l-4.3,8.33Z" />
                </g>
                <path class="e" d="M61.95,45.17H19.6c-3.73,0-6.79-3.06-6.79-6.79V9.28H61.95V45.17Z" />
                <path class="j" d="M31.93,39.14v6.03l-11.95-11.29,6.31-5.93,1.05-.96,.29-.29v12.44h4.3Z" />
                <path class="x" d="M67.88,33.88v11.29h-11.95l11.95-11.29Z" />
                <path class="f" d="M37.67,34.55c-.29,.76-.19,1.63,.29,2.3,.48,.57,1.15,.96,1.82,1.24-.96,.19-2.2,.57-2.96,1.05-.57,.38-1.15,.86-1.53,1.44-.19,.29-.38,.57-.48,.86-.1,.29-.19,.57-.29,.96,0,.19-.1,.38-.1,.57v.1l-2.49,2.2v-6.03h2.39v-14.26l1.24,1.15c.29,3.35,1.91,5.07,5.55,6.12-.1-.1-2.77,.19-3.44,2.3Z" />
                <path class="l" d="M7.84,17.99v4.59l-4.97-4.59H7.84Z" />
                <path class="o" d="M19.98,11.39l-9.66,9V7.75c0-1.53,.48-2.97,1.34-4.12l2.58,2.39,.29,.29,.1,.1,.19,.19,.1,.1,.48,.48,.29,.29,.48,.48,.38,.38,.19,.19,.86,.77,.19,.19,.77,.67,.1,.1,1.34,1.15Z" />
                <path class="w" d="M43.98,.1l-12.05,.1,12.05,11.2L55.93,.19l-11.95-.1Z" />
                <path class="y" d="M55.93,15.89v1.15h-.48v-1.15h.48q-.1,0,0,0Z" />
                <path class="y" d="M55.07,15.6v3.06h.38v-1.34h.48v2.11c-.38,0-.77-.1-1.15-.29-.38-.19-.67-.48-.86-.86-.19-.38-.29-.77-.29-1.15s.1-.77,.29-1.15c.19-.38,.48-.67,.86-.86,.38-.19,.76-.29,1.15-.29v.76h-.1c-.29-.1-.57,0-.76,0Z" />
                <path class="y" d="M55.93,22.68l-5.07-4.79,.48-2.87-4.59-1.43,.48,.86-3.25-3.06L55.93,.1V14.26c-.48,0-.86,.1-1.34,.38-.48,.29-.76,.57-1.05,1.05-.29,.48-.38,.96-.38,1.44s.1,.96,.38,1.43c.29,.48,.57,.77,1.05,1.05,.48,.29,.86,.38,1.34,.38v2.68Z" />
                <path class="f" d="M55.93,17.04v-1.15c.38,0,.67,.19,.67,.57,0,.29-.29,.57-.67,.57Z" />
                <path class="f" d="M55.93,19.52v-2.1c.29,0,.48,.19,.57,.57,.1,.38,.19,.67,.19,.77h.38c-.1-.1-.1-.38-.19-.86-.1-.29-.19-.57-.48-.67,.29-.1,.57-.38,.57-.76,0-.29-.1-.48-.29-.57-.19-.19-.48-.29-.86-.29v-.86c.38,0,.77,.1,1.15,.29,.38,.19,.67,.48,.86,.86,.19,.38,.29,.77,.29,1.15s-.1,.76-.29,1.15c-.19,.38-.48,.67-.86,.86-.29,.29-.67,.48-1.05,.48Z" />
                <path class="f" d="M67.88,11.39l-12.05,11.2v-2.68c.48,0,.96-.1,1.43-.38,.48-.29,.76-.57,1.05-1.05,.29-.48,.38-.96,.38-1.44s-.1-.96-.38-1.44c-.29-.48-.57-.76-1.05-1.05-.48-.29-.96-.38-1.43-.38V0l12.05,11.39Z" />
                <path class="i" d="M19.98,.19V11.48l-1.34-1.24-.1-.1-.77-.67-.19-.19-.86-.77-.19-.19-.38-.38-.48-.48-.29-.38-.48-.48-.1-.1-.19-.19-.1-.1-.29-.29-2.58-2.39C13,1.53,15.2,.19,17.78,.1l2.2,.1Z" />
                <path class="q" d="M31.93,.19l-11.95,11.2V.19h11.95Z" />
                <path class="r" d="M31.93,.19V19.14c-.1-.1-.57-.38-.67-.48l-.1-.1c-.1-.1-.19-.1-.29-.19-.1,0-.1-.1-.19-.1-.48-.19-.86-.38-1.43-.48h-.38c-.1,0-.29,0-.38-.1h-1.91l-6.5-6.12L31.93,.19Z" />
                <path class="o" d="M43.98,11.39l-10.42,9.76c0-.1-.1-.1-.1-.19s-.1-.1-.1-.19-.1-.1-.1-.19-.1-.1-.1-.19c-.1-.19-.29-.38-.38-.57l-.1-.1c-.19-.29-.48-.48-.67-.77V0l11.95,11.39Z" />
                <path class="d" d="M67.88,.19V11.39L55.93,.19h11.95Z" />
                <path class="k" d="M77.63,2.39l-9.66,9.09V.19h4.68c1.91,.1,3.63,.86,4.97,2.2Z" />
                <path class="h" d="M79.93,7.85v14.74l-12.05-11.2,9.66-9.09c1.53,1.43,2.39,3.44,2.39,5.55Z" />
                <path class="j" d="M7.84,22.59v.19L.1,30.05v-12.06H2.87l4.97,4.59Z" />
                <path class="t" d="M7.84,39.14H.1v-6.89l7.74,6.89Z" />
                <path class="t" d="M14.44,39.14l-2.77,2.58c-.67-1.05-1.15-2.2-1.24-3.54v-13.3l3.06,2.78v11.39h.96v.1Z" />
                <path class="d" d="M43.98,16.08c-2.96,1.24-6.88,3.44-8.03,6.6-.48,1.24-.48,2.58-.38,3.06v.19l-1.24-1.15v-.48c0-.38-.1-.76-.19-1.15v-.19c0-.1,0-.19-.1-.29,0-.1,0-.19-.1-.19,0-.1,0-.19-.1-.19-.1-.19-.1-.38-.19-.57v-.1q0-.1-.1-.19c0-.1-.1-.1-.1-.19s-.1-.1-.1-.19l10.42-9.76v4.79h.19Z" />
                <path class="d" d="M43.98,29c-2.29-.77-2.49-3.73-1.91-5.26,.29-.77,.96-1.72,1.91-2.58v7.85Z" />
                <path class="k" d="M47.42,14.83s-1.53,.38-3.44,1.24v-4.69l3.25,3.06,.19,.38Z" />
                <path class="k" d="M55.93,22.68l-1.05,.96v-.1c-.57-1.44-1.62-2.49-2.96-3.25-.76-.48-1.62-.86-2.68-1.15l-4.4,2.97s3.06-.19,4.11,2.2c.96,2.3-.38,5.07-3.73,4.98-.48,0-.86-.1-1.24-.19v-7.85c1.24-1.15,3.15-2.2,5.64-3.06l.96,1.05,.19-1.34,5.16,4.79Z" />
                <path class="v" d="M34.8,45.17h-2.87l2.49-2.3c-.1,.57,.1,1.72,.38,2.3Z" />
                <path class="v" d="M43.98,40.58v4.59h-1.43c-1.34-.38-2.01-1.15-2.01-2.3,0-1.24,1.15-2.11,3.44-2.3Z" />
                <path class="g" d="M67.88,33.88h-23.81c.19-.38,.48-.67,1.72-.77,.86-.1,1.82-.19,2.68-.29,4.49-.77,6.79-2.97,6.79-6.89,0-.76-.19-1.53-.48-2.3v-.1l1.05-.96,.19,.19,11.86,11.1Z" />
                <path class="p" d="M55.93,45.17c.38-.86,.57-1.72,.57-2.68,0-3.44-2.29-5.65-6.79-6.22-1.15-.1-2.1-.19-2.87-.29h-.86l-.1-.1-.1-.1-.1-.1-.1-.1c-.48-.48-1.53-1.53-1.53-1.53,0,0,0-.1,.1-.1h23.81l-12.05,11.2Z" />
                <path class="y" d="M19.98,17.99h-6.69v9.76l-2.96-2.87v-4.4l9.66-9.09v6.6Z" />
                <path class="u" d="M26.48,17.61c-1.62,.1-2.96,.48-4.21,1.24-.1,.1-.19,.1-.29,.19-.1,0-.1,.1-.19,.1s-.1,.1-.19,.1-.1,.1-.19,.1-.1,.1-.19,.1l-.1,.1c-.1,.1-.19,.1-.29,.19q-.1,.1-.19,.19c-.1,0-.1,.1-.19,.1-.1,.1-.19,.19-.29,.19q-.1,.1-.19,.19c-.1,.1-.19,.19-.29,.29V11.48l6.79,6.12Z" />
                <path class="u" d="M27.63,26.6l-.29,.29-1.05,1.05-6.31,5.93v-8.33c.67-1.15,1.43-2.01,2.29-2.58,.1-.1,.19-.1,.29-.19,.29-.19,.57-.29,.86-.38q.1,0,.19-.1c.19,0,.38-.1,.57-.1h1.15c.1,0,.19,0,.29,.1,.1,0,.19,.1,.29,.1s.1,0,.19,.1c.1,0,.19,.1,.19,.1,0,0,.1,0,.1,.1l.1,.1q.1,.1,.19,.19c.67,.77,.96,1.91,.96,3.64Z" />
                <path class="n" d="M27.63,26.6v12.44l-1.43-1.24v-11.96c0-.86-.48-1.72-1.24-2.11-2.1-.96-4.97,1.72-5.07,1.82,.67-1.15,1.43-2.01,2.29-2.58,.1-.1,.19-.1,.29-.19,.29-.19,.57-.29,.86-.38q.1,0,.19-.1c.19,0,.38-.1,.57-.1h1.15c.1,0,.19,0,.29,.1,.1,0,.19,.1,.29,.1s.1,0,.19,.1c.1,0,.19,.1,.19,.1,0,0,.1,0,.1,.1l.1,.1q.1,.1,.19,.19c.77,.77,1.05,1.91,1.05,3.64Z" />
                <path class="x" d="M19.98,39.14v6.03h-2.29c-2.49-.1-4.78-1.44-6.02-3.45l2.77-2.58h5.55Z" />
                <path class="s" d="M31.93,45.17h-11.95v-11.29l11.95,11.29Z" />
                <path class="j" d="M67.88,33.88l-11.95-11.2,11.95-11.29v22.49Z" />
                <path class="l" d="M79.93,22.68l-12.05,11.2V11.39l12.05,11.29Z" />
                <path class="t" d="M77.63,42.97c-1.34,1.24-3.06,2.11-5.07,2.2h-4.59v-11.29l9.66,9.09Z" />
                <path class="s" d="M7.84,22.78v16.37L.1,32.25v-2.2l7.74-7.27Z" />
                <path class="a`" d="M50.48,42.97c0,1.05-.76,1.82-2.2,2.2h-4.4v-4.59c.48-.1,1.05-.1,1.62-.1,3.15,0,4.97,.96,4.97,2.49Z" />
                <path class="s" d="M79.93,37.42c0,2.2-.86,4.12-2.39,5.55l-9.66-9.09,12.05-11.29v14.83Z" />
                <path class="a`" d="M45.99,35.79l-.19-.19-.1-.1-.1-.1-1.53-1.53c0,.19-.57,1.63,1.91,1.91-.1,0,0,0,0,0q0,.1,0,0,0,.1,0,0h.1c0,.1-.1,.1-.1,0Z" />
                <path class="d" d="M3.92,17.13c2.16,0,3.92-1.76,3.92-3.92s-1.76-3.92-3.92-3.92-3.92,1.76-3.92,3.92,1.76,3.92,3.92,3.92Z" />
            </g>
        </g>
    </g>
</svg>