<svg width="88" height="100" viewBox="0 0 88 100" fill="none" xmlns="http://www.w3.org/2000/svg">
<path d="M43.1742 48.7984L44.3215 47.3628L45.5644 48.7984L46.7117 47.3628L47.4765 48.3199L48.2413 47.6499L46.7117 45.7358L45.5644 47.1714L44.3215 45.7358L43.1742 47.1714L42.027 45.7358L40.8797 47.1714L40.1149 46.2144L39.2545 46.8843L40.8797 48.7984L42.027 47.3628L43.1742 48.7984Z" fill="white"/>
<path d="M34.6654 25.3506L34.9522 26.3077L38.5852 25.1592L38.4896 20.8526L39.9237 19.3213L43.7479 20.9483L47.5721 19.3213L49.1018 20.8526L49.0062 25.1592L52.7348 26.3077L53.0216 25.3506L50.0579 24.3936L50.1535 20.374L47.8589 18.1729L43.7479 19.8955L39.7325 18.1729L37.438 20.374L37.5336 24.3936L34.6654 25.3506Z" fill="white"/>
<path d="M32.2753 35.3999L34.283 39.3238L38.4896 38.7496L42.027 37.4097L36.3863 34.2515L32.2753 35.3999ZM38.2028 37.6968L34.8566 38.1753L33.805 36.0698L36.1951 35.3999L39.5413 37.314L38.2028 37.6968Z" fill="white"/>
<path d="M45.5644 37.4097L49.1018 38.7496L53.3084 39.3238L55.3161 35.3999L51.3007 34.2515L45.5644 37.4097ZM53.7864 35.9741L52.7348 38.0796L49.3886 37.6011L48.0501 37.1226L51.3963 35.2085L53.7864 35.9741Z" fill="white"/>
<path d="M64.781 52.7219L64.0162 46.4055L63.825 35.3995L59.4271 36.3565L54.4557 28.6045L44.9908 25.542L45.3732 26.7862L53.7864 29.4659L58.3755 36.6436L56.9414 36.9308L57.9931 40.6632L58.9491 40.3761L58.1843 37.6964L62.7733 36.6436L62.8689 46.4055L63.5382 52.4348L60.9568 53.2961L60.0008 47.1711L58.8535 43.7257L60.192 43.2472V44.6828H61.2437L61.148 41.8117L57.515 43.1515L58.9491 47.3625L59.6184 51.3821L53.1172 58.6556L44.8952 57.8899L44.7995 58.9427L49.3886 59.3255L43.5567 63.6322L37.7248 59.3255L42.3138 58.9427L42.2182 57.8899L33.9962 58.6556L27.495 51.3821L28.1642 47.3625L29.5983 43.1515L25.9653 41.8117L25.8697 44.6828H26.9214V43.2472L28.2599 43.7257L27.1126 47.0754L26.1565 53.2961L23.5752 52.4348L24.2444 46.4055L24.34 36.548L28.9291 37.6007L28.1642 40.2804L29.1203 40.5675L30.172 36.8351L28.7379 36.548L33.3269 29.3702L41.6446 26.6904L42.1226 25.4463L32.6577 28.5088L27.6862 36.2608L23.2884 35.3038L23.0971 46.3098L22.3323 52.6262L13.2498 71.2885L20.4202 67.1732L26.6346 54.7317L26.9214 52.8176L33.1357 59.8997L35.717 59.7083L43.1742 65.0677L50.6315 59.7083L53.2128 59.8997L59.4271 52.8176L59.714 54.7317L65.9283 66.9818L66.0239 67.0775L73.1943 71.1928L64.781 52.7219ZM20.1334 66.4076L16.118 68.7045L23.5752 53.3918L26.1565 54.2532L20.1334 66.4076ZM61.5305 54.3489L64.1118 53.4876L71.569 68.8002L67.5536 66.5033L61.5305 54.3489Z" fill="white"/>
<path d="M42.2182 40.6636L41.8358 39.7065L39.6369 40.5679L37.916 42.8648L40.8797 43.6304L43.6523 44.0132L46.3292 43.6304L49.293 42.8648L47.6677 40.5679L45.3732 39.7065L44.9908 40.6636L46.9985 41.4292L47.5721 42.1948L46.138 42.5777L43.6523 42.9605L41.0709 42.5777L39.7325 42.1948L40.3061 41.4292L42.2182 40.6636Z" fill="white"/>
<path d="M33.3269 53.8707L35.717 56.359L43.7479 54.3492L51.8743 56.359L54.1688 53.8707L55.8897 44.0132L51.3963 42.0991L51.0139 43.0562L54.7425 44.6831L53.2128 53.3922L51.5875 55.2106L43.7479 53.3922L36.0038 55.2106L34.283 53.3922L32.8489 44.6831L36.4819 43.0562L36.0994 42.0991L31.7016 44.0132L33.3269 53.8707Z" fill="white"/>
<path d="M38.9676 44.8745L38.0116 44.4917L35.3347 51.4781L52.1612 51.5738L51.2051 47.7456L50.1535 48.0327L50.8227 50.521L36.7687 50.4253L38.9676 44.8745Z" fill="white"/>
<path d="M70.135 33.3897L71.1866 27.2646L65.3547 29.083L64.303 35.2081L70.135 33.3897ZM66.3108 29.8487L69.8482 28.7002L69.1789 32.5284L65.6415 33.6768L66.3108 29.8487Z" fill="white"/>
<path d="M23.4796 35.2081L22.3323 29.083L16.5004 27.2646L17.5521 33.3897L23.4796 35.2081ZM21.4719 29.9443L22.1411 33.7725L18.6037 32.6241L17.9345 28.7959L21.4719 29.9443Z" fill="white"/>
<path d="M35.717 15.2061L29.5027 11.2822L28.8334 18.7471L35.0478 22.671L35.717 15.2061ZM34.0917 20.9483L29.8851 18.2686L30.3631 13.1006L34.5697 15.7803L34.0917 20.9483Z" fill="white"/>
<path d="M29.5027 29.2745L28.6423 22.4795L22.4279 20.1826L23.2884 26.9776L29.5027 29.2745ZM27.6862 23.2451L28.2598 27.7432L24.2444 26.212L23.6708 21.7139L27.6862 23.2451Z" fill="white"/>
<path d="M58.7579 18.7471L58.0887 11.2822L51.8743 15.2061L52.5436 22.671L58.7579 18.7471ZM57.2282 13.0049L57.7063 18.1729L53.4996 20.8526L53.0216 15.6846L57.2282 13.0049Z" fill="white"/>
<path d="M64.303 26.9776L65.1635 20.1826L58.9491 22.4795L58.0887 29.2745L64.303 26.9776ZM59.8096 23.2451L63.9206 21.8096L63.347 26.3077L59.236 27.7432L59.8096 23.2451Z" fill="white"/>
<path d="M48.5282 8.69831L43.2699 0.850586L38.6808 9.46394L43.9391 17.3117L48.5282 8.69831ZM39.9237 9.36823L43.4611 2.76467L47.4765 8.69831L43.9391 15.3019L39.9237 9.36823Z" fill="white"/>
<path d="M43.7479 24.585L39.8281 33.0069L43.7479 35.9737L47.6677 33.0069L43.7479 24.585ZM41.4534 32.7198L43.8435 27.3604L46.2336 32.7198L43.8435 34.5382L41.4534 32.7198Z" fill="#F15A25"/>
<path d="M9.52122 99.9997L0.534332 79.0405H3.9761C3.9761 79.0405 9.42562 92.5348 9.61683 93.0133C9.71244 92.5348 15.2575 79.0405 15.2575 79.0405H18.6037L9.52122 99.9997Z" fill="white"/>
<path d="M31.9885 99.1383V78.9448H35.239V99.1383H31.9885Z" fill="white"/>
<path d="M41.6446 90.1422V99.1384H38.5852V78.9448H43.1742C44.5127 78.9448 45.5644 79.0405 46.3292 79.2319C47.0941 79.4233 47.6677 79.7105 48.2413 80.0933C48.9106 80.5718 49.3886 81.2417 49.6754 82.0073C50.0578 82.773 50.1534 83.6343 50.1534 84.5914C50.1534 86.2183 49.771 87.4625 49.0062 88.4195C48.2413 89.3765 47.0941 89.8551 45.5644 90.0465L52.5436 99.2341H48.815L41.6446 90.1422ZM41.8358 87.5582H42.4094C44.1303 87.5582 45.2776 87.3668 45.8512 86.984C46.4248 86.6011 46.7117 85.8355 46.7117 84.8785C46.7117 83.73 46.4248 82.9644 45.7556 82.4859C45.182 82.0073 44.0347 81.8159 42.3138 81.8159H41.7402V87.5582H41.8358Z" fill="white"/>
<path d="M69.0833 99.1384L66.7888 93.9704H58.7579L56.4634 99.1384H53.0216L62.7733 78.1792L72.5251 99.1384H69.0833ZM60.0008 91.2906H65.6415C65.6415 91.2906 62.9645 84.8785 62.7733 84.4C62.7733 84.7828 60.0008 91.2906 60.0008 91.2906Z" fill="white"/>
<path d="M78.0701 99.9997L69.0833 79.0405H72.525C72.525 79.0405 77.9745 92.5348 78.1658 93.0133C78.2614 92.5348 83.8065 79.0405 83.8065 79.0405H87.1526L78.0701 99.9997Z" fill="white"/>
<path d="M22.1411 78.1792L14.6839 94.1618L22.1411 99.904L29.5983 94.1618L22.1411 78.1792ZM17.5521 93.6832L22.1411 83.5386L26.7302 93.6832L22.1411 97.0329L17.5521 93.6832Z" fill="#F15A25"/>
<path opacity="0.75" d="M26.6346 93.6836L22.1411 97.0332V100L29.5027 94.2578L26.6346 93.6836Z" fill="#221F1F"/>
<path opacity="0.45" d="M17.5521 93.6836L22.1411 97.0332V100L14.6839 94.2578L17.5521 93.6836Z" fill="#221F1F"/>
<path opacity="0.3" d="M22.1411 78.1792V83.4429L26.6346 93.6832L29.5027 94.2575L22.1411 78.1792Z" fill="#221F1F"/>
</svg>
